G75*
%MOIN*%
%OFA0B0*%
%FSLAX25Y25*%
%IPPOS*%
%LPD*%
%AMOC8*
5,1,8,0,0,1.08239X$1,22.5*
%
%ADD10OC8,0.06000*%
%ADD11R,0.04331X0.03937*%
%ADD12R,0.02756X0.03543*%
%ADD13R,0.09449X0.09449*%
%ADD14OC8,0.06600*%
%ADD15C,0.06000*%
%ADD16OC8,0.05600*%
%ADD17C,0.02000*%
%ADD18C,0.02978*%
%ADD19C,0.01600*%
%ADD20C,0.01000*%
%ADD21C,0.05000*%
%ADD22C,0.03200*%
%ADD23C,0.00600*%
%ADD24C,0.02400*%
D10*
X0091300Y0206300D03*
X0091300Y0216300D03*
D11*
X0088269Y0247481D03*
X0088269Y0255001D03*
X0104213Y0255001D03*
X0104213Y0247481D03*
X0123269Y0247481D03*
X0123269Y0255001D03*
X0139213Y0255001D03*
X0139213Y0247481D03*
X0158269Y0247481D03*
X0158269Y0255001D03*
X0174213Y0255001D03*
X0174213Y0247481D03*
X0193269Y0247481D03*
X0193269Y0255001D03*
X0209213Y0255001D03*
X0209213Y0247481D03*
X0228269Y0247481D03*
X0228269Y0255001D03*
X0244213Y0255001D03*
X0244213Y0247481D03*
X0263269Y0247481D03*
X0263269Y0255001D03*
X0279213Y0255001D03*
X0279213Y0247481D03*
D12*
X0278859Y0241300D03*
X0273741Y0241300D03*
X0266359Y0241300D03*
X0261241Y0241300D03*
X0243859Y0241300D03*
X0238741Y0241300D03*
X0231359Y0241300D03*
X0226241Y0241300D03*
X0208859Y0241300D03*
X0203741Y0241300D03*
X0196359Y0241300D03*
X0191241Y0241300D03*
X0173859Y0241300D03*
X0168741Y0241300D03*
X0161359Y0241300D03*
X0156241Y0241300D03*
X0138859Y0241300D03*
X0133741Y0241300D03*
X0126359Y0241300D03*
X0121241Y0241300D03*
X0103859Y0241300D03*
X0098741Y0241300D03*
X0091359Y0241300D03*
X0086241Y0241300D03*
D13*
X0145139Y0073800D03*
X0162461Y0073800D03*
X0162461Y0053800D03*
X0145139Y0053800D03*
X0205139Y0053800D03*
X0222461Y0053800D03*
X0222461Y0073800D03*
X0205139Y0073800D03*
D14*
X0193800Y0073800D03*
X0173800Y0073800D03*
X0173800Y0053800D03*
X0193800Y0053800D03*
X0148800Y0191300D03*
X0148800Y0201300D03*
X0148800Y0211300D03*
X0148800Y0221300D03*
D15*
X0248000Y0227700D02*
X0254000Y0227700D01*
X0254000Y0209900D02*
X0248000Y0209900D01*
X0248000Y0197700D02*
X0254000Y0197700D01*
X0254000Y0179900D02*
X0248000Y0179900D01*
X0273600Y0179900D02*
X0279600Y0179900D01*
X0279600Y0197700D02*
X0273600Y0197700D01*
X0273600Y0209900D02*
X0279600Y0209900D01*
X0279600Y0227700D02*
X0273600Y0227700D01*
D16*
X0260591Y0141910D03*
X0250591Y0141910D03*
X0240591Y0141910D03*
X0230591Y0141910D03*
X0220591Y0141910D03*
X0220591Y0131910D03*
X0230591Y0131910D03*
X0240591Y0131910D03*
X0250591Y0131910D03*
X0260591Y0131910D03*
D17*
X0168741Y0196241D02*
X0163800Y0191300D01*
X0148800Y0191300D01*
X0168741Y0196241D02*
X0168741Y0236925D01*
X0203741Y0236925D01*
X0238741Y0236925D01*
X0263741Y0236925D01*
X0266359Y0236925D01*
X0266359Y0241300D01*
X0273741Y0241300D01*
X0278859Y0241300D02*
X0278859Y0247481D01*
X0279213Y0247481D01*
X0271300Y0247481D02*
X0271300Y0255001D01*
X0279213Y0255001D01*
X0279213Y0260050D01*
X0244213Y0260050D01*
X0244213Y0255001D01*
X0236300Y0255001D01*
X0236300Y0247481D01*
X0228269Y0247481D01*
X0226241Y0241300D02*
X0221300Y0241300D01*
X0221300Y0255001D01*
X0228269Y0255001D01*
X0244213Y0260050D02*
X0209213Y0260050D01*
X0209213Y0255001D01*
X0201300Y0255001D01*
X0201300Y0247481D01*
X0193269Y0247481D01*
X0191241Y0241300D02*
X0186300Y0241300D01*
X0186300Y0255001D01*
X0193269Y0255001D01*
X0209213Y0260050D02*
X0174213Y0260050D01*
X0174213Y0255001D01*
X0166300Y0255001D01*
X0166300Y0247481D01*
X0158269Y0247481D01*
X0156241Y0241300D02*
X0151300Y0241300D01*
X0151300Y0255001D01*
X0158269Y0255001D01*
X0146300Y0253800D02*
X0146300Y0260050D01*
X0174213Y0260050D01*
X0174213Y0247481D02*
X0173859Y0247481D01*
X0173859Y0241300D01*
X0168741Y0241300D02*
X0168741Y0236925D01*
X0133741Y0236925D01*
X0098741Y0236925D01*
X0098741Y0241300D01*
X0091359Y0241300D01*
X0086241Y0241300D02*
X0081300Y0241300D01*
X0081300Y0255001D01*
X0088269Y0255001D01*
X0088269Y0247481D02*
X0096300Y0247481D01*
X0096300Y0255001D01*
X0104213Y0255001D01*
X0104213Y0260050D01*
X0139213Y0260050D01*
X0146300Y0260050D01*
X0139213Y0260050D02*
X0139213Y0255001D01*
X0131300Y0255001D01*
X0131300Y0247481D01*
X0123269Y0247481D01*
X0121241Y0241300D02*
X0116300Y0241300D01*
X0116300Y0255001D01*
X0123269Y0255001D01*
X0138859Y0247481D02*
X0138859Y0241300D01*
X0133741Y0241300D02*
X0133741Y0236925D01*
X0133741Y0241300D02*
X0126359Y0241300D01*
X0138859Y0247481D02*
X0139213Y0247481D01*
X0161359Y0241300D02*
X0168741Y0241300D01*
X0196359Y0241300D02*
X0203741Y0241300D01*
X0203741Y0236925D01*
X0208859Y0241300D02*
X0208859Y0247481D01*
X0209213Y0247481D01*
X0231359Y0241300D02*
X0238741Y0241300D01*
X0238741Y0236925D01*
X0243859Y0241300D02*
X0243859Y0247481D01*
X0244213Y0247481D01*
X0256300Y0241300D02*
X0256300Y0255001D01*
X0263269Y0255001D01*
X0263269Y0247481D02*
X0271300Y0247481D01*
X0261241Y0241300D02*
X0256300Y0241300D01*
X0263741Y0236925D02*
X0263741Y0233800D01*
X0263800Y0233800D01*
X0104213Y0247481D02*
X0103859Y0247481D01*
X0103859Y0241300D01*
D18*
X0112550Y0241300D03*
X0112550Y0231300D03*
X0146300Y0253800D03*
X0147550Y0241300D03*
X0162550Y0232550D03*
X0162550Y0227550D03*
X0182550Y0241300D03*
X0217550Y0241300D03*
X0228800Y0218800D03*
X0223800Y0215050D03*
X0220050Y0210050D03*
X0220050Y0201300D03*
X0210050Y0200050D03*
X0202550Y0191300D03*
X0206300Y0180050D03*
X0206300Y0168800D03*
X0222550Y0168800D03*
X0221300Y0161300D03*
X0212550Y0150811D03*
X0222550Y0180050D03*
X0236300Y0191300D03*
X0261300Y0188800D03*
X0263800Y0233800D03*
X0253800Y0241300D03*
X0188800Y0180050D03*
X0181300Y0180050D03*
X0173800Y0180050D03*
X0166300Y0180050D03*
X0158800Y0180050D03*
X0150050Y0180050D03*
X0212550Y0107550D03*
X0186300Y0088800D03*
X0180050Y0080050D03*
X0133800Y0073800D03*
X0133800Y0063800D03*
X0230050Y0063800D03*
D19*
X0222550Y0168800D02*
X0206300Y0168800D01*
X0206300Y0180050D02*
X0222550Y0180050D01*
X0188800Y0180050D02*
X0177550Y0191300D01*
X0148800Y0191300D01*
X0168800Y0236866D02*
X0168741Y0236925D01*
D20*
X0162550Y0232550D02*
X0162550Y0231300D01*
X0112550Y0231300D01*
X0112550Y0241300D02*
X0116300Y0241300D01*
X0099838Y0227550D02*
X0162550Y0227550D01*
X0151300Y0241300D02*
X0147550Y0241300D01*
X0151300Y0241300D02*
X0151300Y0242550D01*
X0182550Y0241300D02*
X0186300Y0241300D01*
X0217550Y0241300D02*
X0221300Y0241300D01*
X0228800Y0218800D02*
X0228800Y0216300D01*
X0231300Y0213800D01*
X0247400Y0213800D01*
X0251300Y0209900D01*
X0256300Y0203800D02*
X0230050Y0203800D01*
X0223800Y0210050D01*
X0223800Y0215050D01*
X0220050Y0210050D02*
X0220050Y0206300D01*
X0230050Y0196300D01*
X0238800Y0196300D01*
X0251000Y0184100D01*
X0251000Y0179900D01*
X0276600Y0179900D01*
X0261300Y0188800D02*
X0261300Y0198800D01*
X0256300Y0203800D01*
X0265050Y0197700D02*
X0265050Y0227700D01*
X0276600Y0227700D01*
X0265050Y0227700D02*
X0251000Y0227700D01*
X0253800Y0241300D02*
X0256300Y0241300D01*
X0220050Y0201300D02*
X0221300Y0200050D01*
X0221300Y0186300D01*
X0228800Y0178800D01*
X0228800Y0173800D01*
X0258091Y0144509D01*
X0260591Y0141910D01*
X0254891Y0143691D02*
X0254891Y0137610D01*
X0260591Y0131910D01*
X0261300Y0126300D02*
X0238800Y0126300D01*
X0235050Y0130050D01*
X0235050Y0137452D01*
X0230591Y0141910D01*
X0212550Y0150811D02*
X0212550Y0107550D01*
X0252372Y0146210D02*
X0254891Y0143691D01*
X0252372Y0146210D02*
X0251390Y0146210D01*
X0251300Y0146300D01*
X0250050Y0146300D01*
X0222550Y0173800D01*
X0222550Y0180050D01*
X0222550Y0173800D02*
X0222550Y0173533D01*
X0221300Y0161300D02*
X0183800Y0161300D01*
X0166300Y0178800D01*
X0166300Y0180050D01*
X0170811Y0181288D02*
X0170811Y0178812D01*
X0175323Y0174300D01*
X0193378Y0174300D01*
X0205539Y0186461D01*
X0205539Y0192538D01*
X0210050Y0197049D01*
X0210050Y0200050D01*
X0202550Y0191300D02*
X0202550Y0186300D01*
X0192550Y0176300D01*
X0177550Y0176300D01*
X0173800Y0180050D01*
X0172562Y0183039D02*
X0170811Y0181288D01*
X0172562Y0183039D02*
X0175038Y0183039D01*
X0178027Y0180050D01*
X0181300Y0180050D01*
X0236300Y0173800D02*
X0266300Y0143800D01*
X0266300Y0131300D01*
X0261300Y0126300D01*
X0236300Y0173800D02*
X0236300Y0191300D01*
X0265050Y0197700D02*
X0276600Y0197700D01*
X0099838Y0227550D02*
X0088481Y0238907D01*
X0088481Y0239060D01*
X0086241Y0241300D01*
D21*
X0133800Y0211300D02*
X0133800Y0073800D01*
X0133800Y0063800D02*
X0145139Y0063800D01*
X0222461Y0063800D01*
X0222461Y0073800D01*
X0222461Y0063800D02*
X0222461Y0053800D01*
X0205139Y0053800D02*
X0193800Y0053800D01*
X0173800Y0053800D02*
X0162461Y0053800D01*
X0145139Y0053800D02*
X0145139Y0063800D01*
X0145139Y0073800D01*
X0162461Y0073800D02*
X0173800Y0073800D01*
X0193800Y0073800D02*
X0205139Y0073800D01*
X0148800Y0211300D02*
X0133800Y0211300D01*
D22*
X0150050Y0180050D02*
X0200050Y0130050D01*
X0200050Y0105050D01*
X0195050Y0100050D01*
X0180050Y0100050D01*
X0173800Y0093800D01*
X0173800Y0073800D01*
X0180050Y0080050D02*
X0180050Y0092550D01*
X0182550Y0095050D01*
X0197550Y0095050D01*
X0205050Y0102550D01*
X0205050Y0133800D01*
X0158800Y0180050D01*
X0186300Y0088800D02*
X0193800Y0081300D01*
X0193800Y0073800D01*
X0222461Y0063800D02*
X0230050Y0063800D01*
D23*
X0073100Y0102019D02*
X0073100Y0023100D01*
X0294500Y0023100D01*
X0294500Y0102019D01*
X0281215Y0115303D01*
X0281030Y0115402D01*
X0280615Y0115904D01*
X0280155Y0116364D01*
X0280074Y0116559D01*
X0279940Y0116721D01*
X0279749Y0117343D01*
X0279500Y0117945D01*
X0279500Y0118155D01*
X0279438Y0118356D01*
X0279500Y0119004D01*
X0279500Y0119655D01*
X0279581Y0119850D01*
X0289500Y0224004D01*
X0289500Y0224655D01*
X0289581Y0224850D01*
X0289600Y0225059D01*
X0289905Y0225634D01*
X0290155Y0226236D01*
X0290303Y0226385D01*
X0290402Y0226570D01*
X0290904Y0226985D01*
X0291364Y0227445D01*
X0291559Y0227526D01*
X0291721Y0227660D01*
X0292343Y0227851D01*
X0292945Y0228100D01*
X0293155Y0228100D01*
X0293356Y0228162D01*
X0294004Y0228100D01*
X0294655Y0228100D01*
X0294850Y0228019D01*
X0295059Y0228000D01*
X0295634Y0227694D01*
X0296236Y0227445D01*
X0296385Y0227297D01*
X0296570Y0227198D01*
X0296985Y0226696D01*
X0318800Y0204881D01*
X0337719Y0223800D01*
X0296618Y0264900D01*
X0183800Y0291879D01*
X0070982Y0264900D01*
X0029881Y0223800D01*
X0048800Y0204881D01*
X0070615Y0226696D01*
X0071030Y0227198D01*
X0071215Y0227297D01*
X0071364Y0227445D01*
X0071966Y0227694D01*
X0072541Y0228000D01*
X0072750Y0228019D01*
X0072945Y0228100D01*
X0073596Y0228100D01*
X0074244Y0228162D01*
X0074445Y0228100D01*
X0074655Y0228100D01*
X0075257Y0227851D01*
X0075879Y0227660D01*
X0076041Y0227526D01*
X0076236Y0227445D01*
X0076696Y0226985D01*
X0077198Y0226570D01*
X0077297Y0226385D01*
X0077445Y0226236D01*
X0077694Y0225634D01*
X0078000Y0225059D01*
X0078019Y0224850D01*
X0078100Y0224655D01*
X0078100Y0224004D01*
X0088019Y0119850D01*
X0088100Y0119655D01*
X0088100Y0119004D01*
X0088162Y0118356D01*
X0088100Y0118155D01*
X0088100Y0117945D01*
X0087851Y0117343D01*
X0087660Y0116721D01*
X0087526Y0116559D01*
X0087445Y0116364D01*
X0086985Y0115904D01*
X0086570Y0115402D01*
X0086385Y0115303D01*
X0073100Y0102019D01*
X0073100Y0101993D02*
X0077580Y0101993D01*
X0077534Y0101966D02*
X0075634Y0100066D01*
X0074290Y0097739D01*
X0073594Y0095144D01*
X0073594Y0092456D01*
X0074290Y0089861D01*
X0075634Y0087534D01*
X0077534Y0085634D01*
X0079861Y0084290D01*
X0082456Y0083594D01*
X0085144Y0083594D01*
X0087739Y0084290D01*
X0090066Y0085634D01*
X0091966Y0087534D01*
X0093310Y0089861D01*
X0094005Y0092456D01*
X0094005Y0095144D01*
X0093310Y0097739D01*
X0091966Y0100066D01*
X0090066Y0101966D01*
X0087739Y0103310D01*
X0085144Y0104005D01*
X0082456Y0104005D01*
X0079861Y0103310D01*
X0077534Y0101966D01*
X0076962Y0101395D02*
X0073100Y0101395D01*
X0073100Y0100796D02*
X0076363Y0100796D01*
X0075765Y0100198D02*
X0073100Y0100198D01*
X0073100Y0099599D02*
X0075364Y0099599D01*
X0075018Y0099001D02*
X0073100Y0099001D01*
X0073100Y0098402D02*
X0074673Y0098402D01*
X0074327Y0097803D02*
X0073100Y0097803D01*
X0073100Y0097205D02*
X0074147Y0097205D01*
X0073986Y0096606D02*
X0073100Y0096606D01*
X0073100Y0096008D02*
X0073826Y0096008D01*
X0073666Y0095409D02*
X0073100Y0095409D01*
X0073100Y0094811D02*
X0073594Y0094811D01*
X0073594Y0094212D02*
X0073100Y0094212D01*
X0073100Y0093614D02*
X0073594Y0093614D01*
X0073594Y0093015D02*
X0073100Y0093015D01*
X0073100Y0092417D02*
X0073605Y0092417D01*
X0073765Y0091818D02*
X0073100Y0091818D01*
X0073100Y0091220D02*
X0073926Y0091220D01*
X0074086Y0090621D02*
X0073100Y0090621D01*
X0073100Y0090023D02*
X0074247Y0090023D01*
X0074542Y0089424D02*
X0073100Y0089424D01*
X0073100Y0088826D02*
X0074888Y0088826D01*
X0075233Y0088227D02*
X0073100Y0088227D01*
X0073100Y0087629D02*
X0075579Y0087629D01*
X0076137Y0087030D02*
X0073100Y0087030D01*
X0073100Y0086432D02*
X0076735Y0086432D01*
X0077334Y0085833D02*
X0073100Y0085833D01*
X0073100Y0085235D02*
X0078224Y0085235D01*
X0079261Y0084636D02*
X0073100Y0084636D01*
X0073100Y0084038D02*
X0080802Y0084038D01*
X0086798Y0084038D02*
X0129500Y0084038D01*
X0129500Y0084636D02*
X0088339Y0084636D01*
X0089376Y0085235D02*
X0129500Y0085235D01*
X0129500Y0085833D02*
X0090266Y0085833D01*
X0090865Y0086432D02*
X0129500Y0086432D01*
X0129500Y0087030D02*
X0091463Y0087030D01*
X0092021Y0087629D02*
X0129500Y0087629D01*
X0129500Y0088227D02*
X0092367Y0088227D01*
X0092712Y0088826D02*
X0129500Y0088826D01*
X0129500Y0089424D02*
X0093058Y0089424D01*
X0093353Y0090023D02*
X0129500Y0090023D01*
X0129500Y0090621D02*
X0093514Y0090621D01*
X0093674Y0091220D02*
X0129500Y0091220D01*
X0129500Y0091818D02*
X0093835Y0091818D01*
X0093995Y0092417D02*
X0129500Y0092417D01*
X0129500Y0093015D02*
X0094005Y0093015D01*
X0094005Y0093614D02*
X0129500Y0093614D01*
X0129500Y0094212D02*
X0094005Y0094212D01*
X0094005Y0094811D02*
X0129500Y0094811D01*
X0129500Y0095409D02*
X0093934Y0095409D01*
X0093774Y0096008D02*
X0129500Y0096008D01*
X0129500Y0096606D02*
X0093614Y0096606D01*
X0093453Y0097205D02*
X0129500Y0097205D01*
X0129500Y0097803D02*
X0093273Y0097803D01*
X0092927Y0098402D02*
X0129500Y0098402D01*
X0129500Y0099001D02*
X0092582Y0099001D01*
X0092236Y0099599D02*
X0129500Y0099599D01*
X0129500Y0100198D02*
X0091835Y0100198D01*
X0091237Y0100796D02*
X0129500Y0100796D01*
X0129500Y0101395D02*
X0090638Y0101395D01*
X0090020Y0101993D02*
X0129500Y0101993D01*
X0129500Y0102592D02*
X0088984Y0102592D01*
X0087947Y0103190D02*
X0129500Y0103190D01*
X0129500Y0103789D02*
X0085953Y0103789D01*
X0081647Y0103789D02*
X0074870Y0103789D01*
X0075468Y0104387D02*
X0129500Y0104387D01*
X0129500Y0104986D02*
X0076067Y0104986D01*
X0076665Y0105584D02*
X0129500Y0105584D01*
X0129500Y0106183D02*
X0077264Y0106183D01*
X0077862Y0106781D02*
X0129500Y0106781D01*
X0129500Y0107380D02*
X0078461Y0107380D01*
X0079059Y0107978D02*
X0129500Y0107978D01*
X0129500Y0108577D02*
X0079658Y0108577D01*
X0080256Y0109175D02*
X0129500Y0109175D01*
X0129500Y0109774D02*
X0080855Y0109774D01*
X0081453Y0110372D02*
X0129500Y0110372D01*
X0129500Y0110971D02*
X0082052Y0110971D01*
X0082650Y0111569D02*
X0129500Y0111569D01*
X0129500Y0112168D02*
X0083249Y0112168D01*
X0083847Y0112766D02*
X0129500Y0112766D01*
X0129500Y0113365D02*
X0084446Y0113365D01*
X0085044Y0113963D02*
X0129500Y0113963D01*
X0129500Y0114562D02*
X0085643Y0114562D01*
X0086241Y0115160D02*
X0129500Y0115160D01*
X0129500Y0115759D02*
X0086865Y0115759D01*
X0087438Y0116357D02*
X0129500Y0116357D01*
X0129500Y0116956D02*
X0087732Y0116956D01*
X0087938Y0117554D02*
X0129500Y0117554D01*
X0129500Y0118153D02*
X0088100Y0118153D01*
X0088124Y0118751D02*
X0129500Y0118751D01*
X0129500Y0119350D02*
X0088100Y0119350D01*
X0088010Y0119948D02*
X0129500Y0119948D01*
X0129500Y0120547D02*
X0087953Y0120547D01*
X0087896Y0121145D02*
X0129500Y0121145D01*
X0129500Y0121744D02*
X0087839Y0121744D01*
X0087782Y0122342D02*
X0129500Y0122342D01*
X0129500Y0122941D02*
X0087725Y0122941D01*
X0087668Y0123539D02*
X0129500Y0123539D01*
X0129500Y0124138D02*
X0087611Y0124138D01*
X0087554Y0124737D02*
X0129500Y0124737D01*
X0129500Y0125335D02*
X0087497Y0125335D01*
X0087440Y0125934D02*
X0129500Y0125934D01*
X0129500Y0126532D02*
X0087383Y0126532D01*
X0087326Y0127131D02*
X0129500Y0127131D01*
X0129500Y0127729D02*
X0087269Y0127729D01*
X0087212Y0128328D02*
X0129500Y0128328D01*
X0129500Y0128926D02*
X0087155Y0128926D01*
X0087098Y0129525D02*
X0129500Y0129525D01*
X0129500Y0130123D02*
X0087041Y0130123D01*
X0086984Y0130722D02*
X0129500Y0130722D01*
X0129500Y0131320D02*
X0086927Y0131320D01*
X0086870Y0131919D02*
X0129500Y0131919D01*
X0129500Y0132517D02*
X0086813Y0132517D01*
X0086756Y0133116D02*
X0129500Y0133116D01*
X0129500Y0133714D02*
X0086699Y0133714D01*
X0086642Y0134313D02*
X0129500Y0134313D01*
X0129500Y0134911D02*
X0086585Y0134911D01*
X0086528Y0135510D02*
X0129500Y0135510D01*
X0129500Y0136108D02*
X0086471Y0136108D01*
X0086414Y0136707D02*
X0129500Y0136707D01*
X0129500Y0137305D02*
X0086357Y0137305D01*
X0086300Y0137904D02*
X0129500Y0137904D01*
X0129500Y0138502D02*
X0086243Y0138502D01*
X0086186Y0139101D02*
X0129500Y0139101D01*
X0129500Y0139699D02*
X0086129Y0139699D01*
X0086072Y0140298D02*
X0129500Y0140298D01*
X0129500Y0140896D02*
X0086015Y0140896D01*
X0085958Y0141495D02*
X0129500Y0141495D01*
X0129500Y0142093D02*
X0085901Y0142093D01*
X0085844Y0142692D02*
X0129500Y0142692D01*
X0129500Y0143290D02*
X0085787Y0143290D01*
X0085730Y0143889D02*
X0129500Y0143889D01*
X0129500Y0144487D02*
X0085673Y0144487D01*
X0085616Y0145086D02*
X0129500Y0145086D01*
X0129500Y0145684D02*
X0085559Y0145684D01*
X0085502Y0146283D02*
X0129500Y0146283D01*
X0129500Y0146881D02*
X0085445Y0146881D01*
X0085388Y0147480D02*
X0129500Y0147480D01*
X0129500Y0148078D02*
X0085331Y0148078D01*
X0085274Y0148677D02*
X0129500Y0148677D01*
X0129500Y0149275D02*
X0085217Y0149275D01*
X0085160Y0149874D02*
X0129500Y0149874D01*
X0129500Y0150472D02*
X0085103Y0150472D01*
X0085046Y0151071D02*
X0129500Y0151071D01*
X0129500Y0151670D02*
X0084989Y0151670D01*
X0084932Y0152268D02*
X0129500Y0152268D01*
X0129500Y0152867D02*
X0084875Y0152867D01*
X0084818Y0153465D02*
X0129500Y0153465D01*
X0129500Y0154064D02*
X0084761Y0154064D01*
X0084704Y0154662D02*
X0129500Y0154662D01*
X0129500Y0155261D02*
X0084647Y0155261D01*
X0084590Y0155859D02*
X0129500Y0155859D01*
X0129500Y0156458D02*
X0084533Y0156458D01*
X0084476Y0157056D02*
X0129500Y0157056D01*
X0129500Y0157655D02*
X0084419Y0157655D01*
X0084362Y0158253D02*
X0129500Y0158253D01*
X0129500Y0158852D02*
X0084305Y0158852D01*
X0084248Y0159450D02*
X0129500Y0159450D01*
X0129500Y0160049D02*
X0084191Y0160049D01*
X0084134Y0160647D02*
X0129500Y0160647D01*
X0129500Y0161246D02*
X0084077Y0161246D01*
X0084020Y0161844D02*
X0129500Y0161844D01*
X0129500Y0162443D02*
X0083963Y0162443D01*
X0083906Y0163041D02*
X0129500Y0163041D01*
X0129500Y0163640D02*
X0083849Y0163640D01*
X0083792Y0164238D02*
X0129500Y0164238D01*
X0129500Y0164837D02*
X0083735Y0164837D01*
X0083678Y0165435D02*
X0129500Y0165435D01*
X0129500Y0166034D02*
X0083621Y0166034D01*
X0083564Y0166632D02*
X0129500Y0166632D01*
X0129500Y0167231D02*
X0083507Y0167231D01*
X0083450Y0167829D02*
X0129500Y0167829D01*
X0129500Y0168428D02*
X0083393Y0168428D01*
X0083336Y0169026D02*
X0129500Y0169026D01*
X0129500Y0169625D02*
X0083279Y0169625D01*
X0083222Y0170223D02*
X0129500Y0170223D01*
X0129500Y0170822D02*
X0083165Y0170822D01*
X0083108Y0171420D02*
X0129500Y0171420D01*
X0129500Y0172019D02*
X0083051Y0172019D01*
X0082994Y0172617D02*
X0129500Y0172617D01*
X0129500Y0173216D02*
X0082937Y0173216D01*
X0082880Y0173814D02*
X0129500Y0173814D01*
X0129500Y0174413D02*
X0082823Y0174413D01*
X0082766Y0175011D02*
X0129500Y0175011D01*
X0129500Y0175610D02*
X0082709Y0175610D01*
X0082652Y0176208D02*
X0129500Y0176208D01*
X0129500Y0176807D02*
X0082595Y0176807D01*
X0082538Y0177405D02*
X0129500Y0177405D01*
X0129500Y0178004D02*
X0082481Y0178004D01*
X0082424Y0178603D02*
X0129500Y0178603D01*
X0129500Y0179201D02*
X0082367Y0179201D01*
X0082310Y0179800D02*
X0129500Y0179800D01*
X0129500Y0180398D02*
X0082253Y0180398D01*
X0082196Y0180997D02*
X0129500Y0180997D01*
X0129500Y0181595D02*
X0082139Y0181595D01*
X0082082Y0182194D02*
X0129500Y0182194D01*
X0129500Y0182792D02*
X0082025Y0182792D01*
X0081968Y0183391D02*
X0129500Y0183391D01*
X0129500Y0183989D02*
X0081911Y0183989D01*
X0081854Y0184588D02*
X0129500Y0184588D01*
X0129500Y0185186D02*
X0081797Y0185186D01*
X0081740Y0185785D02*
X0129500Y0185785D01*
X0129500Y0186383D02*
X0081683Y0186383D01*
X0081626Y0186982D02*
X0129500Y0186982D01*
X0129500Y0187580D02*
X0081569Y0187580D01*
X0081512Y0188179D02*
X0129500Y0188179D01*
X0129500Y0188777D02*
X0081455Y0188777D01*
X0081398Y0189376D02*
X0129500Y0189376D01*
X0129500Y0189974D02*
X0081341Y0189974D01*
X0081284Y0190573D02*
X0129500Y0190573D01*
X0129500Y0191171D02*
X0081227Y0191171D01*
X0081170Y0191770D02*
X0129500Y0191770D01*
X0129500Y0192368D02*
X0081113Y0192368D01*
X0081056Y0192967D02*
X0129500Y0192967D01*
X0129500Y0193565D02*
X0080999Y0193565D01*
X0080942Y0194164D02*
X0129500Y0194164D01*
X0129500Y0194762D02*
X0080885Y0194762D01*
X0080828Y0195361D02*
X0129500Y0195361D01*
X0129500Y0195959D02*
X0080771Y0195959D01*
X0080714Y0196558D02*
X0129500Y0196558D01*
X0129500Y0197156D02*
X0080657Y0197156D01*
X0080600Y0197755D02*
X0129500Y0197755D01*
X0129500Y0198353D02*
X0080543Y0198353D01*
X0080486Y0198952D02*
X0129500Y0198952D01*
X0129500Y0199550D02*
X0080429Y0199550D01*
X0080372Y0200149D02*
X0129500Y0200149D01*
X0129500Y0200747D02*
X0080315Y0200747D01*
X0080258Y0201346D02*
X0129500Y0201346D01*
X0129500Y0201944D02*
X0080201Y0201944D01*
X0080144Y0202543D02*
X0088976Y0202543D01*
X0089519Y0202000D02*
X0091000Y0202000D01*
X0091000Y0206000D01*
X0091600Y0206000D01*
X0091600Y0206600D01*
X0095600Y0206600D01*
X0095600Y0208081D01*
X0093081Y0210600D01*
X0091600Y0210600D01*
X0091600Y0206600D01*
X0091000Y0206600D01*
X0091000Y0210600D01*
X0089519Y0210600D01*
X0087000Y0208081D01*
X0087000Y0206600D01*
X0091000Y0206600D01*
X0091000Y0206000D01*
X0087000Y0206000D01*
X0087000Y0204519D01*
X0089519Y0202000D01*
X0091000Y0202543D02*
X0091600Y0202543D01*
X0091600Y0202000D02*
X0093081Y0202000D01*
X0095600Y0204519D01*
X0095600Y0206000D01*
X0091600Y0206000D01*
X0091600Y0202000D01*
X0091600Y0203141D02*
X0091000Y0203141D01*
X0091000Y0203740D02*
X0091600Y0203740D01*
X0091600Y0204339D02*
X0091000Y0204339D01*
X0091000Y0204937D02*
X0091600Y0204937D01*
X0091600Y0205536D02*
X0091000Y0205536D01*
X0091000Y0206134D02*
X0079802Y0206134D01*
X0079859Y0205536D02*
X0087000Y0205536D01*
X0087000Y0204937D02*
X0079916Y0204937D01*
X0079973Y0204339D02*
X0087180Y0204339D01*
X0087779Y0203740D02*
X0080030Y0203740D01*
X0080087Y0203141D02*
X0088377Y0203141D01*
X0091600Y0206134D02*
X0129500Y0206134D01*
X0129500Y0205536D02*
X0095600Y0205536D01*
X0095600Y0204937D02*
X0129500Y0204937D01*
X0129500Y0204339D02*
X0095420Y0204339D01*
X0094821Y0203740D02*
X0129500Y0203740D01*
X0129500Y0203141D02*
X0094223Y0203141D01*
X0093624Y0202543D02*
X0129500Y0202543D01*
X0129500Y0206733D02*
X0095600Y0206733D01*
X0095600Y0207331D02*
X0129500Y0207331D01*
X0129500Y0207930D02*
X0095600Y0207930D01*
X0095153Y0208528D02*
X0129500Y0208528D01*
X0129500Y0209127D02*
X0094554Y0209127D01*
X0093956Y0209725D02*
X0129500Y0209725D01*
X0129500Y0210324D02*
X0093357Y0210324D01*
X0093288Y0211500D02*
X0096100Y0214312D01*
X0096100Y0218288D01*
X0093288Y0221100D01*
X0089312Y0221100D01*
X0086500Y0218288D01*
X0086500Y0214312D01*
X0089312Y0211500D01*
X0093288Y0211500D01*
X0093309Y0211521D02*
X0129500Y0211521D01*
X0129500Y0212119D02*
X0093907Y0212119D01*
X0094506Y0212718D02*
X0129733Y0212718D01*
X0129500Y0212155D02*
X0129500Y0072945D01*
X0130155Y0071364D01*
X0131364Y0070155D01*
X0132945Y0069500D01*
X0134655Y0069500D01*
X0136236Y0070155D01*
X0137445Y0071364D01*
X0138100Y0072945D01*
X0138100Y0207000D01*
X0145888Y0207000D01*
X0146688Y0206200D01*
X0150912Y0206200D01*
X0153900Y0209188D01*
X0153900Y0213412D01*
X0151012Y0216300D01*
X0153900Y0219188D01*
X0153900Y0223412D01*
X0152062Y0225250D01*
X0160199Y0225250D01*
X0160687Y0224762D01*
X0161896Y0224261D01*
X0163204Y0224261D01*
X0164413Y0224762D01*
X0165338Y0225687D01*
X0165839Y0226896D01*
X0165839Y0228204D01*
X0165338Y0229413D01*
X0164701Y0230050D01*
X0165338Y0230687D01*
X0165839Y0231896D01*
X0165839Y0233204D01*
X0165458Y0234125D01*
X0165941Y0234125D01*
X0165941Y0197401D01*
X0162640Y0194100D01*
X0153212Y0194100D01*
X0150912Y0196400D01*
X0146688Y0196400D01*
X0143700Y0193412D01*
X0143700Y0189188D01*
X0146688Y0186200D01*
X0150912Y0186200D01*
X0153212Y0188500D01*
X0164357Y0188500D01*
X0164840Y0188700D01*
X0176473Y0188700D01*
X0181834Y0183339D01*
X0180646Y0183339D01*
X0179437Y0182838D01*
X0178964Y0182366D01*
X0175991Y0185339D01*
X0171609Y0185339D01*
X0169858Y0183588D01*
X0168636Y0182366D01*
X0168163Y0182838D01*
X0166954Y0183339D01*
X0165646Y0183339D01*
X0164437Y0182838D01*
X0163512Y0181913D01*
X0163011Y0180704D01*
X0163011Y0180647D01*
X0160726Y0182932D01*
X0159476Y0183450D01*
X0158124Y0183450D01*
X0156874Y0182932D01*
X0155918Y0181976D01*
X0155400Y0180726D01*
X0155400Y0179508D01*
X0151976Y0182932D01*
X0150726Y0183450D01*
X0149374Y0183450D01*
X0148124Y0182932D01*
X0147168Y0181976D01*
X0146650Y0180726D01*
X0146650Y0179374D01*
X0147168Y0178124D01*
X0196650Y0128642D01*
X0196650Y0106458D01*
X0193642Y0103450D01*
X0179374Y0103450D01*
X0178124Y0102932D01*
X0177168Y0101976D01*
X0171874Y0096682D01*
X0170918Y0095726D01*
X0170400Y0094476D01*
X0170400Y0078100D01*
X0168986Y0078100D01*
X0168986Y0079270D01*
X0167931Y0080324D01*
X0156991Y0080324D01*
X0155937Y0079270D01*
X0155937Y0068330D01*
X0156991Y0067276D01*
X0167931Y0067276D01*
X0168986Y0068330D01*
X0168986Y0069500D01*
X0170888Y0069500D01*
X0171688Y0068700D01*
X0175912Y0068700D01*
X0178900Y0071688D01*
X0178900Y0075912D01*
X0177200Y0077612D01*
X0177200Y0078092D01*
X0178124Y0077168D01*
X0179374Y0076650D01*
X0180726Y0076650D01*
X0181976Y0077168D01*
X0182932Y0078124D01*
X0183450Y0079374D01*
X0183450Y0086842D01*
X0190400Y0079892D01*
X0190400Y0077612D01*
X0188700Y0075912D01*
X0188700Y0071688D01*
X0191688Y0068700D01*
X0195912Y0068700D01*
X0196712Y0069500D01*
X0198614Y0069500D01*
X0198614Y0068330D01*
X0199669Y0067276D01*
X0210609Y0067276D01*
X0211663Y0068330D01*
X0211663Y0079270D01*
X0210609Y0080324D01*
X0199669Y0080324D01*
X0198614Y0079270D01*
X0198614Y0078100D01*
X0197200Y0078100D01*
X0197200Y0081976D01*
X0196682Y0083226D01*
X0195726Y0084182D01*
X0188258Y0091650D01*
X0198226Y0091650D01*
X0199476Y0092168D01*
X0200432Y0093124D01*
X0206976Y0099668D01*
X0207932Y0100624D01*
X0208450Y0101874D01*
X0208450Y0134476D01*
X0207932Y0135726D01*
X0206976Y0136682D01*
X0184658Y0159000D01*
X0218949Y0159000D01*
X0219437Y0158512D01*
X0220646Y0158011D01*
X0221954Y0158011D01*
X0223163Y0158512D01*
X0224088Y0159437D01*
X0224589Y0160646D01*
X0224589Y0161954D01*
X0224088Y0163163D01*
X0223163Y0164088D01*
X0221954Y0164589D01*
X0220646Y0164589D01*
X0219437Y0164088D01*
X0218949Y0163600D01*
X0184753Y0163600D01*
X0176353Y0172000D01*
X0194331Y0172000D01*
X0203011Y0180680D01*
X0203011Y0179396D01*
X0203512Y0178187D01*
X0204437Y0177262D01*
X0205646Y0176761D01*
X0206954Y0176761D01*
X0208163Y0177262D01*
X0208351Y0177450D01*
X0220250Y0177450D01*
X0220250Y0172580D01*
X0221597Y0171233D01*
X0221865Y0171233D01*
X0247637Y0145461D01*
X0245991Y0143816D01*
X0245991Y0140005D01*
X0248686Y0137310D01*
X0252497Y0137310D01*
X0252591Y0137405D01*
X0252591Y0136658D01*
X0253939Y0135310D01*
X0255991Y0133258D01*
X0255991Y0130005D01*
X0257396Y0128600D01*
X0253079Y0128600D01*
X0254691Y0130212D01*
X0254691Y0131610D01*
X0250891Y0131610D01*
X0250891Y0132210D01*
X0250291Y0132210D01*
X0250291Y0131610D01*
X0246491Y0131610D01*
X0246491Y0130212D01*
X0248103Y0128600D01*
X0243079Y0128600D01*
X0244691Y0130212D01*
X0244691Y0131610D01*
X0240891Y0131610D01*
X0240891Y0132210D01*
X0240291Y0132210D01*
X0240291Y0136010D01*
X0238893Y0136010D01*
X0237350Y0134467D01*
X0237350Y0138404D01*
X0236003Y0139752D01*
X0235191Y0140563D01*
X0235191Y0143816D01*
X0232497Y0146510D01*
X0228686Y0146510D01*
X0225991Y0143816D01*
X0225991Y0140005D01*
X0228686Y0137310D01*
X0231939Y0137310D01*
X0232750Y0136499D01*
X0232750Y0135550D01*
X0232290Y0136010D01*
X0230891Y0136010D01*
X0230891Y0132210D01*
X0230291Y0132210D01*
X0230291Y0131610D01*
X0226491Y0131610D01*
X0226491Y0130212D01*
X0228893Y0127810D01*
X0230291Y0127810D01*
X0230291Y0131610D01*
X0230891Y0131610D01*
X0230891Y0127810D01*
X0232290Y0127810D01*
X0233163Y0128684D01*
X0234097Y0127750D01*
X0237847Y0124000D01*
X0262253Y0124000D01*
X0263600Y0125347D01*
X0267253Y0129000D01*
X0268600Y0130347D01*
X0268600Y0144753D01*
X0267253Y0146100D01*
X0238600Y0174753D01*
X0238600Y0188949D01*
X0239088Y0189437D01*
X0239589Y0190646D01*
X0239589Y0191954D01*
X0239374Y0192473D01*
X0247147Y0184700D01*
X0247045Y0184700D01*
X0245281Y0183969D01*
X0243931Y0182619D01*
X0243200Y0180855D01*
X0243200Y0178945D01*
X0243931Y0177181D01*
X0245281Y0175831D01*
X0247045Y0175100D01*
X0254955Y0175100D01*
X0256719Y0175831D01*
X0258069Y0177181D01*
X0258243Y0177600D01*
X0269357Y0177600D01*
X0269531Y0177181D01*
X0270881Y0175831D01*
X0272645Y0175100D01*
X0280555Y0175100D01*
X0282319Y0175831D01*
X0283669Y0177181D01*
X0284400Y0178945D01*
X0284400Y0180855D01*
X0283669Y0182619D01*
X0282319Y0183969D01*
X0280555Y0184700D01*
X0272645Y0184700D01*
X0270881Y0183969D01*
X0269531Y0182619D01*
X0269357Y0182200D01*
X0258243Y0182200D01*
X0258069Y0182619D01*
X0256719Y0183969D01*
X0254955Y0184700D01*
X0253300Y0184700D01*
X0253300Y0185053D01*
X0251953Y0186400D01*
X0239753Y0198600D01*
X0231003Y0198600D01*
X0222350Y0207253D01*
X0222350Y0207699D01*
X0222624Y0207973D01*
X0229097Y0201500D01*
X0245986Y0201500D01*
X0245746Y0201378D01*
X0245199Y0200980D01*
X0244720Y0200501D01*
X0244322Y0199954D01*
X0244015Y0199351D01*
X0243806Y0198707D01*
X0243700Y0198038D01*
X0243700Y0198000D01*
X0250700Y0198000D01*
X0250700Y0197400D01*
X0251300Y0197400D01*
X0251300Y0198000D01*
X0258300Y0198000D01*
X0258300Y0198038D01*
X0258204Y0198643D01*
X0259000Y0197847D01*
X0259000Y0191151D01*
X0258512Y0190663D01*
X0258011Y0189454D01*
X0258011Y0188146D01*
X0258512Y0186937D01*
X0259437Y0186012D01*
X0260646Y0185511D01*
X0261954Y0185511D01*
X0263163Y0186012D01*
X0264088Y0186937D01*
X0264589Y0188146D01*
X0264589Y0189454D01*
X0264088Y0190663D01*
X0263600Y0191151D01*
X0263600Y0199753D01*
X0262253Y0201100D01*
X0262253Y0201100D01*
X0258600Y0204753D01*
X0257253Y0206100D01*
X0256988Y0206100D01*
X0258069Y0207181D01*
X0258800Y0208945D01*
X0258800Y0210855D01*
X0258069Y0212619D01*
X0256719Y0213969D01*
X0254955Y0214700D01*
X0249753Y0214700D01*
X0249700Y0214753D01*
X0248353Y0216100D01*
X0232253Y0216100D01*
X0231502Y0216851D01*
X0231588Y0216937D01*
X0232089Y0218146D01*
X0232089Y0219454D01*
X0231588Y0220663D01*
X0230663Y0221588D01*
X0229454Y0222089D01*
X0228146Y0222089D01*
X0226937Y0221588D01*
X0226012Y0220663D01*
X0225511Y0219454D01*
X0225511Y0218146D01*
X0225633Y0217851D01*
X0224454Y0218339D01*
X0223146Y0218339D01*
X0221937Y0217838D01*
X0221012Y0216913D01*
X0220511Y0215704D01*
X0220511Y0214396D01*
X0220999Y0213217D01*
X0220704Y0213339D01*
X0219396Y0213339D01*
X0218187Y0212838D01*
X0217262Y0211913D01*
X0216761Y0210704D01*
X0216761Y0209396D01*
X0217262Y0208187D01*
X0217750Y0207699D01*
X0217750Y0205347D01*
X0218768Y0204329D01*
X0218187Y0204088D01*
X0217262Y0203163D01*
X0216761Y0201954D01*
X0216761Y0200646D01*
X0217262Y0199437D01*
X0218187Y0198512D01*
X0219000Y0198175D01*
X0219000Y0185347D01*
X0220347Y0184000D01*
X0221268Y0183079D01*
X0220687Y0182838D01*
X0220499Y0182650D01*
X0208351Y0182650D01*
X0208163Y0182838D01*
X0206954Y0183339D01*
X0205670Y0183339D01*
X0206492Y0184161D01*
X0207839Y0185508D01*
X0207839Y0191585D01*
X0211003Y0194749D01*
X0212350Y0196096D01*
X0212350Y0197699D01*
X0212838Y0198187D01*
X0213339Y0199396D01*
X0213339Y0200704D01*
X0212838Y0201913D01*
X0211913Y0202838D01*
X0210704Y0203339D01*
X0209396Y0203339D01*
X0208187Y0202838D01*
X0207262Y0201913D01*
X0206761Y0200704D01*
X0206761Y0199396D01*
X0207262Y0198187D01*
X0207598Y0197850D01*
X0204005Y0194257D01*
X0203204Y0194589D01*
X0201896Y0194589D01*
X0200687Y0194088D01*
X0199762Y0193163D01*
X0199261Y0191954D01*
X0199261Y0190646D01*
X0199762Y0189437D01*
X0200250Y0188949D01*
X0200250Y0187253D01*
X0191874Y0178877D01*
X0192089Y0179396D01*
X0192089Y0180704D01*
X0191588Y0181913D01*
X0190663Y0182838D01*
X0189454Y0183339D01*
X0189188Y0183339D01*
X0179754Y0192773D01*
X0179023Y0193504D01*
X0178067Y0193900D01*
X0170360Y0193900D01*
X0171115Y0194655D01*
X0171541Y0195684D01*
X0171541Y0234125D01*
X0260511Y0234125D01*
X0260511Y0233146D01*
X0261012Y0231937D01*
X0261937Y0231012D01*
X0263146Y0230511D01*
X0264454Y0230511D01*
X0265663Y0231012D01*
X0266588Y0231937D01*
X0267089Y0233146D01*
X0267089Y0234197D01*
X0267945Y0234551D01*
X0268733Y0235339D01*
X0269159Y0236368D01*
X0269159Y0238405D01*
X0269254Y0238500D01*
X0270846Y0238500D01*
X0271617Y0237728D01*
X0275864Y0237728D01*
X0276300Y0238164D01*
X0276736Y0237728D01*
X0280983Y0237728D01*
X0282037Y0238783D01*
X0282037Y0243713D01*
X0282124Y0243713D01*
X0283179Y0244767D01*
X0283179Y0250195D01*
X0282124Y0251250D01*
X0276302Y0251250D01*
X0275248Y0250195D01*
X0275248Y0244872D01*
X0271617Y0244872D01*
X0270846Y0244100D01*
X0269254Y0244100D01*
X0268483Y0244872D01*
X0266565Y0244872D01*
X0266645Y0245011D01*
X0266734Y0245341D01*
X0266734Y0247181D01*
X0263569Y0247181D01*
X0263569Y0247781D01*
X0266734Y0247781D01*
X0266734Y0249621D01*
X0266645Y0249951D01*
X0266474Y0250248D01*
X0266232Y0250490D01*
X0265936Y0250661D01*
X0265605Y0250750D01*
X0263568Y0250750D01*
X0263568Y0247781D01*
X0262969Y0247781D01*
X0262969Y0250750D01*
X0260932Y0250750D01*
X0260601Y0250661D01*
X0260305Y0250490D01*
X0260063Y0250248D01*
X0259892Y0249951D01*
X0259803Y0249621D01*
X0259803Y0247781D01*
X0262968Y0247781D01*
X0262968Y0247181D01*
X0259803Y0247181D01*
X0259803Y0245341D01*
X0259892Y0245011D01*
X0259972Y0244872D01*
X0259117Y0244872D01*
X0259100Y0244854D01*
X0259100Y0252201D01*
X0259389Y0252201D01*
X0260358Y0251232D01*
X0266179Y0251232D01*
X0267234Y0252287D01*
X0267234Y0257715D01*
X0266179Y0258769D01*
X0260358Y0258769D01*
X0259389Y0257801D01*
X0255743Y0257801D01*
X0254714Y0257375D01*
X0253926Y0256587D01*
X0253500Y0255558D01*
X0253500Y0244589D01*
X0253146Y0244589D01*
X0251937Y0244088D01*
X0251012Y0243163D01*
X0250511Y0241954D01*
X0250511Y0240646D01*
X0250892Y0239725D01*
X0247037Y0239725D01*
X0247037Y0243713D01*
X0247124Y0243713D01*
X0248179Y0244767D01*
X0248179Y0250195D01*
X0247124Y0251250D01*
X0241302Y0251250D01*
X0240248Y0250195D01*
X0240248Y0244872D01*
X0236617Y0244872D01*
X0235846Y0244100D01*
X0234254Y0244100D01*
X0233483Y0244872D01*
X0231565Y0244872D01*
X0231645Y0245011D01*
X0231734Y0245341D01*
X0231734Y0247181D01*
X0228569Y0247181D01*
X0228569Y0247781D01*
X0231734Y0247781D01*
X0231734Y0249621D01*
X0231645Y0249951D01*
X0231474Y0250248D01*
X0231232Y0250490D01*
X0230936Y0250661D01*
X0230605Y0250750D01*
X0228568Y0250750D01*
X0228568Y0247781D01*
X0227969Y0247781D01*
X0227969Y0250750D01*
X0225932Y0250750D01*
X0225601Y0250661D01*
X0225305Y0250490D01*
X0225063Y0250248D01*
X0224892Y0249951D01*
X0224803Y0249621D01*
X0224803Y0247781D01*
X0227968Y0247781D01*
X0227968Y0247181D01*
X0224803Y0247181D01*
X0224803Y0245341D01*
X0224892Y0245011D01*
X0224972Y0244872D01*
X0224117Y0244872D01*
X0224100Y0244854D01*
X0224100Y0252201D01*
X0224389Y0252201D01*
X0225358Y0251232D01*
X0231179Y0251232D01*
X0232234Y0252287D01*
X0232234Y0257715D01*
X0231179Y0258769D01*
X0225358Y0258769D01*
X0224389Y0257801D01*
X0220743Y0257801D01*
X0219714Y0257375D01*
X0218926Y0256587D01*
X0218500Y0255558D01*
X0218500Y0244466D01*
X0218204Y0244589D01*
X0216896Y0244589D01*
X0215687Y0244088D01*
X0214762Y0243163D01*
X0214261Y0241954D01*
X0214261Y0240646D01*
X0214642Y0239725D01*
X0212037Y0239725D01*
X0212037Y0243713D01*
X0212124Y0243713D01*
X0213179Y0244767D01*
X0213179Y0250195D01*
X0212124Y0251250D01*
X0206302Y0251250D01*
X0205248Y0250195D01*
X0205248Y0244872D01*
X0201617Y0244872D01*
X0200846Y0244100D01*
X0199254Y0244100D01*
X0198483Y0244872D01*
X0196565Y0244872D01*
X0196645Y0245011D01*
X0196734Y0245341D01*
X0196734Y0247181D01*
X0193569Y0247181D01*
X0193569Y0247781D01*
X0196734Y0247781D01*
X0196734Y0249621D01*
X0196645Y0249951D01*
X0196474Y0250248D01*
X0196232Y0250490D01*
X0195936Y0250661D01*
X0195605Y0250750D01*
X0193568Y0250750D01*
X0193568Y0247781D01*
X0192969Y0247781D01*
X0192969Y0250750D01*
X0190932Y0250750D01*
X0190601Y0250661D01*
X0190305Y0250490D01*
X0190063Y0250248D01*
X0189892Y0249951D01*
X0189803Y0249621D01*
X0189803Y0247781D01*
X0192968Y0247781D01*
X0192968Y0247181D01*
X0189803Y0247181D01*
X0189803Y0245341D01*
X0189892Y0245011D01*
X0189972Y0244872D01*
X0189117Y0244872D01*
X0189100Y0244854D01*
X0189100Y0252201D01*
X0189389Y0252201D01*
X0190358Y0251232D01*
X0196179Y0251232D01*
X0197234Y0252287D01*
X0197234Y0257715D01*
X0196179Y0258769D01*
X0190358Y0258769D01*
X0189389Y0257801D01*
X0185743Y0257801D01*
X0184714Y0257375D01*
X0183926Y0256587D01*
X0183500Y0255558D01*
X0183500Y0244466D01*
X0183204Y0244589D01*
X0181896Y0244589D01*
X0180687Y0244088D01*
X0179762Y0243163D01*
X0179261Y0241954D01*
X0179261Y0240646D01*
X0179642Y0239725D01*
X0177037Y0239725D01*
X0177037Y0243713D01*
X0177124Y0243713D01*
X0178179Y0244767D01*
X0178179Y0250195D01*
X0177124Y0251250D01*
X0171302Y0251250D01*
X0170248Y0250195D01*
X0170248Y0244872D01*
X0166617Y0244872D01*
X0165846Y0244100D01*
X0164254Y0244100D01*
X0163483Y0244872D01*
X0161565Y0244872D01*
X0161645Y0245011D01*
X0161734Y0245341D01*
X0161734Y0247181D01*
X0158569Y0247181D01*
X0158569Y0247781D01*
X0161734Y0247781D01*
X0161734Y0249621D01*
X0161645Y0249951D01*
X0161474Y0250248D01*
X0161232Y0250490D01*
X0160936Y0250661D01*
X0160605Y0250750D01*
X0158568Y0250750D01*
X0158568Y0247781D01*
X0157969Y0247781D01*
X0157969Y0250750D01*
X0155932Y0250750D01*
X0155601Y0250661D01*
X0155305Y0250490D01*
X0155063Y0250248D01*
X0154892Y0249951D01*
X0154803Y0249621D01*
X0154803Y0247781D01*
X0157968Y0247781D01*
X0157968Y0247181D01*
X0154803Y0247181D01*
X0154803Y0245341D01*
X0154892Y0245011D01*
X0154972Y0244872D01*
X0154117Y0244872D01*
X0154100Y0244854D01*
X0154100Y0252201D01*
X0154389Y0252201D01*
X0155358Y0251232D01*
X0161179Y0251232D01*
X0162234Y0252287D01*
X0162234Y0257715D01*
X0161179Y0258769D01*
X0155358Y0258769D01*
X0154389Y0257801D01*
X0150743Y0257801D01*
X0149714Y0257375D01*
X0148926Y0256587D01*
X0148500Y0255558D01*
X0148500Y0244466D01*
X0148204Y0244589D01*
X0146896Y0244589D01*
X0145687Y0244088D01*
X0144762Y0243163D01*
X0144261Y0241954D01*
X0144261Y0240646D01*
X0144642Y0239725D01*
X0142037Y0239725D01*
X0142037Y0243713D01*
X0142124Y0243713D01*
X0143179Y0244767D01*
X0143179Y0250195D01*
X0142124Y0251250D01*
X0136302Y0251250D01*
X0135248Y0250195D01*
X0135248Y0244872D01*
X0131617Y0244872D01*
X0130846Y0244100D01*
X0129254Y0244100D01*
X0128483Y0244872D01*
X0126565Y0244872D01*
X0126645Y0245011D01*
X0126734Y0245341D01*
X0126734Y0247181D01*
X0123569Y0247181D01*
X0123569Y0247781D01*
X0126734Y0247781D01*
X0126734Y0249621D01*
X0126645Y0249951D01*
X0126474Y0250248D01*
X0126232Y0250490D01*
X0125936Y0250661D01*
X0125605Y0250750D01*
X0123568Y0250750D01*
X0123568Y0247781D01*
X0122969Y0247781D01*
X0122969Y0250750D01*
X0120932Y0250750D01*
X0120601Y0250661D01*
X0120305Y0250490D01*
X0120063Y0250248D01*
X0119892Y0249951D01*
X0119803Y0249621D01*
X0119803Y0247781D01*
X0122968Y0247781D01*
X0122968Y0247181D01*
X0119803Y0247181D01*
X0119803Y0245341D01*
X0119892Y0245011D01*
X0119972Y0244872D01*
X0119117Y0244872D01*
X0119100Y0244854D01*
X0119100Y0252201D01*
X0119389Y0252201D01*
X0120358Y0251232D01*
X0126179Y0251232D01*
X0127234Y0252287D01*
X0127234Y0257715D01*
X0126179Y0258769D01*
X0120358Y0258769D01*
X0119389Y0257801D01*
X0115743Y0257801D01*
X0114714Y0257375D01*
X0113926Y0256587D01*
X0113500Y0255558D01*
X0113500Y0244466D01*
X0113204Y0244589D01*
X0111896Y0244589D01*
X0110687Y0244088D01*
X0109762Y0243163D01*
X0109261Y0241954D01*
X0109261Y0240646D01*
X0109642Y0239725D01*
X0107037Y0239725D01*
X0107037Y0243713D01*
X0107124Y0243713D01*
X0108179Y0244767D01*
X0108179Y0250195D01*
X0107124Y0251250D01*
X0101302Y0251250D01*
X0100248Y0250195D01*
X0100248Y0244872D01*
X0096617Y0244872D01*
X0095846Y0244100D01*
X0094254Y0244100D01*
X0093483Y0244872D01*
X0091565Y0244872D01*
X0091645Y0245011D01*
X0091734Y0245341D01*
X0091734Y0247181D01*
X0088569Y0247181D01*
X0088569Y0247781D01*
X0091734Y0247781D01*
X0091734Y0249621D01*
X0091645Y0249951D01*
X0091474Y0250248D01*
X0091232Y0250490D01*
X0090936Y0250661D01*
X0090605Y0250750D01*
X0088568Y0250750D01*
X0088568Y0247781D01*
X0087969Y0247781D01*
X0087969Y0250750D01*
X0085932Y0250750D01*
X0085601Y0250661D01*
X0085305Y0250490D01*
X0085063Y0250248D01*
X0084892Y0249951D01*
X0084803Y0249621D01*
X0084803Y0247781D01*
X0087968Y0247781D01*
X0087968Y0247181D01*
X0084803Y0247181D01*
X0084803Y0245341D01*
X0084892Y0245011D01*
X0084972Y0244872D01*
X0084117Y0244872D01*
X0084100Y0244854D01*
X0084100Y0252201D01*
X0084389Y0252201D01*
X0085358Y0251232D01*
X0091179Y0251232D01*
X0092234Y0252287D01*
X0092234Y0257715D01*
X0091179Y0258769D01*
X0085358Y0258769D01*
X0084389Y0257801D01*
X0080743Y0257801D01*
X0079714Y0257375D01*
X0078926Y0256587D01*
X0078500Y0255558D01*
X0078500Y0240743D01*
X0078926Y0239714D01*
X0079714Y0238926D01*
X0080743Y0238500D01*
X0083346Y0238500D01*
X0084117Y0237728D01*
X0086407Y0237728D01*
X0097538Y0226597D01*
X0098885Y0225250D01*
X0145538Y0225250D01*
X0143700Y0223412D01*
X0143700Y0219188D01*
X0146588Y0216300D01*
X0145888Y0215600D01*
X0132945Y0215600D01*
X0131364Y0214945D01*
X0130155Y0213736D01*
X0129500Y0212155D01*
X0129500Y0210922D02*
X0079346Y0210922D01*
X0079403Y0210324D02*
X0089243Y0210324D01*
X0088644Y0209725D02*
X0079460Y0209725D01*
X0079517Y0209127D02*
X0088045Y0209127D01*
X0087447Y0208528D02*
X0079574Y0208528D01*
X0079631Y0207930D02*
X0087000Y0207930D01*
X0087000Y0207331D02*
X0079688Y0207331D01*
X0079745Y0206733D02*
X0087000Y0206733D01*
X0091000Y0206733D02*
X0091600Y0206733D01*
X0091600Y0207331D02*
X0091000Y0207331D01*
X0091000Y0207930D02*
X0091600Y0207930D01*
X0091600Y0208528D02*
X0091000Y0208528D01*
X0091000Y0209127D02*
X0091600Y0209127D01*
X0091600Y0209725D02*
X0091000Y0209725D01*
X0091000Y0210324D02*
X0091600Y0210324D01*
X0089291Y0211521D02*
X0079289Y0211521D01*
X0079232Y0212119D02*
X0088693Y0212119D01*
X0088094Y0212718D02*
X0079175Y0212718D01*
X0079118Y0213316D02*
X0087496Y0213316D01*
X0086897Y0213915D02*
X0079061Y0213915D01*
X0079004Y0214513D02*
X0086500Y0214513D01*
X0086500Y0215112D02*
X0078947Y0215112D01*
X0078890Y0215710D02*
X0086500Y0215710D01*
X0086500Y0216309D02*
X0078833Y0216309D01*
X0078776Y0216907D02*
X0086500Y0216907D01*
X0086500Y0217506D02*
X0078719Y0217506D01*
X0078662Y0218104D02*
X0086500Y0218104D01*
X0086915Y0218703D02*
X0078605Y0218703D01*
X0078548Y0219301D02*
X0087513Y0219301D01*
X0088112Y0219900D02*
X0078491Y0219900D01*
X0078434Y0220498D02*
X0088710Y0220498D01*
X0089309Y0221097D02*
X0078377Y0221097D01*
X0078320Y0221695D02*
X0143700Y0221695D01*
X0143700Y0221097D02*
X0093291Y0221097D01*
X0093890Y0220498D02*
X0143700Y0220498D01*
X0143700Y0219900D02*
X0094488Y0219900D01*
X0095087Y0219301D02*
X0143700Y0219301D01*
X0144185Y0218703D02*
X0095685Y0218703D01*
X0096100Y0218104D02*
X0144783Y0218104D01*
X0145382Y0217506D02*
X0096100Y0217506D01*
X0096100Y0216907D02*
X0145980Y0216907D01*
X0146579Y0216309D02*
X0096100Y0216309D01*
X0096100Y0215710D02*
X0145998Y0215710D01*
X0151021Y0216309D02*
X0165941Y0216309D01*
X0165941Y0216907D02*
X0151620Y0216907D01*
X0152218Y0217506D02*
X0165941Y0217506D01*
X0165941Y0218104D02*
X0152817Y0218104D01*
X0153415Y0218703D02*
X0165941Y0218703D01*
X0165941Y0219301D02*
X0153900Y0219301D01*
X0153900Y0219900D02*
X0165941Y0219900D01*
X0165941Y0220498D02*
X0153900Y0220498D01*
X0153900Y0221097D02*
X0165941Y0221097D01*
X0165941Y0221695D02*
X0153900Y0221695D01*
X0153900Y0222294D02*
X0165941Y0222294D01*
X0165941Y0222892D02*
X0153900Y0222892D01*
X0153822Y0223491D02*
X0165941Y0223491D01*
X0165941Y0224089D02*
X0153223Y0224089D01*
X0152625Y0224688D02*
X0160865Y0224688D01*
X0164235Y0224688D02*
X0165941Y0224688D01*
X0165941Y0225286D02*
X0164938Y0225286D01*
X0165420Y0225885D02*
X0165941Y0225885D01*
X0165941Y0226483D02*
X0165668Y0226483D01*
X0165839Y0227082D02*
X0165941Y0227082D01*
X0165941Y0227680D02*
X0165839Y0227680D01*
X0165808Y0228279D02*
X0165941Y0228279D01*
X0165941Y0228877D02*
X0165560Y0228877D01*
X0165275Y0229476D02*
X0165941Y0229476D01*
X0165941Y0230074D02*
X0164726Y0230074D01*
X0165324Y0230673D02*
X0165941Y0230673D01*
X0165941Y0231272D02*
X0165580Y0231272D01*
X0165828Y0231870D02*
X0165941Y0231870D01*
X0165941Y0232469D02*
X0165839Y0232469D01*
X0165839Y0233067D02*
X0165941Y0233067D01*
X0165941Y0233666D02*
X0165648Y0233666D01*
X0171541Y0233666D02*
X0260511Y0233666D01*
X0260544Y0233067D02*
X0171541Y0233067D01*
X0171541Y0232469D02*
X0260792Y0232469D01*
X0261079Y0231870D02*
X0255081Y0231870D01*
X0255007Y0231894D02*
X0254338Y0232000D01*
X0251300Y0232000D01*
X0251300Y0228000D01*
X0250700Y0228000D01*
X0250700Y0232000D01*
X0247662Y0232000D01*
X0246993Y0231894D01*
X0246349Y0231685D01*
X0245746Y0231378D01*
X0245199Y0230980D01*
X0244720Y0230501D01*
X0244322Y0229954D01*
X0244015Y0229351D01*
X0243806Y0228707D01*
X0243700Y0228038D01*
X0243700Y0228000D01*
X0250700Y0228000D01*
X0250700Y0227400D01*
X0251300Y0227400D01*
X0251300Y0228000D01*
X0258300Y0228000D01*
X0258300Y0228038D01*
X0258194Y0228707D01*
X0257985Y0229351D01*
X0257678Y0229954D01*
X0257280Y0230501D01*
X0256801Y0230980D01*
X0256254Y0231378D01*
X0255651Y0231685D01*
X0255007Y0231894D01*
X0256400Y0231272D02*
X0261677Y0231272D01*
X0262755Y0230673D02*
X0257108Y0230673D01*
X0257590Y0230074D02*
X0270010Y0230074D01*
X0269922Y0229954D02*
X0269615Y0229351D01*
X0269406Y0228707D01*
X0269300Y0228038D01*
X0269300Y0228000D01*
X0276300Y0228000D01*
X0276300Y0232000D01*
X0273262Y0232000D01*
X0272593Y0231894D01*
X0271949Y0231685D01*
X0271346Y0231378D01*
X0270799Y0230980D01*
X0270320Y0230501D01*
X0269922Y0229954D01*
X0269679Y0229476D02*
X0257921Y0229476D01*
X0258139Y0228877D02*
X0269461Y0228877D01*
X0269338Y0228279D02*
X0258262Y0228279D01*
X0258300Y0227400D02*
X0251300Y0227400D01*
X0251300Y0223400D01*
X0254338Y0223400D01*
X0255007Y0223506D01*
X0255651Y0223715D01*
X0256254Y0224022D01*
X0256801Y0224420D01*
X0257280Y0224899D01*
X0257678Y0225446D01*
X0257985Y0226049D01*
X0258194Y0226693D01*
X0258300Y0227362D01*
X0258300Y0227400D01*
X0258256Y0227082D02*
X0269344Y0227082D01*
X0269300Y0227362D02*
X0269406Y0226693D01*
X0269615Y0226049D01*
X0269922Y0225446D01*
X0270320Y0224899D01*
X0270799Y0224420D01*
X0271346Y0224022D01*
X0271949Y0223715D01*
X0272593Y0223506D01*
X0273262Y0223400D01*
X0276300Y0223400D01*
X0276300Y0227400D01*
X0276900Y0227400D01*
X0276900Y0228000D01*
X0276300Y0228000D01*
X0276300Y0227400D01*
X0269300Y0227400D01*
X0269300Y0227362D01*
X0269474Y0226483D02*
X0258126Y0226483D01*
X0257901Y0225885D02*
X0269699Y0225885D01*
X0270038Y0225286D02*
X0257562Y0225286D01*
X0257069Y0224688D02*
X0270531Y0224688D01*
X0271254Y0224089D02*
X0256346Y0224089D01*
X0254912Y0223491D02*
X0272688Y0223491D01*
X0276300Y0223491D02*
X0276900Y0223491D01*
X0276900Y0223400D02*
X0279938Y0223400D01*
X0280607Y0223506D01*
X0281251Y0223715D01*
X0281854Y0224022D01*
X0282401Y0224420D01*
X0282880Y0224899D01*
X0283278Y0225446D01*
X0283585Y0226049D01*
X0283794Y0226693D01*
X0283900Y0227362D01*
X0283900Y0227400D01*
X0276900Y0227400D01*
X0276900Y0223400D01*
X0276900Y0224089D02*
X0276300Y0224089D01*
X0276300Y0224688D02*
X0276900Y0224688D01*
X0276900Y0225286D02*
X0276300Y0225286D01*
X0276300Y0225885D02*
X0276900Y0225885D01*
X0276900Y0226483D02*
X0276300Y0226483D01*
X0276300Y0227082D02*
X0276900Y0227082D01*
X0276900Y0227680D02*
X0291788Y0227680D01*
X0291001Y0227082D02*
X0283856Y0227082D01*
X0283726Y0226483D02*
X0290356Y0226483D01*
X0290009Y0225885D02*
X0283501Y0225885D01*
X0283162Y0225286D02*
X0289721Y0225286D01*
X0289513Y0224688D02*
X0282669Y0224688D01*
X0281946Y0224089D02*
X0289500Y0224089D01*
X0289451Y0223491D02*
X0280512Y0223491D01*
X0283900Y0228000D02*
X0276900Y0228000D01*
X0276900Y0232000D01*
X0279938Y0232000D01*
X0280607Y0231894D01*
X0281251Y0231685D01*
X0281854Y0231378D01*
X0282401Y0230980D01*
X0282880Y0230501D01*
X0283278Y0229954D01*
X0283585Y0229351D01*
X0283794Y0228707D01*
X0283900Y0228038D01*
X0283900Y0228000D01*
X0283862Y0228279D02*
X0333240Y0228279D01*
X0333838Y0227680D02*
X0295668Y0227680D01*
X0296666Y0227082D02*
X0334437Y0227082D01*
X0335035Y0226483D02*
X0297198Y0226483D01*
X0297796Y0225885D02*
X0335634Y0225885D01*
X0336232Y0225286D02*
X0298395Y0225286D01*
X0298993Y0224688D02*
X0336831Y0224688D01*
X0337430Y0224089D02*
X0299592Y0224089D01*
X0300190Y0223491D02*
X0337410Y0223491D01*
X0336811Y0222892D02*
X0300789Y0222892D01*
X0301387Y0222294D02*
X0336213Y0222294D01*
X0335614Y0221695D02*
X0301986Y0221695D01*
X0302584Y0221097D02*
X0335016Y0221097D01*
X0334417Y0220498D02*
X0303183Y0220498D01*
X0303781Y0219900D02*
X0333819Y0219900D01*
X0333220Y0219301D02*
X0304380Y0219301D01*
X0304978Y0218703D02*
X0332622Y0218703D01*
X0332023Y0218104D02*
X0305577Y0218104D01*
X0306175Y0217506D02*
X0331425Y0217506D01*
X0330826Y0216907D02*
X0306774Y0216907D01*
X0307372Y0216309D02*
X0330228Y0216309D01*
X0329629Y0215710D02*
X0307971Y0215710D01*
X0308569Y0215112D02*
X0329031Y0215112D01*
X0328432Y0214513D02*
X0309168Y0214513D01*
X0309766Y0213915D02*
X0327834Y0213915D01*
X0327235Y0213316D02*
X0310365Y0213316D01*
X0310963Y0212718D02*
X0326637Y0212718D01*
X0326038Y0212119D02*
X0311562Y0212119D01*
X0312160Y0211521D02*
X0325440Y0211521D01*
X0324841Y0210922D02*
X0312759Y0210922D01*
X0313357Y0210324D02*
X0324243Y0210324D01*
X0323644Y0209725D02*
X0313956Y0209725D01*
X0314554Y0209127D02*
X0323045Y0209127D01*
X0322447Y0208528D02*
X0315153Y0208528D01*
X0315752Y0207930D02*
X0321848Y0207930D01*
X0321250Y0207331D02*
X0316350Y0207331D01*
X0316949Y0206733D02*
X0320651Y0206733D01*
X0320053Y0206134D02*
X0317547Y0206134D01*
X0318146Y0205536D02*
X0319454Y0205536D01*
X0318856Y0204937D02*
X0318744Y0204937D01*
X0332641Y0228877D02*
X0283739Y0228877D01*
X0283521Y0229476D02*
X0332043Y0229476D01*
X0331444Y0230074D02*
X0283190Y0230074D01*
X0282708Y0230673D02*
X0330846Y0230673D01*
X0330247Y0231272D02*
X0282000Y0231272D01*
X0280681Y0231870D02*
X0329649Y0231870D01*
X0329050Y0232469D02*
X0266808Y0232469D01*
X0267056Y0233067D02*
X0328452Y0233067D01*
X0327853Y0233666D02*
X0267089Y0233666D01*
X0267252Y0234264D02*
X0327255Y0234264D01*
X0326656Y0234863D02*
X0268256Y0234863D01*
X0268783Y0235461D02*
X0326058Y0235461D01*
X0325459Y0236060D02*
X0269031Y0236060D01*
X0269159Y0236658D02*
X0324861Y0236658D01*
X0324262Y0237257D02*
X0269159Y0237257D01*
X0269159Y0237855D02*
X0271491Y0237855D01*
X0270892Y0238454D02*
X0269208Y0238454D01*
X0268915Y0244439D02*
X0271185Y0244439D01*
X0275248Y0245037D02*
X0266652Y0245037D01*
X0266734Y0245636D02*
X0275248Y0245636D01*
X0275248Y0246234D02*
X0266734Y0246234D01*
X0266734Y0246833D02*
X0275248Y0246833D01*
X0275248Y0247431D02*
X0263569Y0247431D01*
X0263568Y0248030D02*
X0262969Y0248030D01*
X0262969Y0248628D02*
X0263568Y0248628D01*
X0263568Y0249227D02*
X0262969Y0249227D01*
X0262969Y0249825D02*
X0263568Y0249825D01*
X0263568Y0250424D02*
X0262969Y0250424D01*
X0260239Y0250424D02*
X0259100Y0250424D01*
X0259100Y0251022D02*
X0276075Y0251022D01*
X0275477Y0250424D02*
X0266298Y0250424D01*
X0266679Y0249825D02*
X0275248Y0249825D01*
X0275248Y0249227D02*
X0266734Y0249227D01*
X0266734Y0248628D02*
X0275248Y0248628D01*
X0275248Y0248030D02*
X0266734Y0248030D01*
X0266568Y0251621D02*
X0309898Y0251621D01*
X0309299Y0252219D02*
X0282404Y0252219D01*
X0282419Y0252234D02*
X0282590Y0252530D01*
X0282679Y0252861D01*
X0282679Y0254701D01*
X0279513Y0254701D01*
X0279513Y0251732D01*
X0281550Y0251732D01*
X0281881Y0251821D01*
X0282177Y0251992D01*
X0282419Y0252234D01*
X0282667Y0252818D02*
X0308701Y0252818D01*
X0308102Y0253416D02*
X0282679Y0253416D01*
X0282679Y0254015D02*
X0307504Y0254015D01*
X0306905Y0254613D02*
X0282679Y0254613D01*
X0282679Y0255301D02*
X0279513Y0255301D01*
X0278913Y0255301D01*
X0278913Y0254701D01*
X0275748Y0254701D01*
X0275748Y0252861D01*
X0275837Y0252530D01*
X0276008Y0252234D01*
X0276250Y0251992D01*
X0276546Y0251821D01*
X0276877Y0251732D01*
X0278913Y0251732D01*
X0278913Y0254701D01*
X0279513Y0254701D01*
X0279513Y0255301D01*
X0279513Y0258269D01*
X0281550Y0258269D01*
X0281881Y0258181D01*
X0282177Y0258010D01*
X0282419Y0257768D01*
X0282590Y0257471D01*
X0282679Y0257140D01*
X0282679Y0255301D01*
X0282679Y0255810D02*
X0305708Y0255810D01*
X0306307Y0255212D02*
X0279513Y0255212D01*
X0279513Y0255810D02*
X0278913Y0255810D01*
X0278913Y0255301D02*
X0278913Y0258269D01*
X0276877Y0258269D01*
X0276546Y0258181D01*
X0276250Y0258010D01*
X0276008Y0257768D01*
X0275837Y0257471D01*
X0275748Y0257140D01*
X0275748Y0255301D01*
X0278913Y0255301D01*
X0278913Y0255212D02*
X0267234Y0255212D01*
X0267234Y0255810D02*
X0275748Y0255810D01*
X0275748Y0256409D02*
X0267234Y0256409D01*
X0267234Y0257008D02*
X0275748Y0257008D01*
X0275915Y0257606D02*
X0267234Y0257606D01*
X0266744Y0258205D02*
X0276635Y0258205D01*
X0278913Y0258205D02*
X0279513Y0258205D01*
X0279513Y0257606D02*
X0278913Y0257606D01*
X0278913Y0257008D02*
X0279513Y0257008D01*
X0279513Y0256409D02*
X0278913Y0256409D01*
X0278913Y0254613D02*
X0279513Y0254613D01*
X0279513Y0254015D02*
X0278913Y0254015D01*
X0278913Y0253416D02*
X0279513Y0253416D01*
X0279513Y0252818D02*
X0278913Y0252818D01*
X0278913Y0252219D02*
X0279513Y0252219D01*
X0282352Y0251022D02*
X0310496Y0251022D01*
X0311095Y0250424D02*
X0282950Y0250424D01*
X0283179Y0249825D02*
X0311694Y0249825D01*
X0312292Y0249227D02*
X0283179Y0249227D01*
X0283179Y0248628D02*
X0312891Y0248628D01*
X0313489Y0248030D02*
X0283179Y0248030D01*
X0283179Y0247431D02*
X0314088Y0247431D01*
X0314686Y0246833D02*
X0283179Y0246833D01*
X0283179Y0246234D02*
X0315285Y0246234D01*
X0315883Y0245636D02*
X0283179Y0245636D01*
X0283179Y0245037D02*
X0316482Y0245037D01*
X0317080Y0244439D02*
X0282850Y0244439D01*
X0282252Y0243840D02*
X0317679Y0243840D01*
X0318277Y0243242D02*
X0282037Y0243242D01*
X0282037Y0242643D02*
X0318876Y0242643D01*
X0319474Y0242045D02*
X0282037Y0242045D01*
X0282037Y0241446D02*
X0320073Y0241446D01*
X0320671Y0240848D02*
X0282037Y0240848D01*
X0282037Y0240249D02*
X0321270Y0240249D01*
X0321868Y0239651D02*
X0282037Y0239651D01*
X0282037Y0239052D02*
X0322467Y0239052D01*
X0323065Y0238454D02*
X0281708Y0238454D01*
X0281109Y0237855D02*
X0323664Y0237855D01*
X0305110Y0256409D02*
X0282679Y0256409D01*
X0282679Y0257008D02*
X0304511Y0257008D01*
X0303913Y0257606D02*
X0282512Y0257606D01*
X0281792Y0258205D02*
X0303314Y0258205D01*
X0302716Y0258803D02*
X0064884Y0258803D01*
X0064286Y0258205D02*
X0084793Y0258205D01*
X0091744Y0258205D02*
X0101635Y0258205D01*
X0101546Y0258181D02*
X0101250Y0258010D01*
X0101008Y0257768D01*
X0100837Y0257471D01*
X0100748Y0257140D01*
X0100748Y0255301D01*
X0103913Y0255301D01*
X0103913Y0254701D01*
X0100748Y0254701D01*
X0100748Y0252861D01*
X0100837Y0252530D01*
X0101008Y0252234D01*
X0101250Y0251992D01*
X0101546Y0251821D01*
X0101877Y0251732D01*
X0103913Y0251732D01*
X0103913Y0254701D01*
X0104513Y0254701D01*
X0104513Y0251732D01*
X0106550Y0251732D01*
X0106881Y0251821D01*
X0107177Y0251992D01*
X0107419Y0252234D01*
X0107590Y0252530D01*
X0107679Y0252861D01*
X0107679Y0254701D01*
X0104513Y0254701D01*
X0104513Y0255301D01*
X0103913Y0255301D01*
X0103913Y0258269D01*
X0101877Y0258269D01*
X0101546Y0258181D01*
X0100915Y0257606D02*
X0092234Y0257606D01*
X0092234Y0257008D02*
X0100748Y0257008D01*
X0100748Y0256409D02*
X0092234Y0256409D01*
X0092234Y0255810D02*
X0100748Y0255810D01*
X0100748Y0254613D02*
X0092234Y0254613D01*
X0092234Y0254015D02*
X0100748Y0254015D01*
X0100748Y0253416D02*
X0092234Y0253416D01*
X0092234Y0252818D02*
X0100760Y0252818D01*
X0101022Y0252219D02*
X0092167Y0252219D01*
X0091568Y0251621D02*
X0113500Y0251621D01*
X0113500Y0252219D02*
X0107404Y0252219D01*
X0107667Y0252818D02*
X0113500Y0252818D01*
X0113500Y0253416D02*
X0107679Y0253416D01*
X0107679Y0254015D02*
X0113500Y0254015D01*
X0113500Y0254613D02*
X0107679Y0254613D01*
X0107679Y0255301D02*
X0107679Y0257140D01*
X0107590Y0257471D01*
X0107419Y0257768D01*
X0107177Y0258010D01*
X0106881Y0258181D01*
X0106550Y0258269D01*
X0104513Y0258269D01*
X0104513Y0255301D01*
X0107679Y0255301D01*
X0107679Y0255810D02*
X0113605Y0255810D01*
X0113500Y0255212D02*
X0104513Y0255212D01*
X0104513Y0255810D02*
X0103913Y0255810D01*
X0103913Y0255212D02*
X0092234Y0255212D01*
X0091298Y0250424D02*
X0100477Y0250424D01*
X0100248Y0249825D02*
X0091679Y0249825D01*
X0091734Y0249227D02*
X0100248Y0249227D01*
X0100248Y0248628D02*
X0091734Y0248628D01*
X0091734Y0248030D02*
X0100248Y0248030D01*
X0100248Y0247431D02*
X0088569Y0247431D01*
X0088568Y0248030D02*
X0087969Y0248030D01*
X0087969Y0248628D02*
X0088568Y0248628D01*
X0088568Y0249227D02*
X0087969Y0249227D01*
X0087969Y0249825D02*
X0088568Y0249825D01*
X0088568Y0250424D02*
X0087969Y0250424D01*
X0085239Y0250424D02*
X0084100Y0250424D01*
X0084100Y0251022D02*
X0101075Y0251022D01*
X0103913Y0252219D02*
X0104513Y0252219D01*
X0104513Y0252818D02*
X0103913Y0252818D01*
X0103913Y0253416D02*
X0104513Y0253416D01*
X0104513Y0254015D02*
X0103913Y0254015D01*
X0103913Y0254613D02*
X0104513Y0254613D01*
X0104513Y0256409D02*
X0103913Y0256409D01*
X0103913Y0257008D02*
X0104513Y0257008D01*
X0104513Y0257606D02*
X0103913Y0257606D01*
X0103913Y0258205D02*
X0104513Y0258205D01*
X0106792Y0258205D02*
X0119793Y0258205D01*
X0126744Y0258205D02*
X0136635Y0258205D01*
X0136546Y0258181D02*
X0136250Y0258010D01*
X0136008Y0257768D01*
X0135837Y0257471D01*
X0135748Y0257140D01*
X0135748Y0255301D01*
X0138913Y0255301D01*
X0138913Y0254701D01*
X0135748Y0254701D01*
X0135748Y0252861D01*
X0135837Y0252530D01*
X0136008Y0252234D01*
X0136250Y0251992D01*
X0136546Y0251821D01*
X0136877Y0251732D01*
X0138913Y0251732D01*
X0138913Y0254701D01*
X0139513Y0254701D01*
X0139513Y0251732D01*
X0141550Y0251732D01*
X0141881Y0251821D01*
X0142177Y0251992D01*
X0142419Y0252234D01*
X0142590Y0252530D01*
X0142679Y0252861D01*
X0142679Y0254701D01*
X0139513Y0254701D01*
X0139513Y0255301D01*
X0138913Y0255301D01*
X0138913Y0258269D01*
X0136877Y0258269D01*
X0136546Y0258181D01*
X0135915Y0257606D02*
X0127234Y0257606D01*
X0127234Y0257008D02*
X0135748Y0257008D01*
X0135748Y0256409D02*
X0127234Y0256409D01*
X0127234Y0255810D02*
X0135748Y0255810D01*
X0135748Y0254613D02*
X0127234Y0254613D01*
X0127234Y0254015D02*
X0135748Y0254015D01*
X0135748Y0253416D02*
X0127234Y0253416D01*
X0127234Y0252818D02*
X0135760Y0252818D01*
X0136022Y0252219D02*
X0127167Y0252219D01*
X0126568Y0251621D02*
X0148500Y0251621D01*
X0148500Y0252219D02*
X0142404Y0252219D01*
X0142667Y0252818D02*
X0148500Y0252818D01*
X0148500Y0253416D02*
X0142679Y0253416D01*
X0142679Y0254015D02*
X0148500Y0254015D01*
X0148500Y0254613D02*
X0142679Y0254613D01*
X0142679Y0255301D02*
X0139513Y0255301D01*
X0139513Y0258269D01*
X0141550Y0258269D01*
X0141881Y0258181D01*
X0142177Y0258010D01*
X0142419Y0257768D01*
X0142590Y0257471D01*
X0142679Y0257140D01*
X0142679Y0255301D01*
X0142679Y0255810D02*
X0148605Y0255810D01*
X0148500Y0255212D02*
X0139513Y0255212D01*
X0139513Y0255810D02*
X0138913Y0255810D01*
X0138913Y0255212D02*
X0127234Y0255212D01*
X0126298Y0250424D02*
X0135477Y0250424D01*
X0135248Y0249825D02*
X0126679Y0249825D01*
X0126734Y0249227D02*
X0135248Y0249227D01*
X0135248Y0248628D02*
X0126734Y0248628D01*
X0126734Y0248030D02*
X0135248Y0248030D01*
X0135248Y0247431D02*
X0123569Y0247431D01*
X0123568Y0248030D02*
X0122969Y0248030D01*
X0122969Y0248628D02*
X0123568Y0248628D01*
X0123568Y0249227D02*
X0122969Y0249227D01*
X0122969Y0249825D02*
X0123568Y0249825D01*
X0123568Y0250424D02*
X0122969Y0250424D01*
X0120239Y0250424D02*
X0119100Y0250424D01*
X0119100Y0251022D02*
X0136075Y0251022D01*
X0138913Y0252219D02*
X0139513Y0252219D01*
X0139513Y0252818D02*
X0138913Y0252818D01*
X0138913Y0253416D02*
X0139513Y0253416D01*
X0139513Y0254015D02*
X0138913Y0254015D01*
X0138913Y0254613D02*
X0139513Y0254613D01*
X0139513Y0256409D02*
X0138913Y0256409D01*
X0138913Y0257008D02*
X0139513Y0257008D01*
X0139513Y0257606D02*
X0138913Y0257606D01*
X0138913Y0258205D02*
X0139513Y0258205D01*
X0141792Y0258205D02*
X0154793Y0258205D01*
X0150273Y0257606D02*
X0142512Y0257606D01*
X0142679Y0257008D02*
X0149347Y0257008D01*
X0148853Y0256409D02*
X0142679Y0256409D01*
X0142352Y0251022D02*
X0148500Y0251022D01*
X0148500Y0250424D02*
X0142950Y0250424D01*
X0143179Y0249825D02*
X0148500Y0249825D01*
X0148500Y0249227D02*
X0143179Y0249227D01*
X0143179Y0248628D02*
X0148500Y0248628D01*
X0148500Y0248030D02*
X0143179Y0248030D01*
X0143179Y0247431D02*
X0148500Y0247431D01*
X0148500Y0246833D02*
X0143179Y0246833D01*
X0143179Y0246234D02*
X0148500Y0246234D01*
X0148500Y0245636D02*
X0143179Y0245636D01*
X0143179Y0245037D02*
X0148500Y0245037D01*
X0146533Y0244439D02*
X0142850Y0244439D01*
X0142252Y0243840D02*
X0145439Y0243840D01*
X0144840Y0243242D02*
X0142037Y0243242D01*
X0142037Y0242643D02*
X0144546Y0242643D01*
X0144299Y0242045D02*
X0142037Y0242045D01*
X0142037Y0241446D02*
X0144261Y0241446D01*
X0144261Y0240848D02*
X0142037Y0240848D01*
X0142037Y0240249D02*
X0144425Y0240249D01*
X0135248Y0245037D02*
X0126652Y0245037D01*
X0126734Y0245636D02*
X0135248Y0245636D01*
X0135248Y0246234D02*
X0126734Y0246234D01*
X0126734Y0246833D02*
X0135248Y0246833D01*
X0131185Y0244439D02*
X0128915Y0244439D01*
X0122968Y0247431D02*
X0119100Y0247431D01*
X0119100Y0246833D02*
X0119803Y0246833D01*
X0119803Y0246234D02*
X0119100Y0246234D01*
X0119100Y0245636D02*
X0119803Y0245636D01*
X0119885Y0245037D02*
X0119100Y0245037D01*
X0119100Y0248030D02*
X0119803Y0248030D01*
X0119803Y0248628D02*
X0119100Y0248628D01*
X0119100Y0249227D02*
X0119803Y0249227D01*
X0119858Y0249825D02*
X0119100Y0249825D01*
X0119100Y0251621D02*
X0119969Y0251621D01*
X0113500Y0251022D02*
X0107352Y0251022D01*
X0107950Y0250424D02*
X0113500Y0250424D01*
X0113500Y0249825D02*
X0108179Y0249825D01*
X0108179Y0249227D02*
X0113500Y0249227D01*
X0113500Y0248628D02*
X0108179Y0248628D01*
X0108179Y0248030D02*
X0113500Y0248030D01*
X0113500Y0247431D02*
X0108179Y0247431D01*
X0108179Y0246833D02*
X0113500Y0246833D01*
X0113500Y0246234D02*
X0108179Y0246234D01*
X0108179Y0245636D02*
X0113500Y0245636D01*
X0113500Y0245037D02*
X0108179Y0245037D01*
X0107850Y0244439D02*
X0111533Y0244439D01*
X0110439Y0243840D02*
X0107252Y0243840D01*
X0107037Y0243242D02*
X0109840Y0243242D01*
X0109546Y0242643D02*
X0107037Y0242643D01*
X0107037Y0242045D02*
X0109299Y0242045D01*
X0109261Y0241446D02*
X0107037Y0241446D01*
X0107037Y0240848D02*
X0109261Y0240848D01*
X0109425Y0240249D02*
X0107037Y0240249D01*
X0100248Y0245037D02*
X0091652Y0245037D01*
X0091734Y0245636D02*
X0100248Y0245636D01*
X0100248Y0246234D02*
X0091734Y0246234D01*
X0091734Y0246833D02*
X0100248Y0246833D01*
X0096185Y0244439D02*
X0093915Y0244439D01*
X0087968Y0247431D02*
X0084100Y0247431D01*
X0084100Y0246833D02*
X0084803Y0246833D01*
X0084803Y0246234D02*
X0084100Y0246234D01*
X0084100Y0245636D02*
X0084803Y0245636D01*
X0084885Y0245037D02*
X0084100Y0245037D01*
X0084100Y0248030D02*
X0084803Y0248030D01*
X0084803Y0248628D02*
X0084100Y0248628D01*
X0084100Y0249227D02*
X0084803Y0249227D01*
X0084858Y0249825D02*
X0084100Y0249825D01*
X0084100Y0251621D02*
X0084969Y0251621D01*
X0078500Y0251621D02*
X0057702Y0251621D01*
X0058301Y0252219D02*
X0078500Y0252219D01*
X0078500Y0252818D02*
X0058899Y0252818D01*
X0059498Y0253416D02*
X0078500Y0253416D01*
X0078500Y0254015D02*
X0060096Y0254015D01*
X0060695Y0254613D02*
X0078500Y0254613D01*
X0078500Y0255212D02*
X0061293Y0255212D01*
X0061892Y0255810D02*
X0078605Y0255810D01*
X0078853Y0256409D02*
X0062490Y0256409D01*
X0063089Y0257008D02*
X0079347Y0257008D01*
X0080273Y0257606D02*
X0063687Y0257606D01*
X0065483Y0259402D02*
X0302117Y0259402D01*
X0301519Y0260000D02*
X0066081Y0260000D01*
X0066680Y0260599D02*
X0300920Y0260599D01*
X0300322Y0261197D02*
X0067278Y0261197D01*
X0067877Y0261796D02*
X0299723Y0261796D01*
X0299125Y0262394D02*
X0068475Y0262394D01*
X0069074Y0262993D02*
X0298526Y0262993D01*
X0297928Y0263591D02*
X0069672Y0263591D01*
X0070271Y0264190D02*
X0297329Y0264190D01*
X0296731Y0264788D02*
X0070869Y0264788D01*
X0073015Y0265387D02*
X0294585Y0265387D01*
X0292082Y0265985D02*
X0075518Y0265985D01*
X0078021Y0266584D02*
X0181282Y0266584D01*
X0181565Y0266508D02*
X0184382Y0266508D01*
X0187102Y0267237D01*
X0189542Y0268645D01*
X0191533Y0270637D01*
X0192942Y0273076D01*
X0193671Y0275797D01*
X0193671Y0278614D01*
X0192942Y0281335D01*
X0191533Y0283774D01*
X0189542Y0285766D01*
X0187102Y0287174D01*
X0184382Y0287903D01*
X0181565Y0287903D01*
X0178844Y0287174D01*
X0176405Y0285766D01*
X0174413Y0283774D01*
X0173005Y0281335D01*
X0172276Y0278614D01*
X0172276Y0275797D01*
X0173005Y0273076D01*
X0174413Y0270637D01*
X0176405Y0268645D01*
X0178844Y0267237D01*
X0181565Y0266508D01*
X0179048Y0267182D02*
X0080523Y0267182D01*
X0083026Y0267781D02*
X0177902Y0267781D01*
X0176866Y0268379D02*
X0085529Y0268379D01*
X0088032Y0268978D02*
X0176072Y0268978D01*
X0175474Y0269576D02*
X0090535Y0269576D01*
X0093038Y0270175D02*
X0174875Y0270175D01*
X0174334Y0270773D02*
X0095541Y0270773D01*
X0098043Y0271372D02*
X0173989Y0271372D01*
X0173643Y0271970D02*
X0100546Y0271970D01*
X0103049Y0272569D02*
X0173298Y0272569D01*
X0172980Y0273167D02*
X0105552Y0273167D01*
X0108055Y0273766D02*
X0172820Y0273766D01*
X0172659Y0274364D02*
X0110558Y0274364D01*
X0113061Y0274963D02*
X0172499Y0274963D01*
X0172339Y0275561D02*
X0115564Y0275561D01*
X0118066Y0276160D02*
X0172276Y0276160D01*
X0172276Y0276758D02*
X0120569Y0276758D01*
X0123072Y0277357D02*
X0172276Y0277357D01*
X0172276Y0277955D02*
X0125575Y0277955D01*
X0128078Y0278554D02*
X0172276Y0278554D01*
X0172420Y0279152D02*
X0130581Y0279152D01*
X0133084Y0279751D02*
X0172580Y0279751D01*
X0172741Y0280349D02*
X0135586Y0280349D01*
X0138089Y0280948D02*
X0172901Y0280948D01*
X0173127Y0281546D02*
X0140592Y0281546D01*
X0143095Y0282145D02*
X0173472Y0282145D01*
X0173818Y0282743D02*
X0145598Y0282743D01*
X0148101Y0283342D02*
X0174164Y0283342D01*
X0174579Y0283941D02*
X0150604Y0283941D01*
X0153107Y0284539D02*
X0175178Y0284539D01*
X0175777Y0285138D02*
X0155609Y0285138D01*
X0158112Y0285736D02*
X0176375Y0285736D01*
X0177390Y0286335D02*
X0160615Y0286335D01*
X0163118Y0286933D02*
X0178427Y0286933D01*
X0180178Y0287532D02*
X0165621Y0287532D01*
X0168124Y0288130D02*
X0199476Y0288130D01*
X0196973Y0288729D02*
X0170627Y0288729D01*
X0173129Y0289327D02*
X0194471Y0289327D01*
X0191968Y0289926D02*
X0175632Y0289926D01*
X0178135Y0290524D02*
X0189465Y0290524D01*
X0186962Y0291123D02*
X0180638Y0291123D01*
X0183141Y0291721D02*
X0184459Y0291721D01*
X0185768Y0287532D02*
X0201979Y0287532D01*
X0204482Y0286933D02*
X0187520Y0286933D01*
X0188557Y0286335D02*
X0206985Y0286335D01*
X0209488Y0285736D02*
X0189571Y0285736D01*
X0190170Y0285138D02*
X0211991Y0285138D01*
X0214493Y0284539D02*
X0190768Y0284539D01*
X0191367Y0283941D02*
X0216996Y0283941D01*
X0219499Y0283342D02*
X0191783Y0283342D01*
X0192128Y0282743D02*
X0222002Y0282743D01*
X0224505Y0282145D02*
X0192474Y0282145D01*
X0192820Y0281546D02*
X0227008Y0281546D01*
X0229511Y0280948D02*
X0193045Y0280948D01*
X0193206Y0280349D02*
X0232013Y0280349D01*
X0234516Y0279751D02*
X0193366Y0279751D01*
X0193527Y0279152D02*
X0237019Y0279152D01*
X0239522Y0278554D02*
X0193671Y0278554D01*
X0193671Y0277955D02*
X0242025Y0277955D01*
X0244528Y0277357D02*
X0193671Y0277357D01*
X0193671Y0276758D02*
X0247031Y0276758D01*
X0249534Y0276160D02*
X0193671Y0276160D01*
X0193608Y0275561D02*
X0252036Y0275561D01*
X0254539Y0274963D02*
X0193447Y0274963D01*
X0193287Y0274364D02*
X0257042Y0274364D01*
X0259545Y0273766D02*
X0193127Y0273766D01*
X0192966Y0273167D02*
X0262048Y0273167D01*
X0264551Y0272569D02*
X0192649Y0272569D01*
X0192303Y0271970D02*
X0267054Y0271970D01*
X0269556Y0271372D02*
X0191958Y0271372D01*
X0191612Y0270773D02*
X0272059Y0270773D01*
X0274562Y0270175D02*
X0191071Y0270175D01*
X0190473Y0269576D02*
X0277065Y0269576D01*
X0279568Y0268978D02*
X0189874Y0268978D01*
X0189081Y0268379D02*
X0282071Y0268379D01*
X0284574Y0267781D02*
X0188044Y0267781D01*
X0186898Y0267182D02*
X0287077Y0267182D01*
X0289579Y0266584D02*
X0184665Y0266584D01*
X0189793Y0258205D02*
X0176792Y0258205D01*
X0176881Y0258181D02*
X0176550Y0258269D01*
X0174513Y0258269D01*
X0174513Y0255301D01*
X0173913Y0255301D01*
X0173913Y0254701D01*
X0170748Y0254701D01*
X0170748Y0252861D01*
X0170837Y0252530D01*
X0171008Y0252234D01*
X0171250Y0251992D01*
X0171546Y0251821D01*
X0171877Y0251732D01*
X0173913Y0251732D01*
X0173913Y0254701D01*
X0174513Y0254701D01*
X0174513Y0251732D01*
X0176550Y0251732D01*
X0176881Y0251821D01*
X0177177Y0251992D01*
X0177419Y0252234D01*
X0177590Y0252530D01*
X0177679Y0252861D01*
X0177679Y0254701D01*
X0174513Y0254701D01*
X0174513Y0255301D01*
X0177679Y0255301D01*
X0177679Y0257140D01*
X0177590Y0257471D01*
X0177419Y0257768D01*
X0177177Y0258010D01*
X0176881Y0258181D01*
X0177512Y0257606D02*
X0185273Y0257606D01*
X0184347Y0257008D02*
X0177679Y0257008D01*
X0177679Y0256409D02*
X0183853Y0256409D01*
X0183605Y0255810D02*
X0177679Y0255810D01*
X0177679Y0254613D02*
X0183500Y0254613D01*
X0183500Y0254015D02*
X0177679Y0254015D01*
X0177679Y0253416D02*
X0183500Y0253416D01*
X0183500Y0252818D02*
X0177667Y0252818D01*
X0177404Y0252219D02*
X0183500Y0252219D01*
X0183500Y0251621D02*
X0161568Y0251621D01*
X0162167Y0252219D02*
X0171022Y0252219D01*
X0170760Y0252818D02*
X0162234Y0252818D01*
X0162234Y0253416D02*
X0170748Y0253416D01*
X0170748Y0254015D02*
X0162234Y0254015D01*
X0162234Y0254613D02*
X0170748Y0254613D01*
X0170748Y0255301D02*
X0173913Y0255301D01*
X0173913Y0258269D01*
X0171877Y0258269D01*
X0171546Y0258181D01*
X0171250Y0258010D01*
X0171008Y0257768D01*
X0170837Y0257471D01*
X0170748Y0257140D01*
X0170748Y0255301D01*
X0170748Y0255810D02*
X0162234Y0255810D01*
X0162234Y0255212D02*
X0173913Y0255212D01*
X0173913Y0255810D02*
X0174513Y0255810D01*
X0174513Y0255212D02*
X0183500Y0255212D01*
X0183500Y0251022D02*
X0177352Y0251022D01*
X0177950Y0250424D02*
X0183500Y0250424D01*
X0183500Y0249825D02*
X0178179Y0249825D01*
X0178179Y0249227D02*
X0183500Y0249227D01*
X0183500Y0248628D02*
X0178179Y0248628D01*
X0178179Y0248030D02*
X0183500Y0248030D01*
X0183500Y0247431D02*
X0178179Y0247431D01*
X0178179Y0246833D02*
X0183500Y0246833D01*
X0183500Y0246234D02*
X0178179Y0246234D01*
X0178179Y0245636D02*
X0183500Y0245636D01*
X0183500Y0245037D02*
X0178179Y0245037D01*
X0177850Y0244439D02*
X0181533Y0244439D01*
X0180439Y0243840D02*
X0177252Y0243840D01*
X0177037Y0243242D02*
X0179840Y0243242D01*
X0179546Y0242643D02*
X0177037Y0242643D01*
X0177037Y0242045D02*
X0179299Y0242045D01*
X0179261Y0241446D02*
X0177037Y0241446D01*
X0177037Y0240848D02*
X0179261Y0240848D01*
X0179425Y0240249D02*
X0177037Y0240249D01*
X0170248Y0245037D02*
X0161652Y0245037D01*
X0161734Y0245636D02*
X0170248Y0245636D01*
X0170248Y0246234D02*
X0161734Y0246234D01*
X0161734Y0246833D02*
X0170248Y0246833D01*
X0170248Y0247431D02*
X0158569Y0247431D01*
X0158568Y0248030D02*
X0157969Y0248030D01*
X0157969Y0248628D02*
X0158568Y0248628D01*
X0158568Y0249227D02*
X0157969Y0249227D01*
X0157969Y0249825D02*
X0158568Y0249825D01*
X0158568Y0250424D02*
X0157969Y0250424D01*
X0155239Y0250424D02*
X0154100Y0250424D01*
X0154100Y0251022D02*
X0171075Y0251022D01*
X0170477Y0250424D02*
X0161298Y0250424D01*
X0161679Y0249825D02*
X0170248Y0249825D01*
X0170248Y0249227D02*
X0161734Y0249227D01*
X0161734Y0248628D02*
X0170248Y0248628D01*
X0170248Y0248030D02*
X0161734Y0248030D01*
X0157968Y0247431D02*
X0154100Y0247431D01*
X0154100Y0246833D02*
X0154803Y0246833D01*
X0154803Y0246234D02*
X0154100Y0246234D01*
X0154100Y0245636D02*
X0154803Y0245636D01*
X0154885Y0245037D02*
X0154100Y0245037D01*
X0154100Y0248030D02*
X0154803Y0248030D01*
X0154803Y0248628D02*
X0154100Y0248628D01*
X0154100Y0249227D02*
X0154803Y0249227D01*
X0154858Y0249825D02*
X0154100Y0249825D01*
X0154100Y0251621D02*
X0154969Y0251621D01*
X0162234Y0256409D02*
X0170748Y0256409D01*
X0170748Y0257008D02*
X0162234Y0257008D01*
X0162234Y0257606D02*
X0170915Y0257606D01*
X0171635Y0258205D02*
X0161744Y0258205D01*
X0173913Y0258205D02*
X0174513Y0258205D01*
X0174513Y0257606D02*
X0173913Y0257606D01*
X0173913Y0257008D02*
X0174513Y0257008D01*
X0174513Y0256409D02*
X0173913Y0256409D01*
X0173913Y0254613D02*
X0174513Y0254613D01*
X0174513Y0254015D02*
X0173913Y0254015D01*
X0173913Y0253416D02*
X0174513Y0253416D01*
X0174513Y0252818D02*
X0173913Y0252818D01*
X0173913Y0252219D02*
X0174513Y0252219D01*
X0166185Y0244439D02*
X0163915Y0244439D01*
X0171541Y0231870D02*
X0246919Y0231870D01*
X0245600Y0231272D02*
X0171541Y0231272D01*
X0171541Y0230673D02*
X0244892Y0230673D01*
X0244410Y0230074D02*
X0171541Y0230074D01*
X0171541Y0229476D02*
X0244079Y0229476D01*
X0243861Y0228877D02*
X0171541Y0228877D01*
X0171541Y0228279D02*
X0243738Y0228279D01*
X0243700Y0227400D02*
X0243700Y0227362D01*
X0243806Y0226693D01*
X0244015Y0226049D01*
X0244322Y0225446D01*
X0244720Y0224899D01*
X0245199Y0224420D01*
X0245746Y0224022D01*
X0246349Y0223715D01*
X0246993Y0223506D01*
X0247662Y0223400D01*
X0250700Y0223400D01*
X0250700Y0227400D01*
X0243700Y0227400D01*
X0243744Y0227082D02*
X0171541Y0227082D01*
X0171541Y0227680D02*
X0250700Y0227680D01*
X0250700Y0227082D02*
X0251300Y0227082D01*
X0251300Y0227680D02*
X0276300Y0227680D01*
X0276300Y0228279D02*
X0276900Y0228279D01*
X0276900Y0228877D02*
X0276300Y0228877D01*
X0276300Y0229476D02*
X0276900Y0229476D01*
X0276900Y0230074D02*
X0276300Y0230074D01*
X0276300Y0230673D02*
X0276900Y0230673D01*
X0276900Y0231272D02*
X0276300Y0231272D01*
X0276300Y0231870D02*
X0276900Y0231870D01*
X0272519Y0231870D02*
X0266521Y0231870D01*
X0265923Y0231272D02*
X0271200Y0231272D01*
X0270492Y0230673D02*
X0264845Y0230673D01*
X0275991Y0237855D02*
X0276609Y0237855D01*
X0262968Y0247431D02*
X0259100Y0247431D01*
X0259100Y0246833D02*
X0259803Y0246833D01*
X0259803Y0246234D02*
X0259100Y0246234D01*
X0259100Y0245636D02*
X0259803Y0245636D01*
X0259885Y0245037D02*
X0259100Y0245037D01*
X0259100Y0248030D02*
X0259803Y0248030D01*
X0259803Y0248628D02*
X0259100Y0248628D01*
X0259100Y0249227D02*
X0259803Y0249227D01*
X0259858Y0249825D02*
X0259100Y0249825D01*
X0259100Y0251621D02*
X0259969Y0251621D01*
X0253500Y0251621D02*
X0231568Y0251621D01*
X0232167Y0252219D02*
X0241022Y0252219D01*
X0241008Y0252234D02*
X0241250Y0251992D01*
X0241546Y0251821D01*
X0241877Y0251732D01*
X0243913Y0251732D01*
X0243913Y0254701D01*
X0240748Y0254701D01*
X0240748Y0252861D01*
X0240837Y0252530D01*
X0241008Y0252234D01*
X0240760Y0252818D02*
X0232234Y0252818D01*
X0232234Y0253416D02*
X0240748Y0253416D01*
X0240748Y0254015D02*
X0232234Y0254015D01*
X0232234Y0254613D02*
X0240748Y0254613D01*
X0240748Y0255301D02*
X0243913Y0255301D01*
X0243913Y0254701D01*
X0244513Y0254701D01*
X0244513Y0251732D01*
X0246550Y0251732D01*
X0246881Y0251821D01*
X0247177Y0251992D01*
X0247419Y0252234D01*
X0247590Y0252530D01*
X0247679Y0252861D01*
X0247679Y0254701D01*
X0244513Y0254701D01*
X0244513Y0255301D01*
X0243913Y0255301D01*
X0243913Y0258269D01*
X0241877Y0258269D01*
X0241546Y0258181D01*
X0241250Y0258010D01*
X0241008Y0257768D01*
X0240837Y0257471D01*
X0240748Y0257140D01*
X0240748Y0255301D01*
X0240748Y0255810D02*
X0232234Y0255810D01*
X0232234Y0255212D02*
X0243913Y0255212D01*
X0243913Y0255810D02*
X0244513Y0255810D01*
X0244513Y0255301D02*
X0244513Y0258269D01*
X0246550Y0258269D01*
X0246881Y0258181D01*
X0247177Y0258010D01*
X0247419Y0257768D01*
X0247590Y0257471D01*
X0247679Y0257140D01*
X0247679Y0255301D01*
X0244513Y0255301D01*
X0244513Y0255212D02*
X0253500Y0255212D01*
X0253500Y0254613D02*
X0247679Y0254613D01*
X0247679Y0254015D02*
X0253500Y0254015D01*
X0253500Y0253416D02*
X0247679Y0253416D01*
X0247667Y0252818D02*
X0253500Y0252818D01*
X0253500Y0252219D02*
X0247404Y0252219D01*
X0247352Y0251022D02*
X0253500Y0251022D01*
X0253500Y0250424D02*
X0247950Y0250424D01*
X0248179Y0249825D02*
X0253500Y0249825D01*
X0253500Y0249227D02*
X0248179Y0249227D01*
X0248179Y0248628D02*
X0253500Y0248628D01*
X0253500Y0248030D02*
X0248179Y0248030D01*
X0248179Y0247431D02*
X0253500Y0247431D01*
X0253500Y0246833D02*
X0248179Y0246833D01*
X0248179Y0246234D02*
X0253500Y0246234D01*
X0253500Y0245636D02*
X0248179Y0245636D01*
X0248179Y0245037D02*
X0253500Y0245037D01*
X0252783Y0244439D02*
X0247850Y0244439D01*
X0247252Y0243840D02*
X0251689Y0243840D01*
X0251090Y0243242D02*
X0247037Y0243242D01*
X0247037Y0242643D02*
X0250796Y0242643D01*
X0250549Y0242045D02*
X0247037Y0242045D01*
X0247037Y0241446D02*
X0250511Y0241446D01*
X0250511Y0240848D02*
X0247037Y0240848D01*
X0247037Y0240249D02*
X0250675Y0240249D01*
X0250700Y0231870D02*
X0251300Y0231870D01*
X0251300Y0231272D02*
X0250700Y0231272D01*
X0250700Y0230673D02*
X0251300Y0230673D01*
X0251300Y0230074D02*
X0250700Y0230074D01*
X0250700Y0229476D02*
X0251300Y0229476D01*
X0251300Y0228877D02*
X0250700Y0228877D01*
X0250700Y0228279D02*
X0251300Y0228279D01*
X0251300Y0226483D02*
X0250700Y0226483D01*
X0250700Y0225885D02*
X0251300Y0225885D01*
X0251300Y0225286D02*
X0250700Y0225286D01*
X0250700Y0224688D02*
X0251300Y0224688D01*
X0251300Y0224089D02*
X0250700Y0224089D01*
X0250700Y0223491D02*
X0251300Y0223491D01*
X0247088Y0223491D02*
X0171541Y0223491D01*
X0171541Y0224089D02*
X0245654Y0224089D01*
X0244931Y0224688D02*
X0171541Y0224688D01*
X0171541Y0225286D02*
X0244438Y0225286D01*
X0244099Y0225885D02*
X0171541Y0225885D01*
X0171541Y0226483D02*
X0243874Y0226483D01*
X0231656Y0220498D02*
X0289166Y0220498D01*
X0289109Y0219900D02*
X0231904Y0219900D01*
X0232089Y0219301D02*
X0289052Y0219301D01*
X0288995Y0218703D02*
X0232089Y0218703D01*
X0232072Y0218104D02*
X0288938Y0218104D01*
X0288881Y0217506D02*
X0231824Y0217506D01*
X0231559Y0216907D02*
X0288824Y0216907D01*
X0288767Y0216309D02*
X0232044Y0216309D01*
X0231154Y0221097D02*
X0289223Y0221097D01*
X0289280Y0221695D02*
X0230405Y0221695D01*
X0227195Y0221695D02*
X0171541Y0221695D01*
X0171541Y0221097D02*
X0226446Y0221097D01*
X0225944Y0220498D02*
X0171541Y0220498D01*
X0171541Y0219900D02*
X0225696Y0219900D01*
X0225511Y0219301D02*
X0171541Y0219301D01*
X0171541Y0218703D02*
X0225511Y0218703D01*
X0225528Y0218104D02*
X0225021Y0218104D01*
X0222579Y0218104D02*
X0171541Y0218104D01*
X0171541Y0217506D02*
X0221604Y0217506D01*
X0221009Y0216907D02*
X0171541Y0216907D01*
X0171541Y0216309D02*
X0220761Y0216309D01*
X0220514Y0215710D02*
X0171541Y0215710D01*
X0171541Y0215112D02*
X0220511Y0215112D01*
X0220511Y0214513D02*
X0171541Y0214513D01*
X0171541Y0213915D02*
X0220710Y0213915D01*
X0220759Y0213316D02*
X0220958Y0213316D01*
X0219341Y0213316D02*
X0171541Y0213316D01*
X0171541Y0212718D02*
X0218066Y0212718D01*
X0217468Y0212119D02*
X0171541Y0212119D01*
X0171541Y0211521D02*
X0217099Y0211521D01*
X0216851Y0210922D02*
X0171541Y0210922D01*
X0171541Y0210324D02*
X0216761Y0210324D01*
X0216761Y0209725D02*
X0171541Y0209725D01*
X0171541Y0209127D02*
X0216873Y0209127D01*
X0217120Y0208528D02*
X0171541Y0208528D01*
X0171541Y0207930D02*
X0217519Y0207930D01*
X0217750Y0207331D02*
X0171541Y0207331D01*
X0171541Y0206733D02*
X0217750Y0206733D01*
X0217750Y0206134D02*
X0171541Y0206134D01*
X0171541Y0205536D02*
X0217750Y0205536D01*
X0218160Y0204937D02*
X0171541Y0204937D01*
X0171541Y0204339D02*
X0218759Y0204339D01*
X0217839Y0203740D02*
X0171541Y0203740D01*
X0171541Y0203141D02*
X0208919Y0203141D01*
X0207892Y0202543D02*
X0171541Y0202543D01*
X0171541Y0201944D02*
X0207293Y0201944D01*
X0207027Y0201346D02*
X0171541Y0201346D01*
X0171541Y0200747D02*
X0206779Y0200747D01*
X0206761Y0200149D02*
X0171541Y0200149D01*
X0171541Y0199550D02*
X0206761Y0199550D01*
X0206945Y0198952D02*
X0171541Y0198952D01*
X0171541Y0198353D02*
X0207193Y0198353D01*
X0207503Y0197755D02*
X0171541Y0197755D01*
X0171541Y0197156D02*
X0206905Y0197156D01*
X0206306Y0196558D02*
X0171541Y0196558D01*
X0171541Y0195959D02*
X0205708Y0195959D01*
X0205109Y0195361D02*
X0171407Y0195361D01*
X0171159Y0194762D02*
X0204511Y0194762D01*
X0200869Y0194164D02*
X0170624Y0194164D01*
X0165697Y0197156D02*
X0151162Y0197156D01*
X0150705Y0196700D02*
X0153400Y0199395D01*
X0153400Y0201000D01*
X0149100Y0201000D01*
X0149100Y0201600D01*
X0153400Y0201600D01*
X0153400Y0203205D01*
X0150705Y0205900D01*
X0149100Y0205900D01*
X0149100Y0201600D01*
X0148500Y0201600D01*
X0148500Y0205900D01*
X0146895Y0205900D01*
X0144200Y0203205D01*
X0144200Y0201600D01*
X0148500Y0201600D01*
X0148500Y0201000D01*
X0149100Y0201000D01*
X0149100Y0196700D01*
X0150705Y0196700D01*
X0151353Y0195959D02*
X0164500Y0195959D01*
X0165098Y0196558D02*
X0138100Y0196558D01*
X0138100Y0197156D02*
X0146438Y0197156D01*
X0146895Y0196700D02*
X0148500Y0196700D01*
X0148500Y0201000D01*
X0144200Y0201000D01*
X0144200Y0199395D01*
X0146895Y0196700D01*
X0146247Y0195959D02*
X0138100Y0195959D01*
X0138100Y0195361D02*
X0145648Y0195361D01*
X0145050Y0194762D02*
X0138100Y0194762D01*
X0138100Y0194164D02*
X0144451Y0194164D01*
X0143853Y0193565D02*
X0138100Y0193565D01*
X0138100Y0192967D02*
X0143700Y0192967D01*
X0143700Y0192368D02*
X0138100Y0192368D01*
X0138100Y0191770D02*
X0143700Y0191770D01*
X0143700Y0191171D02*
X0138100Y0191171D01*
X0138100Y0190573D02*
X0143700Y0190573D01*
X0143700Y0189974D02*
X0138100Y0189974D01*
X0138100Y0189376D02*
X0143700Y0189376D01*
X0144110Y0188777D02*
X0138100Y0188777D01*
X0138100Y0188179D02*
X0144709Y0188179D01*
X0145307Y0187580D02*
X0138100Y0187580D01*
X0138100Y0186982D02*
X0145906Y0186982D01*
X0146504Y0186383D02*
X0138100Y0186383D01*
X0138100Y0185785D02*
X0179388Y0185785D01*
X0178790Y0186383D02*
X0151096Y0186383D01*
X0151694Y0186982D02*
X0178191Y0186982D01*
X0177593Y0187580D02*
X0152293Y0187580D01*
X0152891Y0188179D02*
X0176994Y0188179D01*
X0176144Y0185186D02*
X0179987Y0185186D01*
X0180585Y0184588D02*
X0176742Y0184588D01*
X0177341Y0183989D02*
X0181184Y0183989D01*
X0181782Y0183391D02*
X0177939Y0183391D01*
X0178538Y0182792D02*
X0179391Y0182792D01*
X0184348Y0188179D02*
X0200250Y0188179D01*
X0200250Y0188777D02*
X0183750Y0188777D01*
X0183151Y0189376D02*
X0199823Y0189376D01*
X0199539Y0189974D02*
X0182553Y0189974D01*
X0181954Y0190573D02*
X0199291Y0190573D01*
X0199261Y0191171D02*
X0181356Y0191171D01*
X0180757Y0191770D02*
X0199261Y0191770D01*
X0199433Y0192368D02*
X0180159Y0192368D01*
X0179560Y0192967D02*
X0199680Y0192967D01*
X0200164Y0193565D02*
X0178875Y0193565D01*
X0184947Y0187580D02*
X0200250Y0187580D01*
X0199979Y0186982D02*
X0185545Y0186982D01*
X0186144Y0186383D02*
X0199380Y0186383D01*
X0198782Y0185785D02*
X0186742Y0185785D01*
X0187341Y0185186D02*
X0198183Y0185186D01*
X0197585Y0184588D02*
X0187939Y0184588D01*
X0188538Y0183989D02*
X0196986Y0183989D01*
X0196388Y0183391D02*
X0189136Y0183391D01*
X0190709Y0182792D02*
X0195789Y0182792D01*
X0195191Y0182194D02*
X0191308Y0182194D01*
X0191720Y0181595D02*
X0194592Y0181595D01*
X0193994Y0180997D02*
X0191968Y0180997D01*
X0192089Y0180398D02*
X0193395Y0180398D01*
X0192797Y0179800D02*
X0192089Y0179800D01*
X0192008Y0179201D02*
X0192198Y0179201D01*
X0196744Y0174413D02*
X0220250Y0174413D01*
X0220250Y0175011D02*
X0197343Y0175011D01*
X0197941Y0175610D02*
X0220250Y0175610D01*
X0220250Y0176208D02*
X0198540Y0176208D01*
X0199138Y0176807D02*
X0205535Y0176807D01*
X0204293Y0177405D02*
X0199737Y0177405D01*
X0200335Y0178004D02*
X0203695Y0178004D01*
X0203340Y0178603D02*
X0200934Y0178603D01*
X0201532Y0179201D02*
X0203092Y0179201D01*
X0203011Y0179800D02*
X0202131Y0179800D01*
X0202729Y0180398D02*
X0203011Y0180398D01*
X0205722Y0183391D02*
X0220957Y0183391D01*
X0220641Y0182792D02*
X0208209Y0182792D01*
X0206919Y0184588D02*
X0219760Y0184588D01*
X0219161Y0185186D02*
X0207517Y0185186D01*
X0207839Y0185785D02*
X0219000Y0185785D01*
X0219000Y0186383D02*
X0207839Y0186383D01*
X0207839Y0186982D02*
X0219000Y0186982D01*
X0219000Y0187580D02*
X0207839Y0187580D01*
X0207839Y0188179D02*
X0219000Y0188179D01*
X0219000Y0188777D02*
X0207839Y0188777D01*
X0207839Y0189376D02*
X0219000Y0189376D01*
X0219000Y0189974D02*
X0207839Y0189974D01*
X0207839Y0190573D02*
X0219000Y0190573D01*
X0219000Y0191171D02*
X0207839Y0191171D01*
X0208023Y0191770D02*
X0219000Y0191770D01*
X0219000Y0192368D02*
X0208622Y0192368D01*
X0209220Y0192967D02*
X0219000Y0192967D01*
X0219000Y0193565D02*
X0209819Y0193565D01*
X0210417Y0194164D02*
X0219000Y0194164D01*
X0219000Y0194762D02*
X0211016Y0194762D01*
X0211614Y0195361D02*
X0219000Y0195361D01*
X0219000Y0195959D02*
X0212213Y0195959D01*
X0212350Y0196558D02*
X0219000Y0196558D01*
X0219000Y0197156D02*
X0212350Y0197156D01*
X0212406Y0197755D02*
X0219000Y0197755D01*
X0218569Y0198353D02*
X0212907Y0198353D01*
X0213155Y0198952D02*
X0217747Y0198952D01*
X0217215Y0199550D02*
X0213339Y0199550D01*
X0213339Y0200149D02*
X0216967Y0200149D01*
X0216761Y0200747D02*
X0213321Y0200747D01*
X0213073Y0201346D02*
X0216761Y0201346D01*
X0216761Y0201944D02*
X0212807Y0201944D01*
X0212208Y0202543D02*
X0217005Y0202543D01*
X0217253Y0203141D02*
X0211181Y0203141D01*
X0222350Y0207331D02*
X0223266Y0207331D01*
X0222870Y0206733D02*
X0223865Y0206733D01*
X0223469Y0206134D02*
X0224463Y0206134D01*
X0224067Y0205536D02*
X0225062Y0205536D01*
X0224666Y0204937D02*
X0225660Y0204937D01*
X0225264Y0204339D02*
X0226259Y0204339D01*
X0225863Y0203740D02*
X0226857Y0203740D01*
X0226461Y0203141D02*
X0227456Y0203141D01*
X0227060Y0202543D02*
X0228054Y0202543D01*
X0227658Y0201944D02*
X0228653Y0201944D01*
X0228257Y0201346D02*
X0245703Y0201346D01*
X0244966Y0200747D02*
X0228855Y0200747D01*
X0229454Y0200149D02*
X0244464Y0200149D01*
X0244117Y0199550D02*
X0230052Y0199550D01*
X0230651Y0198952D02*
X0243885Y0198952D01*
X0243750Y0198353D02*
X0239999Y0198353D01*
X0240598Y0197755D02*
X0250700Y0197755D01*
X0250700Y0197400D02*
X0243700Y0197400D01*
X0243700Y0197362D01*
X0243806Y0196693D01*
X0244015Y0196049D01*
X0244322Y0195446D01*
X0244720Y0194899D01*
X0245199Y0194420D01*
X0245746Y0194022D01*
X0246349Y0193715D01*
X0246993Y0193506D01*
X0247662Y0193400D01*
X0250700Y0193400D01*
X0250700Y0197400D01*
X0250700Y0197156D02*
X0251300Y0197156D01*
X0251300Y0197400D02*
X0251300Y0193400D01*
X0254338Y0193400D01*
X0255007Y0193506D01*
X0255651Y0193715D01*
X0256254Y0194022D01*
X0256801Y0194420D01*
X0257280Y0194899D01*
X0257678Y0195446D01*
X0257985Y0196049D01*
X0258194Y0196693D01*
X0258300Y0197362D01*
X0258300Y0197400D01*
X0251300Y0197400D01*
X0251300Y0197755D02*
X0259000Y0197755D01*
X0259000Y0197156D02*
X0258267Y0197156D01*
X0258150Y0196558D02*
X0259000Y0196558D01*
X0259000Y0195959D02*
X0257939Y0195959D01*
X0257616Y0195361D02*
X0259000Y0195361D01*
X0259000Y0194762D02*
X0257143Y0194762D01*
X0256448Y0194164D02*
X0259000Y0194164D01*
X0259000Y0193565D02*
X0255190Y0193565D01*
X0259000Y0192967D02*
X0245386Y0192967D01*
X0244787Y0193565D02*
X0246810Y0193565D01*
X0245552Y0194164D02*
X0244189Y0194164D01*
X0243590Y0194762D02*
X0244857Y0194762D01*
X0244384Y0195361D02*
X0242992Y0195361D01*
X0242393Y0195959D02*
X0244061Y0195959D01*
X0243850Y0196558D02*
X0241795Y0196558D01*
X0241196Y0197156D02*
X0243732Y0197156D01*
X0245984Y0192368D02*
X0259000Y0192368D01*
X0259000Y0191770D02*
X0246583Y0191770D01*
X0247181Y0191171D02*
X0259000Y0191171D01*
X0258474Y0190573D02*
X0247780Y0190573D01*
X0248378Y0189974D02*
X0258226Y0189974D01*
X0258011Y0189376D02*
X0248977Y0189376D01*
X0249575Y0188777D02*
X0258011Y0188777D01*
X0258011Y0188179D02*
X0250174Y0188179D01*
X0250772Y0187580D02*
X0258245Y0187580D01*
X0258493Y0186982D02*
X0251371Y0186982D01*
X0251970Y0186383D02*
X0259066Y0186383D01*
X0259985Y0185785D02*
X0252568Y0185785D01*
X0253167Y0185186D02*
X0285803Y0185186D01*
X0285746Y0184588D02*
X0280826Y0184588D01*
X0282271Y0183989D02*
X0285689Y0183989D01*
X0285632Y0183391D02*
X0282898Y0183391D01*
X0283496Y0182792D02*
X0285575Y0182792D01*
X0285518Y0182194D02*
X0283845Y0182194D01*
X0284093Y0181595D02*
X0285461Y0181595D01*
X0285404Y0180997D02*
X0284341Y0180997D01*
X0284400Y0180398D02*
X0285347Y0180398D01*
X0285290Y0179800D02*
X0284400Y0179800D01*
X0284400Y0179201D02*
X0285233Y0179201D01*
X0285176Y0178603D02*
X0284258Y0178603D01*
X0284010Y0178004D02*
X0285119Y0178004D01*
X0285062Y0177405D02*
X0283762Y0177405D01*
X0283295Y0176807D02*
X0285005Y0176807D01*
X0284948Y0176208D02*
X0282697Y0176208D01*
X0281786Y0175610D02*
X0284891Y0175610D01*
X0284834Y0175011D02*
X0238600Y0175011D01*
X0238600Y0175610D02*
X0245814Y0175610D01*
X0244903Y0176208D02*
X0238600Y0176208D01*
X0238600Y0176807D02*
X0244305Y0176807D01*
X0243838Y0177405D02*
X0238600Y0177405D01*
X0238600Y0178004D02*
X0243590Y0178004D01*
X0243342Y0178603D02*
X0238600Y0178603D01*
X0238600Y0179201D02*
X0243200Y0179201D01*
X0243200Y0179800D02*
X0238600Y0179800D01*
X0238600Y0180398D02*
X0243200Y0180398D01*
X0243259Y0180997D02*
X0238600Y0180997D01*
X0238600Y0181595D02*
X0243507Y0181595D01*
X0243755Y0182194D02*
X0238600Y0182194D01*
X0238600Y0182792D02*
X0244104Y0182792D01*
X0244702Y0183391D02*
X0238600Y0183391D01*
X0238600Y0183989D02*
X0245329Y0183989D01*
X0246774Y0184588D02*
X0238600Y0184588D01*
X0238600Y0185186D02*
X0246661Y0185186D01*
X0246063Y0185785D02*
X0238600Y0185785D01*
X0238600Y0186383D02*
X0245464Y0186383D01*
X0244866Y0186982D02*
X0238600Y0186982D01*
X0238600Y0187580D02*
X0244267Y0187580D01*
X0243669Y0188179D02*
X0238600Y0188179D01*
X0238600Y0188777D02*
X0243070Y0188777D01*
X0242472Y0189376D02*
X0239027Y0189376D01*
X0239311Y0189974D02*
X0241873Y0189974D01*
X0241275Y0190573D02*
X0239559Y0190573D01*
X0239589Y0191171D02*
X0240676Y0191171D01*
X0240078Y0191770D02*
X0239589Y0191770D01*
X0239479Y0192368D02*
X0239417Y0192368D01*
X0250700Y0193565D02*
X0251300Y0193565D01*
X0251300Y0194164D02*
X0250700Y0194164D01*
X0250700Y0194762D02*
X0251300Y0194762D01*
X0251300Y0195361D02*
X0250700Y0195361D01*
X0250700Y0195959D02*
X0251300Y0195959D01*
X0251300Y0196558D02*
X0250700Y0196558D01*
X0258250Y0198353D02*
X0258494Y0198353D01*
X0262007Y0201346D02*
X0271303Y0201346D01*
X0271346Y0201378D02*
X0270799Y0200980D01*
X0270320Y0200501D01*
X0269922Y0199954D01*
X0269615Y0199351D01*
X0269406Y0198707D01*
X0269300Y0198038D01*
X0269300Y0198000D01*
X0276300Y0198000D01*
X0276300Y0202000D01*
X0273262Y0202000D01*
X0272593Y0201894D01*
X0271949Y0201685D01*
X0271346Y0201378D01*
X0270566Y0200747D02*
X0262605Y0200747D01*
X0263204Y0200149D02*
X0270064Y0200149D01*
X0269717Y0199550D02*
X0263600Y0199550D01*
X0263600Y0198952D02*
X0269485Y0198952D01*
X0269350Y0198353D02*
X0263600Y0198353D01*
X0263600Y0197755D02*
X0276300Y0197755D01*
X0276300Y0198000D02*
X0276300Y0197400D01*
X0276900Y0197400D01*
X0276900Y0198000D01*
X0276300Y0198000D01*
X0276300Y0198353D02*
X0276900Y0198353D01*
X0276900Y0198000D02*
X0276900Y0202000D01*
X0279938Y0202000D01*
X0280607Y0201894D01*
X0281251Y0201685D01*
X0281854Y0201378D01*
X0282401Y0200980D01*
X0282880Y0200501D01*
X0283278Y0199954D01*
X0283585Y0199351D01*
X0283794Y0198707D01*
X0283900Y0198038D01*
X0283900Y0198000D01*
X0276900Y0198000D01*
X0276900Y0197755D02*
X0287000Y0197755D01*
X0287057Y0198353D02*
X0283850Y0198353D01*
X0283715Y0198952D02*
X0287114Y0198952D01*
X0287171Y0199550D02*
X0283483Y0199550D01*
X0283136Y0200149D02*
X0287228Y0200149D01*
X0287285Y0200747D02*
X0282634Y0200747D01*
X0281897Y0201346D02*
X0287342Y0201346D01*
X0287399Y0201944D02*
X0280289Y0201944D01*
X0280555Y0205100D02*
X0282319Y0205831D01*
X0283669Y0207181D01*
X0284400Y0208945D01*
X0284400Y0210855D01*
X0283669Y0212619D01*
X0282319Y0213969D01*
X0280555Y0214700D01*
X0272645Y0214700D01*
X0270881Y0213969D01*
X0269531Y0212619D01*
X0268800Y0210855D01*
X0268800Y0208945D01*
X0269531Y0207181D01*
X0270881Y0205831D01*
X0272645Y0205100D01*
X0280555Y0205100D01*
X0281606Y0205536D02*
X0287741Y0205536D01*
X0287798Y0206134D02*
X0282622Y0206134D01*
X0283221Y0206733D02*
X0287855Y0206733D01*
X0287912Y0207331D02*
X0283731Y0207331D01*
X0283979Y0207930D02*
X0287969Y0207930D01*
X0288026Y0208528D02*
X0284227Y0208528D01*
X0284400Y0209127D02*
X0288083Y0209127D01*
X0288140Y0209725D02*
X0284400Y0209725D01*
X0284400Y0210324D02*
X0288197Y0210324D01*
X0288254Y0210922D02*
X0284372Y0210922D01*
X0284124Y0211521D02*
X0288311Y0211521D01*
X0288368Y0212119D02*
X0283876Y0212119D01*
X0283571Y0212718D02*
X0288425Y0212718D01*
X0288482Y0213316D02*
X0282972Y0213316D01*
X0282374Y0213915D02*
X0288539Y0213915D01*
X0288596Y0214513D02*
X0281006Y0214513D01*
X0288653Y0215112D02*
X0249341Y0215112D01*
X0248742Y0215710D02*
X0288710Y0215710D01*
X0289337Y0222294D02*
X0171541Y0222294D01*
X0171541Y0222892D02*
X0289394Y0222892D01*
X0272194Y0214513D02*
X0255406Y0214513D01*
X0256774Y0213915D02*
X0270826Y0213915D01*
X0270228Y0213316D02*
X0257372Y0213316D01*
X0257971Y0212718D02*
X0269629Y0212718D01*
X0269324Y0212119D02*
X0258276Y0212119D01*
X0258524Y0211521D02*
X0269076Y0211521D01*
X0268828Y0210922D02*
X0258772Y0210922D01*
X0258800Y0210324D02*
X0268800Y0210324D01*
X0268800Y0209725D02*
X0258800Y0209725D01*
X0258800Y0209127D02*
X0268800Y0209127D01*
X0268973Y0208528D02*
X0258627Y0208528D01*
X0258379Y0207930D02*
X0269221Y0207930D01*
X0269469Y0207331D02*
X0258131Y0207331D01*
X0257621Y0206733D02*
X0269979Y0206733D01*
X0270578Y0206134D02*
X0257022Y0206134D01*
X0257817Y0205536D02*
X0271594Y0205536D01*
X0272911Y0201944D02*
X0261408Y0201944D01*
X0260810Y0202543D02*
X0287456Y0202543D01*
X0287513Y0203141D02*
X0260211Y0203141D01*
X0259613Y0203740D02*
X0287570Y0203740D01*
X0287627Y0204339D02*
X0259014Y0204339D01*
X0258600Y0204753D02*
X0258600Y0204753D01*
X0258416Y0204937D02*
X0287684Y0204937D01*
X0286943Y0197156D02*
X0283867Y0197156D01*
X0283900Y0197362D02*
X0283900Y0197400D01*
X0276900Y0197400D01*
X0276900Y0193400D01*
X0279938Y0193400D01*
X0280607Y0193506D01*
X0281251Y0193715D01*
X0281854Y0194022D01*
X0282401Y0194420D01*
X0282880Y0194899D01*
X0283278Y0195446D01*
X0283585Y0196049D01*
X0283794Y0196693D01*
X0283900Y0197362D01*
X0283750Y0196558D02*
X0286886Y0196558D01*
X0286829Y0195959D02*
X0283539Y0195959D01*
X0283216Y0195361D02*
X0286772Y0195361D01*
X0286715Y0194762D02*
X0282743Y0194762D01*
X0282048Y0194164D02*
X0286658Y0194164D01*
X0286601Y0193565D02*
X0280790Y0193565D01*
X0276900Y0193565D02*
X0276300Y0193565D01*
X0276300Y0193400D02*
X0273262Y0193400D01*
X0272593Y0193506D01*
X0271949Y0193715D01*
X0271346Y0194022D01*
X0270799Y0194420D01*
X0270320Y0194899D01*
X0269922Y0195446D01*
X0269615Y0196049D01*
X0269406Y0196693D01*
X0269300Y0197362D01*
X0269300Y0197400D01*
X0276300Y0197400D01*
X0276300Y0193400D01*
X0276300Y0194164D02*
X0276900Y0194164D01*
X0276900Y0194762D02*
X0276300Y0194762D01*
X0276300Y0195361D02*
X0276900Y0195361D01*
X0276900Y0195959D02*
X0276300Y0195959D01*
X0276300Y0196558D02*
X0276900Y0196558D01*
X0276900Y0197156D02*
X0276300Y0197156D01*
X0276300Y0198952D02*
X0276900Y0198952D01*
X0276900Y0199550D02*
X0276300Y0199550D01*
X0276300Y0200149D02*
X0276900Y0200149D01*
X0276900Y0200747D02*
X0276300Y0200747D01*
X0276300Y0201346D02*
X0276900Y0201346D01*
X0276900Y0201944D02*
X0276300Y0201944D01*
X0269332Y0197156D02*
X0263600Y0197156D01*
X0263600Y0196558D02*
X0269450Y0196558D01*
X0269661Y0195959D02*
X0263600Y0195959D01*
X0263600Y0195361D02*
X0269984Y0195361D01*
X0270457Y0194762D02*
X0263600Y0194762D01*
X0263600Y0194164D02*
X0271152Y0194164D01*
X0272410Y0193565D02*
X0263600Y0193565D01*
X0263600Y0192967D02*
X0286544Y0192967D01*
X0286487Y0192368D02*
X0263600Y0192368D01*
X0263600Y0191770D02*
X0286430Y0191770D01*
X0286373Y0191171D02*
X0263600Y0191171D01*
X0264126Y0190573D02*
X0286316Y0190573D01*
X0286259Y0189974D02*
X0264374Y0189974D01*
X0264589Y0189376D02*
X0286202Y0189376D01*
X0286145Y0188777D02*
X0264589Y0188777D01*
X0264589Y0188179D02*
X0286088Y0188179D01*
X0286031Y0187580D02*
X0264355Y0187580D01*
X0264107Y0186982D02*
X0285974Y0186982D01*
X0285917Y0186383D02*
X0263534Y0186383D01*
X0262615Y0185785D02*
X0285860Y0185785D01*
X0284777Y0174413D02*
X0238940Y0174413D01*
X0239538Y0173814D02*
X0284720Y0173814D01*
X0284663Y0173216D02*
X0240137Y0173216D01*
X0240735Y0172617D02*
X0284606Y0172617D01*
X0284549Y0172019D02*
X0241334Y0172019D01*
X0241932Y0171420D02*
X0284492Y0171420D01*
X0284435Y0170822D02*
X0242531Y0170822D01*
X0243129Y0170223D02*
X0284378Y0170223D01*
X0284321Y0169625D02*
X0243728Y0169625D01*
X0244326Y0169026D02*
X0284264Y0169026D01*
X0284207Y0168428D02*
X0244925Y0168428D01*
X0245523Y0167829D02*
X0284150Y0167829D01*
X0284093Y0167231D02*
X0246122Y0167231D01*
X0246720Y0166632D02*
X0284036Y0166632D01*
X0283979Y0166034D02*
X0247319Y0166034D01*
X0247917Y0165435D02*
X0283922Y0165435D01*
X0283865Y0164837D02*
X0248516Y0164837D01*
X0249114Y0164238D02*
X0283808Y0164238D01*
X0283751Y0163640D02*
X0249713Y0163640D01*
X0250311Y0163041D02*
X0283694Y0163041D01*
X0283637Y0162443D02*
X0250910Y0162443D01*
X0251508Y0161844D02*
X0283580Y0161844D01*
X0283523Y0161246D02*
X0252107Y0161246D01*
X0252705Y0160647D02*
X0283466Y0160647D01*
X0283409Y0160049D02*
X0253304Y0160049D01*
X0253903Y0159450D02*
X0283352Y0159450D01*
X0283295Y0158852D02*
X0254501Y0158852D01*
X0255100Y0158253D02*
X0283238Y0158253D01*
X0283181Y0157655D02*
X0255698Y0157655D01*
X0256297Y0157056D02*
X0283124Y0157056D01*
X0283067Y0156458D02*
X0256895Y0156458D01*
X0257494Y0155859D02*
X0283010Y0155859D01*
X0282953Y0155261D02*
X0258092Y0155261D01*
X0258691Y0154662D02*
X0282896Y0154662D01*
X0282839Y0154064D02*
X0259289Y0154064D01*
X0259888Y0153465D02*
X0282782Y0153465D01*
X0282725Y0152867D02*
X0260486Y0152867D01*
X0261085Y0152268D02*
X0282668Y0152268D01*
X0282611Y0151670D02*
X0261683Y0151670D01*
X0262282Y0151071D02*
X0282554Y0151071D01*
X0282497Y0150472D02*
X0262880Y0150472D01*
X0263479Y0149874D02*
X0282440Y0149874D01*
X0282383Y0149275D02*
X0264077Y0149275D01*
X0264676Y0148677D02*
X0282326Y0148677D01*
X0282269Y0148078D02*
X0265274Y0148078D01*
X0265873Y0147480D02*
X0282212Y0147480D01*
X0282155Y0146881D02*
X0266471Y0146881D01*
X0267070Y0146283D02*
X0282098Y0146283D01*
X0282041Y0145684D02*
X0267668Y0145684D01*
X0268267Y0145086D02*
X0281984Y0145086D01*
X0281927Y0144487D02*
X0268600Y0144487D01*
X0268600Y0143889D02*
X0281870Y0143889D01*
X0281813Y0143290D02*
X0268600Y0143290D01*
X0268600Y0142692D02*
X0281756Y0142692D01*
X0281699Y0142093D02*
X0268600Y0142093D01*
X0268600Y0141495D02*
X0281642Y0141495D01*
X0281585Y0140896D02*
X0268600Y0140896D01*
X0268600Y0140298D02*
X0281528Y0140298D01*
X0281471Y0139699D02*
X0268600Y0139699D01*
X0268600Y0139101D02*
X0281414Y0139101D01*
X0281357Y0138502D02*
X0268600Y0138502D01*
X0268600Y0137904D02*
X0281300Y0137904D01*
X0281243Y0137305D02*
X0268600Y0137305D01*
X0268600Y0136707D02*
X0281186Y0136707D01*
X0281129Y0136108D02*
X0268600Y0136108D01*
X0268600Y0135510D02*
X0281072Y0135510D01*
X0281015Y0134911D02*
X0268600Y0134911D01*
X0268600Y0134313D02*
X0280958Y0134313D01*
X0280901Y0133714D02*
X0268600Y0133714D01*
X0268600Y0133116D02*
X0280844Y0133116D01*
X0280787Y0132517D02*
X0268600Y0132517D01*
X0268600Y0131919D02*
X0280730Y0131919D01*
X0280673Y0131320D02*
X0268600Y0131320D01*
X0268600Y0130722D02*
X0280616Y0130722D01*
X0280559Y0130123D02*
X0268376Y0130123D01*
X0267777Y0129525D02*
X0280502Y0129525D01*
X0280445Y0128926D02*
X0267179Y0128926D01*
X0266580Y0128328D02*
X0280388Y0128328D01*
X0280331Y0127729D02*
X0265982Y0127729D01*
X0265383Y0127131D02*
X0280274Y0127131D01*
X0280217Y0126532D02*
X0264785Y0126532D01*
X0264186Y0125934D02*
X0280160Y0125934D01*
X0280103Y0125335D02*
X0263588Y0125335D01*
X0262989Y0124737D02*
X0280046Y0124737D01*
X0279989Y0124138D02*
X0262391Y0124138D01*
X0257070Y0128926D02*
X0253405Y0128926D01*
X0254004Y0129525D02*
X0256472Y0129525D01*
X0255991Y0130123D02*
X0254602Y0130123D01*
X0254691Y0130722D02*
X0255991Y0130722D01*
X0255991Y0131320D02*
X0254691Y0131320D01*
X0254691Y0132210D02*
X0254691Y0133609D01*
X0252290Y0136010D01*
X0250891Y0136010D01*
X0250891Y0132210D01*
X0254691Y0132210D01*
X0254691Y0132517D02*
X0255991Y0132517D01*
X0255991Y0131919D02*
X0250891Y0131919D01*
X0250891Y0132517D02*
X0250291Y0132517D01*
X0250291Y0132210D02*
X0250291Y0136010D01*
X0248893Y0136010D01*
X0246491Y0133609D01*
X0246491Y0132210D01*
X0250291Y0132210D01*
X0250291Y0131919D02*
X0240891Y0131919D01*
X0240891Y0132210D02*
X0244691Y0132210D01*
X0244691Y0133609D01*
X0242290Y0136010D01*
X0240891Y0136010D01*
X0240891Y0132210D01*
X0240891Y0132517D02*
X0240291Y0132517D01*
X0240291Y0133116D02*
X0240891Y0133116D01*
X0240891Y0133714D02*
X0240291Y0133714D01*
X0240291Y0134313D02*
X0240891Y0134313D01*
X0240891Y0134911D02*
X0240291Y0134911D01*
X0240291Y0135510D02*
X0240891Y0135510D01*
X0242790Y0135510D02*
X0248393Y0135510D01*
X0247794Y0134911D02*
X0243389Y0134911D01*
X0243987Y0134313D02*
X0247196Y0134313D01*
X0246597Y0133714D02*
X0244586Y0133714D01*
X0244691Y0133116D02*
X0246491Y0133116D01*
X0246491Y0132517D02*
X0244691Y0132517D01*
X0244691Y0131320D02*
X0246491Y0131320D01*
X0246491Y0130722D02*
X0244691Y0130722D01*
X0244602Y0130123D02*
X0246580Y0130123D01*
X0247179Y0129525D02*
X0244004Y0129525D01*
X0243405Y0128926D02*
X0247777Y0128926D01*
X0250291Y0133116D02*
X0250891Y0133116D01*
X0250891Y0133714D02*
X0250291Y0133714D01*
X0250291Y0134313D02*
X0250891Y0134313D01*
X0250891Y0134911D02*
X0250291Y0134911D01*
X0250291Y0135510D02*
X0250891Y0135510D01*
X0252790Y0135510D02*
X0253739Y0135510D01*
X0253389Y0134911D02*
X0254338Y0134911D01*
X0253987Y0134313D02*
X0254936Y0134313D01*
X0254586Y0133714D02*
X0255535Y0133714D01*
X0255991Y0133116D02*
X0254691Y0133116D01*
X0253141Y0136108D02*
X0237350Y0136108D01*
X0237350Y0135510D02*
X0238393Y0135510D01*
X0237794Y0134911D02*
X0237350Y0134911D01*
X0237350Y0136707D02*
X0252591Y0136707D01*
X0252591Y0137305D02*
X0237350Y0137305D01*
X0237350Y0137904D02*
X0238092Y0137904D01*
X0238686Y0137310D02*
X0242497Y0137310D01*
X0245191Y0140005D01*
X0245191Y0143816D01*
X0242497Y0146510D01*
X0238686Y0146510D01*
X0235991Y0143816D01*
X0235991Y0140005D01*
X0238686Y0137310D01*
X0237494Y0138502D02*
X0237252Y0138502D01*
X0236895Y0139101D02*
X0236653Y0139101D01*
X0236297Y0139699D02*
X0236055Y0139699D01*
X0235991Y0140298D02*
X0235456Y0140298D01*
X0235191Y0140896D02*
X0235991Y0140896D01*
X0235991Y0141495D02*
X0235191Y0141495D01*
X0235191Y0142093D02*
X0235991Y0142093D01*
X0235991Y0142692D02*
X0235191Y0142692D01*
X0235191Y0143290D02*
X0235991Y0143290D01*
X0236065Y0143889D02*
X0235118Y0143889D01*
X0234520Y0144487D02*
X0236663Y0144487D01*
X0237262Y0145086D02*
X0233921Y0145086D01*
X0233323Y0145684D02*
X0237860Y0145684D01*
X0238459Y0146283D02*
X0232724Y0146283D01*
X0228459Y0146283D02*
X0222724Y0146283D01*
X0222497Y0146510D02*
X0218686Y0146510D01*
X0215991Y0143816D01*
X0215991Y0140005D01*
X0218686Y0137310D01*
X0222497Y0137310D01*
X0225191Y0140005D01*
X0225191Y0143816D01*
X0222497Y0146510D01*
X0223323Y0145684D02*
X0227860Y0145684D01*
X0227262Y0145086D02*
X0223921Y0145086D01*
X0224520Y0144487D02*
X0226663Y0144487D01*
X0226065Y0143889D02*
X0225118Y0143889D01*
X0225191Y0143290D02*
X0225991Y0143290D01*
X0225991Y0142692D02*
X0225191Y0142692D01*
X0225191Y0142093D02*
X0225991Y0142093D01*
X0225991Y0141495D02*
X0225191Y0141495D01*
X0225191Y0140896D02*
X0225991Y0140896D01*
X0225991Y0140298D02*
X0225191Y0140298D01*
X0224886Y0139699D02*
X0226297Y0139699D01*
X0226895Y0139101D02*
X0224287Y0139101D01*
X0223689Y0138502D02*
X0227494Y0138502D01*
X0228092Y0137904D02*
X0223090Y0137904D01*
X0222290Y0136010D02*
X0220891Y0136010D01*
X0220891Y0132210D01*
X0220291Y0132210D01*
X0220291Y0131610D01*
X0216491Y0131610D01*
X0216491Y0130212D01*
X0218893Y0127810D01*
X0220291Y0127810D01*
X0220291Y0131610D01*
X0220891Y0131610D01*
X0220891Y0127810D01*
X0222290Y0127810D01*
X0224691Y0130212D01*
X0224691Y0131610D01*
X0220891Y0131610D01*
X0220891Y0132210D01*
X0224691Y0132210D01*
X0224691Y0133609D01*
X0222290Y0136010D01*
X0222790Y0135510D02*
X0228393Y0135510D01*
X0228893Y0136010D02*
X0226491Y0133609D01*
X0226491Y0132210D01*
X0230291Y0132210D01*
X0230291Y0136010D01*
X0228893Y0136010D01*
X0230291Y0135510D02*
X0230891Y0135510D01*
X0230891Y0134911D02*
X0230291Y0134911D01*
X0230291Y0134313D02*
X0230891Y0134313D01*
X0230891Y0133714D02*
X0230291Y0133714D01*
X0230291Y0133116D02*
X0230891Y0133116D01*
X0230891Y0132517D02*
X0230291Y0132517D01*
X0230291Y0131919D02*
X0220891Y0131919D01*
X0220891Y0132517D02*
X0220291Y0132517D01*
X0220291Y0132210D02*
X0220291Y0136010D01*
X0218893Y0136010D01*
X0216491Y0133609D01*
X0216491Y0132210D01*
X0220291Y0132210D01*
X0220291Y0131919D02*
X0214850Y0131919D01*
X0214850Y0132517D02*
X0216491Y0132517D01*
X0216491Y0133116D02*
X0214850Y0133116D01*
X0214850Y0133714D02*
X0216597Y0133714D01*
X0217196Y0134313D02*
X0214850Y0134313D01*
X0214850Y0134911D02*
X0217794Y0134911D01*
X0218393Y0135510D02*
X0214850Y0135510D01*
X0214850Y0136108D02*
X0232750Y0136108D01*
X0232542Y0136707D02*
X0214850Y0136707D01*
X0214850Y0137305D02*
X0231944Y0137305D01*
X0227794Y0134911D02*
X0223389Y0134911D01*
X0223987Y0134313D02*
X0227196Y0134313D01*
X0226597Y0133714D02*
X0224586Y0133714D01*
X0224691Y0133116D02*
X0226491Y0133116D01*
X0226491Y0132517D02*
X0224691Y0132517D01*
X0224691Y0131320D02*
X0226491Y0131320D01*
X0226491Y0130722D02*
X0224691Y0130722D01*
X0224602Y0130123D02*
X0226580Y0130123D01*
X0227179Y0129525D02*
X0224004Y0129525D01*
X0223405Y0128926D02*
X0227777Y0128926D01*
X0228376Y0128328D02*
X0222807Y0128328D01*
X0220891Y0128328D02*
X0220291Y0128328D01*
X0220291Y0128926D02*
X0220891Y0128926D01*
X0220891Y0129525D02*
X0220291Y0129525D01*
X0220291Y0130123D02*
X0220891Y0130123D01*
X0220891Y0130722D02*
X0220291Y0130722D01*
X0220291Y0131320D02*
X0220891Y0131320D01*
X0220891Y0133116D02*
X0220291Y0133116D01*
X0220291Y0133714D02*
X0220891Y0133714D01*
X0220891Y0134313D02*
X0220291Y0134313D01*
X0220291Y0134911D02*
X0220891Y0134911D01*
X0220891Y0135510D02*
X0220291Y0135510D01*
X0218092Y0137904D02*
X0214850Y0137904D01*
X0214850Y0138502D02*
X0217494Y0138502D01*
X0216895Y0139101D02*
X0214850Y0139101D01*
X0214850Y0139699D02*
X0216297Y0139699D01*
X0215991Y0140298D02*
X0214850Y0140298D01*
X0214850Y0140896D02*
X0215991Y0140896D01*
X0215991Y0141495D02*
X0214850Y0141495D01*
X0214850Y0142093D02*
X0215991Y0142093D01*
X0215991Y0142692D02*
X0214850Y0142692D01*
X0214850Y0143290D02*
X0215991Y0143290D01*
X0216065Y0143889D02*
X0214850Y0143889D01*
X0214850Y0144487D02*
X0216663Y0144487D01*
X0217262Y0145086D02*
X0214850Y0145086D01*
X0214850Y0145684D02*
X0217860Y0145684D01*
X0218459Y0146283D02*
X0214850Y0146283D01*
X0214850Y0146881D02*
X0246216Y0146881D01*
X0246814Y0146283D02*
X0242724Y0146283D01*
X0243323Y0145684D02*
X0247413Y0145684D01*
X0247262Y0145086D02*
X0243921Y0145086D01*
X0244520Y0144487D02*
X0246663Y0144487D01*
X0246065Y0143889D02*
X0245118Y0143889D01*
X0245191Y0143290D02*
X0245991Y0143290D01*
X0245991Y0142692D02*
X0245191Y0142692D01*
X0245191Y0142093D02*
X0245991Y0142093D01*
X0245991Y0141495D02*
X0245191Y0141495D01*
X0245191Y0140896D02*
X0245991Y0140896D01*
X0245991Y0140298D02*
X0245191Y0140298D01*
X0244886Y0139699D02*
X0246297Y0139699D01*
X0246895Y0139101D02*
X0244287Y0139101D01*
X0243689Y0138502D02*
X0247494Y0138502D01*
X0248092Y0137904D02*
X0243090Y0137904D01*
X0245617Y0147480D02*
X0214850Y0147480D01*
X0214850Y0148078D02*
X0245019Y0148078D01*
X0244420Y0148677D02*
X0215067Y0148677D01*
X0214850Y0148460D02*
X0215338Y0148948D01*
X0215839Y0150157D01*
X0215839Y0151465D01*
X0215338Y0152674D01*
X0214413Y0153599D01*
X0213204Y0154100D01*
X0211896Y0154100D01*
X0210687Y0153599D01*
X0209762Y0152674D01*
X0209261Y0151465D01*
X0209261Y0150157D01*
X0209762Y0148948D01*
X0210250Y0148460D01*
X0210250Y0109901D01*
X0209762Y0109413D01*
X0209261Y0108204D01*
X0209261Y0106896D01*
X0209762Y0105687D01*
X0210687Y0104762D01*
X0211896Y0104261D01*
X0213204Y0104261D01*
X0214413Y0104762D01*
X0215338Y0105687D01*
X0215839Y0106896D01*
X0215839Y0108204D01*
X0215338Y0109413D01*
X0214850Y0109901D01*
X0214850Y0148460D01*
X0215474Y0149275D02*
X0243822Y0149275D01*
X0243223Y0149874D02*
X0215722Y0149874D01*
X0215839Y0150472D02*
X0242625Y0150472D01*
X0242026Y0151071D02*
X0215839Y0151071D01*
X0215754Y0151670D02*
X0241428Y0151670D01*
X0240829Y0152268D02*
X0215506Y0152268D01*
X0215146Y0152867D02*
X0240231Y0152867D01*
X0239632Y0153465D02*
X0214547Y0153465D01*
X0213292Y0154064D02*
X0239034Y0154064D01*
X0238435Y0154662D02*
X0188996Y0154662D01*
X0188398Y0155261D02*
X0237837Y0155261D01*
X0237238Y0155859D02*
X0187799Y0155859D01*
X0187201Y0156458D02*
X0236640Y0156458D01*
X0236041Y0157056D02*
X0186602Y0157056D01*
X0186004Y0157655D02*
X0235443Y0157655D01*
X0234844Y0158253D02*
X0222539Y0158253D01*
X0223503Y0158852D02*
X0234246Y0158852D01*
X0233647Y0159450D02*
X0224094Y0159450D01*
X0224342Y0160049D02*
X0233049Y0160049D01*
X0232450Y0160647D02*
X0224589Y0160647D01*
X0224589Y0161246D02*
X0231852Y0161246D01*
X0231253Y0161844D02*
X0224589Y0161844D01*
X0224387Y0162443D02*
X0230655Y0162443D01*
X0230056Y0163041D02*
X0224139Y0163041D01*
X0223612Y0163640D02*
X0229458Y0163640D01*
X0228859Y0164238D02*
X0222801Y0164238D01*
X0219799Y0164238D02*
X0184114Y0164238D01*
X0183516Y0164837D02*
X0228261Y0164837D01*
X0227662Y0165435D02*
X0182917Y0165435D01*
X0182319Y0166034D02*
X0227064Y0166034D01*
X0226465Y0166632D02*
X0181720Y0166632D01*
X0181122Y0167231D02*
X0225866Y0167231D01*
X0225268Y0167829D02*
X0180523Y0167829D01*
X0179925Y0168428D02*
X0224669Y0168428D01*
X0224071Y0169026D02*
X0179326Y0169026D01*
X0178728Y0169625D02*
X0223472Y0169625D01*
X0222874Y0170223D02*
X0178129Y0170223D01*
X0177531Y0170822D02*
X0222275Y0170822D01*
X0221410Y0171420D02*
X0176932Y0171420D01*
X0184713Y0163640D02*
X0218988Y0163640D01*
X0219097Y0158852D02*
X0184807Y0158852D01*
X0185405Y0158253D02*
X0220061Y0158253D01*
X0211808Y0154064D02*
X0189595Y0154064D01*
X0190193Y0153465D02*
X0210553Y0153465D01*
X0209954Y0152867D02*
X0190792Y0152867D01*
X0191390Y0152268D02*
X0209594Y0152268D01*
X0209346Y0151670D02*
X0191989Y0151670D01*
X0192587Y0151071D02*
X0209261Y0151071D01*
X0209261Y0150472D02*
X0193186Y0150472D01*
X0193784Y0149874D02*
X0209378Y0149874D01*
X0209626Y0149275D02*
X0194383Y0149275D01*
X0194981Y0148677D02*
X0210033Y0148677D01*
X0210250Y0148078D02*
X0195580Y0148078D01*
X0196178Y0147480D02*
X0210250Y0147480D01*
X0210250Y0146881D02*
X0196777Y0146881D01*
X0197375Y0146283D02*
X0210250Y0146283D01*
X0210250Y0145684D02*
X0197974Y0145684D01*
X0198572Y0145086D02*
X0210250Y0145086D01*
X0210250Y0144487D02*
X0199171Y0144487D01*
X0199769Y0143889D02*
X0210250Y0143889D01*
X0210250Y0143290D02*
X0200368Y0143290D01*
X0200966Y0142692D02*
X0210250Y0142692D01*
X0210250Y0142093D02*
X0201565Y0142093D01*
X0202163Y0141495D02*
X0210250Y0141495D01*
X0210250Y0140896D02*
X0202762Y0140896D01*
X0203361Y0140298D02*
X0210250Y0140298D01*
X0210250Y0139699D02*
X0203959Y0139699D01*
X0204558Y0139101D02*
X0210250Y0139101D01*
X0210250Y0138502D02*
X0205156Y0138502D01*
X0205755Y0137904D02*
X0210250Y0137904D01*
X0210250Y0137305D02*
X0206353Y0137305D01*
X0206952Y0136707D02*
X0210250Y0136707D01*
X0210250Y0136108D02*
X0207550Y0136108D01*
X0208022Y0135510D02*
X0210250Y0135510D01*
X0210250Y0134911D02*
X0208270Y0134911D01*
X0208450Y0134313D02*
X0210250Y0134313D01*
X0210250Y0133714D02*
X0208450Y0133714D01*
X0208450Y0133116D02*
X0210250Y0133116D01*
X0210250Y0132517D02*
X0208450Y0132517D01*
X0208450Y0131919D02*
X0210250Y0131919D01*
X0210250Y0131320D02*
X0208450Y0131320D01*
X0208450Y0130722D02*
X0210250Y0130722D01*
X0210250Y0130123D02*
X0208450Y0130123D01*
X0208450Y0129525D02*
X0210250Y0129525D01*
X0210250Y0128926D02*
X0208450Y0128926D01*
X0208450Y0128328D02*
X0210250Y0128328D01*
X0210250Y0127729D02*
X0208450Y0127729D01*
X0208450Y0127131D02*
X0210250Y0127131D01*
X0210250Y0126532D02*
X0208450Y0126532D01*
X0208450Y0125934D02*
X0210250Y0125934D01*
X0210250Y0125335D02*
X0208450Y0125335D01*
X0208450Y0124737D02*
X0210250Y0124737D01*
X0210250Y0124138D02*
X0208450Y0124138D01*
X0208450Y0123539D02*
X0210250Y0123539D01*
X0210250Y0122941D02*
X0208450Y0122941D01*
X0208450Y0122342D02*
X0210250Y0122342D01*
X0210250Y0121744D02*
X0208450Y0121744D01*
X0208450Y0121145D02*
X0210250Y0121145D01*
X0210250Y0120547D02*
X0208450Y0120547D01*
X0208450Y0119948D02*
X0210250Y0119948D01*
X0210250Y0119350D02*
X0208450Y0119350D01*
X0208450Y0118751D02*
X0210250Y0118751D01*
X0210250Y0118153D02*
X0208450Y0118153D01*
X0208450Y0117554D02*
X0210250Y0117554D01*
X0210250Y0116956D02*
X0208450Y0116956D01*
X0208450Y0116357D02*
X0210250Y0116357D01*
X0210250Y0115759D02*
X0208450Y0115759D01*
X0208450Y0115160D02*
X0210250Y0115160D01*
X0210250Y0114562D02*
X0208450Y0114562D01*
X0208450Y0113963D02*
X0210250Y0113963D01*
X0210250Y0113365D02*
X0208450Y0113365D01*
X0208450Y0112766D02*
X0210250Y0112766D01*
X0210250Y0112168D02*
X0208450Y0112168D01*
X0208450Y0111569D02*
X0210250Y0111569D01*
X0210250Y0110971D02*
X0208450Y0110971D01*
X0208450Y0110372D02*
X0210250Y0110372D01*
X0210122Y0109774D02*
X0208450Y0109774D01*
X0208450Y0109175D02*
X0209663Y0109175D01*
X0209415Y0108577D02*
X0208450Y0108577D01*
X0208450Y0107978D02*
X0209261Y0107978D01*
X0209261Y0107380D02*
X0208450Y0107380D01*
X0208450Y0106781D02*
X0209308Y0106781D01*
X0209556Y0106183D02*
X0208450Y0106183D01*
X0208450Y0105584D02*
X0209865Y0105584D01*
X0210463Y0104986D02*
X0208450Y0104986D01*
X0208450Y0104387D02*
X0211591Y0104387D01*
X0213509Y0104387D02*
X0292132Y0104387D01*
X0292730Y0103789D02*
X0285953Y0103789D01*
X0285144Y0104005D02*
X0282456Y0104005D01*
X0279861Y0103310D01*
X0277534Y0101966D01*
X0275634Y0100066D01*
X0274290Y0097739D01*
X0273594Y0095144D01*
X0273594Y0092456D01*
X0274290Y0089861D01*
X0275634Y0087534D01*
X0277534Y0085634D01*
X0279861Y0084290D01*
X0282456Y0083594D01*
X0285144Y0083594D01*
X0287739Y0084290D01*
X0290066Y0085634D01*
X0291966Y0087534D01*
X0293310Y0089861D01*
X0294005Y0092456D01*
X0294005Y0095144D01*
X0293310Y0097739D01*
X0291966Y0100066D01*
X0290066Y0101966D01*
X0287739Y0103310D01*
X0285144Y0104005D01*
X0287947Y0103190D02*
X0293329Y0103190D01*
X0293927Y0102592D02*
X0288984Y0102592D01*
X0290020Y0101993D02*
X0294500Y0101993D01*
X0294500Y0101395D02*
X0290638Y0101395D01*
X0291237Y0100796D02*
X0294500Y0100796D01*
X0294500Y0100198D02*
X0291835Y0100198D01*
X0292236Y0099599D02*
X0294500Y0099599D01*
X0294500Y0099001D02*
X0292582Y0099001D01*
X0292927Y0098402D02*
X0294500Y0098402D01*
X0294500Y0097803D02*
X0293273Y0097803D01*
X0293453Y0097205D02*
X0294500Y0097205D01*
X0294500Y0096606D02*
X0293614Y0096606D01*
X0293774Y0096008D02*
X0294500Y0096008D01*
X0294500Y0095409D02*
X0293934Y0095409D01*
X0294005Y0094811D02*
X0294500Y0094811D01*
X0294500Y0094212D02*
X0294005Y0094212D01*
X0294005Y0093614D02*
X0294500Y0093614D01*
X0294500Y0093015D02*
X0294005Y0093015D01*
X0293995Y0092417D02*
X0294500Y0092417D01*
X0294500Y0091818D02*
X0293835Y0091818D01*
X0293674Y0091220D02*
X0294500Y0091220D01*
X0294500Y0090621D02*
X0293514Y0090621D01*
X0293353Y0090023D02*
X0294500Y0090023D01*
X0294500Y0089424D02*
X0293058Y0089424D01*
X0292712Y0088826D02*
X0294500Y0088826D01*
X0294500Y0088227D02*
X0292367Y0088227D01*
X0292021Y0087629D02*
X0294500Y0087629D01*
X0294500Y0087030D02*
X0291463Y0087030D01*
X0290865Y0086432D02*
X0294500Y0086432D01*
X0294500Y0085833D02*
X0290266Y0085833D01*
X0289376Y0085235D02*
X0294500Y0085235D01*
X0294500Y0084636D02*
X0288339Y0084636D01*
X0286798Y0084038D02*
X0294500Y0084038D01*
X0294500Y0083439D02*
X0196469Y0083439D01*
X0196842Y0082841D02*
X0294500Y0082841D01*
X0294500Y0082242D02*
X0197090Y0082242D01*
X0197200Y0081644D02*
X0294500Y0081644D01*
X0294500Y0081045D02*
X0197200Y0081045D01*
X0197200Y0080447D02*
X0294500Y0080447D01*
X0294500Y0079848D02*
X0211085Y0079848D01*
X0211663Y0079250D02*
X0216655Y0079250D01*
X0216697Y0079323D02*
X0216526Y0079026D01*
X0216437Y0078696D01*
X0216437Y0074100D01*
X0222161Y0074100D01*
X0222161Y0073500D01*
X0216437Y0073500D01*
X0216437Y0068904D01*
X0216526Y0068574D01*
X0216697Y0068277D01*
X0216939Y0068035D01*
X0217235Y0067864D01*
X0217566Y0067776D01*
X0222161Y0067776D01*
X0222161Y0073500D01*
X0222761Y0073500D01*
X0222761Y0067776D01*
X0227357Y0067776D01*
X0227688Y0067864D01*
X0227984Y0068035D01*
X0228226Y0068277D01*
X0228397Y0068574D01*
X0228486Y0068904D01*
X0228486Y0073500D01*
X0222761Y0073500D01*
X0222761Y0074100D01*
X0222161Y0074100D01*
X0222161Y0079824D01*
X0217566Y0079824D01*
X0217235Y0079736D01*
X0216939Y0079565D01*
X0216697Y0079323D01*
X0216437Y0078651D02*
X0211663Y0078651D01*
X0211663Y0078053D02*
X0216437Y0078053D01*
X0216437Y0077454D02*
X0211663Y0077454D01*
X0211663Y0076856D02*
X0216437Y0076856D01*
X0216437Y0076257D02*
X0211663Y0076257D01*
X0211663Y0075659D02*
X0216437Y0075659D01*
X0216437Y0075060D02*
X0211663Y0075060D01*
X0211663Y0074462D02*
X0216437Y0074462D01*
X0216437Y0073265D02*
X0211663Y0073265D01*
X0211663Y0073863D02*
X0222161Y0073863D01*
X0222161Y0073265D02*
X0222761Y0073265D01*
X0222761Y0073863D02*
X0294500Y0073863D01*
X0294500Y0073265D02*
X0228486Y0073265D01*
X0228486Y0072666D02*
X0294500Y0072666D01*
X0294500Y0072068D02*
X0228486Y0072068D01*
X0228486Y0071469D02*
X0294500Y0071469D01*
X0294500Y0070870D02*
X0228486Y0070870D01*
X0228486Y0070272D02*
X0294500Y0070272D01*
X0294500Y0069673D02*
X0228486Y0069673D01*
X0228486Y0069075D02*
X0294500Y0069075D01*
X0294500Y0068476D02*
X0228341Y0068476D01*
X0227711Y0067878D02*
X0294500Y0067878D01*
X0294500Y0067279D02*
X0210612Y0067279D01*
X0211211Y0067878D02*
X0217211Y0067878D01*
X0216582Y0068476D02*
X0211663Y0068476D01*
X0211663Y0069075D02*
X0216437Y0069075D01*
X0216437Y0069673D02*
X0211663Y0069673D01*
X0211663Y0070272D02*
X0216437Y0070272D01*
X0216437Y0070870D02*
X0211663Y0070870D01*
X0211663Y0071469D02*
X0216437Y0071469D01*
X0216437Y0072068D02*
X0211663Y0072068D01*
X0211663Y0072666D02*
X0216437Y0072666D01*
X0222161Y0072666D02*
X0222761Y0072666D01*
X0222761Y0072068D02*
X0222161Y0072068D01*
X0222161Y0071469D02*
X0222761Y0071469D01*
X0222761Y0070870D02*
X0222161Y0070870D01*
X0222161Y0070272D02*
X0222761Y0070272D01*
X0222761Y0069673D02*
X0222161Y0069673D01*
X0222161Y0069075D02*
X0222761Y0069075D01*
X0222761Y0068476D02*
X0222161Y0068476D01*
X0222161Y0067878D02*
X0222761Y0067878D01*
X0222761Y0074100D02*
X0228486Y0074100D01*
X0228486Y0078696D01*
X0228397Y0079026D01*
X0228226Y0079323D01*
X0227984Y0079565D01*
X0227688Y0079736D01*
X0227357Y0079824D01*
X0222761Y0079824D01*
X0222761Y0074100D01*
X0222761Y0074462D02*
X0222161Y0074462D01*
X0222161Y0075060D02*
X0222761Y0075060D01*
X0222761Y0075659D02*
X0222161Y0075659D01*
X0222161Y0076257D02*
X0222761Y0076257D01*
X0222761Y0076856D02*
X0222161Y0076856D01*
X0222161Y0077454D02*
X0222761Y0077454D01*
X0222761Y0078053D02*
X0222161Y0078053D01*
X0222161Y0078651D02*
X0222761Y0078651D01*
X0222761Y0079250D02*
X0222161Y0079250D01*
X0220144Y0083594D02*
X0217456Y0083594D01*
X0214861Y0084290D01*
X0212534Y0085634D01*
X0210634Y0087534D01*
X0209290Y0089861D01*
X0208594Y0092456D01*
X0208594Y0095144D01*
X0209290Y0097739D01*
X0210634Y0100066D01*
X0212534Y0101966D01*
X0214861Y0103310D01*
X0217456Y0104005D01*
X0220144Y0104005D01*
X0222739Y0103310D01*
X0225066Y0101966D01*
X0226966Y0100066D01*
X0228310Y0097739D01*
X0229005Y0095144D01*
X0229005Y0092456D01*
X0228310Y0089861D01*
X0226966Y0087534D01*
X0225066Y0085634D01*
X0222739Y0084290D01*
X0220144Y0083594D01*
X0221798Y0084038D02*
X0280802Y0084038D01*
X0279261Y0084636D02*
X0223339Y0084636D01*
X0224376Y0085235D02*
X0278224Y0085235D01*
X0277334Y0085833D02*
X0225266Y0085833D01*
X0225865Y0086432D02*
X0276735Y0086432D01*
X0276137Y0087030D02*
X0226463Y0087030D01*
X0227021Y0087629D02*
X0275579Y0087629D01*
X0275233Y0088227D02*
X0227367Y0088227D01*
X0227712Y0088826D02*
X0274888Y0088826D01*
X0274542Y0089424D02*
X0228058Y0089424D01*
X0228353Y0090023D02*
X0274247Y0090023D01*
X0274086Y0090621D02*
X0228514Y0090621D01*
X0228674Y0091220D02*
X0273926Y0091220D01*
X0273765Y0091818D02*
X0228835Y0091818D01*
X0228995Y0092417D02*
X0273605Y0092417D01*
X0273594Y0093015D02*
X0229005Y0093015D01*
X0229005Y0093614D02*
X0273594Y0093614D01*
X0273594Y0094212D02*
X0229005Y0094212D01*
X0229005Y0094811D02*
X0273594Y0094811D01*
X0273666Y0095409D02*
X0228934Y0095409D01*
X0228774Y0096008D02*
X0273826Y0096008D01*
X0273986Y0096606D02*
X0228614Y0096606D01*
X0228453Y0097205D02*
X0274147Y0097205D01*
X0274327Y0097803D02*
X0228273Y0097803D01*
X0227927Y0098402D02*
X0274673Y0098402D01*
X0275018Y0099001D02*
X0227582Y0099001D01*
X0227236Y0099599D02*
X0275364Y0099599D01*
X0275765Y0100198D02*
X0226835Y0100198D01*
X0226237Y0100796D02*
X0276363Y0100796D01*
X0276962Y0101395D02*
X0225638Y0101395D01*
X0225020Y0101993D02*
X0277580Y0101993D01*
X0278616Y0102592D02*
X0223984Y0102592D01*
X0222947Y0103190D02*
X0279653Y0103190D01*
X0281647Y0103789D02*
X0220953Y0103789D01*
X0216647Y0103789D02*
X0208450Y0103789D01*
X0208450Y0103190D02*
X0214653Y0103190D01*
X0213616Y0102592D02*
X0208450Y0102592D01*
X0208450Y0101993D02*
X0212580Y0101993D01*
X0211962Y0101395D02*
X0208252Y0101395D01*
X0208004Y0100796D02*
X0211363Y0100796D01*
X0210765Y0100198D02*
X0207506Y0100198D01*
X0206907Y0099599D02*
X0210364Y0099599D01*
X0210018Y0099001D02*
X0206309Y0099001D01*
X0205710Y0098402D02*
X0209673Y0098402D01*
X0209327Y0097803D02*
X0205112Y0097803D01*
X0204513Y0097205D02*
X0209147Y0097205D01*
X0208986Y0096606D02*
X0203915Y0096606D01*
X0203316Y0096008D02*
X0208826Y0096008D01*
X0208666Y0095409D02*
X0202718Y0095409D01*
X0202119Y0094811D02*
X0208594Y0094811D01*
X0208594Y0094212D02*
X0201521Y0094212D01*
X0200922Y0093614D02*
X0208594Y0093614D01*
X0208594Y0093015D02*
X0200324Y0093015D01*
X0199725Y0092417D02*
X0208605Y0092417D01*
X0208765Y0091818D02*
X0198633Y0091818D01*
X0193477Y0086432D02*
X0211735Y0086432D01*
X0211137Y0087030D02*
X0192878Y0087030D01*
X0192280Y0087629D02*
X0210579Y0087629D01*
X0210233Y0088227D02*
X0191681Y0088227D01*
X0191082Y0088826D02*
X0209888Y0088826D01*
X0209542Y0089424D02*
X0190484Y0089424D01*
X0189885Y0090023D02*
X0209247Y0090023D01*
X0209086Y0090621D02*
X0189287Y0090621D01*
X0188688Y0091220D02*
X0208926Y0091220D01*
X0212334Y0085833D02*
X0194075Y0085833D01*
X0194674Y0085235D02*
X0213224Y0085235D01*
X0214261Y0084636D02*
X0195272Y0084636D01*
X0195871Y0084038D02*
X0215802Y0084038D01*
X0228268Y0079250D02*
X0294500Y0079250D01*
X0294500Y0078651D02*
X0228486Y0078651D01*
X0228486Y0078053D02*
X0294500Y0078053D01*
X0294500Y0077454D02*
X0228486Y0077454D01*
X0228486Y0076856D02*
X0294500Y0076856D01*
X0294500Y0076257D02*
X0228486Y0076257D01*
X0228486Y0075659D02*
X0294500Y0075659D01*
X0294500Y0075060D02*
X0228486Y0075060D01*
X0228486Y0074462D02*
X0294500Y0074462D01*
X0294500Y0066681D02*
X0073100Y0066681D01*
X0073100Y0067279D02*
X0156988Y0067279D01*
X0156389Y0067878D02*
X0150389Y0067878D01*
X0150365Y0067864D02*
X0150661Y0068035D01*
X0150903Y0068277D01*
X0151074Y0068574D01*
X0151163Y0068904D01*
X0151163Y0073500D01*
X0145439Y0073500D01*
X0145439Y0074100D01*
X0151163Y0074100D01*
X0151163Y0078696D01*
X0151074Y0079026D01*
X0150903Y0079323D01*
X0150661Y0079565D01*
X0150365Y0079736D01*
X0150034Y0079824D01*
X0145439Y0079824D01*
X0145439Y0074100D01*
X0144839Y0074100D01*
X0144839Y0079824D01*
X0140243Y0079824D01*
X0139912Y0079736D01*
X0139616Y0079565D01*
X0139374Y0079323D01*
X0139203Y0079026D01*
X0139114Y0078696D01*
X0139114Y0074100D01*
X0144839Y0074100D01*
X0144839Y0073500D01*
X0145439Y0073500D01*
X0145439Y0067776D01*
X0150034Y0067776D01*
X0150365Y0067864D01*
X0151018Y0068476D02*
X0155937Y0068476D01*
X0155937Y0069075D02*
X0151163Y0069075D01*
X0151163Y0069673D02*
X0155937Y0069673D01*
X0155937Y0070272D02*
X0151163Y0070272D01*
X0151163Y0070870D02*
X0155937Y0070870D01*
X0155937Y0071469D02*
X0151163Y0071469D01*
X0151163Y0072068D02*
X0155937Y0072068D01*
X0155937Y0072666D02*
X0151163Y0072666D01*
X0151163Y0073265D02*
X0155937Y0073265D01*
X0155937Y0073863D02*
X0145439Y0073863D01*
X0145439Y0073265D02*
X0144839Y0073265D01*
X0144839Y0073500D02*
X0144839Y0067776D01*
X0140243Y0067776D01*
X0139912Y0067864D01*
X0139616Y0068035D01*
X0139374Y0068277D01*
X0139203Y0068574D01*
X0139114Y0068904D01*
X0139114Y0073500D01*
X0144839Y0073500D01*
X0144839Y0073863D02*
X0138100Y0073863D01*
X0138100Y0073265D02*
X0139114Y0073265D01*
X0139114Y0072666D02*
X0137985Y0072666D01*
X0137737Y0072068D02*
X0139114Y0072068D01*
X0139114Y0071469D02*
X0137489Y0071469D01*
X0136952Y0070870D02*
X0139114Y0070870D01*
X0139114Y0070272D02*
X0136353Y0070272D01*
X0135074Y0069673D02*
X0139114Y0069673D01*
X0139114Y0069075D02*
X0073100Y0069075D01*
X0073100Y0069673D02*
X0132526Y0069673D01*
X0131247Y0070272D02*
X0073100Y0070272D01*
X0073100Y0070870D02*
X0130648Y0070870D01*
X0130111Y0071469D02*
X0073100Y0071469D01*
X0073100Y0072068D02*
X0129863Y0072068D01*
X0129615Y0072666D02*
X0073100Y0072666D01*
X0073100Y0073265D02*
X0129500Y0073265D01*
X0129500Y0073863D02*
X0073100Y0073863D01*
X0073100Y0074462D02*
X0129500Y0074462D01*
X0129500Y0075060D02*
X0073100Y0075060D01*
X0073100Y0075659D02*
X0129500Y0075659D01*
X0129500Y0076257D02*
X0073100Y0076257D01*
X0073100Y0076856D02*
X0129500Y0076856D01*
X0129500Y0077454D02*
X0073100Y0077454D01*
X0073100Y0078053D02*
X0129500Y0078053D01*
X0129500Y0078651D02*
X0073100Y0078651D01*
X0073100Y0079250D02*
X0129500Y0079250D01*
X0129500Y0079848D02*
X0073100Y0079848D01*
X0073100Y0080447D02*
X0129500Y0080447D01*
X0129500Y0081045D02*
X0073100Y0081045D01*
X0073100Y0081644D02*
X0129500Y0081644D01*
X0129500Y0082242D02*
X0073100Y0082242D01*
X0073100Y0082841D02*
X0129500Y0082841D01*
X0129500Y0083439D02*
X0073100Y0083439D01*
X0073100Y0068476D02*
X0139259Y0068476D01*
X0139889Y0067878D02*
X0073100Y0067878D01*
X0073100Y0066082D02*
X0294500Y0066082D01*
X0294500Y0065484D02*
X0073100Y0065484D01*
X0073100Y0064885D02*
X0294500Y0064885D01*
X0294500Y0064287D02*
X0073100Y0064287D01*
X0073100Y0063688D02*
X0294500Y0063688D01*
X0294500Y0063090D02*
X0073100Y0063090D01*
X0073100Y0062491D02*
X0294500Y0062491D01*
X0294500Y0061893D02*
X0073100Y0061893D01*
X0073100Y0061294D02*
X0294500Y0061294D01*
X0294500Y0060696D02*
X0073100Y0060696D01*
X0073100Y0060097D02*
X0156764Y0060097D01*
X0156991Y0060324D02*
X0155937Y0059270D01*
X0155937Y0048330D01*
X0156991Y0047276D01*
X0167931Y0047276D01*
X0168986Y0048330D01*
X0168986Y0049500D01*
X0170888Y0049500D01*
X0171688Y0048700D01*
X0175912Y0048700D01*
X0178900Y0051688D01*
X0178900Y0055912D01*
X0175912Y0058900D01*
X0171688Y0058900D01*
X0170888Y0058100D01*
X0168986Y0058100D01*
X0168986Y0059270D01*
X0167931Y0060324D01*
X0156991Y0060324D01*
X0156166Y0059499D02*
X0150727Y0059499D01*
X0150661Y0059565D02*
X0150365Y0059736D01*
X0150034Y0059824D01*
X0145439Y0059824D01*
X0145439Y0054100D01*
X0151163Y0054100D01*
X0151163Y0058696D01*
X0151074Y0059026D01*
X0150903Y0059323D01*
X0150661Y0059565D01*
X0151108Y0058900D02*
X0155937Y0058900D01*
X0155937Y0058302D02*
X0151163Y0058302D01*
X0151163Y0057703D02*
X0155937Y0057703D01*
X0155937Y0057105D02*
X0151163Y0057105D01*
X0151163Y0056506D02*
X0155937Y0056506D01*
X0155937Y0055908D02*
X0151163Y0055908D01*
X0151163Y0055309D02*
X0155937Y0055309D01*
X0155937Y0054711D02*
X0151163Y0054711D01*
X0151163Y0054112D02*
X0155937Y0054112D01*
X0155937Y0053514D02*
X0145439Y0053514D01*
X0145439Y0053500D02*
X0145439Y0054100D01*
X0144839Y0054100D01*
X0144839Y0059824D01*
X0140243Y0059824D01*
X0139912Y0059736D01*
X0139616Y0059565D01*
X0139374Y0059323D01*
X0139203Y0059026D01*
X0139114Y0058696D01*
X0139114Y0054100D01*
X0144839Y0054100D01*
X0144839Y0053500D01*
X0145439Y0053500D01*
X0151163Y0053500D01*
X0151163Y0048904D01*
X0151074Y0048574D01*
X0150903Y0048277D01*
X0150661Y0048035D01*
X0150365Y0047864D01*
X0150034Y0047776D01*
X0145439Y0047776D01*
X0145439Y0053500D01*
X0145439Y0052915D02*
X0144839Y0052915D01*
X0144839Y0053500D02*
X0144839Y0047776D01*
X0140243Y0047776D01*
X0139912Y0047864D01*
X0139616Y0048035D01*
X0139374Y0048277D01*
X0139203Y0048574D01*
X0139114Y0048904D01*
X0139114Y0053500D01*
X0144839Y0053500D01*
X0144839Y0053514D02*
X0073100Y0053514D01*
X0073100Y0054112D02*
X0139114Y0054112D01*
X0139114Y0054711D02*
X0073100Y0054711D01*
X0073100Y0055309D02*
X0139114Y0055309D01*
X0139114Y0055908D02*
X0073100Y0055908D01*
X0073100Y0056506D02*
X0139114Y0056506D01*
X0139114Y0057105D02*
X0073100Y0057105D01*
X0073100Y0057703D02*
X0139114Y0057703D01*
X0139114Y0058302D02*
X0073100Y0058302D01*
X0073100Y0058900D02*
X0139169Y0058900D01*
X0139550Y0059499D02*
X0073100Y0059499D01*
X0073100Y0052915D02*
X0139114Y0052915D01*
X0139114Y0052317D02*
X0073100Y0052317D01*
X0073100Y0051718D02*
X0139114Y0051718D01*
X0139114Y0051120D02*
X0073100Y0051120D01*
X0073100Y0050521D02*
X0139114Y0050521D01*
X0139114Y0049923D02*
X0073100Y0049923D01*
X0073100Y0049324D02*
X0139114Y0049324D01*
X0139162Y0048726D02*
X0073100Y0048726D01*
X0073100Y0048127D02*
X0139524Y0048127D01*
X0144839Y0048127D02*
X0145439Y0048127D01*
X0145439Y0048726D02*
X0144839Y0048726D01*
X0144839Y0049324D02*
X0145439Y0049324D01*
X0145439Y0049923D02*
X0144839Y0049923D01*
X0144839Y0050521D02*
X0145439Y0050521D01*
X0145439Y0051120D02*
X0144839Y0051120D01*
X0144839Y0051718D02*
X0145439Y0051718D01*
X0145439Y0052317D02*
X0144839Y0052317D01*
X0144839Y0054112D02*
X0145439Y0054112D01*
X0145439Y0054711D02*
X0144839Y0054711D01*
X0144839Y0055309D02*
X0145439Y0055309D01*
X0145439Y0055908D02*
X0144839Y0055908D01*
X0144839Y0056506D02*
X0145439Y0056506D01*
X0145439Y0057105D02*
X0144839Y0057105D01*
X0144839Y0057703D02*
X0145439Y0057703D01*
X0145439Y0058302D02*
X0144839Y0058302D01*
X0144839Y0058900D02*
X0145439Y0058900D01*
X0145439Y0059499D02*
X0144839Y0059499D01*
X0151163Y0052915D02*
X0155937Y0052915D01*
X0155937Y0052317D02*
X0151163Y0052317D01*
X0151163Y0051718D02*
X0155937Y0051718D01*
X0155937Y0051120D02*
X0151163Y0051120D01*
X0151163Y0050521D02*
X0155937Y0050521D01*
X0155937Y0049923D02*
X0151163Y0049923D01*
X0151163Y0049324D02*
X0155937Y0049324D01*
X0155937Y0048726D02*
X0151115Y0048726D01*
X0150753Y0048127D02*
X0156140Y0048127D01*
X0156738Y0047529D02*
X0073100Y0047529D01*
X0073100Y0046930D02*
X0294500Y0046930D01*
X0294500Y0046332D02*
X0073100Y0046332D01*
X0073100Y0045733D02*
X0294500Y0045733D01*
X0294500Y0045134D02*
X0073100Y0045134D01*
X0073100Y0044536D02*
X0294500Y0044536D01*
X0294500Y0043937D02*
X0285397Y0043937D01*
X0285144Y0044005D02*
X0282456Y0044005D01*
X0279861Y0043310D01*
X0277534Y0041966D01*
X0275634Y0040066D01*
X0274290Y0037739D01*
X0273594Y0035144D01*
X0273594Y0032456D01*
X0274290Y0029861D01*
X0275634Y0027534D01*
X0277534Y0025634D01*
X0279861Y0024290D01*
X0282456Y0023594D01*
X0285144Y0023594D01*
X0287739Y0024290D01*
X0290066Y0025634D01*
X0291966Y0027534D01*
X0293310Y0029861D01*
X0294005Y0032456D01*
X0294005Y0035144D01*
X0293310Y0037739D01*
X0291966Y0040066D01*
X0290066Y0041966D01*
X0287739Y0043310D01*
X0285144Y0044005D01*
X0287631Y0043339D02*
X0294500Y0043339D01*
X0294500Y0042740D02*
X0288726Y0042740D01*
X0289762Y0042142D02*
X0294500Y0042142D01*
X0294500Y0041543D02*
X0290489Y0041543D01*
X0291088Y0040945D02*
X0294500Y0040945D01*
X0294500Y0040346D02*
X0291686Y0040346D01*
X0292150Y0039748D02*
X0294500Y0039748D01*
X0294500Y0039149D02*
X0292496Y0039149D01*
X0292841Y0038551D02*
X0294500Y0038551D01*
X0294500Y0037952D02*
X0293187Y0037952D01*
X0293413Y0037354D02*
X0294500Y0037354D01*
X0294500Y0036755D02*
X0293574Y0036755D01*
X0293734Y0036157D02*
X0294500Y0036157D01*
X0294500Y0035558D02*
X0293894Y0035558D01*
X0294005Y0034960D02*
X0294500Y0034960D01*
X0294500Y0034361D02*
X0294005Y0034361D01*
X0294005Y0033763D02*
X0294500Y0033763D01*
X0294500Y0033164D02*
X0294005Y0033164D01*
X0294005Y0032566D02*
X0294500Y0032566D01*
X0294500Y0031967D02*
X0293874Y0031967D01*
X0293714Y0031369D02*
X0294500Y0031369D01*
X0294500Y0030770D02*
X0293554Y0030770D01*
X0293393Y0030172D02*
X0294500Y0030172D01*
X0294500Y0029573D02*
X0293144Y0029573D01*
X0292798Y0028975D02*
X0294500Y0028975D01*
X0294500Y0028376D02*
X0292453Y0028376D01*
X0292107Y0027778D02*
X0294500Y0027778D01*
X0294500Y0027179D02*
X0291612Y0027179D01*
X0291013Y0026581D02*
X0294500Y0026581D01*
X0294500Y0025982D02*
X0290415Y0025982D01*
X0289633Y0025384D02*
X0294500Y0025384D01*
X0294500Y0024785D02*
X0288597Y0024785D01*
X0287353Y0024187D02*
X0294500Y0024187D01*
X0294500Y0023588D02*
X0073100Y0023588D01*
X0073100Y0024187D02*
X0080247Y0024187D01*
X0079861Y0024290D02*
X0082456Y0023594D01*
X0085144Y0023594D01*
X0087739Y0024290D01*
X0090066Y0025634D01*
X0091966Y0027534D01*
X0093310Y0029861D01*
X0094005Y0032456D01*
X0094005Y0035144D01*
X0093310Y0037739D01*
X0091966Y0040066D01*
X0090066Y0041966D01*
X0087739Y0043310D01*
X0085144Y0044005D01*
X0082456Y0044005D01*
X0079861Y0043310D01*
X0077534Y0041966D01*
X0075634Y0040066D01*
X0074290Y0037739D01*
X0073594Y0035144D01*
X0073594Y0032456D01*
X0074290Y0029861D01*
X0075634Y0027534D01*
X0077534Y0025634D01*
X0079861Y0024290D01*
X0079003Y0024785D02*
X0073100Y0024785D01*
X0073100Y0025384D02*
X0077967Y0025384D01*
X0077185Y0025982D02*
X0073100Y0025982D01*
X0073100Y0026581D02*
X0076587Y0026581D01*
X0075988Y0027179D02*
X0073100Y0027179D01*
X0073100Y0027778D02*
X0075493Y0027778D01*
X0075147Y0028376D02*
X0073100Y0028376D01*
X0073100Y0028975D02*
X0074802Y0028975D01*
X0074456Y0029573D02*
X0073100Y0029573D01*
X0073100Y0030172D02*
X0074207Y0030172D01*
X0074046Y0030770D02*
X0073100Y0030770D01*
X0073100Y0031369D02*
X0073886Y0031369D01*
X0073726Y0031967D02*
X0073100Y0031967D01*
X0073100Y0032566D02*
X0073594Y0032566D01*
X0073594Y0033164D02*
X0073100Y0033164D01*
X0073100Y0033763D02*
X0073594Y0033763D01*
X0073594Y0034361D02*
X0073100Y0034361D01*
X0073100Y0034960D02*
X0073594Y0034960D01*
X0073706Y0035558D02*
X0073100Y0035558D01*
X0073100Y0036157D02*
X0073866Y0036157D01*
X0074026Y0036755D02*
X0073100Y0036755D01*
X0073100Y0037354D02*
X0074187Y0037354D01*
X0074413Y0037952D02*
X0073100Y0037952D01*
X0073100Y0038551D02*
X0074759Y0038551D01*
X0075104Y0039149D02*
X0073100Y0039149D01*
X0073100Y0039748D02*
X0075450Y0039748D01*
X0075914Y0040346D02*
X0073100Y0040346D01*
X0073100Y0040945D02*
X0076512Y0040945D01*
X0077111Y0041543D02*
X0073100Y0041543D01*
X0073100Y0042142D02*
X0077838Y0042142D01*
X0078874Y0042740D02*
X0073100Y0042740D01*
X0073100Y0043339D02*
X0079969Y0043339D01*
X0082203Y0043937D02*
X0073100Y0043937D01*
X0085397Y0043937D02*
X0147203Y0043937D01*
X0147456Y0044005D02*
X0144861Y0043310D01*
X0142534Y0041966D01*
X0140634Y0040066D01*
X0139290Y0037739D01*
X0138594Y0035144D01*
X0138594Y0032456D01*
X0139290Y0029861D01*
X0140634Y0027534D01*
X0142534Y0025634D01*
X0144861Y0024290D01*
X0147456Y0023594D01*
X0150144Y0023594D01*
X0152739Y0024290D01*
X0155066Y0025634D01*
X0156966Y0027534D01*
X0158310Y0029861D01*
X0159005Y0032456D01*
X0159005Y0035144D01*
X0158310Y0037739D01*
X0156966Y0040066D01*
X0155066Y0041966D01*
X0152739Y0043310D01*
X0150144Y0044005D01*
X0147456Y0044005D01*
X0144969Y0043339D02*
X0087631Y0043339D01*
X0088726Y0042740D02*
X0143874Y0042740D01*
X0142838Y0042142D02*
X0089762Y0042142D01*
X0090489Y0041543D02*
X0142111Y0041543D01*
X0141512Y0040945D02*
X0091088Y0040945D01*
X0091686Y0040346D02*
X0140914Y0040346D01*
X0140450Y0039748D02*
X0092150Y0039748D01*
X0092496Y0039149D02*
X0140104Y0039149D01*
X0139759Y0038551D02*
X0092841Y0038551D01*
X0093187Y0037952D02*
X0139413Y0037952D01*
X0139187Y0037354D02*
X0093413Y0037354D01*
X0093574Y0036755D02*
X0139026Y0036755D01*
X0138866Y0036157D02*
X0093734Y0036157D01*
X0093894Y0035558D02*
X0138706Y0035558D01*
X0138594Y0034960D02*
X0094005Y0034960D01*
X0094005Y0034361D02*
X0138594Y0034361D01*
X0138594Y0033763D02*
X0094005Y0033763D01*
X0094005Y0033164D02*
X0138594Y0033164D01*
X0138594Y0032566D02*
X0094005Y0032566D01*
X0093874Y0031967D02*
X0138726Y0031967D01*
X0138886Y0031369D02*
X0093714Y0031369D01*
X0093554Y0030770D02*
X0139046Y0030770D01*
X0139207Y0030172D02*
X0093393Y0030172D01*
X0093144Y0029573D02*
X0139456Y0029573D01*
X0139802Y0028975D02*
X0092798Y0028975D01*
X0092453Y0028376D02*
X0140147Y0028376D01*
X0140493Y0027778D02*
X0092107Y0027778D01*
X0091612Y0027179D02*
X0140988Y0027179D01*
X0141587Y0026581D02*
X0091013Y0026581D01*
X0090415Y0025982D02*
X0142185Y0025982D01*
X0142967Y0025384D02*
X0089633Y0025384D01*
X0088597Y0024785D02*
X0144003Y0024785D01*
X0145247Y0024187D02*
X0087353Y0024187D01*
X0144839Y0067878D02*
X0145439Y0067878D01*
X0145439Y0068476D02*
X0144839Y0068476D01*
X0144839Y0069075D02*
X0145439Y0069075D01*
X0145439Y0069673D02*
X0144839Y0069673D01*
X0144839Y0070272D02*
X0145439Y0070272D01*
X0145439Y0070870D02*
X0144839Y0070870D01*
X0144839Y0071469D02*
X0145439Y0071469D01*
X0145439Y0072068D02*
X0144839Y0072068D01*
X0144839Y0072666D02*
X0145439Y0072666D01*
X0145439Y0074462D02*
X0144839Y0074462D01*
X0144839Y0075060D02*
X0145439Y0075060D01*
X0145439Y0075659D02*
X0144839Y0075659D01*
X0144839Y0076257D02*
X0145439Y0076257D01*
X0145439Y0076856D02*
X0144839Y0076856D01*
X0144839Y0077454D02*
X0145439Y0077454D01*
X0145439Y0078053D02*
X0144839Y0078053D01*
X0144839Y0078651D02*
X0145439Y0078651D01*
X0145439Y0079250D02*
X0144839Y0079250D01*
X0144861Y0084290D02*
X0147456Y0083594D01*
X0150144Y0083594D01*
X0152739Y0084290D01*
X0155066Y0085634D01*
X0156966Y0087534D01*
X0158310Y0089861D01*
X0159005Y0092456D01*
X0159005Y0095144D01*
X0158310Y0097739D01*
X0156966Y0100066D01*
X0155066Y0101966D01*
X0152739Y0103310D01*
X0150144Y0104005D01*
X0147456Y0104005D01*
X0144861Y0103310D01*
X0142534Y0101966D01*
X0140634Y0100066D01*
X0139290Y0097739D01*
X0138594Y0095144D01*
X0138594Y0092456D01*
X0139290Y0089861D01*
X0140634Y0087534D01*
X0142534Y0085634D01*
X0144861Y0084290D01*
X0144261Y0084636D02*
X0138100Y0084636D01*
X0138100Y0084038D02*
X0145802Y0084038D01*
X0143224Y0085235D02*
X0138100Y0085235D01*
X0138100Y0085833D02*
X0142334Y0085833D01*
X0141735Y0086432D02*
X0138100Y0086432D01*
X0138100Y0087030D02*
X0141137Y0087030D01*
X0140579Y0087629D02*
X0138100Y0087629D01*
X0138100Y0088227D02*
X0140233Y0088227D01*
X0139888Y0088826D02*
X0138100Y0088826D01*
X0138100Y0089424D02*
X0139542Y0089424D01*
X0139247Y0090023D02*
X0138100Y0090023D01*
X0138100Y0090621D02*
X0139086Y0090621D01*
X0138926Y0091220D02*
X0138100Y0091220D01*
X0138100Y0091818D02*
X0138765Y0091818D01*
X0138605Y0092417D02*
X0138100Y0092417D01*
X0138100Y0093015D02*
X0138594Y0093015D01*
X0138594Y0093614D02*
X0138100Y0093614D01*
X0138100Y0094212D02*
X0138594Y0094212D01*
X0138594Y0094811D02*
X0138100Y0094811D01*
X0138100Y0095409D02*
X0138666Y0095409D01*
X0138826Y0096008D02*
X0138100Y0096008D01*
X0138100Y0096606D02*
X0138986Y0096606D01*
X0139147Y0097205D02*
X0138100Y0097205D01*
X0138100Y0097803D02*
X0139327Y0097803D01*
X0139673Y0098402D02*
X0138100Y0098402D01*
X0138100Y0099001D02*
X0140018Y0099001D01*
X0140364Y0099599D02*
X0138100Y0099599D01*
X0138100Y0100198D02*
X0140765Y0100198D01*
X0141363Y0100796D02*
X0138100Y0100796D01*
X0138100Y0101395D02*
X0141962Y0101395D01*
X0142580Y0101993D02*
X0138100Y0101993D01*
X0138100Y0102592D02*
X0143616Y0102592D01*
X0144653Y0103190D02*
X0138100Y0103190D01*
X0138100Y0103789D02*
X0146647Y0103789D01*
X0150953Y0103789D02*
X0193980Y0103789D01*
X0194579Y0104387D02*
X0138100Y0104387D01*
X0138100Y0104986D02*
X0195177Y0104986D01*
X0195776Y0105584D02*
X0138100Y0105584D01*
X0138100Y0106183D02*
X0196374Y0106183D01*
X0196650Y0106781D02*
X0138100Y0106781D01*
X0138100Y0107380D02*
X0196650Y0107380D01*
X0196650Y0107978D02*
X0138100Y0107978D01*
X0138100Y0108577D02*
X0196650Y0108577D01*
X0196650Y0109175D02*
X0138100Y0109175D01*
X0138100Y0109774D02*
X0196650Y0109774D01*
X0196650Y0110372D02*
X0138100Y0110372D01*
X0138100Y0110971D02*
X0196650Y0110971D01*
X0196650Y0111569D02*
X0138100Y0111569D01*
X0138100Y0112168D02*
X0196650Y0112168D01*
X0196650Y0112766D02*
X0138100Y0112766D01*
X0138100Y0113365D02*
X0196650Y0113365D01*
X0196650Y0113963D02*
X0138100Y0113963D01*
X0138100Y0114562D02*
X0196650Y0114562D01*
X0196650Y0115160D02*
X0138100Y0115160D01*
X0138100Y0115759D02*
X0196650Y0115759D01*
X0196650Y0116357D02*
X0138100Y0116357D01*
X0138100Y0116956D02*
X0196650Y0116956D01*
X0196650Y0117554D02*
X0138100Y0117554D01*
X0138100Y0118153D02*
X0196650Y0118153D01*
X0196650Y0118751D02*
X0138100Y0118751D01*
X0138100Y0119350D02*
X0196650Y0119350D01*
X0196650Y0119948D02*
X0138100Y0119948D01*
X0138100Y0120547D02*
X0196650Y0120547D01*
X0196650Y0121145D02*
X0138100Y0121145D01*
X0138100Y0121744D02*
X0196650Y0121744D01*
X0196650Y0122342D02*
X0138100Y0122342D01*
X0138100Y0122941D02*
X0196650Y0122941D01*
X0196650Y0123539D02*
X0138100Y0123539D01*
X0138100Y0124138D02*
X0196650Y0124138D01*
X0196650Y0124737D02*
X0138100Y0124737D01*
X0138100Y0125335D02*
X0196650Y0125335D01*
X0196650Y0125934D02*
X0138100Y0125934D01*
X0138100Y0126532D02*
X0196650Y0126532D01*
X0196650Y0127131D02*
X0138100Y0127131D01*
X0138100Y0127729D02*
X0196650Y0127729D01*
X0196650Y0128328D02*
X0138100Y0128328D01*
X0138100Y0128926D02*
X0196366Y0128926D01*
X0195767Y0129525D02*
X0138100Y0129525D01*
X0138100Y0130123D02*
X0195169Y0130123D01*
X0194570Y0130722D02*
X0138100Y0130722D01*
X0138100Y0131320D02*
X0193972Y0131320D01*
X0193373Y0131919D02*
X0138100Y0131919D01*
X0138100Y0132517D02*
X0192775Y0132517D01*
X0192176Y0133116D02*
X0138100Y0133116D01*
X0138100Y0133714D02*
X0191577Y0133714D01*
X0190979Y0134313D02*
X0138100Y0134313D01*
X0138100Y0134911D02*
X0190380Y0134911D01*
X0189782Y0135510D02*
X0138100Y0135510D01*
X0138100Y0136108D02*
X0189183Y0136108D01*
X0188585Y0136707D02*
X0138100Y0136707D01*
X0138100Y0137305D02*
X0187986Y0137305D01*
X0187388Y0137904D02*
X0138100Y0137904D01*
X0138100Y0138502D02*
X0186789Y0138502D01*
X0186191Y0139101D02*
X0138100Y0139101D01*
X0138100Y0139699D02*
X0185592Y0139699D01*
X0184994Y0140298D02*
X0138100Y0140298D01*
X0138100Y0140896D02*
X0184395Y0140896D01*
X0183797Y0141495D02*
X0138100Y0141495D01*
X0138100Y0142093D02*
X0183198Y0142093D01*
X0182600Y0142692D02*
X0138100Y0142692D01*
X0138100Y0143290D02*
X0182001Y0143290D01*
X0181403Y0143889D02*
X0138100Y0143889D01*
X0138100Y0144487D02*
X0180804Y0144487D01*
X0180206Y0145086D02*
X0138100Y0145086D01*
X0138100Y0145684D02*
X0179607Y0145684D01*
X0179009Y0146283D02*
X0138100Y0146283D01*
X0138100Y0146881D02*
X0178410Y0146881D01*
X0177812Y0147480D02*
X0138100Y0147480D01*
X0138100Y0148078D02*
X0177213Y0148078D01*
X0176615Y0148677D02*
X0138100Y0148677D01*
X0138100Y0149275D02*
X0176016Y0149275D01*
X0175418Y0149874D02*
X0138100Y0149874D01*
X0138100Y0150472D02*
X0174819Y0150472D01*
X0174221Y0151071D02*
X0138100Y0151071D01*
X0138100Y0151670D02*
X0173622Y0151670D01*
X0173024Y0152268D02*
X0138100Y0152268D01*
X0138100Y0152867D02*
X0172425Y0152867D01*
X0171827Y0153465D02*
X0138100Y0153465D01*
X0138100Y0154064D02*
X0171228Y0154064D01*
X0170630Y0154662D02*
X0138100Y0154662D01*
X0138100Y0155261D02*
X0170031Y0155261D01*
X0169433Y0155859D02*
X0138100Y0155859D01*
X0138100Y0156458D02*
X0168834Y0156458D01*
X0168236Y0157056D02*
X0138100Y0157056D01*
X0138100Y0157655D02*
X0167637Y0157655D01*
X0167039Y0158253D02*
X0138100Y0158253D01*
X0138100Y0158852D02*
X0166440Y0158852D01*
X0165842Y0159450D02*
X0138100Y0159450D01*
X0138100Y0160049D02*
X0165243Y0160049D01*
X0164644Y0160647D02*
X0138100Y0160647D01*
X0138100Y0161246D02*
X0164046Y0161246D01*
X0163447Y0161844D02*
X0138100Y0161844D01*
X0138100Y0162443D02*
X0162849Y0162443D01*
X0162250Y0163041D02*
X0138100Y0163041D01*
X0138100Y0163640D02*
X0161652Y0163640D01*
X0161053Y0164238D02*
X0138100Y0164238D01*
X0138100Y0164837D02*
X0160455Y0164837D01*
X0159856Y0165435D02*
X0138100Y0165435D01*
X0138100Y0166034D02*
X0159258Y0166034D01*
X0158659Y0166632D02*
X0138100Y0166632D01*
X0138100Y0167231D02*
X0158061Y0167231D01*
X0157462Y0167829D02*
X0138100Y0167829D01*
X0138100Y0168428D02*
X0156864Y0168428D01*
X0156265Y0169026D02*
X0138100Y0169026D01*
X0138100Y0169625D02*
X0155667Y0169625D01*
X0155068Y0170223D02*
X0138100Y0170223D01*
X0138100Y0170822D02*
X0154470Y0170822D01*
X0153871Y0171420D02*
X0138100Y0171420D01*
X0138100Y0172019D02*
X0153273Y0172019D01*
X0152674Y0172617D02*
X0138100Y0172617D01*
X0138100Y0173216D02*
X0152076Y0173216D01*
X0151477Y0173814D02*
X0138100Y0173814D01*
X0138100Y0174413D02*
X0150879Y0174413D01*
X0150280Y0175011D02*
X0138100Y0175011D01*
X0138100Y0175610D02*
X0149682Y0175610D01*
X0149083Y0176208D02*
X0138100Y0176208D01*
X0138100Y0176807D02*
X0148485Y0176807D01*
X0147886Y0177405D02*
X0138100Y0177405D01*
X0138100Y0178004D02*
X0147288Y0178004D01*
X0146969Y0178603D02*
X0138100Y0178603D01*
X0138100Y0179201D02*
X0146722Y0179201D01*
X0146650Y0179800D02*
X0138100Y0179800D01*
X0138100Y0180398D02*
X0146650Y0180398D01*
X0146762Y0180997D02*
X0138100Y0180997D01*
X0138100Y0181595D02*
X0147010Y0181595D01*
X0147385Y0182194D02*
X0138100Y0182194D01*
X0138100Y0182792D02*
X0147984Y0182792D01*
X0149230Y0183391D02*
X0138100Y0183391D01*
X0138100Y0183989D02*
X0170259Y0183989D01*
X0169661Y0183391D02*
X0159620Y0183391D01*
X0160866Y0182792D02*
X0164391Y0182792D01*
X0163792Y0182194D02*
X0161465Y0182194D01*
X0162063Y0181595D02*
X0163380Y0181595D01*
X0163132Y0180997D02*
X0162662Y0180997D01*
X0157980Y0183391D02*
X0150870Y0183391D01*
X0152116Y0182792D02*
X0156734Y0182792D01*
X0156135Y0182194D02*
X0152715Y0182194D01*
X0153313Y0181595D02*
X0155760Y0181595D01*
X0155512Y0180997D02*
X0153912Y0180997D01*
X0154510Y0180398D02*
X0155400Y0180398D01*
X0155400Y0179800D02*
X0155109Y0179800D01*
X0168209Y0182792D02*
X0169062Y0182792D01*
X0170858Y0184588D02*
X0138100Y0184588D01*
X0138100Y0185186D02*
X0171456Y0185186D01*
X0162704Y0194164D02*
X0153149Y0194164D01*
X0152550Y0194762D02*
X0163303Y0194762D01*
X0163901Y0195361D02*
X0151952Y0195361D01*
X0151760Y0197755D02*
X0165941Y0197755D01*
X0165941Y0198353D02*
X0152359Y0198353D01*
X0152957Y0198952D02*
X0165941Y0198952D01*
X0165941Y0199550D02*
X0153400Y0199550D01*
X0153400Y0200149D02*
X0165941Y0200149D01*
X0165941Y0200747D02*
X0153400Y0200747D01*
X0153400Y0201944D02*
X0165941Y0201944D01*
X0165941Y0201346D02*
X0149100Y0201346D01*
X0149100Y0201944D02*
X0148500Y0201944D01*
X0148500Y0201346D02*
X0138100Y0201346D01*
X0138100Y0201944D02*
X0144200Y0201944D01*
X0144200Y0202543D02*
X0138100Y0202543D01*
X0138100Y0203141D02*
X0144200Y0203141D01*
X0144735Y0203740D02*
X0138100Y0203740D01*
X0138100Y0204339D02*
X0145333Y0204339D01*
X0145932Y0204937D02*
X0138100Y0204937D01*
X0138100Y0205536D02*
X0146530Y0205536D01*
X0146155Y0206733D02*
X0138100Y0206733D01*
X0138100Y0206134D02*
X0165941Y0206134D01*
X0165941Y0205536D02*
X0151070Y0205536D01*
X0151668Y0204937D02*
X0165941Y0204937D01*
X0165941Y0204339D02*
X0152267Y0204339D01*
X0152865Y0203740D02*
X0165941Y0203740D01*
X0165941Y0203141D02*
X0153400Y0203141D01*
X0153400Y0202543D02*
X0165941Y0202543D01*
X0165941Y0206733D02*
X0151445Y0206733D01*
X0152044Y0207331D02*
X0165941Y0207331D01*
X0165941Y0207930D02*
X0152642Y0207930D01*
X0153241Y0208528D02*
X0165941Y0208528D01*
X0165941Y0209127D02*
X0153839Y0209127D01*
X0153900Y0209725D02*
X0165941Y0209725D01*
X0165941Y0210324D02*
X0153900Y0210324D01*
X0153900Y0210922D02*
X0165941Y0210922D01*
X0165941Y0211521D02*
X0153900Y0211521D01*
X0153900Y0212119D02*
X0165941Y0212119D01*
X0165941Y0212718D02*
X0153900Y0212718D01*
X0153900Y0213316D02*
X0165941Y0213316D01*
X0165941Y0213915D02*
X0153398Y0213915D01*
X0152799Y0214513D02*
X0165941Y0214513D01*
X0165941Y0215112D02*
X0152201Y0215112D01*
X0151602Y0215710D02*
X0165941Y0215710D01*
X0149100Y0205536D02*
X0148500Y0205536D01*
X0148500Y0204937D02*
X0149100Y0204937D01*
X0149100Y0204339D02*
X0148500Y0204339D01*
X0148500Y0203740D02*
X0149100Y0203740D01*
X0149100Y0203141D02*
X0148500Y0203141D01*
X0148500Y0202543D02*
X0149100Y0202543D01*
X0149100Y0200747D02*
X0148500Y0200747D01*
X0148500Y0200149D02*
X0149100Y0200149D01*
X0149100Y0199550D02*
X0148500Y0199550D01*
X0148500Y0198952D02*
X0149100Y0198952D01*
X0149100Y0198353D02*
X0148500Y0198353D01*
X0148500Y0197755D02*
X0149100Y0197755D01*
X0149100Y0197156D02*
X0148500Y0197156D01*
X0145840Y0197755D02*
X0138100Y0197755D01*
X0138100Y0198353D02*
X0145241Y0198353D01*
X0144643Y0198952D02*
X0138100Y0198952D01*
X0138100Y0199550D02*
X0144200Y0199550D01*
X0144200Y0200149D02*
X0138100Y0200149D01*
X0138100Y0200747D02*
X0144200Y0200747D01*
X0129981Y0213316D02*
X0095104Y0213316D01*
X0095703Y0213915D02*
X0130334Y0213915D01*
X0130932Y0214513D02*
X0096100Y0214513D01*
X0096100Y0215112D02*
X0131766Y0215112D01*
X0143700Y0222294D02*
X0078263Y0222294D01*
X0078206Y0222892D02*
X0143700Y0222892D01*
X0143778Y0223491D02*
X0078149Y0223491D01*
X0078100Y0224089D02*
X0144377Y0224089D01*
X0144975Y0224688D02*
X0078087Y0224688D01*
X0077879Y0225286D02*
X0098849Y0225286D01*
X0098251Y0225885D02*
X0077591Y0225885D01*
X0077244Y0226483D02*
X0097652Y0226483D01*
X0097054Y0227082D02*
X0076599Y0227082D01*
X0075812Y0227680D02*
X0096455Y0227680D01*
X0095856Y0228279D02*
X0034360Y0228279D01*
X0033762Y0227680D02*
X0071932Y0227680D01*
X0070934Y0227082D02*
X0033163Y0227082D01*
X0032565Y0226483D02*
X0070402Y0226483D01*
X0069804Y0225885D02*
X0031966Y0225885D01*
X0031368Y0225286D02*
X0069205Y0225286D01*
X0068607Y0224688D02*
X0030769Y0224688D01*
X0030170Y0224089D02*
X0068008Y0224089D01*
X0067410Y0223491D02*
X0030190Y0223491D01*
X0030789Y0222892D02*
X0066811Y0222892D01*
X0066213Y0222294D02*
X0031387Y0222294D01*
X0031986Y0221695D02*
X0065614Y0221695D01*
X0065016Y0221097D02*
X0032584Y0221097D01*
X0033183Y0220498D02*
X0064417Y0220498D01*
X0063819Y0219900D02*
X0033781Y0219900D01*
X0034380Y0219301D02*
X0063220Y0219301D01*
X0062622Y0218703D02*
X0034978Y0218703D01*
X0035577Y0218104D02*
X0062023Y0218104D01*
X0061425Y0217506D02*
X0036175Y0217506D01*
X0036774Y0216907D02*
X0060826Y0216907D01*
X0060228Y0216309D02*
X0037372Y0216309D01*
X0037971Y0215710D02*
X0059629Y0215710D01*
X0059031Y0215112D02*
X0038569Y0215112D01*
X0039168Y0214513D02*
X0058432Y0214513D01*
X0057834Y0213915D02*
X0039766Y0213915D01*
X0040365Y0213316D02*
X0057235Y0213316D01*
X0056637Y0212718D02*
X0040963Y0212718D01*
X0041562Y0212119D02*
X0056038Y0212119D01*
X0055440Y0211521D02*
X0042160Y0211521D01*
X0042759Y0210922D02*
X0054841Y0210922D01*
X0054243Y0210324D02*
X0043357Y0210324D01*
X0043956Y0209725D02*
X0053644Y0209725D01*
X0053045Y0209127D02*
X0044555Y0209127D01*
X0045153Y0208528D02*
X0052447Y0208528D01*
X0051848Y0207930D02*
X0045752Y0207930D01*
X0046350Y0207331D02*
X0051250Y0207331D01*
X0050651Y0206733D02*
X0046949Y0206733D01*
X0047547Y0206134D02*
X0050053Y0206134D01*
X0049454Y0205536D02*
X0048146Y0205536D01*
X0048744Y0204937D02*
X0048856Y0204937D01*
X0034959Y0228877D02*
X0095258Y0228877D01*
X0094659Y0229476D02*
X0035557Y0229476D01*
X0036156Y0230074D02*
X0094061Y0230074D01*
X0093462Y0230673D02*
X0036754Y0230673D01*
X0037353Y0231272D02*
X0092864Y0231272D01*
X0092265Y0231870D02*
X0037951Y0231870D01*
X0038550Y0232469D02*
X0091667Y0232469D01*
X0091068Y0233067D02*
X0039148Y0233067D01*
X0039747Y0233666D02*
X0090470Y0233666D01*
X0089871Y0234264D02*
X0040345Y0234264D01*
X0040944Y0234863D02*
X0089273Y0234863D01*
X0088674Y0235461D02*
X0041542Y0235461D01*
X0042141Y0236060D02*
X0088076Y0236060D01*
X0087477Y0236658D02*
X0042739Y0236658D01*
X0043338Y0237257D02*
X0086879Y0237257D01*
X0083991Y0237855D02*
X0043936Y0237855D01*
X0044535Y0238454D02*
X0083392Y0238454D01*
X0079588Y0239052D02*
X0045133Y0239052D01*
X0045732Y0239651D02*
X0078990Y0239651D01*
X0078705Y0240249D02*
X0046330Y0240249D01*
X0046929Y0240848D02*
X0078500Y0240848D01*
X0078500Y0241446D02*
X0047527Y0241446D01*
X0048126Y0242045D02*
X0078500Y0242045D01*
X0078500Y0242643D02*
X0048724Y0242643D01*
X0049323Y0243242D02*
X0078500Y0243242D01*
X0078500Y0243840D02*
X0049921Y0243840D01*
X0050520Y0244439D02*
X0078500Y0244439D01*
X0078500Y0245037D02*
X0051118Y0245037D01*
X0051717Y0245636D02*
X0078500Y0245636D01*
X0078500Y0246234D02*
X0052315Y0246234D01*
X0052914Y0246833D02*
X0078500Y0246833D01*
X0078500Y0247431D02*
X0053512Y0247431D01*
X0054111Y0248030D02*
X0078500Y0248030D01*
X0078500Y0248628D02*
X0054709Y0248628D01*
X0055308Y0249227D02*
X0078500Y0249227D01*
X0078500Y0249825D02*
X0055906Y0249825D01*
X0056505Y0250424D02*
X0078500Y0250424D01*
X0078500Y0251022D02*
X0057103Y0251022D01*
X0107512Y0257606D02*
X0115273Y0257606D01*
X0114347Y0257008D02*
X0107679Y0257008D01*
X0107679Y0256409D02*
X0113853Y0256409D01*
X0189100Y0251621D02*
X0189969Y0251621D01*
X0189100Y0251022D02*
X0206075Y0251022D01*
X0205477Y0250424D02*
X0196298Y0250424D01*
X0196679Y0249825D02*
X0205248Y0249825D01*
X0205248Y0249227D02*
X0196734Y0249227D01*
X0196734Y0248628D02*
X0205248Y0248628D01*
X0205248Y0248030D02*
X0196734Y0248030D01*
X0196734Y0246833D02*
X0205248Y0246833D01*
X0205248Y0247431D02*
X0193569Y0247431D01*
X0193568Y0248030D02*
X0192969Y0248030D01*
X0192969Y0248628D02*
X0193568Y0248628D01*
X0193568Y0249227D02*
X0192969Y0249227D01*
X0192969Y0249825D02*
X0193568Y0249825D01*
X0193568Y0250424D02*
X0192969Y0250424D01*
X0190239Y0250424D02*
X0189100Y0250424D01*
X0189100Y0249825D02*
X0189858Y0249825D01*
X0189803Y0249227D02*
X0189100Y0249227D01*
X0189100Y0248628D02*
X0189803Y0248628D01*
X0189803Y0248030D02*
X0189100Y0248030D01*
X0189100Y0247431D02*
X0192968Y0247431D01*
X0189803Y0246833D02*
X0189100Y0246833D01*
X0189100Y0246234D02*
X0189803Y0246234D01*
X0189803Y0245636D02*
X0189100Y0245636D01*
X0189100Y0245037D02*
X0189885Y0245037D01*
X0196652Y0245037D02*
X0205248Y0245037D01*
X0205248Y0245636D02*
X0196734Y0245636D01*
X0196734Y0246234D02*
X0205248Y0246234D01*
X0201185Y0244439D02*
X0198915Y0244439D01*
X0196568Y0251621D02*
X0218500Y0251621D01*
X0218500Y0252219D02*
X0212404Y0252219D01*
X0212419Y0252234D02*
X0212590Y0252530D01*
X0212679Y0252861D01*
X0212679Y0254701D01*
X0209513Y0254701D01*
X0209513Y0251732D01*
X0211550Y0251732D01*
X0211881Y0251821D01*
X0212177Y0251992D01*
X0212419Y0252234D01*
X0212667Y0252818D02*
X0218500Y0252818D01*
X0218500Y0253416D02*
X0212679Y0253416D01*
X0212679Y0254015D02*
X0218500Y0254015D01*
X0218500Y0254613D02*
X0212679Y0254613D01*
X0212679Y0255301D02*
X0209513Y0255301D01*
X0208913Y0255301D01*
X0208913Y0254701D01*
X0205748Y0254701D01*
X0205748Y0252861D01*
X0205837Y0252530D01*
X0206008Y0252234D01*
X0206250Y0251992D01*
X0206546Y0251821D01*
X0206877Y0251732D01*
X0208913Y0251732D01*
X0208913Y0254701D01*
X0209513Y0254701D01*
X0209513Y0255301D01*
X0209513Y0258269D01*
X0211550Y0258269D01*
X0211881Y0258181D01*
X0212177Y0258010D01*
X0212419Y0257768D01*
X0212590Y0257471D01*
X0212679Y0257140D01*
X0212679Y0255301D01*
X0212679Y0255810D02*
X0218605Y0255810D01*
X0218500Y0255212D02*
X0209513Y0255212D01*
X0209513Y0255810D02*
X0208913Y0255810D01*
X0208913Y0255301D02*
X0208913Y0258269D01*
X0206877Y0258269D01*
X0206546Y0258181D01*
X0206250Y0258010D01*
X0206008Y0257768D01*
X0205837Y0257471D01*
X0205748Y0257140D01*
X0205748Y0255301D01*
X0208913Y0255301D01*
X0208913Y0255212D02*
X0197234Y0255212D01*
X0197234Y0255810D02*
X0205748Y0255810D01*
X0205748Y0256409D02*
X0197234Y0256409D01*
X0197234Y0257008D02*
X0205748Y0257008D01*
X0205915Y0257606D02*
X0197234Y0257606D01*
X0196744Y0258205D02*
X0206635Y0258205D01*
X0208913Y0258205D02*
X0209513Y0258205D01*
X0209513Y0257606D02*
X0208913Y0257606D01*
X0208913Y0257008D02*
X0209513Y0257008D01*
X0209513Y0256409D02*
X0208913Y0256409D01*
X0208913Y0254613D02*
X0209513Y0254613D01*
X0209513Y0254015D02*
X0208913Y0254015D01*
X0208913Y0253416D02*
X0209513Y0253416D01*
X0209513Y0252818D02*
X0208913Y0252818D01*
X0208913Y0252219D02*
X0209513Y0252219D01*
X0212352Y0251022D02*
X0218500Y0251022D01*
X0218500Y0250424D02*
X0212950Y0250424D01*
X0213179Y0249825D02*
X0218500Y0249825D01*
X0218500Y0249227D02*
X0213179Y0249227D01*
X0213179Y0248628D02*
X0218500Y0248628D01*
X0218500Y0248030D02*
X0213179Y0248030D01*
X0213179Y0247431D02*
X0218500Y0247431D01*
X0218500Y0246833D02*
X0213179Y0246833D01*
X0213179Y0246234D02*
X0218500Y0246234D01*
X0218500Y0245636D02*
X0213179Y0245636D01*
X0213179Y0245037D02*
X0218500Y0245037D01*
X0216533Y0244439D02*
X0212850Y0244439D01*
X0212252Y0243840D02*
X0215439Y0243840D01*
X0214840Y0243242D02*
X0212037Y0243242D01*
X0212037Y0242643D02*
X0214546Y0242643D01*
X0214299Y0242045D02*
X0212037Y0242045D01*
X0212037Y0241446D02*
X0214261Y0241446D01*
X0214261Y0240848D02*
X0212037Y0240848D01*
X0212037Y0240249D02*
X0214425Y0240249D01*
X0224100Y0245037D02*
X0224885Y0245037D01*
X0224803Y0245636D02*
X0224100Y0245636D01*
X0224100Y0246234D02*
X0224803Y0246234D01*
X0224803Y0246833D02*
X0224100Y0246833D01*
X0224100Y0247431D02*
X0227968Y0247431D01*
X0227969Y0248030D02*
X0228568Y0248030D01*
X0228568Y0248628D02*
X0227969Y0248628D01*
X0227969Y0249227D02*
X0228568Y0249227D01*
X0228568Y0249825D02*
X0227969Y0249825D01*
X0227969Y0250424D02*
X0228568Y0250424D01*
X0231298Y0250424D02*
X0240477Y0250424D01*
X0240248Y0249825D02*
X0231679Y0249825D01*
X0231734Y0249227D02*
X0240248Y0249227D01*
X0240248Y0248628D02*
X0231734Y0248628D01*
X0231734Y0248030D02*
X0240248Y0248030D01*
X0240248Y0247431D02*
X0228569Y0247431D01*
X0231734Y0246833D02*
X0240248Y0246833D01*
X0240248Y0246234D02*
X0231734Y0246234D01*
X0231734Y0245636D02*
X0240248Y0245636D01*
X0240248Y0245037D02*
X0231652Y0245037D01*
X0233915Y0244439D02*
X0236185Y0244439D01*
X0241075Y0251022D02*
X0224100Y0251022D01*
X0224100Y0250424D02*
X0225239Y0250424D01*
X0224858Y0249825D02*
X0224100Y0249825D01*
X0224100Y0249227D02*
X0224803Y0249227D01*
X0224803Y0248628D02*
X0224100Y0248628D01*
X0224100Y0248030D02*
X0224803Y0248030D01*
X0224969Y0251621D02*
X0224100Y0251621D01*
X0218853Y0256409D02*
X0212679Y0256409D01*
X0212679Y0257008D02*
X0219347Y0257008D01*
X0220273Y0257606D02*
X0212512Y0257606D01*
X0211792Y0258205D02*
X0224793Y0258205D01*
X0231744Y0258205D02*
X0241635Y0258205D01*
X0240915Y0257606D02*
X0232234Y0257606D01*
X0232234Y0257008D02*
X0240748Y0257008D01*
X0240748Y0256409D02*
X0232234Y0256409D01*
X0243913Y0256409D02*
X0244513Y0256409D01*
X0244513Y0257008D02*
X0243913Y0257008D01*
X0243913Y0257606D02*
X0244513Y0257606D01*
X0244513Y0258205D02*
X0243913Y0258205D01*
X0246792Y0258205D02*
X0259793Y0258205D01*
X0255273Y0257606D02*
X0247512Y0257606D01*
X0247679Y0257008D02*
X0254347Y0257008D01*
X0253853Y0256409D02*
X0247679Y0256409D01*
X0247679Y0255810D02*
X0253605Y0255810D01*
X0244513Y0254613D02*
X0243913Y0254613D01*
X0243913Y0254015D02*
X0244513Y0254015D01*
X0244513Y0253416D02*
X0243913Y0253416D01*
X0243913Y0252818D02*
X0244513Y0252818D01*
X0244513Y0252219D02*
X0243913Y0252219D01*
X0267167Y0252219D02*
X0276022Y0252219D01*
X0275760Y0252818D02*
X0267234Y0252818D01*
X0267234Y0253416D02*
X0275748Y0253416D01*
X0275748Y0254015D02*
X0267234Y0254015D01*
X0267234Y0254613D02*
X0275748Y0254613D01*
X0222668Y0207930D02*
X0222581Y0207930D01*
X0220358Y0183989D02*
X0206320Y0183989D01*
X0208307Y0177405D02*
X0220250Y0177405D01*
X0220250Y0176807D02*
X0207065Y0176807D01*
X0196146Y0173814D02*
X0220250Y0173814D01*
X0220250Y0173216D02*
X0195547Y0173216D01*
X0194949Y0172617D02*
X0220250Y0172617D01*
X0220811Y0172019D02*
X0194350Y0172019D01*
X0214850Y0131320D02*
X0216491Y0131320D01*
X0216491Y0130722D02*
X0214850Y0130722D01*
X0214850Y0130123D02*
X0216580Y0130123D01*
X0217179Y0129525D02*
X0214850Y0129525D01*
X0214850Y0128926D02*
X0217777Y0128926D01*
X0218376Y0128328D02*
X0214850Y0128328D01*
X0214850Y0127729D02*
X0234118Y0127729D01*
X0233520Y0128328D02*
X0232807Y0128328D01*
X0230891Y0128328D02*
X0230291Y0128328D01*
X0230291Y0128926D02*
X0230891Y0128926D01*
X0230891Y0129525D02*
X0230291Y0129525D01*
X0230291Y0130123D02*
X0230891Y0130123D01*
X0230891Y0130722D02*
X0230291Y0130722D01*
X0230291Y0131320D02*
X0230891Y0131320D01*
X0234717Y0127131D02*
X0214850Y0127131D01*
X0214850Y0126532D02*
X0235315Y0126532D01*
X0235914Y0125934D02*
X0214850Y0125934D01*
X0214850Y0125335D02*
X0236512Y0125335D01*
X0237111Y0124737D02*
X0214850Y0124737D01*
X0214850Y0124138D02*
X0237709Y0124138D01*
X0215685Y0108577D02*
X0287942Y0108577D01*
X0287344Y0109175D02*
X0215437Y0109175D01*
X0214978Y0109774D02*
X0286745Y0109774D01*
X0286147Y0110372D02*
X0214850Y0110372D01*
X0214850Y0110971D02*
X0285548Y0110971D01*
X0284950Y0111569D02*
X0214850Y0111569D01*
X0214850Y0112168D02*
X0284351Y0112168D01*
X0283753Y0112766D02*
X0214850Y0112766D01*
X0214850Y0113365D02*
X0283154Y0113365D01*
X0282556Y0113963D02*
X0214850Y0113963D01*
X0214850Y0114562D02*
X0281957Y0114562D01*
X0281359Y0115160D02*
X0214850Y0115160D01*
X0214850Y0115759D02*
X0280735Y0115759D01*
X0280162Y0116357D02*
X0214850Y0116357D01*
X0214850Y0116956D02*
X0279868Y0116956D01*
X0279662Y0117554D02*
X0214850Y0117554D01*
X0214850Y0118153D02*
X0279500Y0118153D01*
X0279476Y0118751D02*
X0214850Y0118751D01*
X0214850Y0119350D02*
X0279500Y0119350D01*
X0279590Y0119948D02*
X0214850Y0119948D01*
X0214850Y0120547D02*
X0279647Y0120547D01*
X0279704Y0121145D02*
X0214850Y0121145D01*
X0214850Y0121744D02*
X0279761Y0121744D01*
X0279818Y0122342D02*
X0214850Y0122342D01*
X0214850Y0122941D02*
X0279875Y0122941D01*
X0279932Y0123539D02*
X0214850Y0123539D01*
X0215839Y0107978D02*
X0288541Y0107978D01*
X0289139Y0107380D02*
X0215839Y0107380D01*
X0215791Y0106781D02*
X0289738Y0106781D01*
X0290336Y0106183D02*
X0215544Y0106183D01*
X0215235Y0105584D02*
X0290935Y0105584D01*
X0291533Y0104986D02*
X0214637Y0104986D01*
X0189246Y0081045D02*
X0183450Y0081045D01*
X0183450Y0080447D02*
X0189845Y0080447D01*
X0190400Y0079848D02*
X0183450Y0079848D01*
X0183399Y0079250D02*
X0190400Y0079250D01*
X0190400Y0078651D02*
X0183151Y0078651D01*
X0182861Y0078053D02*
X0190400Y0078053D01*
X0190242Y0077454D02*
X0182262Y0077454D01*
X0181223Y0076856D02*
X0189643Y0076856D01*
X0189045Y0076257D02*
X0178555Y0076257D01*
X0178877Y0076856D02*
X0177957Y0076856D01*
X0177838Y0077454D02*
X0177358Y0077454D01*
X0177239Y0078053D02*
X0177200Y0078053D01*
X0178900Y0075659D02*
X0188700Y0075659D01*
X0188700Y0075060D02*
X0178900Y0075060D01*
X0178900Y0074462D02*
X0188700Y0074462D01*
X0188700Y0073863D02*
X0178900Y0073863D01*
X0178900Y0073265D02*
X0188700Y0073265D01*
X0188700Y0072666D02*
X0178900Y0072666D01*
X0178900Y0072068D02*
X0188700Y0072068D01*
X0188919Y0071469D02*
X0178681Y0071469D01*
X0178083Y0070870D02*
X0189517Y0070870D01*
X0190116Y0070272D02*
X0177484Y0070272D01*
X0176886Y0069673D02*
X0190714Y0069673D01*
X0191313Y0069075D02*
X0176287Y0069075D01*
X0171313Y0069075D02*
X0168986Y0069075D01*
X0168986Y0068476D02*
X0198614Y0068476D01*
X0198614Y0069075D02*
X0196287Y0069075D01*
X0199066Y0067878D02*
X0168534Y0067878D01*
X0167935Y0067279D02*
X0199665Y0067279D01*
X0199669Y0060324D02*
X0198614Y0059270D01*
X0198614Y0058100D01*
X0196712Y0058100D01*
X0195912Y0058900D01*
X0191688Y0058900D01*
X0188700Y0055912D01*
X0188700Y0051688D01*
X0191688Y0048700D01*
X0195912Y0048700D01*
X0196712Y0049500D01*
X0198614Y0049500D01*
X0198614Y0048330D01*
X0199669Y0047276D01*
X0210609Y0047276D01*
X0211663Y0048330D01*
X0211663Y0059270D01*
X0210609Y0060324D01*
X0199669Y0060324D01*
X0199441Y0060097D02*
X0168159Y0060097D01*
X0168757Y0059499D02*
X0198843Y0059499D01*
X0198614Y0058900D02*
X0168986Y0058900D01*
X0168986Y0058302D02*
X0171089Y0058302D01*
X0176511Y0058302D02*
X0191089Y0058302D01*
X0190491Y0057703D02*
X0177109Y0057703D01*
X0177708Y0057105D02*
X0189892Y0057105D01*
X0189294Y0056506D02*
X0178306Y0056506D01*
X0178900Y0055908D02*
X0188700Y0055908D01*
X0188700Y0055309D02*
X0178900Y0055309D01*
X0178900Y0054711D02*
X0188700Y0054711D01*
X0188700Y0054112D02*
X0178900Y0054112D01*
X0178900Y0053514D02*
X0188700Y0053514D01*
X0188700Y0052915D02*
X0178900Y0052915D01*
X0178900Y0052317D02*
X0188700Y0052317D01*
X0188700Y0051718D02*
X0178900Y0051718D01*
X0178332Y0051120D02*
X0189268Y0051120D01*
X0189866Y0050521D02*
X0177734Y0050521D01*
X0177135Y0049923D02*
X0190465Y0049923D01*
X0191063Y0049324D02*
X0176537Y0049324D01*
X0175938Y0048726D02*
X0191662Y0048726D01*
X0195938Y0048726D02*
X0198614Y0048726D01*
X0198614Y0049324D02*
X0196537Y0049324D01*
X0198817Y0048127D02*
X0168783Y0048127D01*
X0168986Y0048726D02*
X0171662Y0048726D01*
X0171063Y0049324D02*
X0168986Y0049324D01*
X0168184Y0047529D02*
X0199416Y0047529D01*
X0210862Y0047529D02*
X0294500Y0047529D01*
X0294500Y0048127D02*
X0228076Y0048127D01*
X0227984Y0048035D02*
X0228226Y0048277D01*
X0228397Y0048574D01*
X0228486Y0048904D01*
X0228486Y0053500D01*
X0222761Y0053500D01*
X0222761Y0047776D01*
X0227357Y0047776D01*
X0227688Y0047864D01*
X0227984Y0048035D01*
X0228438Y0048726D02*
X0294500Y0048726D01*
X0294500Y0049324D02*
X0228486Y0049324D01*
X0228486Y0049923D02*
X0294500Y0049923D01*
X0294500Y0050521D02*
X0228486Y0050521D01*
X0228486Y0051120D02*
X0294500Y0051120D01*
X0294500Y0051718D02*
X0228486Y0051718D01*
X0228486Y0052317D02*
X0294500Y0052317D01*
X0294500Y0052915D02*
X0228486Y0052915D01*
X0228486Y0054100D02*
X0228486Y0058696D01*
X0228397Y0059026D01*
X0228226Y0059323D01*
X0227984Y0059565D01*
X0227688Y0059736D01*
X0227357Y0059824D01*
X0222761Y0059824D01*
X0222761Y0054100D01*
X0222161Y0054100D01*
X0222161Y0053500D01*
X0216437Y0053500D01*
X0216437Y0048904D01*
X0216526Y0048574D01*
X0216697Y0048277D01*
X0216939Y0048035D01*
X0217235Y0047864D01*
X0217566Y0047776D01*
X0222161Y0047776D01*
X0222161Y0053500D01*
X0222761Y0053500D01*
X0222761Y0054100D01*
X0228486Y0054100D01*
X0228486Y0054112D02*
X0294500Y0054112D01*
X0294500Y0053514D02*
X0222761Y0053514D01*
X0222761Y0054112D02*
X0222161Y0054112D01*
X0222161Y0054100D02*
X0222161Y0059824D01*
X0217566Y0059824D01*
X0217235Y0059736D01*
X0216939Y0059565D01*
X0216697Y0059323D01*
X0216526Y0059026D01*
X0216437Y0058696D01*
X0216437Y0054100D01*
X0222161Y0054100D01*
X0222161Y0053514D02*
X0211663Y0053514D01*
X0211663Y0054112D02*
X0216437Y0054112D01*
X0216437Y0054711D02*
X0211663Y0054711D01*
X0211663Y0055309D02*
X0216437Y0055309D01*
X0216437Y0055908D02*
X0211663Y0055908D01*
X0211663Y0056506D02*
X0216437Y0056506D01*
X0216437Y0057105D02*
X0211663Y0057105D01*
X0211663Y0057703D02*
X0216437Y0057703D01*
X0216437Y0058302D02*
X0211663Y0058302D01*
X0211663Y0058900D02*
X0216492Y0058900D01*
X0216873Y0059499D02*
X0211434Y0059499D01*
X0210836Y0060097D02*
X0294500Y0060097D01*
X0294500Y0059499D02*
X0228050Y0059499D01*
X0228431Y0058900D02*
X0294500Y0058900D01*
X0294500Y0058302D02*
X0228486Y0058302D01*
X0228486Y0057703D02*
X0294500Y0057703D01*
X0294500Y0057105D02*
X0228486Y0057105D01*
X0228486Y0056506D02*
X0294500Y0056506D01*
X0294500Y0055908D02*
X0228486Y0055908D01*
X0228486Y0055309D02*
X0294500Y0055309D01*
X0294500Y0054711D02*
X0228486Y0054711D01*
X0222761Y0054711D02*
X0222161Y0054711D01*
X0222161Y0055309D02*
X0222761Y0055309D01*
X0222761Y0055908D02*
X0222161Y0055908D01*
X0222161Y0056506D02*
X0222761Y0056506D01*
X0222761Y0057105D02*
X0222161Y0057105D01*
X0222161Y0057703D02*
X0222761Y0057703D01*
X0222761Y0058302D02*
X0222161Y0058302D01*
X0222161Y0058900D02*
X0222761Y0058900D01*
X0222761Y0059499D02*
X0222161Y0059499D01*
X0222161Y0052915D02*
X0222761Y0052915D01*
X0222761Y0052317D02*
X0222161Y0052317D01*
X0222161Y0051718D02*
X0222761Y0051718D01*
X0222761Y0051120D02*
X0222161Y0051120D01*
X0222161Y0050521D02*
X0222761Y0050521D01*
X0222761Y0049923D02*
X0222161Y0049923D01*
X0222161Y0049324D02*
X0222761Y0049324D01*
X0222761Y0048726D02*
X0222161Y0048726D01*
X0222161Y0048127D02*
X0222761Y0048127D01*
X0222631Y0043339D02*
X0279969Y0043339D01*
X0278874Y0042740D02*
X0223726Y0042740D01*
X0222739Y0043310D02*
X0225066Y0041966D01*
X0226966Y0040066D01*
X0228310Y0037739D01*
X0229005Y0035144D01*
X0229005Y0032456D01*
X0228310Y0029861D01*
X0226966Y0027534D01*
X0225066Y0025634D01*
X0222739Y0024290D01*
X0220144Y0023594D01*
X0217456Y0023594D01*
X0214861Y0024290D01*
X0212534Y0025634D01*
X0210634Y0027534D01*
X0209290Y0029861D01*
X0208594Y0032456D01*
X0208594Y0035144D01*
X0209290Y0037739D01*
X0210634Y0040066D01*
X0212534Y0041966D01*
X0214861Y0043310D01*
X0217456Y0044005D01*
X0220144Y0044005D01*
X0222739Y0043310D01*
X0224762Y0042142D02*
X0277838Y0042142D01*
X0277111Y0041543D02*
X0225489Y0041543D01*
X0226088Y0040945D02*
X0276512Y0040945D01*
X0275914Y0040346D02*
X0226686Y0040346D01*
X0227150Y0039748D02*
X0275450Y0039748D01*
X0275104Y0039149D02*
X0227496Y0039149D01*
X0227841Y0038551D02*
X0274759Y0038551D01*
X0274413Y0037952D02*
X0228187Y0037952D01*
X0228413Y0037354D02*
X0274187Y0037354D01*
X0274026Y0036755D02*
X0228574Y0036755D01*
X0228734Y0036157D02*
X0273866Y0036157D01*
X0273706Y0035558D02*
X0228894Y0035558D01*
X0229005Y0034960D02*
X0273594Y0034960D01*
X0273594Y0034361D02*
X0229005Y0034361D01*
X0229005Y0033763D02*
X0273594Y0033763D01*
X0273594Y0033164D02*
X0229005Y0033164D01*
X0229005Y0032566D02*
X0273594Y0032566D01*
X0273726Y0031967D02*
X0228874Y0031967D01*
X0228714Y0031369D02*
X0273886Y0031369D01*
X0274046Y0030770D02*
X0228554Y0030770D01*
X0228393Y0030172D02*
X0274207Y0030172D01*
X0274456Y0029573D02*
X0228144Y0029573D01*
X0227798Y0028975D02*
X0274802Y0028975D01*
X0275147Y0028376D02*
X0227453Y0028376D01*
X0227107Y0027778D02*
X0275493Y0027778D01*
X0275988Y0027179D02*
X0226612Y0027179D01*
X0226013Y0026581D02*
X0276587Y0026581D01*
X0277185Y0025982D02*
X0225415Y0025982D01*
X0224633Y0025384D02*
X0277967Y0025384D01*
X0279003Y0024785D02*
X0223597Y0024785D01*
X0222353Y0024187D02*
X0280247Y0024187D01*
X0282203Y0043937D02*
X0220397Y0043937D01*
X0217203Y0043937D02*
X0150397Y0043937D01*
X0152631Y0043339D02*
X0214969Y0043339D01*
X0213874Y0042740D02*
X0153726Y0042740D01*
X0154762Y0042142D02*
X0212838Y0042142D01*
X0212111Y0041543D02*
X0155489Y0041543D01*
X0156088Y0040945D02*
X0211512Y0040945D01*
X0210914Y0040346D02*
X0156686Y0040346D01*
X0157150Y0039748D02*
X0210450Y0039748D01*
X0210104Y0039149D02*
X0157496Y0039149D01*
X0157841Y0038551D02*
X0209759Y0038551D01*
X0209413Y0037952D02*
X0158187Y0037952D01*
X0158413Y0037354D02*
X0209187Y0037354D01*
X0209026Y0036755D02*
X0158574Y0036755D01*
X0158734Y0036157D02*
X0208866Y0036157D01*
X0208706Y0035558D02*
X0158894Y0035558D01*
X0159005Y0034960D02*
X0208594Y0034960D01*
X0208594Y0034361D02*
X0159005Y0034361D01*
X0159005Y0033763D02*
X0208594Y0033763D01*
X0208594Y0033164D02*
X0159005Y0033164D01*
X0159005Y0032566D02*
X0208594Y0032566D01*
X0208726Y0031967D02*
X0158874Y0031967D01*
X0158714Y0031369D02*
X0208886Y0031369D01*
X0209046Y0030770D02*
X0158554Y0030770D01*
X0158393Y0030172D02*
X0209207Y0030172D01*
X0209456Y0029573D02*
X0158144Y0029573D01*
X0157798Y0028975D02*
X0209802Y0028975D01*
X0210147Y0028376D02*
X0157453Y0028376D01*
X0157107Y0027778D02*
X0210493Y0027778D01*
X0210988Y0027179D02*
X0156612Y0027179D01*
X0156013Y0026581D02*
X0211587Y0026581D01*
X0212185Y0025982D02*
X0155415Y0025982D01*
X0154633Y0025384D02*
X0212967Y0025384D01*
X0214003Y0024785D02*
X0153597Y0024785D01*
X0152353Y0024187D02*
X0215247Y0024187D01*
X0216847Y0048127D02*
X0211460Y0048127D01*
X0211663Y0048726D02*
X0216485Y0048726D01*
X0216437Y0049324D02*
X0211663Y0049324D01*
X0211663Y0049923D02*
X0216437Y0049923D01*
X0216437Y0050521D02*
X0211663Y0050521D01*
X0211663Y0051120D02*
X0216437Y0051120D01*
X0216437Y0051718D02*
X0211663Y0051718D01*
X0211663Y0052317D02*
X0216437Y0052317D01*
X0216437Y0052915D02*
X0211663Y0052915D01*
X0198614Y0058302D02*
X0196511Y0058302D01*
X0197200Y0078651D02*
X0198614Y0078651D01*
X0198614Y0079250D02*
X0197200Y0079250D01*
X0197200Y0079848D02*
X0199192Y0079848D01*
X0188648Y0081644D02*
X0183450Y0081644D01*
X0183450Y0082242D02*
X0188049Y0082242D01*
X0187451Y0082841D02*
X0183450Y0082841D01*
X0183450Y0083439D02*
X0186852Y0083439D01*
X0186254Y0084038D02*
X0183450Y0084038D01*
X0183450Y0084636D02*
X0185655Y0084636D01*
X0185057Y0085235D02*
X0183450Y0085235D01*
X0183450Y0085833D02*
X0184458Y0085833D01*
X0183860Y0086432D02*
X0183450Y0086432D01*
X0170400Y0086432D02*
X0155865Y0086432D01*
X0156463Y0087030D02*
X0170400Y0087030D01*
X0170400Y0087629D02*
X0157021Y0087629D01*
X0157367Y0088227D02*
X0170400Y0088227D01*
X0170400Y0088826D02*
X0157712Y0088826D01*
X0158058Y0089424D02*
X0170400Y0089424D01*
X0170400Y0090023D02*
X0158353Y0090023D01*
X0158514Y0090621D02*
X0170400Y0090621D01*
X0170400Y0091220D02*
X0158674Y0091220D01*
X0158835Y0091818D02*
X0170400Y0091818D01*
X0170400Y0092417D02*
X0158995Y0092417D01*
X0159005Y0093015D02*
X0170400Y0093015D01*
X0170400Y0093614D02*
X0159005Y0093614D01*
X0159005Y0094212D02*
X0170400Y0094212D01*
X0170539Y0094811D02*
X0159005Y0094811D01*
X0158934Y0095409D02*
X0170787Y0095409D01*
X0171200Y0096008D02*
X0158774Y0096008D01*
X0158614Y0096606D02*
X0171798Y0096606D01*
X0172397Y0097205D02*
X0158453Y0097205D01*
X0158273Y0097803D02*
X0172995Y0097803D01*
X0173594Y0098402D02*
X0157927Y0098402D01*
X0157582Y0099001D02*
X0174192Y0099001D01*
X0174791Y0099599D02*
X0157236Y0099599D01*
X0156835Y0100198D02*
X0175389Y0100198D01*
X0175988Y0100796D02*
X0156237Y0100796D01*
X0155638Y0101395D02*
X0176586Y0101395D01*
X0177185Y0101993D02*
X0155020Y0101993D01*
X0153984Y0102592D02*
X0177783Y0102592D01*
X0178746Y0103190D02*
X0152947Y0103190D01*
X0155266Y0085833D02*
X0170400Y0085833D01*
X0170400Y0085235D02*
X0154376Y0085235D01*
X0153339Y0084636D02*
X0170400Y0084636D01*
X0170400Y0084038D02*
X0151798Y0084038D01*
X0150945Y0079250D02*
X0155937Y0079250D01*
X0155937Y0078651D02*
X0151163Y0078651D01*
X0151163Y0078053D02*
X0155937Y0078053D01*
X0155937Y0077454D02*
X0151163Y0077454D01*
X0151163Y0076856D02*
X0155937Y0076856D01*
X0155937Y0076257D02*
X0151163Y0076257D01*
X0151163Y0075659D02*
X0155937Y0075659D01*
X0155937Y0075060D02*
X0151163Y0075060D01*
X0151163Y0074462D02*
X0155937Y0074462D01*
X0156515Y0079848D02*
X0138100Y0079848D01*
X0138100Y0079250D02*
X0139332Y0079250D01*
X0139114Y0078651D02*
X0138100Y0078651D01*
X0138100Y0078053D02*
X0139114Y0078053D01*
X0139114Y0077454D02*
X0138100Y0077454D01*
X0138100Y0076856D02*
X0139114Y0076856D01*
X0139114Y0076257D02*
X0138100Y0076257D01*
X0138100Y0075659D02*
X0139114Y0075659D01*
X0139114Y0075060D02*
X0138100Y0075060D01*
X0138100Y0074462D02*
X0139114Y0074462D01*
X0138100Y0080447D02*
X0170400Y0080447D01*
X0170400Y0081045D02*
X0138100Y0081045D01*
X0138100Y0081644D02*
X0170400Y0081644D01*
X0170400Y0082242D02*
X0138100Y0082242D01*
X0138100Y0082841D02*
X0170400Y0082841D01*
X0170400Y0083439D02*
X0138100Y0083439D01*
X0168408Y0079848D02*
X0170400Y0079848D01*
X0170400Y0079250D02*
X0168986Y0079250D01*
X0168986Y0078651D02*
X0170400Y0078651D01*
X0079653Y0103190D02*
X0074271Y0103190D01*
X0073673Y0102592D02*
X0078616Y0102592D01*
X0256186Y0175610D02*
X0271414Y0175610D01*
X0270503Y0176208D02*
X0257097Y0176208D01*
X0257695Y0176807D02*
X0269905Y0176807D01*
X0269438Y0177405D02*
X0258162Y0177405D01*
X0257896Y0182792D02*
X0269704Y0182792D01*
X0270302Y0183391D02*
X0257298Y0183391D01*
X0256671Y0183989D02*
X0270929Y0183989D01*
X0272374Y0184588D02*
X0255226Y0184588D01*
X0206022Y0252219D02*
X0197167Y0252219D01*
X0197234Y0252818D02*
X0205760Y0252818D01*
X0205748Y0253416D02*
X0197234Y0253416D01*
X0197234Y0254015D02*
X0205748Y0254015D01*
X0205748Y0254613D02*
X0197234Y0254613D01*
D24*
X0251000Y0209900D02*
X0251300Y0209900D01*
M02*
