%
M48
M72
T01C0.01378
T02C0.03600
T03C0.03937
T04C0.04000
T05C0.11811
T06C0.12795
%
T01
X133800Y63800
X133800Y73800
X180050Y80050
X186300Y88800
X212550Y107550
X212550Y150811
X221300Y161300
X222550Y168800
X222550Y180050
X206300Y180050
X206300Y168800
X188800Y180050
X181300Y180050
X173800Y180050
X166300Y180050
X158800Y180050
X150050Y180050
X202550Y191300
X210050Y200050
X220050Y201300
X220050Y210050
X223800Y215050
X228800Y218800
X217550Y241300
X182550Y241300
X162550Y232550
X162550Y227550
X147550Y241300
X146300Y253800
X112550Y241300
X112550Y231300
X236300Y191300
X261300Y188800
X263800Y233800
X253800Y241300
X230050Y63800
T02
X230591Y131910
X220591Y131910
X220591Y141910
X230591Y141910
X240591Y141910
X240591Y131910
X250591Y131910
X260591Y131910
X260591Y141910
X250591Y141910
T03
X193800Y73800
X173800Y73800
X173800Y53800
X193800Y53800
X148800Y191300
X148800Y201300
X148800Y211300
X148800Y221300
T04
X91300Y216300
X91300Y206300
X251000Y209900
X251000Y197700
X251000Y179900
X276600Y179900
X276600Y197700
X276600Y209900
X276600Y227700
X251000Y227700
T05
X83800Y33800
X148800Y33800
X218800Y33800
X283800Y33800
X283800Y93800
X218800Y93800
X148800Y93800
X83800Y93800
T06
X182973Y277206
M30
