G75*
%MOIN*%
%OFA0B0*%
%FSLAX25Y25*%
%IPPOS*%
%LPD*%
%AMOC8*
5,1,8,0,0,1.08239X$1,22.5*
%
%ADD10C,0.13595*%
%ADD11OC8,0.06800*%
%ADD12R,0.05131X0.04737*%
%ADD13R,0.03556X0.04343*%
%ADD14R,0.10249X0.10249*%
%ADD15OC8,0.07400*%
%ADD16C,0.06800*%
%ADD17C,0.12611*%
%ADD18OC8,0.06400*%
%ADD19C,0.03778*%
D10*
X0182973Y0277206D03*
D11*
X0091300Y0216300D03*
X0091300Y0206300D03*
D12*
X0088269Y0247481D03*
X0088269Y0255001D03*
X0104213Y0255001D03*
X0104213Y0247481D03*
X0123269Y0247481D03*
X0123269Y0255001D03*
X0139213Y0255001D03*
X0139213Y0247481D03*
X0158269Y0247481D03*
X0158269Y0255001D03*
X0174213Y0255001D03*
X0174213Y0247481D03*
X0193269Y0247481D03*
X0193269Y0255001D03*
X0209213Y0255001D03*
X0209213Y0247481D03*
X0228269Y0247481D03*
X0228269Y0255001D03*
X0244213Y0255001D03*
X0244213Y0247481D03*
X0263269Y0247481D03*
X0263269Y0255001D03*
X0279213Y0255001D03*
X0279213Y0247481D03*
D13*
X0278859Y0241300D03*
X0273741Y0241300D03*
X0266359Y0241300D03*
X0261241Y0241300D03*
X0243859Y0241300D03*
X0238741Y0241300D03*
X0231359Y0241300D03*
X0226241Y0241300D03*
X0208859Y0241300D03*
X0203741Y0241300D03*
X0196359Y0241300D03*
X0191241Y0241300D03*
X0173859Y0241300D03*
X0168741Y0241300D03*
X0161359Y0241300D03*
X0156241Y0241300D03*
X0138859Y0241300D03*
X0133741Y0241300D03*
X0126359Y0241300D03*
X0121241Y0241300D03*
X0103859Y0241300D03*
X0098741Y0241300D03*
X0091359Y0241300D03*
X0086241Y0241300D03*
D14*
X0145139Y0073800D03*
X0162461Y0073800D03*
X0162461Y0053800D03*
X0145139Y0053800D03*
X0205139Y0053800D03*
X0222461Y0053800D03*
X0222461Y0073800D03*
X0205139Y0073800D03*
D15*
X0193800Y0073800D03*
X0173800Y0073800D03*
X0173800Y0053800D03*
X0193800Y0053800D03*
X0148800Y0191300D03*
X0148800Y0201300D03*
X0148800Y0211300D03*
X0148800Y0221300D03*
D16*
X0248000Y0227700D02*
X0254000Y0227700D01*
X0254000Y0209900D02*
X0248000Y0209900D01*
X0248000Y0197700D02*
X0254000Y0197700D01*
X0254000Y0179900D02*
X0248000Y0179900D01*
X0273600Y0179900D02*
X0279600Y0179900D01*
X0279600Y0197700D02*
X0273600Y0197700D01*
X0273600Y0209900D02*
X0279600Y0209900D01*
X0279600Y0227700D02*
X0273600Y0227700D01*
D17*
X0083800Y0033800D03*
X0148800Y0033800D03*
X0218800Y0033800D03*
X0283800Y0033800D03*
X0283800Y0093800D03*
X0218800Y0093800D03*
X0148800Y0093800D03*
X0083800Y0093800D03*
D18*
X0220591Y0131910D03*
X0230591Y0131910D03*
X0230591Y0141910D03*
X0220591Y0141910D03*
X0240591Y0141910D03*
X0240591Y0131910D03*
X0250591Y0131910D03*
X0260591Y0131910D03*
X0260591Y0141910D03*
X0250591Y0141910D03*
D19*
X0221300Y0161300D03*
X0222550Y0168800D03*
X0222550Y0180050D03*
X0206300Y0180050D03*
X0206300Y0168800D03*
X0188800Y0180050D03*
X0181300Y0180050D03*
X0173800Y0180050D03*
X0166300Y0180050D03*
X0158800Y0180050D03*
X0150050Y0180050D03*
X0202550Y0191300D03*
X0210050Y0200050D03*
X0220050Y0201300D03*
X0220050Y0210050D03*
X0223800Y0215050D03*
X0228800Y0218800D03*
X0217550Y0241300D03*
X0182550Y0241300D03*
X0162550Y0232550D03*
X0162550Y0227550D03*
X0147550Y0241300D03*
X0146300Y0253800D03*
X0112550Y0241300D03*
X0112550Y0231300D03*
X0212550Y0150811D03*
X0261300Y0188800D03*
X0236300Y0191300D03*
X0263800Y0233800D03*
X0253800Y0241300D03*
X0212550Y0107550D03*
X0186300Y0088800D03*
X0180050Y0080050D03*
X0133800Y0073800D03*
X0133800Y0063800D03*
X0230050Y0063800D03*
M02*
