G75*
%MOIN*%
%OFA0B0*%
%FSLAX25Y25*%
%IPPOS*%
%LPD*%
%AMOC8*
5,1,8,0,0,1.08239X$1,22.5*
%
%ADD10C,0.00600*%
%ADD11C,0.00500*%
%ADD12C,0.00300*%
%ADD13C,0.00800*%
%ADD14C,0.00400*%
%ADD15C,0.00200*%
%ADD16R,0.00787X0.00787*%
%ADD17R,0.00591X0.00984*%
%ADD18C,0.00700*%
D10*
X0210800Y0183900D02*
X0210800Y0187900D01*
X0210800Y0183900D01*
X0210800Y0187900D01*
X0205500Y0194800D02*
X0204800Y0194800D01*
X0204800Y0195500D01*
X0206300Y0219200D02*
X0208400Y0221300D01*
X0205500Y0222800D02*
X0204800Y0222800D01*
X0204800Y0222100D01*
X0214100Y0229700D02*
X0214100Y0233700D01*
X0232100Y0222800D02*
X0232800Y0222800D01*
X0232800Y0222100D01*
X0239800Y0207300D02*
X0243800Y0207300D01*
X0239800Y0207300D01*
X0243800Y0207300D01*
X0239800Y0207300D01*
X0250800Y0215800D02*
X0251800Y0215800D01*
X0251800Y0214800D01*
X0250800Y0215800D02*
X0250800Y0221800D01*
X0251800Y0221800D01*
X0251800Y0222800D01*
X0255300Y0230800D02*
X0259300Y0230800D01*
X0268800Y0230800D01*
X0272300Y0230800D01*
X0275800Y0222800D02*
X0275800Y0221800D01*
X0276800Y0221800D01*
X0276800Y0215800D01*
X0275800Y0215800D01*
X0275800Y0214800D01*
X0272300Y0206800D02*
X0268800Y0206800D01*
X0258800Y0206800D01*
X0255300Y0206800D01*
X0255300Y0200800D02*
X0259300Y0200800D01*
X0268800Y0200800D01*
X0272300Y0200800D01*
X0275800Y0192800D02*
X0275800Y0191800D01*
X0276800Y0191800D01*
X0276800Y0185800D01*
X0275800Y0185800D01*
X0275800Y0184800D01*
X0272300Y0176800D02*
X0268800Y0176800D01*
X0258800Y0176800D01*
X0255300Y0176800D01*
X0251800Y0184800D02*
X0251800Y0185800D01*
X0250800Y0185800D01*
X0250800Y0191800D01*
X0251800Y0191800D01*
X0251800Y0192800D01*
X0262800Y0188800D02*
X0262802Y0188863D01*
X0262808Y0188925D01*
X0262818Y0188987D01*
X0262831Y0189049D01*
X0262849Y0189109D01*
X0262870Y0189168D01*
X0262895Y0189226D01*
X0262924Y0189282D01*
X0262956Y0189336D01*
X0262991Y0189388D01*
X0263029Y0189437D01*
X0263071Y0189485D01*
X0263115Y0189529D01*
X0263163Y0189571D01*
X0263212Y0189609D01*
X0263264Y0189644D01*
X0263318Y0189676D01*
X0263374Y0189705D01*
X0263432Y0189730D01*
X0263491Y0189751D01*
X0263551Y0189769D01*
X0263613Y0189782D01*
X0263675Y0189792D01*
X0263737Y0189798D01*
X0263800Y0189800D01*
X0263863Y0189798D01*
X0263925Y0189792D01*
X0263987Y0189782D01*
X0264049Y0189769D01*
X0264109Y0189751D01*
X0264168Y0189730D01*
X0264226Y0189705D01*
X0264282Y0189676D01*
X0264336Y0189644D01*
X0264388Y0189609D01*
X0264437Y0189571D01*
X0264485Y0189529D01*
X0264529Y0189485D01*
X0264571Y0189437D01*
X0264609Y0189388D01*
X0264644Y0189336D01*
X0264676Y0189282D01*
X0264705Y0189226D01*
X0264730Y0189168D01*
X0264751Y0189109D01*
X0264769Y0189049D01*
X0264782Y0188987D01*
X0264792Y0188925D01*
X0264798Y0188863D01*
X0264800Y0188800D01*
X0264798Y0188737D01*
X0264792Y0188675D01*
X0264782Y0188613D01*
X0264769Y0188551D01*
X0264751Y0188491D01*
X0264730Y0188432D01*
X0264705Y0188374D01*
X0264676Y0188318D01*
X0264644Y0188264D01*
X0264609Y0188212D01*
X0264571Y0188163D01*
X0264529Y0188115D01*
X0264485Y0188071D01*
X0264437Y0188029D01*
X0264388Y0187991D01*
X0264336Y0187956D01*
X0264282Y0187924D01*
X0264226Y0187895D01*
X0264168Y0187870D01*
X0264109Y0187849D01*
X0264049Y0187831D01*
X0263987Y0187818D01*
X0263925Y0187808D01*
X0263863Y0187802D01*
X0263800Y0187800D01*
X0263737Y0187802D01*
X0263675Y0187808D01*
X0263613Y0187818D01*
X0263551Y0187831D01*
X0263491Y0187849D01*
X0263432Y0187870D01*
X0263374Y0187895D01*
X0263318Y0187924D01*
X0263264Y0187956D01*
X0263212Y0187991D01*
X0263163Y0188029D01*
X0263115Y0188071D01*
X0263071Y0188115D01*
X0263029Y0188163D01*
X0262991Y0188212D01*
X0262956Y0188264D01*
X0262924Y0188318D01*
X0262895Y0188374D01*
X0262870Y0188432D01*
X0262849Y0188491D01*
X0262831Y0188551D01*
X0262818Y0188613D01*
X0262808Y0188675D01*
X0262802Y0188737D01*
X0262800Y0188800D01*
X0256800Y0188800D02*
X0256802Y0188972D01*
X0256808Y0189143D01*
X0256819Y0189315D01*
X0256834Y0189486D01*
X0256853Y0189657D01*
X0256876Y0189827D01*
X0256903Y0189997D01*
X0256935Y0190166D01*
X0256970Y0190334D01*
X0257010Y0190501D01*
X0257054Y0190667D01*
X0257101Y0190832D01*
X0257153Y0190996D01*
X0257209Y0191158D01*
X0257269Y0191319D01*
X0257333Y0191479D01*
X0257401Y0191637D01*
X0257472Y0191793D01*
X0257547Y0191947D01*
X0257627Y0192100D01*
X0257709Y0192250D01*
X0257796Y0192399D01*
X0257886Y0192545D01*
X0257980Y0192689D01*
X0258077Y0192831D01*
X0258178Y0192970D01*
X0258282Y0193107D01*
X0258389Y0193241D01*
X0258500Y0193372D01*
X0258613Y0193501D01*
X0258730Y0193627D01*
X0258850Y0193750D01*
X0258973Y0193870D01*
X0259099Y0193987D01*
X0259228Y0194100D01*
X0259359Y0194211D01*
X0259493Y0194318D01*
X0259630Y0194422D01*
X0259769Y0194523D01*
X0259911Y0194620D01*
X0260055Y0194714D01*
X0260201Y0194804D01*
X0260350Y0194891D01*
X0260500Y0194973D01*
X0260653Y0195053D01*
X0260807Y0195128D01*
X0260963Y0195199D01*
X0261121Y0195267D01*
X0261281Y0195331D01*
X0261442Y0195391D01*
X0261604Y0195447D01*
X0261768Y0195499D01*
X0261933Y0195546D01*
X0262099Y0195590D01*
X0262266Y0195630D01*
X0262434Y0195665D01*
X0262603Y0195697D01*
X0262773Y0195724D01*
X0262943Y0195747D01*
X0263114Y0195766D01*
X0263285Y0195781D01*
X0263457Y0195792D01*
X0263628Y0195798D01*
X0263800Y0195800D01*
X0263972Y0195798D01*
X0264143Y0195792D01*
X0264315Y0195781D01*
X0264486Y0195766D01*
X0264657Y0195747D01*
X0264827Y0195724D01*
X0264997Y0195697D01*
X0265166Y0195665D01*
X0265334Y0195630D01*
X0265501Y0195590D01*
X0265667Y0195546D01*
X0265832Y0195499D01*
X0265996Y0195447D01*
X0266158Y0195391D01*
X0266319Y0195331D01*
X0266479Y0195267D01*
X0266637Y0195199D01*
X0266793Y0195128D01*
X0266947Y0195053D01*
X0267100Y0194973D01*
X0267250Y0194891D01*
X0267399Y0194804D01*
X0267545Y0194714D01*
X0267689Y0194620D01*
X0267831Y0194523D01*
X0267970Y0194422D01*
X0268107Y0194318D01*
X0268241Y0194211D01*
X0268372Y0194100D01*
X0268501Y0193987D01*
X0268627Y0193870D01*
X0268750Y0193750D01*
X0268870Y0193627D01*
X0268987Y0193501D01*
X0269100Y0193372D01*
X0269211Y0193241D01*
X0269318Y0193107D01*
X0269422Y0192970D01*
X0269523Y0192831D01*
X0269620Y0192689D01*
X0269714Y0192545D01*
X0269804Y0192399D01*
X0269891Y0192250D01*
X0269973Y0192100D01*
X0270053Y0191947D01*
X0270128Y0191793D01*
X0270199Y0191637D01*
X0270267Y0191479D01*
X0270331Y0191319D01*
X0270391Y0191158D01*
X0270447Y0190996D01*
X0270499Y0190832D01*
X0270546Y0190667D01*
X0270590Y0190501D01*
X0270630Y0190334D01*
X0270665Y0190166D01*
X0270697Y0189997D01*
X0270724Y0189827D01*
X0270747Y0189657D01*
X0270766Y0189486D01*
X0270781Y0189315D01*
X0270792Y0189143D01*
X0270798Y0188972D01*
X0270800Y0188800D01*
X0270798Y0188628D01*
X0270792Y0188457D01*
X0270781Y0188285D01*
X0270766Y0188114D01*
X0270747Y0187943D01*
X0270724Y0187773D01*
X0270697Y0187603D01*
X0270665Y0187434D01*
X0270630Y0187266D01*
X0270590Y0187099D01*
X0270546Y0186933D01*
X0270499Y0186768D01*
X0270447Y0186604D01*
X0270391Y0186442D01*
X0270331Y0186281D01*
X0270267Y0186121D01*
X0270199Y0185963D01*
X0270128Y0185807D01*
X0270053Y0185653D01*
X0269973Y0185500D01*
X0269891Y0185350D01*
X0269804Y0185201D01*
X0269714Y0185055D01*
X0269620Y0184911D01*
X0269523Y0184769D01*
X0269422Y0184630D01*
X0269318Y0184493D01*
X0269211Y0184359D01*
X0269100Y0184228D01*
X0268987Y0184099D01*
X0268870Y0183973D01*
X0268750Y0183850D01*
X0268627Y0183730D01*
X0268501Y0183613D01*
X0268372Y0183500D01*
X0268241Y0183389D01*
X0268107Y0183282D01*
X0267970Y0183178D01*
X0267831Y0183077D01*
X0267689Y0182980D01*
X0267545Y0182886D01*
X0267399Y0182796D01*
X0267250Y0182709D01*
X0267100Y0182627D01*
X0266947Y0182547D01*
X0266793Y0182472D01*
X0266637Y0182401D01*
X0266479Y0182333D01*
X0266319Y0182269D01*
X0266158Y0182209D01*
X0265996Y0182153D01*
X0265832Y0182101D01*
X0265667Y0182054D01*
X0265501Y0182010D01*
X0265334Y0181970D01*
X0265166Y0181935D01*
X0264997Y0181903D01*
X0264827Y0181876D01*
X0264657Y0181853D01*
X0264486Y0181834D01*
X0264315Y0181819D01*
X0264143Y0181808D01*
X0263972Y0181802D01*
X0263800Y0181800D01*
X0263628Y0181802D01*
X0263457Y0181808D01*
X0263285Y0181819D01*
X0263114Y0181834D01*
X0262943Y0181853D01*
X0262773Y0181876D01*
X0262603Y0181903D01*
X0262434Y0181935D01*
X0262266Y0181970D01*
X0262099Y0182010D01*
X0261933Y0182054D01*
X0261768Y0182101D01*
X0261604Y0182153D01*
X0261442Y0182209D01*
X0261281Y0182269D01*
X0261121Y0182333D01*
X0260963Y0182401D01*
X0260807Y0182472D01*
X0260653Y0182547D01*
X0260500Y0182627D01*
X0260350Y0182709D01*
X0260201Y0182796D01*
X0260055Y0182886D01*
X0259911Y0182980D01*
X0259769Y0183077D01*
X0259630Y0183178D01*
X0259493Y0183282D01*
X0259359Y0183389D01*
X0259228Y0183500D01*
X0259099Y0183613D01*
X0258973Y0183730D01*
X0258850Y0183850D01*
X0258730Y0183973D01*
X0258613Y0184099D01*
X0258500Y0184228D01*
X0258389Y0184359D01*
X0258282Y0184493D01*
X0258178Y0184630D01*
X0258077Y0184769D01*
X0257980Y0184911D01*
X0257886Y0185055D01*
X0257796Y0185201D01*
X0257709Y0185350D01*
X0257627Y0185500D01*
X0257547Y0185653D01*
X0257472Y0185807D01*
X0257401Y0185963D01*
X0257333Y0186121D01*
X0257269Y0186281D01*
X0257209Y0186442D01*
X0257153Y0186604D01*
X0257101Y0186768D01*
X0257054Y0186933D01*
X0257010Y0187099D01*
X0256970Y0187266D01*
X0256935Y0187434D01*
X0256903Y0187603D01*
X0256876Y0187773D01*
X0256853Y0187943D01*
X0256834Y0188114D01*
X0256819Y0188285D01*
X0256808Y0188457D01*
X0256802Y0188628D01*
X0256800Y0188800D01*
X0232800Y0194800D02*
X0232100Y0194800D01*
X0232800Y0194800D02*
X0232800Y0195500D01*
X0262800Y0218800D02*
X0262802Y0218863D01*
X0262808Y0218925D01*
X0262818Y0218987D01*
X0262831Y0219049D01*
X0262849Y0219109D01*
X0262870Y0219168D01*
X0262895Y0219226D01*
X0262924Y0219282D01*
X0262956Y0219336D01*
X0262991Y0219388D01*
X0263029Y0219437D01*
X0263071Y0219485D01*
X0263115Y0219529D01*
X0263163Y0219571D01*
X0263212Y0219609D01*
X0263264Y0219644D01*
X0263318Y0219676D01*
X0263374Y0219705D01*
X0263432Y0219730D01*
X0263491Y0219751D01*
X0263551Y0219769D01*
X0263613Y0219782D01*
X0263675Y0219792D01*
X0263737Y0219798D01*
X0263800Y0219800D01*
X0263863Y0219798D01*
X0263925Y0219792D01*
X0263987Y0219782D01*
X0264049Y0219769D01*
X0264109Y0219751D01*
X0264168Y0219730D01*
X0264226Y0219705D01*
X0264282Y0219676D01*
X0264336Y0219644D01*
X0264388Y0219609D01*
X0264437Y0219571D01*
X0264485Y0219529D01*
X0264529Y0219485D01*
X0264571Y0219437D01*
X0264609Y0219388D01*
X0264644Y0219336D01*
X0264676Y0219282D01*
X0264705Y0219226D01*
X0264730Y0219168D01*
X0264751Y0219109D01*
X0264769Y0219049D01*
X0264782Y0218987D01*
X0264792Y0218925D01*
X0264798Y0218863D01*
X0264800Y0218800D01*
X0264798Y0218737D01*
X0264792Y0218675D01*
X0264782Y0218613D01*
X0264769Y0218551D01*
X0264751Y0218491D01*
X0264730Y0218432D01*
X0264705Y0218374D01*
X0264676Y0218318D01*
X0264644Y0218264D01*
X0264609Y0218212D01*
X0264571Y0218163D01*
X0264529Y0218115D01*
X0264485Y0218071D01*
X0264437Y0218029D01*
X0264388Y0217991D01*
X0264336Y0217956D01*
X0264282Y0217924D01*
X0264226Y0217895D01*
X0264168Y0217870D01*
X0264109Y0217849D01*
X0264049Y0217831D01*
X0263987Y0217818D01*
X0263925Y0217808D01*
X0263863Y0217802D01*
X0263800Y0217800D01*
X0263737Y0217802D01*
X0263675Y0217808D01*
X0263613Y0217818D01*
X0263551Y0217831D01*
X0263491Y0217849D01*
X0263432Y0217870D01*
X0263374Y0217895D01*
X0263318Y0217924D01*
X0263264Y0217956D01*
X0263212Y0217991D01*
X0263163Y0218029D01*
X0263115Y0218071D01*
X0263071Y0218115D01*
X0263029Y0218163D01*
X0262991Y0218212D01*
X0262956Y0218264D01*
X0262924Y0218318D01*
X0262895Y0218374D01*
X0262870Y0218432D01*
X0262849Y0218491D01*
X0262831Y0218551D01*
X0262818Y0218613D01*
X0262808Y0218675D01*
X0262802Y0218737D01*
X0262800Y0218800D01*
X0256800Y0218800D02*
X0256802Y0218972D01*
X0256808Y0219143D01*
X0256819Y0219315D01*
X0256834Y0219486D01*
X0256853Y0219657D01*
X0256876Y0219827D01*
X0256903Y0219997D01*
X0256935Y0220166D01*
X0256970Y0220334D01*
X0257010Y0220501D01*
X0257054Y0220667D01*
X0257101Y0220832D01*
X0257153Y0220996D01*
X0257209Y0221158D01*
X0257269Y0221319D01*
X0257333Y0221479D01*
X0257401Y0221637D01*
X0257472Y0221793D01*
X0257547Y0221947D01*
X0257627Y0222100D01*
X0257709Y0222250D01*
X0257796Y0222399D01*
X0257886Y0222545D01*
X0257980Y0222689D01*
X0258077Y0222831D01*
X0258178Y0222970D01*
X0258282Y0223107D01*
X0258389Y0223241D01*
X0258500Y0223372D01*
X0258613Y0223501D01*
X0258730Y0223627D01*
X0258850Y0223750D01*
X0258973Y0223870D01*
X0259099Y0223987D01*
X0259228Y0224100D01*
X0259359Y0224211D01*
X0259493Y0224318D01*
X0259630Y0224422D01*
X0259769Y0224523D01*
X0259911Y0224620D01*
X0260055Y0224714D01*
X0260201Y0224804D01*
X0260350Y0224891D01*
X0260500Y0224973D01*
X0260653Y0225053D01*
X0260807Y0225128D01*
X0260963Y0225199D01*
X0261121Y0225267D01*
X0261281Y0225331D01*
X0261442Y0225391D01*
X0261604Y0225447D01*
X0261768Y0225499D01*
X0261933Y0225546D01*
X0262099Y0225590D01*
X0262266Y0225630D01*
X0262434Y0225665D01*
X0262603Y0225697D01*
X0262773Y0225724D01*
X0262943Y0225747D01*
X0263114Y0225766D01*
X0263285Y0225781D01*
X0263457Y0225792D01*
X0263628Y0225798D01*
X0263800Y0225800D01*
X0263972Y0225798D01*
X0264143Y0225792D01*
X0264315Y0225781D01*
X0264486Y0225766D01*
X0264657Y0225747D01*
X0264827Y0225724D01*
X0264997Y0225697D01*
X0265166Y0225665D01*
X0265334Y0225630D01*
X0265501Y0225590D01*
X0265667Y0225546D01*
X0265832Y0225499D01*
X0265996Y0225447D01*
X0266158Y0225391D01*
X0266319Y0225331D01*
X0266479Y0225267D01*
X0266637Y0225199D01*
X0266793Y0225128D01*
X0266947Y0225053D01*
X0267100Y0224973D01*
X0267250Y0224891D01*
X0267399Y0224804D01*
X0267545Y0224714D01*
X0267689Y0224620D01*
X0267831Y0224523D01*
X0267970Y0224422D01*
X0268107Y0224318D01*
X0268241Y0224211D01*
X0268372Y0224100D01*
X0268501Y0223987D01*
X0268627Y0223870D01*
X0268750Y0223750D01*
X0268870Y0223627D01*
X0268987Y0223501D01*
X0269100Y0223372D01*
X0269211Y0223241D01*
X0269318Y0223107D01*
X0269422Y0222970D01*
X0269523Y0222831D01*
X0269620Y0222689D01*
X0269714Y0222545D01*
X0269804Y0222399D01*
X0269891Y0222250D01*
X0269973Y0222100D01*
X0270053Y0221947D01*
X0270128Y0221793D01*
X0270199Y0221637D01*
X0270267Y0221479D01*
X0270331Y0221319D01*
X0270391Y0221158D01*
X0270447Y0220996D01*
X0270499Y0220832D01*
X0270546Y0220667D01*
X0270590Y0220501D01*
X0270630Y0220334D01*
X0270665Y0220166D01*
X0270697Y0219997D01*
X0270724Y0219827D01*
X0270747Y0219657D01*
X0270766Y0219486D01*
X0270781Y0219315D01*
X0270792Y0219143D01*
X0270798Y0218972D01*
X0270800Y0218800D01*
X0270798Y0218628D01*
X0270792Y0218457D01*
X0270781Y0218285D01*
X0270766Y0218114D01*
X0270747Y0217943D01*
X0270724Y0217773D01*
X0270697Y0217603D01*
X0270665Y0217434D01*
X0270630Y0217266D01*
X0270590Y0217099D01*
X0270546Y0216933D01*
X0270499Y0216768D01*
X0270447Y0216604D01*
X0270391Y0216442D01*
X0270331Y0216281D01*
X0270267Y0216121D01*
X0270199Y0215963D01*
X0270128Y0215807D01*
X0270053Y0215653D01*
X0269973Y0215500D01*
X0269891Y0215350D01*
X0269804Y0215201D01*
X0269714Y0215055D01*
X0269620Y0214911D01*
X0269523Y0214769D01*
X0269422Y0214630D01*
X0269318Y0214493D01*
X0269211Y0214359D01*
X0269100Y0214228D01*
X0268987Y0214099D01*
X0268870Y0213973D01*
X0268750Y0213850D01*
X0268627Y0213730D01*
X0268501Y0213613D01*
X0268372Y0213500D01*
X0268241Y0213389D01*
X0268107Y0213282D01*
X0267970Y0213178D01*
X0267831Y0213077D01*
X0267689Y0212980D01*
X0267545Y0212886D01*
X0267399Y0212796D01*
X0267250Y0212709D01*
X0267100Y0212627D01*
X0266947Y0212547D01*
X0266793Y0212472D01*
X0266637Y0212401D01*
X0266479Y0212333D01*
X0266319Y0212269D01*
X0266158Y0212209D01*
X0265996Y0212153D01*
X0265832Y0212101D01*
X0265667Y0212054D01*
X0265501Y0212010D01*
X0265334Y0211970D01*
X0265166Y0211935D01*
X0264997Y0211903D01*
X0264827Y0211876D01*
X0264657Y0211853D01*
X0264486Y0211834D01*
X0264315Y0211819D01*
X0264143Y0211808D01*
X0263972Y0211802D01*
X0263800Y0211800D01*
X0263628Y0211802D01*
X0263457Y0211808D01*
X0263285Y0211819D01*
X0263114Y0211834D01*
X0262943Y0211853D01*
X0262773Y0211876D01*
X0262603Y0211903D01*
X0262434Y0211935D01*
X0262266Y0211970D01*
X0262099Y0212010D01*
X0261933Y0212054D01*
X0261768Y0212101D01*
X0261604Y0212153D01*
X0261442Y0212209D01*
X0261281Y0212269D01*
X0261121Y0212333D01*
X0260963Y0212401D01*
X0260807Y0212472D01*
X0260653Y0212547D01*
X0260500Y0212627D01*
X0260350Y0212709D01*
X0260201Y0212796D01*
X0260055Y0212886D01*
X0259911Y0212980D01*
X0259769Y0213077D01*
X0259630Y0213178D01*
X0259493Y0213282D01*
X0259359Y0213389D01*
X0259228Y0213500D01*
X0259099Y0213613D01*
X0258973Y0213730D01*
X0258850Y0213850D01*
X0258730Y0213973D01*
X0258613Y0214099D01*
X0258500Y0214228D01*
X0258389Y0214359D01*
X0258282Y0214493D01*
X0258178Y0214630D01*
X0258077Y0214769D01*
X0257980Y0214911D01*
X0257886Y0215055D01*
X0257796Y0215201D01*
X0257709Y0215350D01*
X0257627Y0215500D01*
X0257547Y0215653D01*
X0257472Y0215807D01*
X0257401Y0215963D01*
X0257333Y0216121D01*
X0257269Y0216281D01*
X0257209Y0216442D01*
X0257153Y0216604D01*
X0257101Y0216768D01*
X0257054Y0216933D01*
X0257010Y0217099D01*
X0256970Y0217266D01*
X0256935Y0217434D01*
X0256903Y0217603D01*
X0256876Y0217773D01*
X0256853Y0217943D01*
X0256834Y0218114D01*
X0256819Y0218285D01*
X0256808Y0218457D01*
X0256802Y0218628D01*
X0256800Y0218800D01*
X0096300Y0218800D02*
X0096300Y0213800D01*
X0093800Y0211300D01*
X0088800Y0211300D01*
X0086300Y0213800D01*
X0086300Y0218800D01*
X0088800Y0221300D01*
X0093800Y0221300D01*
X0096300Y0218800D01*
X0093800Y0211300D02*
X0088800Y0211300D01*
X0086300Y0208800D01*
X0086300Y0203800D01*
X0088800Y0201300D01*
X0093800Y0201300D01*
X0096300Y0203800D01*
X0096300Y0208800D01*
X0093800Y0211300D01*
D11*
X0103800Y0038800D02*
X0063800Y0038800D01*
X0063800Y0058800D01*
X0063800Y0068800D01*
X0023800Y0068800D01*
X0023800Y0058800D01*
X0063800Y0058800D01*
X0063800Y0068800D02*
X0063800Y0088800D01*
X0103800Y0088800D01*
X0103800Y0038800D01*
X0163800Y0038800D01*
X0183800Y0038800D01*
X0183800Y0088800D01*
X0163800Y0088800D01*
X0103800Y0088800D01*
X0163800Y0088800D02*
X0163800Y0038800D01*
X0183800Y0038800D02*
X0203800Y0038800D01*
X0263800Y0038800D01*
X0263800Y0088800D01*
X0203800Y0088800D01*
X0183800Y0088800D01*
X0183800Y0038800D01*
X0203800Y0038800D02*
X0203800Y0088800D01*
X0205591Y0118410D02*
X0210591Y0118410D01*
X0210591Y0119410D01*
X0238091Y0119410D01*
X0238091Y0118410D01*
X0243091Y0118410D01*
X0243091Y0119410D01*
X0270591Y0119410D01*
X0270591Y0118410D01*
X0275591Y0118410D01*
X0275591Y0119410D01*
X0280591Y0119410D01*
X0280591Y0154410D01*
X0263091Y0154410D01*
X0263091Y0153910D01*
X0258091Y0153910D01*
X0258091Y0154410D01*
X0248591Y0154410D01*
X0248591Y0150410D01*
X0248591Y0149410D01*
X0275591Y0149410D01*
X0275591Y0124410D01*
X0205591Y0124410D01*
X0205591Y0149410D01*
X0222591Y0149410D01*
X0228591Y0149410D01*
X0232591Y0149410D01*
X0232591Y0150410D01*
X0232591Y0154410D01*
X0248591Y0154410D01*
X0248591Y0149410D02*
X0248591Y0146410D01*
X0232591Y0146410D01*
X0232591Y0149410D01*
X0230591Y0152410D02*
X0228591Y0152410D01*
X0222591Y0152410D01*
X0222591Y0150410D01*
X0222591Y0149410D01*
X0222591Y0152410D02*
X0220591Y0152410D01*
X0219091Y0154410D01*
X0200591Y0154410D01*
X0200591Y0119410D01*
X0205591Y0119410D01*
X0205591Y0118410D01*
X0237341Y0148160D02*
X0239841Y0148160D01*
X0238591Y0148160D02*
X0238591Y0152660D01*
X0237341Y0151660D01*
X0244341Y0150410D02*
X0244339Y0150290D01*
X0244333Y0150170D01*
X0244323Y0150050D01*
X0244310Y0149931D01*
X0244292Y0149812D01*
X0244271Y0149694D01*
X0244246Y0149576D01*
X0244217Y0149460D01*
X0244184Y0149344D01*
X0244148Y0149230D01*
X0244108Y0149116D01*
X0244064Y0149004D01*
X0244017Y0148894D01*
X0243966Y0148785D01*
X0243945Y0148729D01*
X0243919Y0148674D01*
X0243891Y0148620D01*
X0243859Y0148569D01*
X0243824Y0148520D01*
X0243785Y0148474D01*
X0243744Y0148430D01*
X0243700Y0148388D01*
X0243653Y0148350D01*
X0243604Y0148315D01*
X0243552Y0148283D01*
X0243499Y0148255D01*
X0243444Y0148230D01*
X0243388Y0148209D01*
X0243330Y0148191D01*
X0243271Y0148178D01*
X0243211Y0148168D01*
X0243151Y0148162D01*
X0243091Y0148160D01*
X0243031Y0148162D01*
X0242971Y0148168D01*
X0242911Y0148178D01*
X0242852Y0148191D01*
X0242794Y0148209D01*
X0242738Y0148230D01*
X0242683Y0148255D01*
X0242630Y0148283D01*
X0242578Y0148315D01*
X0242529Y0148350D01*
X0242482Y0148388D01*
X0242438Y0148430D01*
X0242397Y0148474D01*
X0242358Y0148520D01*
X0242323Y0148569D01*
X0242291Y0148620D01*
X0242263Y0148674D01*
X0242237Y0148729D01*
X0242216Y0148785D01*
X0242091Y0149160D02*
X0244091Y0151660D01*
X0243966Y0152035D02*
X0243945Y0152091D01*
X0243919Y0152146D01*
X0243891Y0152200D01*
X0243859Y0152251D01*
X0243824Y0152300D01*
X0243785Y0152346D01*
X0243744Y0152390D01*
X0243700Y0152432D01*
X0243653Y0152470D01*
X0243604Y0152505D01*
X0243552Y0152537D01*
X0243499Y0152565D01*
X0243444Y0152590D01*
X0243388Y0152611D01*
X0243330Y0152629D01*
X0243271Y0152642D01*
X0243211Y0152652D01*
X0243151Y0152658D01*
X0243091Y0152660D01*
X0243031Y0152658D01*
X0242971Y0152652D01*
X0242911Y0152642D01*
X0242852Y0152629D01*
X0242794Y0152611D01*
X0242738Y0152590D01*
X0242683Y0152565D01*
X0242630Y0152537D01*
X0242578Y0152505D01*
X0242529Y0152470D01*
X0242482Y0152432D01*
X0242438Y0152390D01*
X0242397Y0152346D01*
X0242358Y0152300D01*
X0242323Y0152251D01*
X0242291Y0152200D01*
X0242263Y0152146D01*
X0242237Y0152091D01*
X0242216Y0152035D01*
X0243966Y0152035D02*
X0244017Y0151926D01*
X0244064Y0151816D01*
X0244108Y0151704D01*
X0244148Y0151590D01*
X0244184Y0151476D01*
X0244217Y0151360D01*
X0244246Y0151244D01*
X0244271Y0151126D01*
X0244292Y0151008D01*
X0244310Y0150889D01*
X0244323Y0150770D01*
X0244333Y0150650D01*
X0244339Y0150530D01*
X0244341Y0150410D01*
X0241842Y0150410D02*
X0241844Y0150290D01*
X0241850Y0150170D01*
X0241860Y0150050D01*
X0241873Y0149931D01*
X0241891Y0149812D01*
X0241912Y0149694D01*
X0241937Y0149576D01*
X0241966Y0149460D01*
X0241999Y0149344D01*
X0242035Y0149230D01*
X0242075Y0149116D01*
X0242119Y0149004D01*
X0242166Y0148894D01*
X0242217Y0148785D01*
X0241842Y0150410D02*
X0241844Y0150530D01*
X0241850Y0150650D01*
X0241860Y0150770D01*
X0241873Y0150889D01*
X0241891Y0151008D01*
X0241912Y0151126D01*
X0241937Y0151244D01*
X0241966Y0151360D01*
X0241999Y0151476D01*
X0242035Y0151590D01*
X0242075Y0151704D01*
X0242119Y0151816D01*
X0242166Y0151926D01*
X0242217Y0152035D01*
X0232591Y0154410D02*
X0232091Y0154410D01*
X0230591Y0152410D01*
X0228591Y0152410D02*
X0228591Y0150410D01*
X0228591Y0149410D01*
X0267841Y0143160D02*
X0269091Y0144160D01*
X0269091Y0139660D01*
X0267841Y0139660D02*
X0270341Y0139660D01*
X0269216Y0134160D02*
X0269281Y0134158D01*
X0269347Y0134152D01*
X0269411Y0134143D01*
X0269475Y0134130D01*
X0269539Y0134113D01*
X0269601Y0134092D01*
X0269662Y0134068D01*
X0269721Y0134040D01*
X0269779Y0134009D01*
X0269834Y0133975D01*
X0269888Y0133937D01*
X0269939Y0133897D01*
X0269988Y0133853D01*
X0270034Y0133807D01*
X0270078Y0133758D01*
X0270118Y0133707D01*
X0270156Y0133653D01*
X0270190Y0133598D01*
X0270221Y0133540D01*
X0270249Y0133481D01*
X0270273Y0133420D01*
X0270294Y0133358D01*
X0270311Y0133294D01*
X0270324Y0133230D01*
X0270333Y0133166D01*
X0270339Y0133100D01*
X0270341Y0133035D01*
X0269966Y0132160D02*
X0267841Y0129660D01*
X0270341Y0129660D01*
X0267841Y0133160D02*
X0267865Y0133229D01*
X0267893Y0133296D01*
X0267924Y0133362D01*
X0267958Y0133426D01*
X0267995Y0133488D01*
X0268036Y0133549D01*
X0268079Y0133607D01*
X0268125Y0133663D01*
X0268175Y0133717D01*
X0268226Y0133768D01*
X0268280Y0133816D01*
X0268337Y0133862D01*
X0268396Y0133905D01*
X0268457Y0133944D01*
X0268519Y0133981D01*
X0268584Y0134014D01*
X0268650Y0134045D01*
X0268718Y0134071D01*
X0268786Y0134095D01*
X0268856Y0134115D01*
X0268927Y0134131D01*
X0268999Y0134144D01*
X0269071Y0134153D01*
X0269143Y0134158D01*
X0269216Y0134160D01*
X0270341Y0133035D02*
X0270339Y0132970D01*
X0270334Y0132905D01*
X0270325Y0132840D01*
X0270313Y0132776D01*
X0270297Y0132713D01*
X0270278Y0132651D01*
X0270256Y0132589D01*
X0270230Y0132529D01*
X0270201Y0132471D01*
X0270169Y0132414D01*
X0270134Y0132359D01*
X0270096Y0132306D01*
X0270056Y0132255D01*
X0270012Y0132206D01*
X0269966Y0132160D01*
X0273050Y0169550D02*
X0275550Y0169550D01*
X0273050Y0169550D02*
X0275175Y0172050D01*
X0274425Y0174050D02*
X0274352Y0174048D01*
X0274280Y0174043D01*
X0274208Y0174034D01*
X0274136Y0174021D01*
X0274065Y0174005D01*
X0273995Y0173985D01*
X0273927Y0173961D01*
X0273859Y0173935D01*
X0273793Y0173904D01*
X0273728Y0173871D01*
X0273666Y0173834D01*
X0273605Y0173795D01*
X0273546Y0173752D01*
X0273489Y0173706D01*
X0273435Y0173658D01*
X0273384Y0173607D01*
X0273334Y0173553D01*
X0273288Y0173497D01*
X0273245Y0173439D01*
X0273204Y0173378D01*
X0273167Y0173316D01*
X0273133Y0173252D01*
X0273102Y0173186D01*
X0273074Y0173119D01*
X0273050Y0173050D01*
X0275175Y0172050D02*
X0275221Y0172096D01*
X0275265Y0172145D01*
X0275305Y0172196D01*
X0275343Y0172249D01*
X0275378Y0172304D01*
X0275410Y0172361D01*
X0275439Y0172419D01*
X0275465Y0172479D01*
X0275487Y0172541D01*
X0275506Y0172603D01*
X0275522Y0172666D01*
X0275534Y0172730D01*
X0275543Y0172795D01*
X0275548Y0172860D01*
X0275550Y0172925D01*
X0275548Y0172990D01*
X0275542Y0173056D01*
X0275533Y0173120D01*
X0275520Y0173184D01*
X0275503Y0173248D01*
X0275482Y0173310D01*
X0275458Y0173371D01*
X0275430Y0173430D01*
X0275399Y0173488D01*
X0275365Y0173543D01*
X0275327Y0173597D01*
X0275287Y0173648D01*
X0275243Y0173697D01*
X0275197Y0173743D01*
X0275148Y0173787D01*
X0275097Y0173827D01*
X0275043Y0173865D01*
X0274988Y0173899D01*
X0274930Y0173930D01*
X0274871Y0173958D01*
X0274810Y0173982D01*
X0274748Y0174003D01*
X0274684Y0174020D01*
X0274620Y0174033D01*
X0274556Y0174042D01*
X0274490Y0174048D01*
X0274425Y0174050D01*
X0270700Y0171425D02*
X0269325Y0172175D01*
X0269825Y0174050D02*
X0269905Y0174048D01*
X0269986Y0174043D01*
X0270066Y0174034D01*
X0270145Y0174022D01*
X0270224Y0174007D01*
X0270302Y0173988D01*
X0270380Y0173966D01*
X0270456Y0173941D01*
X0270531Y0173912D01*
X0270605Y0173880D01*
X0270677Y0173845D01*
X0270748Y0173807D01*
X0270817Y0173766D01*
X0270885Y0173722D01*
X0270950Y0173675D01*
X0269325Y0172175D02*
X0269273Y0172208D01*
X0269222Y0172244D01*
X0269174Y0172283D01*
X0269129Y0172325D01*
X0269086Y0172370D01*
X0269046Y0172418D01*
X0269009Y0172467D01*
X0268975Y0172519D01*
X0268944Y0172573D01*
X0268916Y0172629D01*
X0268892Y0172686D01*
X0268872Y0172745D01*
X0268855Y0172804D01*
X0268842Y0172865D01*
X0268833Y0172926D01*
X0268827Y0172988D01*
X0268825Y0173050D01*
X0268827Y0173110D01*
X0268832Y0173171D01*
X0268841Y0173230D01*
X0268854Y0173289D01*
X0268870Y0173348D01*
X0268890Y0173405D01*
X0268913Y0173460D01*
X0268940Y0173515D01*
X0268969Y0173567D01*
X0269002Y0173618D01*
X0269038Y0173667D01*
X0269076Y0173713D01*
X0269118Y0173757D01*
X0269162Y0173799D01*
X0269208Y0173837D01*
X0269257Y0173873D01*
X0269308Y0173906D01*
X0269360Y0173935D01*
X0269415Y0173962D01*
X0269470Y0173985D01*
X0269527Y0174005D01*
X0269586Y0174021D01*
X0269645Y0174034D01*
X0269704Y0174043D01*
X0269765Y0174048D01*
X0269825Y0174050D01*
X0268700Y0170175D02*
X0268763Y0170114D01*
X0268828Y0170056D01*
X0268896Y0170000D01*
X0268967Y0169947D01*
X0269039Y0169898D01*
X0269113Y0169851D01*
X0269189Y0169807D01*
X0269267Y0169767D01*
X0269347Y0169730D01*
X0269428Y0169696D01*
X0269510Y0169666D01*
X0269594Y0169639D01*
X0269679Y0169615D01*
X0269764Y0169595D01*
X0269850Y0169579D01*
X0269937Y0169566D01*
X0270025Y0169557D01*
X0270112Y0169552D01*
X0270200Y0169550D01*
X0270260Y0169552D01*
X0270321Y0169557D01*
X0270380Y0169566D01*
X0270439Y0169579D01*
X0270498Y0169595D01*
X0270555Y0169615D01*
X0270610Y0169638D01*
X0270665Y0169665D01*
X0270717Y0169694D01*
X0270768Y0169727D01*
X0270817Y0169763D01*
X0270863Y0169801D01*
X0270907Y0169843D01*
X0270949Y0169887D01*
X0270987Y0169933D01*
X0271023Y0169982D01*
X0271056Y0170033D01*
X0271085Y0170085D01*
X0271112Y0170140D01*
X0271135Y0170195D01*
X0271155Y0170252D01*
X0271171Y0170311D01*
X0271184Y0170370D01*
X0271193Y0170429D01*
X0271198Y0170490D01*
X0271200Y0170550D01*
X0271198Y0170612D01*
X0271192Y0170674D01*
X0271183Y0170735D01*
X0271170Y0170796D01*
X0271153Y0170855D01*
X0271133Y0170914D01*
X0271109Y0170971D01*
X0271081Y0171027D01*
X0271050Y0171081D01*
X0271016Y0171133D01*
X0270979Y0171182D01*
X0270939Y0171230D01*
X0270896Y0171275D01*
X0270851Y0171317D01*
X0270803Y0171356D01*
X0270752Y0171392D01*
X0270700Y0171425D01*
X0273050Y0199550D02*
X0275550Y0199550D01*
X0274300Y0199550D02*
X0274300Y0204050D01*
X0273050Y0203050D01*
X0270700Y0201425D02*
X0269325Y0202175D01*
X0269825Y0204050D02*
X0269905Y0204048D01*
X0269986Y0204043D01*
X0270066Y0204034D01*
X0270145Y0204022D01*
X0270224Y0204007D01*
X0270302Y0203988D01*
X0270380Y0203966D01*
X0270456Y0203941D01*
X0270531Y0203912D01*
X0270605Y0203880D01*
X0270677Y0203845D01*
X0270748Y0203807D01*
X0270817Y0203766D01*
X0270885Y0203722D01*
X0270950Y0203675D01*
X0269325Y0202175D02*
X0269273Y0202208D01*
X0269222Y0202244D01*
X0269174Y0202283D01*
X0269129Y0202325D01*
X0269086Y0202370D01*
X0269046Y0202418D01*
X0269009Y0202467D01*
X0268975Y0202519D01*
X0268944Y0202573D01*
X0268916Y0202629D01*
X0268892Y0202686D01*
X0268872Y0202745D01*
X0268855Y0202804D01*
X0268842Y0202865D01*
X0268833Y0202926D01*
X0268827Y0202988D01*
X0268825Y0203050D01*
X0268827Y0203110D01*
X0268832Y0203171D01*
X0268841Y0203230D01*
X0268854Y0203289D01*
X0268870Y0203348D01*
X0268890Y0203405D01*
X0268913Y0203460D01*
X0268940Y0203515D01*
X0268969Y0203567D01*
X0269002Y0203618D01*
X0269038Y0203667D01*
X0269076Y0203713D01*
X0269118Y0203757D01*
X0269162Y0203799D01*
X0269208Y0203837D01*
X0269257Y0203873D01*
X0269308Y0203906D01*
X0269360Y0203935D01*
X0269415Y0203962D01*
X0269470Y0203985D01*
X0269527Y0204005D01*
X0269586Y0204021D01*
X0269645Y0204034D01*
X0269704Y0204043D01*
X0269765Y0204048D01*
X0269825Y0204050D01*
X0268700Y0200174D02*
X0268763Y0200113D01*
X0268828Y0200055D01*
X0268896Y0199999D01*
X0268967Y0199946D01*
X0269039Y0199897D01*
X0269113Y0199850D01*
X0269189Y0199806D01*
X0269267Y0199766D01*
X0269347Y0199729D01*
X0269428Y0199695D01*
X0269510Y0199665D01*
X0269594Y0199638D01*
X0269679Y0199614D01*
X0269764Y0199594D01*
X0269850Y0199578D01*
X0269937Y0199565D01*
X0270025Y0199556D01*
X0270112Y0199551D01*
X0270200Y0199549D01*
X0270200Y0199550D02*
X0270260Y0199552D01*
X0270321Y0199557D01*
X0270380Y0199566D01*
X0270439Y0199579D01*
X0270498Y0199595D01*
X0270555Y0199615D01*
X0270610Y0199638D01*
X0270665Y0199665D01*
X0270717Y0199694D01*
X0270768Y0199727D01*
X0270817Y0199763D01*
X0270863Y0199801D01*
X0270907Y0199843D01*
X0270949Y0199887D01*
X0270987Y0199933D01*
X0271023Y0199982D01*
X0271056Y0200033D01*
X0271085Y0200085D01*
X0271112Y0200140D01*
X0271135Y0200195D01*
X0271155Y0200252D01*
X0271171Y0200311D01*
X0271184Y0200370D01*
X0271193Y0200429D01*
X0271198Y0200490D01*
X0271200Y0200550D01*
X0271198Y0200612D01*
X0271192Y0200674D01*
X0271183Y0200735D01*
X0271170Y0200796D01*
X0271153Y0200855D01*
X0271133Y0200914D01*
X0271109Y0200971D01*
X0271081Y0201027D01*
X0271050Y0201081D01*
X0271016Y0201133D01*
X0270979Y0201182D01*
X0270939Y0201230D01*
X0270896Y0201275D01*
X0270851Y0201317D01*
X0270803Y0201356D01*
X0270752Y0201392D01*
X0270700Y0201425D01*
X0193800Y0201300D02*
X0188800Y0201300D01*
X0188800Y0206300D01*
X0178800Y0206300D01*
X0178800Y0201300D01*
X0173800Y0201300D01*
X0178800Y0201300D02*
X0178800Y0196300D01*
X0173800Y0196300D01*
X0178800Y0196300D02*
X0178800Y0191300D01*
X0188800Y0191300D01*
X0188800Y0196300D01*
X0193800Y0196300D01*
X0188800Y0196300D02*
X0188800Y0201300D01*
X0194981Y0186300D02*
X0194981Y0225670D01*
X0143800Y0225670D01*
X0143800Y0186300D01*
X0194981Y0186300D01*
X0168800Y0191300D02*
X0168800Y0201300D01*
X0158800Y0201300D01*
X0158800Y0191300D01*
X0168800Y0191300D01*
X0163800Y0211300D02*
X0158800Y0211300D01*
X0158800Y0221300D01*
X0163800Y0221300D01*
X0163800Y0211300D01*
X0104850Y0228250D02*
X0103350Y0223750D01*
X0101850Y0228250D01*
X0098600Y0228250D02*
X0097600Y0224750D01*
X0100100Y0224750D01*
X0099350Y0225750D02*
X0099350Y0223750D01*
X0095806Y0223750D02*
X0095431Y0222750D01*
X0095556Y0223750D02*
X0095556Y0224000D01*
X0095806Y0224000D01*
X0095806Y0223750D01*
X0095556Y0223750D01*
X0092550Y0223750D02*
X0093800Y0228250D01*
X0091300Y0228250D01*
X0091300Y0227750D01*
X0089250Y0225500D02*
X0086250Y0225500D01*
X0087750Y0224000D02*
X0087750Y0227000D01*
X0087250Y0218250D02*
X0088750Y0218250D01*
X0087250Y0218250D02*
X0087190Y0218248D01*
X0087129Y0218243D01*
X0087070Y0218234D01*
X0087011Y0218221D01*
X0086952Y0218205D01*
X0086895Y0218185D01*
X0086840Y0218162D01*
X0086785Y0218135D01*
X0086733Y0218106D01*
X0086682Y0218073D01*
X0086633Y0218037D01*
X0086587Y0217999D01*
X0086543Y0217957D01*
X0086501Y0217913D01*
X0086463Y0217867D01*
X0086427Y0217818D01*
X0086394Y0217767D01*
X0086365Y0217715D01*
X0086338Y0217660D01*
X0086315Y0217605D01*
X0086295Y0217548D01*
X0086279Y0217489D01*
X0086266Y0217430D01*
X0086257Y0217371D01*
X0086252Y0217310D01*
X0086250Y0217250D01*
X0086250Y0214750D01*
X0086252Y0214690D01*
X0086257Y0214629D01*
X0086266Y0214570D01*
X0086279Y0214511D01*
X0086295Y0214452D01*
X0086315Y0214395D01*
X0086338Y0214340D01*
X0086365Y0214285D01*
X0086394Y0214233D01*
X0086427Y0214182D01*
X0086463Y0214133D01*
X0086501Y0214087D01*
X0086543Y0214043D01*
X0086587Y0214001D01*
X0086633Y0213963D01*
X0086682Y0213927D01*
X0086733Y0213894D01*
X0086785Y0213865D01*
X0086840Y0213838D01*
X0086895Y0213815D01*
X0086952Y0213795D01*
X0087011Y0213779D01*
X0087070Y0213766D01*
X0087129Y0213757D01*
X0087190Y0213752D01*
X0087250Y0213750D01*
X0088750Y0213750D01*
X0088750Y0216250D01*
X0088000Y0216250D01*
X0091050Y0218250D02*
X0091050Y0213750D01*
X0093550Y0213750D02*
X0091050Y0218250D01*
X0093550Y0218250D02*
X0093550Y0213750D01*
X0095850Y0213750D02*
X0097100Y0213750D01*
X0097168Y0213752D01*
X0097235Y0213757D01*
X0097302Y0213766D01*
X0097369Y0213779D01*
X0097434Y0213796D01*
X0097499Y0213815D01*
X0097563Y0213839D01*
X0097625Y0213866D01*
X0097686Y0213896D01*
X0097744Y0213929D01*
X0097801Y0213965D01*
X0097856Y0214005D01*
X0097909Y0214047D01*
X0097960Y0214093D01*
X0098007Y0214140D01*
X0098053Y0214191D01*
X0098095Y0214244D01*
X0098135Y0214299D01*
X0098171Y0214356D01*
X0098204Y0214414D01*
X0098234Y0214475D01*
X0098261Y0214537D01*
X0098285Y0214601D01*
X0098304Y0214666D01*
X0098321Y0214731D01*
X0098334Y0214798D01*
X0098343Y0214865D01*
X0098348Y0214932D01*
X0098350Y0215000D01*
X0098350Y0217000D01*
X0098348Y0217068D01*
X0098343Y0217135D01*
X0098334Y0217202D01*
X0098321Y0217269D01*
X0098304Y0217334D01*
X0098285Y0217399D01*
X0098261Y0217463D01*
X0098234Y0217525D01*
X0098204Y0217586D01*
X0098171Y0217644D01*
X0098135Y0217701D01*
X0098095Y0217756D01*
X0098053Y0217809D01*
X0098007Y0217860D01*
X0097960Y0217907D01*
X0097909Y0217953D01*
X0097856Y0217995D01*
X0097801Y0218035D01*
X0097744Y0218071D01*
X0097686Y0218104D01*
X0097625Y0218134D01*
X0097563Y0218161D01*
X0097499Y0218185D01*
X0097434Y0218204D01*
X0097369Y0218221D01*
X0097302Y0218234D01*
X0097235Y0218243D01*
X0097168Y0218248D01*
X0097100Y0218250D01*
X0095850Y0218250D01*
X0095850Y0213750D01*
X0263800Y0088800D02*
X0303800Y0088800D01*
X0303800Y0068800D01*
X0303800Y0058800D01*
X0343800Y0058800D01*
X0343800Y0068800D01*
X0303800Y0068800D01*
X0303800Y0058800D02*
X0303800Y0038800D01*
X0263800Y0038800D01*
D12*
X0196900Y0221203D02*
X0195986Y0222378D01*
X0194550Y0222900D01*
X0195986Y0222378D02*
X0195986Y0223944D01*
X0195986Y0222378D02*
X0197422Y0222900D01*
X0195986Y0222378D02*
X0195072Y0221203D01*
D13*
X0200300Y0185500D02*
X0200300Y0180156D01*
X0200302Y0180066D01*
X0200308Y0179977D01*
X0200318Y0179888D01*
X0200331Y0179799D01*
X0200349Y0179711D01*
X0200370Y0179624D01*
X0200395Y0179538D01*
X0200424Y0179453D01*
X0200457Y0179369D01*
X0200493Y0179287D01*
X0200532Y0179207D01*
X0200575Y0179128D01*
X0200622Y0179051D01*
X0200672Y0178977D01*
X0200725Y0178904D01*
X0200781Y0178834D01*
X0200840Y0178767D01*
X0200902Y0178702D01*
X0200967Y0178640D01*
X0201034Y0178581D01*
X0201104Y0178525D01*
X0201177Y0178472D01*
X0201251Y0178422D01*
X0201328Y0178375D01*
X0201407Y0178332D01*
X0201487Y0178293D01*
X0201569Y0178257D01*
X0201653Y0178224D01*
X0201738Y0178195D01*
X0201824Y0178170D01*
X0201911Y0178149D01*
X0201999Y0178131D01*
X0202088Y0178118D01*
X0202177Y0178108D01*
X0202266Y0178102D01*
X0202356Y0178100D01*
X0202446Y0178102D01*
X0202535Y0178108D01*
X0202624Y0178118D01*
X0202713Y0178131D01*
X0202801Y0178149D01*
X0202888Y0178170D01*
X0202974Y0178195D01*
X0203059Y0178224D01*
X0203143Y0178257D01*
X0203225Y0178293D01*
X0203305Y0178332D01*
X0203384Y0178375D01*
X0203461Y0178422D01*
X0203535Y0178472D01*
X0203608Y0178525D01*
X0203678Y0178581D01*
X0203745Y0178640D01*
X0203810Y0178702D01*
X0203872Y0178767D01*
X0203931Y0178834D01*
X0203987Y0178904D01*
X0204040Y0178977D01*
X0204090Y0179051D01*
X0204137Y0179128D01*
X0204180Y0179207D01*
X0204219Y0179287D01*
X0204255Y0179369D01*
X0204288Y0179453D01*
X0204317Y0179538D01*
X0204342Y0179624D01*
X0204363Y0179711D01*
X0204381Y0179799D01*
X0204394Y0179888D01*
X0204404Y0179977D01*
X0204410Y0180066D01*
X0204412Y0180156D01*
X0204411Y0180156D02*
X0204411Y0185500D01*
X0207556Y0183856D02*
X0209611Y0185500D01*
X0209611Y0178100D01*
X0207556Y0178100D02*
X0211667Y0178100D01*
X0192639Y0163741D02*
X0192639Y0147206D01*
X0188859Y0147206D01*
X0188859Y0135394D01*
X0192639Y0135394D01*
X0192639Y0118859D01*
X0133886Y0118859D01*
X0133891Y0118859D02*
X0129954Y0122796D01*
X0129950Y0122800D02*
X0129961Y0135394D01*
X0133741Y0135394D01*
X0133741Y0147206D01*
X0129961Y0147206D01*
X0129961Y0163741D01*
X0192639Y0163741D01*
X0132835Y0187206D02*
X0122009Y0187206D01*
X0132835Y0187206D02*
X0132835Y0219686D01*
X0127127Y0225394D01*
X0122009Y0225394D01*
X0110591Y0225394D02*
X0105473Y0225394D01*
X0099765Y0219686D01*
X0099765Y0187206D01*
X0110591Y0187206D01*
X0121812Y0191930D02*
X0122160Y0192068D01*
X0122504Y0192215D01*
X0122845Y0192370D01*
X0123182Y0192533D01*
X0123515Y0192705D01*
X0123844Y0192885D01*
X0124168Y0193072D01*
X0124488Y0193267D01*
X0124802Y0193471D01*
X0125112Y0193681D01*
X0125416Y0193899D01*
X0125715Y0194125D01*
X0126009Y0194358D01*
X0126297Y0194597D01*
X0126578Y0194844D01*
X0126854Y0195098D01*
X0127123Y0195358D01*
X0127387Y0195624D01*
X0127643Y0195897D01*
X0127893Y0196176D01*
X0128136Y0196461D01*
X0128372Y0196752D01*
X0128600Y0197049D01*
X0128822Y0197351D01*
X0129036Y0197658D01*
X0129242Y0197971D01*
X0129441Y0198288D01*
X0129632Y0198610D01*
X0129815Y0198937D01*
X0129991Y0199268D01*
X0130158Y0199603D01*
X0130316Y0199942D01*
X0130467Y0200285D01*
X0130609Y0200632D01*
X0130743Y0200981D01*
X0130868Y0201334D01*
X0130984Y0201690D01*
X0131092Y0202049D01*
X0131191Y0202410D01*
X0131282Y0202774D01*
X0131363Y0203139D01*
X0131435Y0203507D01*
X0131499Y0203876D01*
X0131553Y0204246D01*
X0131599Y0204618D01*
X0131635Y0204991D01*
X0131663Y0205364D01*
X0131681Y0205738D01*
X0131690Y0206113D01*
X0131690Y0206487D01*
X0131681Y0206862D01*
X0131663Y0207236D01*
X0131635Y0207609D01*
X0131599Y0207982D01*
X0131553Y0208354D01*
X0131499Y0208724D01*
X0131435Y0209093D01*
X0131363Y0209461D01*
X0131282Y0209826D01*
X0131191Y0210190D01*
X0131092Y0210551D01*
X0130984Y0210910D01*
X0130868Y0211266D01*
X0130743Y0211619D01*
X0130609Y0211968D01*
X0130467Y0212315D01*
X0130316Y0212658D01*
X0130158Y0212997D01*
X0129991Y0213332D01*
X0129815Y0213663D01*
X0129632Y0213990D01*
X0129441Y0214312D01*
X0129242Y0214629D01*
X0129036Y0214942D01*
X0128822Y0215249D01*
X0128600Y0215551D01*
X0128372Y0215848D01*
X0128136Y0216139D01*
X0127893Y0216424D01*
X0127643Y0216703D01*
X0127387Y0216976D01*
X0127123Y0217242D01*
X0126854Y0217502D01*
X0126578Y0217756D01*
X0126297Y0218003D01*
X0126009Y0218242D01*
X0125715Y0218475D01*
X0125416Y0218701D01*
X0125112Y0218919D01*
X0124802Y0219129D01*
X0124488Y0219333D01*
X0124168Y0219528D01*
X0123844Y0219715D01*
X0123515Y0219895D01*
X0123182Y0220067D01*
X0122845Y0220230D01*
X0122504Y0220385D01*
X0122160Y0220532D01*
X0121812Y0220670D01*
X0110788Y0220670D02*
X0110440Y0220532D01*
X0110096Y0220385D01*
X0109755Y0220230D01*
X0109418Y0220067D01*
X0109085Y0219895D01*
X0108756Y0219715D01*
X0108432Y0219528D01*
X0108112Y0219333D01*
X0107798Y0219129D01*
X0107488Y0218919D01*
X0107184Y0218701D01*
X0106885Y0218475D01*
X0106591Y0218242D01*
X0106303Y0218003D01*
X0106022Y0217756D01*
X0105746Y0217502D01*
X0105477Y0217242D01*
X0105213Y0216976D01*
X0104957Y0216703D01*
X0104707Y0216424D01*
X0104464Y0216139D01*
X0104228Y0215848D01*
X0104000Y0215551D01*
X0103778Y0215249D01*
X0103564Y0214942D01*
X0103358Y0214629D01*
X0103159Y0214312D01*
X0102968Y0213990D01*
X0102785Y0213663D01*
X0102609Y0213332D01*
X0102442Y0212997D01*
X0102284Y0212658D01*
X0102133Y0212315D01*
X0101991Y0211968D01*
X0101857Y0211619D01*
X0101732Y0211266D01*
X0101616Y0210910D01*
X0101508Y0210551D01*
X0101409Y0210190D01*
X0101318Y0209826D01*
X0101237Y0209461D01*
X0101165Y0209093D01*
X0101101Y0208724D01*
X0101047Y0208354D01*
X0101001Y0207982D01*
X0100965Y0207609D01*
X0100937Y0207236D01*
X0100919Y0206862D01*
X0100910Y0206487D01*
X0100910Y0206113D01*
X0100919Y0205738D01*
X0100937Y0205364D01*
X0100965Y0204991D01*
X0101001Y0204618D01*
X0101047Y0204246D01*
X0101101Y0203876D01*
X0101165Y0203507D01*
X0101237Y0203139D01*
X0101318Y0202774D01*
X0101409Y0202410D01*
X0101508Y0202049D01*
X0101616Y0201690D01*
X0101732Y0201334D01*
X0101857Y0200981D01*
X0101991Y0200632D01*
X0102133Y0200285D01*
X0102284Y0199942D01*
X0102442Y0199603D01*
X0102609Y0199268D01*
X0102785Y0198937D01*
X0102968Y0198610D01*
X0103159Y0198288D01*
X0103358Y0197971D01*
X0103564Y0197658D01*
X0103778Y0197351D01*
X0104000Y0197049D01*
X0104228Y0196752D01*
X0104464Y0196461D01*
X0104707Y0196176D01*
X0104957Y0195897D01*
X0105213Y0195624D01*
X0105477Y0195358D01*
X0105746Y0195098D01*
X0106022Y0194844D01*
X0106303Y0194597D01*
X0106591Y0194358D01*
X0106885Y0194125D01*
X0107184Y0193899D01*
X0107488Y0193681D01*
X0107798Y0193471D01*
X0108112Y0193267D01*
X0108432Y0193072D01*
X0108756Y0192885D01*
X0109085Y0192705D01*
X0109418Y0192533D01*
X0109755Y0192370D01*
X0110096Y0192215D01*
X0110440Y0192068D01*
X0110788Y0191930D01*
X0154560Y0077737D02*
X0154560Y0069863D01*
X0150532Y0073800D01*
X0154560Y0077737D01*
X0154560Y0057737D02*
X0154560Y0049863D01*
X0150532Y0053800D01*
X0154560Y0057737D01*
X0213040Y0057737D02*
X0213040Y0049863D01*
X0217068Y0053800D01*
X0213040Y0057737D01*
X0213040Y0069863D02*
X0213040Y0077737D01*
X0217068Y0073800D01*
X0213040Y0069863D01*
D14*
X0214894Y0065100D02*
X0216172Y0065100D01*
X0214894Y0065100D02*
X0214894Y0060500D01*
X0216172Y0060500D01*
X0216241Y0060502D01*
X0216310Y0060507D01*
X0216379Y0060517D01*
X0216447Y0060530D01*
X0216514Y0060547D01*
X0216580Y0060567D01*
X0216645Y0060591D01*
X0216709Y0060618D01*
X0216771Y0060649D01*
X0216831Y0060683D01*
X0216889Y0060720D01*
X0216945Y0060761D01*
X0216999Y0060804D01*
X0217051Y0060850D01*
X0217100Y0060899D01*
X0217146Y0060951D01*
X0217189Y0061005D01*
X0217230Y0061061D01*
X0217267Y0061119D01*
X0217301Y0061179D01*
X0217332Y0061241D01*
X0217359Y0061305D01*
X0217383Y0061370D01*
X0217403Y0061436D01*
X0217420Y0061503D01*
X0217433Y0061571D01*
X0217443Y0061640D01*
X0217448Y0061709D01*
X0217450Y0061778D01*
X0217450Y0063822D01*
X0217448Y0063891D01*
X0217443Y0063960D01*
X0217433Y0064029D01*
X0217420Y0064097D01*
X0217403Y0064164D01*
X0217383Y0064230D01*
X0217359Y0064295D01*
X0217332Y0064359D01*
X0217301Y0064421D01*
X0217267Y0064481D01*
X0217230Y0064539D01*
X0217189Y0064595D01*
X0217146Y0064649D01*
X0217100Y0064701D01*
X0217051Y0064750D01*
X0216999Y0064796D01*
X0216945Y0064839D01*
X0216889Y0064880D01*
X0216831Y0064917D01*
X0216771Y0064951D01*
X0216709Y0064982D01*
X0216645Y0065009D01*
X0216580Y0065033D01*
X0216514Y0065053D01*
X0216447Y0065070D01*
X0216379Y0065083D01*
X0216310Y0065093D01*
X0216241Y0065098D01*
X0216172Y0065100D01*
X0219544Y0064078D02*
X0220822Y0065100D01*
X0220822Y0060500D01*
X0219544Y0060500D02*
X0222100Y0060500D01*
X0222700Y0061300D02*
X0204900Y0061300D01*
X0204900Y0066300D02*
X0222700Y0066300D01*
X0222700Y0081300D02*
X0204900Y0081300D01*
X0204900Y0046300D02*
X0222700Y0046300D01*
X0220950Y0045100D02*
X0221017Y0045098D01*
X0221084Y0045092D01*
X0221150Y0045083D01*
X0221215Y0045069D01*
X0221280Y0045052D01*
X0221343Y0045031D01*
X0221405Y0045006D01*
X0221466Y0044978D01*
X0221525Y0044946D01*
X0221582Y0044911D01*
X0221637Y0044872D01*
X0221689Y0044831D01*
X0221739Y0044786D01*
X0221786Y0044739D01*
X0221831Y0044689D01*
X0221872Y0044637D01*
X0221911Y0044582D01*
X0221946Y0044525D01*
X0221978Y0044466D01*
X0222006Y0044405D01*
X0222031Y0044343D01*
X0222052Y0044280D01*
X0222069Y0044215D01*
X0222083Y0044150D01*
X0222092Y0044084D01*
X0222098Y0044017D01*
X0222100Y0043950D01*
X0221717Y0043056D02*
X0219544Y0040500D01*
X0222100Y0040500D01*
X0219545Y0044078D02*
X0219570Y0044148D01*
X0219598Y0044217D01*
X0219629Y0044284D01*
X0219664Y0044350D01*
X0219702Y0044413D01*
X0219744Y0044475D01*
X0219788Y0044535D01*
X0219835Y0044592D01*
X0219885Y0044647D01*
X0219938Y0044699D01*
X0219994Y0044749D01*
X0220052Y0044795D01*
X0220112Y0044839D01*
X0220174Y0044880D01*
X0220238Y0044917D01*
X0220304Y0044951D01*
X0220372Y0044982D01*
X0220441Y0045009D01*
X0220511Y0045033D01*
X0220582Y0045054D01*
X0220655Y0045070D01*
X0220728Y0045083D01*
X0220802Y0045093D01*
X0220876Y0045098D01*
X0220950Y0045100D01*
X0222100Y0043950D02*
X0222098Y0043883D01*
X0222093Y0043817D01*
X0222084Y0043751D01*
X0222071Y0043685D01*
X0222055Y0043621D01*
X0222036Y0043557D01*
X0222013Y0043494D01*
X0221987Y0043433D01*
X0221957Y0043373D01*
X0221924Y0043315D01*
X0221889Y0043259D01*
X0221850Y0043205D01*
X0221808Y0043153D01*
X0221764Y0043103D01*
X0221717Y0043056D01*
X0217450Y0043822D02*
X0217450Y0041778D01*
X0217448Y0041709D01*
X0217443Y0041640D01*
X0217433Y0041571D01*
X0217420Y0041503D01*
X0217403Y0041436D01*
X0217383Y0041370D01*
X0217359Y0041305D01*
X0217332Y0041241D01*
X0217301Y0041179D01*
X0217267Y0041119D01*
X0217230Y0041061D01*
X0217189Y0041005D01*
X0217146Y0040951D01*
X0217100Y0040899D01*
X0217051Y0040850D01*
X0216999Y0040804D01*
X0216945Y0040761D01*
X0216889Y0040720D01*
X0216831Y0040683D01*
X0216771Y0040649D01*
X0216709Y0040618D01*
X0216645Y0040591D01*
X0216580Y0040567D01*
X0216514Y0040547D01*
X0216447Y0040530D01*
X0216379Y0040517D01*
X0216310Y0040507D01*
X0216241Y0040502D01*
X0216172Y0040500D01*
X0214894Y0040500D01*
X0214894Y0045100D01*
X0216172Y0045100D01*
X0216241Y0045098D01*
X0216310Y0045093D01*
X0216379Y0045083D01*
X0216447Y0045070D01*
X0216514Y0045053D01*
X0216580Y0045033D01*
X0216645Y0045009D01*
X0216709Y0044982D01*
X0216771Y0044951D01*
X0216831Y0044917D01*
X0216889Y0044880D01*
X0216945Y0044839D01*
X0216999Y0044796D01*
X0217051Y0044750D01*
X0217100Y0044701D01*
X0217146Y0044649D01*
X0217189Y0044595D01*
X0217230Y0044539D01*
X0217267Y0044481D01*
X0217301Y0044421D01*
X0217332Y0044359D01*
X0217359Y0044295D01*
X0217383Y0044230D01*
X0217403Y0044164D01*
X0217420Y0044097D01*
X0217433Y0044029D01*
X0217443Y0043960D01*
X0217448Y0043891D01*
X0217450Y0043822D01*
X0269000Y0054000D02*
X0269000Y0057067D01*
X0271300Y0057067D01*
X0270533Y0057067D02*
X0270533Y0054000D01*
X0272067Y0054000D02*
X0272067Y0056300D01*
X0272065Y0056355D01*
X0272059Y0056409D01*
X0272049Y0056463D01*
X0272036Y0056516D01*
X0272019Y0056568D01*
X0271998Y0056619D01*
X0271973Y0056668D01*
X0271945Y0056715D01*
X0271914Y0056760D01*
X0271880Y0056802D01*
X0271842Y0056842D01*
X0271802Y0056880D01*
X0271760Y0056914D01*
X0271715Y0056945D01*
X0271668Y0056973D01*
X0271619Y0056998D01*
X0271568Y0057019D01*
X0271516Y0057036D01*
X0271463Y0057049D01*
X0271409Y0057059D01*
X0271355Y0057065D01*
X0271300Y0057067D01*
X0274161Y0056044D02*
X0274161Y0055022D01*
X0274163Y0054959D01*
X0274169Y0054896D01*
X0274178Y0054834D01*
X0274192Y0054773D01*
X0274209Y0054712D01*
X0274230Y0054653D01*
X0274255Y0054595D01*
X0274283Y0054538D01*
X0274314Y0054484D01*
X0274349Y0054432D01*
X0274387Y0054381D01*
X0274428Y0054333D01*
X0274472Y0054288D01*
X0274518Y0054246D01*
X0274567Y0054206D01*
X0274618Y0054170D01*
X0274672Y0054137D01*
X0274727Y0054107D01*
X0274785Y0054081D01*
X0274843Y0054058D01*
X0274903Y0054039D01*
X0274964Y0054024D01*
X0275026Y0054012D01*
X0275089Y0054004D01*
X0275152Y0054000D01*
X0275214Y0054000D01*
X0275277Y0054004D01*
X0275340Y0054012D01*
X0275402Y0054024D01*
X0275463Y0054039D01*
X0275523Y0054058D01*
X0275581Y0054081D01*
X0275639Y0054107D01*
X0275694Y0054137D01*
X0275748Y0054170D01*
X0275799Y0054206D01*
X0275848Y0054246D01*
X0275894Y0054288D01*
X0275938Y0054333D01*
X0275979Y0054381D01*
X0276017Y0054432D01*
X0276052Y0054484D01*
X0276083Y0054538D01*
X0276111Y0054595D01*
X0276136Y0054653D01*
X0276157Y0054712D01*
X0276174Y0054773D01*
X0276188Y0054834D01*
X0276197Y0054896D01*
X0276203Y0054959D01*
X0276205Y0055022D01*
X0276206Y0055022D02*
X0276206Y0056044D01*
X0276205Y0056044D02*
X0276203Y0056107D01*
X0276197Y0056170D01*
X0276188Y0056232D01*
X0276174Y0056293D01*
X0276157Y0056354D01*
X0276136Y0056413D01*
X0276111Y0056471D01*
X0276083Y0056528D01*
X0276052Y0056582D01*
X0276017Y0056634D01*
X0275979Y0056685D01*
X0275938Y0056733D01*
X0275894Y0056778D01*
X0275848Y0056820D01*
X0275799Y0056860D01*
X0275748Y0056896D01*
X0275694Y0056929D01*
X0275639Y0056959D01*
X0275581Y0056985D01*
X0275523Y0057008D01*
X0275463Y0057027D01*
X0275402Y0057042D01*
X0275340Y0057054D01*
X0275277Y0057062D01*
X0275214Y0057066D01*
X0275152Y0057066D01*
X0275089Y0057062D01*
X0275026Y0057054D01*
X0274964Y0057042D01*
X0274903Y0057027D01*
X0274843Y0057008D01*
X0274785Y0056985D01*
X0274727Y0056959D01*
X0274672Y0056929D01*
X0274618Y0056896D01*
X0274567Y0056860D01*
X0274518Y0056820D01*
X0274472Y0056778D01*
X0274428Y0056733D01*
X0274387Y0056685D01*
X0274349Y0056634D01*
X0274314Y0056582D01*
X0274283Y0056528D01*
X0274255Y0056471D01*
X0274230Y0056413D01*
X0274209Y0056354D01*
X0274192Y0056293D01*
X0274178Y0056232D01*
X0274169Y0056170D01*
X0274163Y0056107D01*
X0274161Y0056044D01*
X0277680Y0057067D02*
X0279214Y0057067D01*
X0278191Y0058600D02*
X0278191Y0054767D01*
X0278193Y0054712D01*
X0278199Y0054658D01*
X0278209Y0054604D01*
X0278222Y0054551D01*
X0278239Y0054499D01*
X0278260Y0054448D01*
X0278285Y0054399D01*
X0278313Y0054352D01*
X0278344Y0054307D01*
X0278378Y0054265D01*
X0278416Y0054225D01*
X0278456Y0054187D01*
X0278498Y0054153D01*
X0278543Y0054122D01*
X0278590Y0054094D01*
X0278639Y0054069D01*
X0278690Y0054048D01*
X0278742Y0054031D01*
X0278795Y0054018D01*
X0278849Y0054008D01*
X0278903Y0054002D01*
X0278958Y0054000D01*
X0279214Y0054000D01*
X0280911Y0055022D02*
X0280911Y0056044D01*
X0280913Y0056107D01*
X0280919Y0056170D01*
X0280928Y0056232D01*
X0280942Y0056293D01*
X0280959Y0056354D01*
X0280980Y0056413D01*
X0281005Y0056471D01*
X0281033Y0056528D01*
X0281064Y0056582D01*
X0281099Y0056634D01*
X0281137Y0056685D01*
X0281178Y0056733D01*
X0281222Y0056778D01*
X0281268Y0056820D01*
X0281317Y0056860D01*
X0281368Y0056896D01*
X0281422Y0056929D01*
X0281477Y0056959D01*
X0281535Y0056985D01*
X0281593Y0057008D01*
X0281653Y0057027D01*
X0281714Y0057042D01*
X0281776Y0057054D01*
X0281839Y0057062D01*
X0281902Y0057066D01*
X0281964Y0057066D01*
X0282027Y0057062D01*
X0282090Y0057054D01*
X0282152Y0057042D01*
X0282213Y0057027D01*
X0282273Y0057008D01*
X0282331Y0056985D01*
X0282389Y0056959D01*
X0282444Y0056929D01*
X0282498Y0056896D01*
X0282549Y0056860D01*
X0282598Y0056820D01*
X0282644Y0056778D01*
X0282688Y0056733D01*
X0282729Y0056685D01*
X0282767Y0056634D01*
X0282802Y0056582D01*
X0282833Y0056528D01*
X0282861Y0056471D01*
X0282886Y0056413D01*
X0282907Y0056354D01*
X0282924Y0056293D01*
X0282938Y0056232D01*
X0282947Y0056170D01*
X0282953Y0056107D01*
X0282955Y0056044D01*
X0282956Y0056044D02*
X0282956Y0055022D01*
X0282955Y0055022D02*
X0282953Y0054959D01*
X0282947Y0054896D01*
X0282938Y0054834D01*
X0282924Y0054773D01*
X0282907Y0054712D01*
X0282886Y0054653D01*
X0282861Y0054595D01*
X0282833Y0054538D01*
X0282802Y0054484D01*
X0282767Y0054432D01*
X0282729Y0054381D01*
X0282688Y0054333D01*
X0282644Y0054288D01*
X0282598Y0054246D01*
X0282549Y0054206D01*
X0282498Y0054170D01*
X0282444Y0054137D01*
X0282389Y0054107D01*
X0282331Y0054081D01*
X0282273Y0054058D01*
X0282213Y0054039D01*
X0282152Y0054024D01*
X0282090Y0054012D01*
X0282027Y0054004D01*
X0281964Y0054000D01*
X0281902Y0054000D01*
X0281839Y0054004D01*
X0281776Y0054012D01*
X0281714Y0054024D01*
X0281653Y0054039D01*
X0281593Y0054058D01*
X0281535Y0054081D01*
X0281477Y0054107D01*
X0281422Y0054137D01*
X0281368Y0054170D01*
X0281317Y0054206D01*
X0281268Y0054246D01*
X0281222Y0054288D01*
X0281178Y0054333D01*
X0281137Y0054381D01*
X0281099Y0054432D01*
X0281064Y0054484D01*
X0281033Y0054538D01*
X0281005Y0054595D01*
X0280980Y0054653D01*
X0280959Y0054712D01*
X0280942Y0054773D01*
X0280928Y0054834D01*
X0280919Y0054896D01*
X0280913Y0054959D01*
X0280911Y0055022D01*
X0284987Y0054000D02*
X0284987Y0057067D01*
X0286521Y0057067D01*
X0286521Y0056556D01*
X0286218Y0061500D02*
X0284940Y0061500D01*
X0284885Y0061502D01*
X0284831Y0061508D01*
X0284777Y0061518D01*
X0284724Y0061531D01*
X0284672Y0061548D01*
X0284621Y0061569D01*
X0284572Y0061594D01*
X0284525Y0061622D01*
X0284480Y0061653D01*
X0284438Y0061687D01*
X0284398Y0061725D01*
X0284360Y0061765D01*
X0284326Y0061807D01*
X0284295Y0061852D01*
X0284267Y0061899D01*
X0284242Y0061948D01*
X0284221Y0061999D01*
X0284204Y0062051D01*
X0284191Y0062104D01*
X0284181Y0062158D01*
X0284175Y0062212D01*
X0284173Y0062267D01*
X0284173Y0063544D01*
X0284173Y0063033D02*
X0286218Y0063033D01*
X0286218Y0063544D01*
X0286217Y0063544D02*
X0286215Y0063607D01*
X0286209Y0063670D01*
X0286200Y0063732D01*
X0286186Y0063793D01*
X0286169Y0063854D01*
X0286148Y0063913D01*
X0286123Y0063971D01*
X0286095Y0064028D01*
X0286064Y0064082D01*
X0286029Y0064134D01*
X0285991Y0064185D01*
X0285950Y0064233D01*
X0285906Y0064278D01*
X0285860Y0064320D01*
X0285811Y0064360D01*
X0285760Y0064396D01*
X0285706Y0064429D01*
X0285651Y0064459D01*
X0285593Y0064485D01*
X0285535Y0064508D01*
X0285475Y0064527D01*
X0285414Y0064542D01*
X0285352Y0064554D01*
X0285289Y0064562D01*
X0285226Y0064566D01*
X0285164Y0064566D01*
X0285101Y0064562D01*
X0285038Y0064554D01*
X0284976Y0064542D01*
X0284915Y0064527D01*
X0284855Y0064508D01*
X0284797Y0064485D01*
X0284739Y0064459D01*
X0284684Y0064429D01*
X0284630Y0064396D01*
X0284579Y0064360D01*
X0284530Y0064320D01*
X0284484Y0064278D01*
X0284440Y0064233D01*
X0284399Y0064185D01*
X0284361Y0064134D01*
X0284326Y0064082D01*
X0284295Y0064028D01*
X0284267Y0063971D01*
X0284242Y0063913D01*
X0284221Y0063854D01*
X0284204Y0063793D01*
X0284190Y0063732D01*
X0284181Y0063670D01*
X0284175Y0063607D01*
X0284173Y0063544D01*
X0282733Y0064056D02*
X0282733Y0064567D01*
X0281199Y0064567D01*
X0281199Y0061500D01*
X0278994Y0061500D02*
X0278994Y0063800D01*
X0278994Y0063289D02*
X0277844Y0063289D01*
X0278995Y0063800D02*
X0278993Y0063855D01*
X0278987Y0063909D01*
X0278977Y0063963D01*
X0278964Y0064016D01*
X0278947Y0064068D01*
X0278926Y0064119D01*
X0278901Y0064168D01*
X0278873Y0064215D01*
X0278842Y0064260D01*
X0278808Y0064302D01*
X0278770Y0064342D01*
X0278730Y0064380D01*
X0278688Y0064414D01*
X0278643Y0064445D01*
X0278596Y0064473D01*
X0278547Y0064498D01*
X0278496Y0064519D01*
X0278444Y0064536D01*
X0278391Y0064549D01*
X0278337Y0064559D01*
X0278283Y0064565D01*
X0278228Y0064567D01*
X0277206Y0064567D01*
X0277844Y0063288D02*
X0277786Y0063286D01*
X0277727Y0063280D01*
X0277670Y0063271D01*
X0277613Y0063258D01*
X0277557Y0063241D01*
X0277502Y0063220D01*
X0277449Y0063196D01*
X0277397Y0063168D01*
X0277347Y0063137D01*
X0277300Y0063103D01*
X0277255Y0063066D01*
X0277212Y0063026D01*
X0277172Y0062983D01*
X0277135Y0062938D01*
X0277101Y0062891D01*
X0277070Y0062841D01*
X0277042Y0062789D01*
X0277018Y0062736D01*
X0276997Y0062681D01*
X0276980Y0062625D01*
X0276967Y0062568D01*
X0276958Y0062511D01*
X0276952Y0062452D01*
X0276950Y0062394D01*
X0276952Y0062336D01*
X0276958Y0062277D01*
X0276967Y0062220D01*
X0276980Y0062163D01*
X0276997Y0062107D01*
X0277018Y0062052D01*
X0277042Y0061999D01*
X0277070Y0061947D01*
X0277101Y0061897D01*
X0277135Y0061850D01*
X0277172Y0061805D01*
X0277212Y0061762D01*
X0277255Y0061722D01*
X0277300Y0061685D01*
X0277347Y0061651D01*
X0277397Y0061620D01*
X0277449Y0061592D01*
X0277502Y0061568D01*
X0277557Y0061547D01*
X0277613Y0061530D01*
X0277670Y0061517D01*
X0277727Y0061508D01*
X0277786Y0061502D01*
X0277844Y0061500D01*
X0278994Y0061500D01*
X0275118Y0061500D02*
X0273840Y0061500D01*
X0273785Y0061502D01*
X0273731Y0061508D01*
X0273677Y0061518D01*
X0273624Y0061531D01*
X0273572Y0061548D01*
X0273521Y0061569D01*
X0273472Y0061594D01*
X0273425Y0061622D01*
X0273380Y0061653D01*
X0273338Y0061687D01*
X0273298Y0061725D01*
X0273260Y0061765D01*
X0273226Y0061807D01*
X0273195Y0061852D01*
X0273167Y0061899D01*
X0273142Y0061948D01*
X0273121Y0061999D01*
X0273104Y0062051D01*
X0273091Y0062104D01*
X0273081Y0062158D01*
X0273075Y0062212D01*
X0273073Y0062267D01*
X0273073Y0063544D01*
X0273073Y0063033D02*
X0275118Y0063033D01*
X0275118Y0063544D01*
X0275117Y0063544D02*
X0275115Y0063607D01*
X0275109Y0063670D01*
X0275100Y0063732D01*
X0275086Y0063793D01*
X0275069Y0063854D01*
X0275048Y0063913D01*
X0275023Y0063971D01*
X0274995Y0064028D01*
X0274964Y0064082D01*
X0274929Y0064134D01*
X0274891Y0064185D01*
X0274850Y0064233D01*
X0274806Y0064278D01*
X0274760Y0064320D01*
X0274711Y0064360D01*
X0274660Y0064396D01*
X0274606Y0064429D01*
X0274551Y0064459D01*
X0274493Y0064485D01*
X0274435Y0064508D01*
X0274375Y0064527D01*
X0274314Y0064542D01*
X0274252Y0064554D01*
X0274189Y0064562D01*
X0274126Y0064566D01*
X0274064Y0064566D01*
X0274001Y0064562D01*
X0273938Y0064554D01*
X0273876Y0064542D01*
X0273815Y0064527D01*
X0273755Y0064508D01*
X0273697Y0064485D01*
X0273639Y0064459D01*
X0273584Y0064429D01*
X0273530Y0064396D01*
X0273479Y0064360D01*
X0273430Y0064320D01*
X0273384Y0064278D01*
X0273340Y0064233D01*
X0273299Y0064185D01*
X0273261Y0064134D01*
X0273226Y0064082D01*
X0273195Y0064028D01*
X0273167Y0063971D01*
X0273142Y0063913D01*
X0273121Y0063854D01*
X0273104Y0063793D01*
X0273090Y0063732D01*
X0273081Y0063670D01*
X0273075Y0063607D01*
X0273073Y0063544D01*
X0271044Y0064567D02*
X0271044Y0060733D01*
X0271045Y0060733D02*
X0271043Y0060678D01*
X0271037Y0060624D01*
X0271027Y0060570D01*
X0271014Y0060517D01*
X0270997Y0060465D01*
X0270976Y0060414D01*
X0270951Y0060365D01*
X0270923Y0060318D01*
X0270892Y0060273D01*
X0270858Y0060231D01*
X0270820Y0060191D01*
X0270780Y0060153D01*
X0270738Y0060119D01*
X0270693Y0060088D01*
X0270646Y0060060D01*
X0270597Y0060035D01*
X0270546Y0060014D01*
X0270494Y0059997D01*
X0270441Y0059984D01*
X0270387Y0059974D01*
X0270333Y0059968D01*
X0270278Y0059966D01*
X0270278Y0059967D02*
X0269256Y0059967D01*
X0269767Y0061500D02*
X0271044Y0061500D01*
X0269767Y0061500D02*
X0269712Y0061502D01*
X0269658Y0061508D01*
X0269604Y0061518D01*
X0269551Y0061531D01*
X0269499Y0061548D01*
X0269448Y0061569D01*
X0269399Y0061594D01*
X0269352Y0061622D01*
X0269307Y0061653D01*
X0269265Y0061687D01*
X0269225Y0061725D01*
X0269187Y0061765D01*
X0269153Y0061807D01*
X0269122Y0061852D01*
X0269094Y0061899D01*
X0269069Y0061948D01*
X0269048Y0061999D01*
X0269031Y0062051D01*
X0269018Y0062104D01*
X0269008Y0062158D01*
X0269002Y0062212D01*
X0269000Y0062267D01*
X0269000Y0063800D01*
X0269002Y0063855D01*
X0269008Y0063909D01*
X0269018Y0063963D01*
X0269031Y0064016D01*
X0269048Y0064068D01*
X0269069Y0064119D01*
X0269094Y0064168D01*
X0269122Y0064215D01*
X0269153Y0064260D01*
X0269187Y0064302D01*
X0269225Y0064342D01*
X0269265Y0064380D01*
X0269307Y0064414D01*
X0269352Y0064445D01*
X0269399Y0064473D01*
X0269448Y0064498D01*
X0269499Y0064519D01*
X0269551Y0064536D01*
X0269604Y0064549D01*
X0269658Y0064559D01*
X0269712Y0064565D01*
X0269767Y0064567D01*
X0271044Y0064567D01*
X0269000Y0069000D02*
X0269000Y0073600D01*
X0270278Y0073600D01*
X0270348Y0073598D01*
X0270419Y0073592D01*
X0270488Y0073583D01*
X0270557Y0073569D01*
X0270626Y0073552D01*
X0270693Y0073531D01*
X0270759Y0073506D01*
X0270823Y0073478D01*
X0270886Y0073446D01*
X0270947Y0073411D01*
X0271006Y0073372D01*
X0271063Y0073331D01*
X0271117Y0073286D01*
X0271169Y0073238D01*
X0271218Y0073188D01*
X0271265Y0073134D01*
X0271308Y0073079D01*
X0271348Y0073021D01*
X0271385Y0072961D01*
X0271418Y0072899D01*
X0271448Y0072835D01*
X0271475Y0072770D01*
X0271498Y0072704D01*
X0271517Y0072636D01*
X0271532Y0072567D01*
X0271544Y0072498D01*
X0271552Y0072428D01*
X0271556Y0072357D01*
X0271556Y0072287D01*
X0271552Y0072216D01*
X0271544Y0072146D01*
X0271532Y0072077D01*
X0271517Y0072008D01*
X0271498Y0071940D01*
X0271475Y0071874D01*
X0271448Y0071809D01*
X0271418Y0071745D01*
X0271385Y0071683D01*
X0271348Y0071623D01*
X0271308Y0071565D01*
X0271265Y0071510D01*
X0271218Y0071456D01*
X0271169Y0071406D01*
X0271117Y0071358D01*
X0271063Y0071313D01*
X0271006Y0071272D01*
X0270947Y0071233D01*
X0270886Y0071198D01*
X0270823Y0071166D01*
X0270759Y0071138D01*
X0270693Y0071113D01*
X0270626Y0071092D01*
X0270557Y0071075D01*
X0270488Y0071061D01*
X0270419Y0071052D01*
X0270348Y0071046D01*
X0270278Y0071044D01*
X0269000Y0071044D01*
X0273239Y0071044D02*
X0273239Y0070022D01*
X0273241Y0069959D01*
X0273247Y0069896D01*
X0273256Y0069834D01*
X0273270Y0069773D01*
X0273287Y0069712D01*
X0273308Y0069653D01*
X0273333Y0069595D01*
X0273361Y0069538D01*
X0273392Y0069484D01*
X0273427Y0069432D01*
X0273465Y0069381D01*
X0273506Y0069333D01*
X0273550Y0069288D01*
X0273596Y0069246D01*
X0273645Y0069206D01*
X0273696Y0069170D01*
X0273750Y0069137D01*
X0273805Y0069107D01*
X0273863Y0069081D01*
X0273921Y0069058D01*
X0273981Y0069039D01*
X0274042Y0069024D01*
X0274104Y0069012D01*
X0274167Y0069004D01*
X0274230Y0069000D01*
X0274292Y0069000D01*
X0274355Y0069004D01*
X0274418Y0069012D01*
X0274480Y0069024D01*
X0274541Y0069039D01*
X0274601Y0069058D01*
X0274659Y0069081D01*
X0274717Y0069107D01*
X0274772Y0069137D01*
X0274826Y0069170D01*
X0274877Y0069206D01*
X0274926Y0069246D01*
X0274972Y0069288D01*
X0275016Y0069333D01*
X0275057Y0069381D01*
X0275095Y0069432D01*
X0275130Y0069484D01*
X0275161Y0069538D01*
X0275189Y0069595D01*
X0275214Y0069653D01*
X0275235Y0069712D01*
X0275252Y0069773D01*
X0275266Y0069834D01*
X0275275Y0069896D01*
X0275281Y0069959D01*
X0275283Y0070022D01*
X0275283Y0071044D01*
X0275281Y0071107D01*
X0275275Y0071170D01*
X0275266Y0071232D01*
X0275252Y0071293D01*
X0275235Y0071354D01*
X0275214Y0071413D01*
X0275189Y0071471D01*
X0275161Y0071528D01*
X0275130Y0071582D01*
X0275095Y0071634D01*
X0275057Y0071685D01*
X0275016Y0071733D01*
X0274972Y0071778D01*
X0274926Y0071820D01*
X0274877Y0071860D01*
X0274826Y0071896D01*
X0274772Y0071929D01*
X0274717Y0071959D01*
X0274659Y0071985D01*
X0274601Y0072008D01*
X0274541Y0072027D01*
X0274480Y0072042D01*
X0274418Y0072054D01*
X0274355Y0072062D01*
X0274292Y0072066D01*
X0274230Y0072066D01*
X0274167Y0072062D01*
X0274104Y0072054D01*
X0274042Y0072042D01*
X0273981Y0072027D01*
X0273921Y0072008D01*
X0273863Y0071985D01*
X0273805Y0071959D01*
X0273750Y0071929D01*
X0273696Y0071896D01*
X0273645Y0071860D01*
X0273596Y0071820D01*
X0273550Y0071778D01*
X0273506Y0071733D01*
X0273465Y0071685D01*
X0273427Y0071634D01*
X0273392Y0071582D01*
X0273361Y0071528D01*
X0273333Y0071471D01*
X0273308Y0071413D01*
X0273287Y0071354D01*
X0273270Y0071293D01*
X0273256Y0071232D01*
X0273247Y0071170D01*
X0273241Y0071107D01*
X0273239Y0071044D01*
X0277198Y0069767D02*
X0277198Y0073600D01*
X0279539Y0071044D02*
X0279539Y0070022D01*
X0279541Y0069959D01*
X0279547Y0069896D01*
X0279556Y0069834D01*
X0279570Y0069773D01*
X0279587Y0069712D01*
X0279608Y0069653D01*
X0279633Y0069595D01*
X0279661Y0069538D01*
X0279692Y0069484D01*
X0279727Y0069432D01*
X0279765Y0069381D01*
X0279806Y0069333D01*
X0279850Y0069288D01*
X0279896Y0069246D01*
X0279945Y0069206D01*
X0279996Y0069170D01*
X0280050Y0069137D01*
X0280105Y0069107D01*
X0280163Y0069081D01*
X0280221Y0069058D01*
X0280281Y0069039D01*
X0280342Y0069024D01*
X0280404Y0069012D01*
X0280467Y0069004D01*
X0280530Y0069000D01*
X0280592Y0069000D01*
X0280655Y0069004D01*
X0280718Y0069012D01*
X0280780Y0069024D01*
X0280841Y0069039D01*
X0280901Y0069058D01*
X0280959Y0069081D01*
X0281017Y0069107D01*
X0281072Y0069137D01*
X0281126Y0069170D01*
X0281177Y0069206D01*
X0281226Y0069246D01*
X0281272Y0069288D01*
X0281316Y0069333D01*
X0281357Y0069381D01*
X0281395Y0069432D01*
X0281430Y0069484D01*
X0281461Y0069538D01*
X0281489Y0069595D01*
X0281514Y0069653D01*
X0281535Y0069712D01*
X0281552Y0069773D01*
X0281566Y0069834D01*
X0281575Y0069896D01*
X0281581Y0069959D01*
X0281583Y0070022D01*
X0281583Y0071044D01*
X0281581Y0071107D01*
X0281575Y0071170D01*
X0281566Y0071232D01*
X0281552Y0071293D01*
X0281535Y0071354D01*
X0281514Y0071413D01*
X0281489Y0071471D01*
X0281461Y0071528D01*
X0281430Y0071582D01*
X0281395Y0071634D01*
X0281357Y0071685D01*
X0281316Y0071733D01*
X0281272Y0071778D01*
X0281226Y0071820D01*
X0281177Y0071860D01*
X0281126Y0071896D01*
X0281072Y0071929D01*
X0281017Y0071959D01*
X0280959Y0071985D01*
X0280901Y0072008D01*
X0280841Y0072027D01*
X0280780Y0072042D01*
X0280718Y0072054D01*
X0280655Y0072062D01*
X0280592Y0072066D01*
X0280530Y0072066D01*
X0280467Y0072062D01*
X0280404Y0072054D01*
X0280342Y0072042D01*
X0280281Y0072027D01*
X0280221Y0072008D01*
X0280163Y0071985D01*
X0280105Y0071959D01*
X0280050Y0071929D01*
X0279996Y0071896D01*
X0279945Y0071860D01*
X0279896Y0071820D01*
X0279850Y0071778D01*
X0279806Y0071733D01*
X0279765Y0071685D01*
X0279727Y0071634D01*
X0279692Y0071582D01*
X0279661Y0071528D01*
X0279633Y0071471D01*
X0279608Y0071413D01*
X0279587Y0071354D01*
X0279570Y0071293D01*
X0279556Y0071232D01*
X0279547Y0071170D01*
X0279541Y0071107D01*
X0279539Y0071044D01*
X0277964Y0069000D02*
X0277909Y0069002D01*
X0277855Y0069008D01*
X0277801Y0069018D01*
X0277748Y0069031D01*
X0277696Y0069048D01*
X0277645Y0069069D01*
X0277596Y0069094D01*
X0277549Y0069122D01*
X0277504Y0069153D01*
X0277462Y0069187D01*
X0277422Y0069225D01*
X0277384Y0069265D01*
X0277350Y0069307D01*
X0277319Y0069352D01*
X0277291Y0069399D01*
X0277266Y0069448D01*
X0277245Y0069499D01*
X0277228Y0069551D01*
X0277215Y0069604D01*
X0277205Y0069658D01*
X0277199Y0069712D01*
X0277197Y0069767D01*
X0283498Y0069767D02*
X0283498Y0073600D01*
X0285989Y0072067D02*
X0285989Y0069767D01*
X0285991Y0069712D01*
X0285997Y0069658D01*
X0286007Y0069604D01*
X0286020Y0069551D01*
X0286037Y0069499D01*
X0286058Y0069448D01*
X0286083Y0069399D01*
X0286111Y0069352D01*
X0286142Y0069307D01*
X0286176Y0069265D01*
X0286214Y0069225D01*
X0286254Y0069187D01*
X0286296Y0069153D01*
X0286341Y0069122D01*
X0286388Y0069094D01*
X0286437Y0069069D01*
X0286488Y0069048D01*
X0286540Y0069031D01*
X0286593Y0069018D01*
X0286647Y0069008D01*
X0286701Y0069002D01*
X0286756Y0069000D01*
X0288033Y0069000D01*
X0288033Y0072067D01*
X0284264Y0069000D02*
X0284209Y0069002D01*
X0284155Y0069008D01*
X0284101Y0069018D01*
X0284048Y0069031D01*
X0283996Y0069048D01*
X0283945Y0069069D01*
X0283896Y0069094D01*
X0283849Y0069122D01*
X0283804Y0069153D01*
X0283762Y0069187D01*
X0283722Y0069225D01*
X0283684Y0069265D01*
X0283650Y0069307D01*
X0283619Y0069352D01*
X0283591Y0069399D01*
X0283566Y0069448D01*
X0283545Y0069499D01*
X0283528Y0069551D01*
X0283515Y0069604D01*
X0283505Y0069658D01*
X0283499Y0069712D01*
X0283497Y0069767D01*
X0288817Y0064567D02*
X0290094Y0064567D01*
X0288817Y0064567D02*
X0288762Y0064565D01*
X0288708Y0064559D01*
X0288654Y0064549D01*
X0288601Y0064536D01*
X0288549Y0064519D01*
X0288498Y0064498D01*
X0288449Y0064473D01*
X0288402Y0064445D01*
X0288357Y0064414D01*
X0288315Y0064380D01*
X0288275Y0064342D01*
X0288237Y0064302D01*
X0288203Y0064260D01*
X0288172Y0064215D01*
X0288144Y0064168D01*
X0288119Y0064119D01*
X0288098Y0064068D01*
X0288081Y0064016D01*
X0288068Y0063963D01*
X0288058Y0063909D01*
X0288052Y0063855D01*
X0288050Y0063800D01*
X0288050Y0062267D01*
X0288052Y0062212D01*
X0288058Y0062158D01*
X0288068Y0062104D01*
X0288081Y0062051D01*
X0288098Y0061999D01*
X0288119Y0061948D01*
X0288144Y0061899D01*
X0288172Y0061852D01*
X0288203Y0061807D01*
X0288237Y0061765D01*
X0288275Y0061725D01*
X0288315Y0061687D01*
X0288357Y0061653D01*
X0288402Y0061622D01*
X0288449Y0061594D01*
X0288498Y0061569D01*
X0288549Y0061548D01*
X0288601Y0061531D01*
X0288654Y0061518D01*
X0288708Y0061508D01*
X0288762Y0061502D01*
X0288817Y0061500D01*
X0290094Y0061500D01*
X0290094Y0066100D01*
X0268600Y0156500D02*
X0266044Y0156500D01*
X0267322Y0156500D02*
X0267322Y0161100D01*
X0266044Y0160078D01*
X0263950Y0159822D02*
X0263950Y0157778D01*
X0263948Y0157709D01*
X0263943Y0157640D01*
X0263933Y0157571D01*
X0263920Y0157503D01*
X0263903Y0157436D01*
X0263883Y0157370D01*
X0263859Y0157305D01*
X0263832Y0157241D01*
X0263801Y0157179D01*
X0263767Y0157119D01*
X0263730Y0157061D01*
X0263689Y0157005D01*
X0263646Y0156951D01*
X0263600Y0156899D01*
X0263551Y0156850D01*
X0263499Y0156804D01*
X0263445Y0156761D01*
X0263389Y0156720D01*
X0263331Y0156683D01*
X0263271Y0156649D01*
X0263209Y0156618D01*
X0263145Y0156591D01*
X0263080Y0156567D01*
X0263014Y0156547D01*
X0262947Y0156530D01*
X0262879Y0156517D01*
X0262810Y0156507D01*
X0262741Y0156502D01*
X0262672Y0156500D01*
X0261394Y0156500D01*
X0261394Y0161100D01*
X0262672Y0161100D01*
X0262741Y0161098D01*
X0262810Y0161093D01*
X0262879Y0161083D01*
X0262947Y0161070D01*
X0263014Y0161053D01*
X0263080Y0161033D01*
X0263145Y0161009D01*
X0263209Y0160982D01*
X0263271Y0160951D01*
X0263331Y0160917D01*
X0263389Y0160880D01*
X0263445Y0160839D01*
X0263499Y0160796D01*
X0263551Y0160750D01*
X0263600Y0160701D01*
X0263646Y0160649D01*
X0263689Y0160595D01*
X0263730Y0160539D01*
X0263767Y0160481D01*
X0263801Y0160421D01*
X0263832Y0160359D01*
X0263859Y0160295D01*
X0263883Y0160230D01*
X0263903Y0160164D01*
X0263920Y0160097D01*
X0263933Y0160029D01*
X0263943Y0159960D01*
X0263948Y0159891D01*
X0263950Y0159822D01*
X0259548Y0161100D02*
X0257503Y0161100D01*
X0257503Y0156500D01*
X0259548Y0156500D01*
X0259037Y0159056D02*
X0257503Y0159056D01*
X0255648Y0156500D02*
X0253603Y0156500D01*
X0253603Y0161100D01*
X0259073Y0166500D02*
X0259073Y0171100D01*
X0260351Y0171100D01*
X0260421Y0171098D01*
X0260492Y0171092D01*
X0260561Y0171083D01*
X0260630Y0171069D01*
X0260699Y0171052D01*
X0260766Y0171031D01*
X0260832Y0171006D01*
X0260896Y0170978D01*
X0260959Y0170946D01*
X0261020Y0170911D01*
X0261079Y0170872D01*
X0261136Y0170831D01*
X0261190Y0170786D01*
X0261242Y0170738D01*
X0261291Y0170688D01*
X0261338Y0170634D01*
X0261381Y0170579D01*
X0261421Y0170521D01*
X0261458Y0170461D01*
X0261491Y0170399D01*
X0261521Y0170335D01*
X0261548Y0170270D01*
X0261571Y0170204D01*
X0261590Y0170136D01*
X0261605Y0170067D01*
X0261617Y0169998D01*
X0261625Y0169928D01*
X0261629Y0169857D01*
X0261629Y0169787D01*
X0261625Y0169716D01*
X0261617Y0169646D01*
X0261605Y0169577D01*
X0261590Y0169508D01*
X0261571Y0169440D01*
X0261548Y0169374D01*
X0261521Y0169309D01*
X0261491Y0169245D01*
X0261458Y0169183D01*
X0261421Y0169123D01*
X0261381Y0169065D01*
X0261338Y0169010D01*
X0261291Y0168956D01*
X0261242Y0168906D01*
X0261190Y0168858D01*
X0261136Y0168813D01*
X0261079Y0168772D01*
X0261020Y0168733D01*
X0260959Y0168698D01*
X0260896Y0168666D01*
X0260832Y0168638D01*
X0260766Y0168613D01*
X0260699Y0168592D01*
X0260630Y0168575D01*
X0260561Y0168561D01*
X0260492Y0168552D01*
X0260421Y0168546D01*
X0260351Y0168544D01*
X0259073Y0168544D01*
X0260607Y0168544D02*
X0261629Y0166500D01*
X0261635Y0164332D02*
X0261708Y0164255D01*
X0261783Y0164180D01*
X0261861Y0164109D01*
X0261942Y0164040D01*
X0262025Y0163974D01*
X0262110Y0163911D01*
X0262198Y0163852D01*
X0262287Y0163795D01*
X0262379Y0163742D01*
X0262473Y0163692D01*
X0262568Y0163646D01*
X0262665Y0163603D01*
X0262763Y0163564D01*
X0262863Y0163528D01*
X0262964Y0163496D01*
X0263066Y0163468D01*
X0263169Y0163443D01*
X0263273Y0163422D01*
X0263378Y0163405D01*
X0263483Y0163391D01*
X0263588Y0163382D01*
X0263694Y0163376D01*
X0263800Y0163374D01*
X0263906Y0163376D01*
X0264012Y0163382D01*
X0264117Y0163391D01*
X0264222Y0163405D01*
X0264327Y0163422D01*
X0264431Y0163443D01*
X0264534Y0163468D01*
X0264636Y0163496D01*
X0264737Y0163528D01*
X0264837Y0163564D01*
X0264935Y0163603D01*
X0265032Y0163646D01*
X0265127Y0163692D01*
X0265221Y0163742D01*
X0265313Y0163795D01*
X0265402Y0163852D01*
X0265490Y0163911D01*
X0265575Y0163974D01*
X0265658Y0164040D01*
X0265739Y0164109D01*
X0265817Y0164180D01*
X0265892Y0164255D01*
X0265965Y0164332D01*
X0265965Y0168268D02*
X0265892Y0168345D01*
X0265817Y0168420D01*
X0265739Y0168491D01*
X0265658Y0168560D01*
X0265575Y0168626D01*
X0265490Y0168689D01*
X0265402Y0168748D01*
X0265313Y0168805D01*
X0265221Y0168858D01*
X0265127Y0168908D01*
X0265032Y0168954D01*
X0264935Y0168997D01*
X0264837Y0169036D01*
X0264737Y0169072D01*
X0264636Y0169104D01*
X0264534Y0169132D01*
X0264431Y0169157D01*
X0264327Y0169178D01*
X0264222Y0169195D01*
X0264117Y0169209D01*
X0264012Y0169218D01*
X0263906Y0169224D01*
X0263800Y0169226D01*
X0263694Y0169224D01*
X0263588Y0169218D01*
X0263483Y0169209D01*
X0263378Y0169195D01*
X0263273Y0169178D01*
X0263169Y0169157D01*
X0263066Y0169132D01*
X0262964Y0169104D01*
X0262863Y0169072D01*
X0262763Y0169036D01*
X0262665Y0168997D01*
X0262568Y0168954D01*
X0262473Y0168908D01*
X0262379Y0168858D01*
X0262287Y0168805D01*
X0262198Y0168748D01*
X0262110Y0168689D01*
X0262025Y0168626D01*
X0261942Y0168560D01*
X0261861Y0168491D01*
X0261783Y0168420D01*
X0261708Y0168345D01*
X0261635Y0168268D01*
X0263544Y0169567D02*
X0263544Y0169822D01*
X0263545Y0169567D02*
X0263547Y0169505D01*
X0263552Y0169444D01*
X0263562Y0169383D01*
X0263575Y0169322D01*
X0263591Y0169263D01*
X0263611Y0169205D01*
X0263635Y0169148D01*
X0263662Y0169092D01*
X0263692Y0169038D01*
X0263726Y0168986D01*
X0263762Y0168937D01*
X0263802Y0168889D01*
X0263844Y0168844D01*
X0263889Y0168802D01*
X0263937Y0168762D01*
X0263986Y0168726D01*
X0264038Y0168692D01*
X0264092Y0168662D01*
X0264148Y0168635D01*
X0264205Y0168611D01*
X0264263Y0168591D01*
X0264322Y0168575D01*
X0264383Y0168562D01*
X0264444Y0168552D01*
X0264505Y0168547D01*
X0264567Y0168545D01*
X0264567Y0168544D02*
X0266100Y0168544D01*
X0266100Y0169822D01*
X0266098Y0169892D01*
X0266092Y0169963D01*
X0266083Y0170032D01*
X0266069Y0170101D01*
X0266052Y0170170D01*
X0266031Y0170237D01*
X0266006Y0170303D01*
X0265978Y0170367D01*
X0265946Y0170430D01*
X0265911Y0170491D01*
X0265872Y0170550D01*
X0265831Y0170607D01*
X0265786Y0170661D01*
X0265738Y0170713D01*
X0265688Y0170762D01*
X0265634Y0170809D01*
X0265579Y0170852D01*
X0265521Y0170892D01*
X0265461Y0170929D01*
X0265399Y0170962D01*
X0265335Y0170992D01*
X0265270Y0171019D01*
X0265204Y0171042D01*
X0265136Y0171061D01*
X0265067Y0171076D01*
X0264998Y0171088D01*
X0264928Y0171096D01*
X0264857Y0171100D01*
X0264787Y0171100D01*
X0264716Y0171096D01*
X0264646Y0171088D01*
X0264577Y0171076D01*
X0264508Y0171061D01*
X0264440Y0171042D01*
X0264374Y0171019D01*
X0264309Y0170992D01*
X0264245Y0170962D01*
X0264183Y0170929D01*
X0264123Y0170892D01*
X0264065Y0170852D01*
X0264010Y0170809D01*
X0263956Y0170762D01*
X0263906Y0170713D01*
X0263858Y0170661D01*
X0263813Y0170607D01*
X0263772Y0170550D01*
X0263733Y0170491D01*
X0263698Y0170430D01*
X0263666Y0170367D01*
X0263638Y0170303D01*
X0263613Y0170237D01*
X0263592Y0170170D01*
X0263575Y0170101D01*
X0263561Y0170032D01*
X0263552Y0169963D01*
X0263546Y0169892D01*
X0263544Y0169822D01*
X0266100Y0168544D02*
X0266098Y0168455D01*
X0266092Y0168366D01*
X0266083Y0168277D01*
X0266069Y0168189D01*
X0266052Y0168102D01*
X0266030Y0168015D01*
X0266005Y0167929D01*
X0265977Y0167845D01*
X0265944Y0167762D01*
X0265908Y0167680D01*
X0265869Y0167600D01*
X0265826Y0167522D01*
X0265780Y0167446D01*
X0265730Y0167372D01*
X0265678Y0167300D01*
X0265622Y0167230D01*
X0265563Y0167163D01*
X0265501Y0167099D01*
X0265437Y0167037D01*
X0265370Y0166978D01*
X0265300Y0166922D01*
X0265228Y0166870D01*
X0265154Y0166820D01*
X0265078Y0166774D01*
X0265000Y0166731D01*
X0264920Y0166692D01*
X0264838Y0166656D01*
X0264755Y0166623D01*
X0264671Y0166595D01*
X0264585Y0166570D01*
X0264498Y0166548D01*
X0264411Y0166531D01*
X0264323Y0166517D01*
X0264234Y0166508D01*
X0264145Y0166502D01*
X0264056Y0166500D01*
X0235319Y0175022D02*
X0232763Y0175022D01*
X0233785Y0178600D01*
X0234552Y0176044D02*
X0234552Y0174000D01*
X0231044Y0174000D02*
X0230022Y0174000D01*
X0229960Y0174002D01*
X0229899Y0174007D01*
X0229838Y0174017D01*
X0229777Y0174030D01*
X0229718Y0174046D01*
X0229660Y0174066D01*
X0229603Y0174090D01*
X0229547Y0174117D01*
X0229493Y0174147D01*
X0229441Y0174181D01*
X0229392Y0174217D01*
X0229344Y0174257D01*
X0229299Y0174299D01*
X0229257Y0174344D01*
X0229217Y0174392D01*
X0229181Y0174441D01*
X0229147Y0174493D01*
X0229117Y0174547D01*
X0229090Y0174603D01*
X0229066Y0174660D01*
X0229046Y0174718D01*
X0229030Y0174777D01*
X0229017Y0174838D01*
X0229007Y0174899D01*
X0229002Y0174960D01*
X0229000Y0175022D01*
X0229000Y0177578D01*
X0229002Y0177640D01*
X0229007Y0177701D01*
X0229017Y0177762D01*
X0229030Y0177823D01*
X0229046Y0177882D01*
X0229066Y0177940D01*
X0229090Y0177997D01*
X0229117Y0178053D01*
X0229147Y0178107D01*
X0229181Y0178159D01*
X0229217Y0178208D01*
X0229257Y0178256D01*
X0229299Y0178301D01*
X0229344Y0178343D01*
X0229392Y0178382D01*
X0229441Y0178419D01*
X0229493Y0178453D01*
X0229547Y0178483D01*
X0229603Y0178510D01*
X0229660Y0178534D01*
X0229718Y0178554D01*
X0229777Y0178570D01*
X0229838Y0178583D01*
X0229899Y0178593D01*
X0229960Y0178598D01*
X0230022Y0178600D01*
X0231044Y0178600D01*
X0231519Y0189000D02*
X0231519Y0193600D01*
X0230241Y0192578D01*
X0230241Y0189000D02*
X0232797Y0189000D01*
X0228544Y0189000D02*
X0226500Y0189000D01*
X0226500Y0193600D01*
X0195606Y0211500D02*
X0195350Y0211500D01*
X0195350Y0211756D01*
X0195606Y0211756D01*
X0195606Y0211500D01*
X0192778Y0211500D02*
X0193800Y0214567D01*
X0191756Y0214567D02*
X0192778Y0211500D01*
X0189900Y0211500D02*
X0189900Y0213800D01*
X0189898Y0213855D01*
X0189892Y0213909D01*
X0189882Y0213963D01*
X0189869Y0214016D01*
X0189852Y0214068D01*
X0189831Y0214119D01*
X0189806Y0214168D01*
X0189778Y0214215D01*
X0189747Y0214260D01*
X0189713Y0214302D01*
X0189675Y0214342D01*
X0189635Y0214380D01*
X0189593Y0214414D01*
X0189548Y0214445D01*
X0189501Y0214473D01*
X0189452Y0214498D01*
X0189401Y0214519D01*
X0189349Y0214536D01*
X0189296Y0214549D01*
X0189242Y0214559D01*
X0189188Y0214565D01*
X0189133Y0214567D01*
X0187856Y0214567D01*
X0187856Y0211500D01*
X0185850Y0212522D02*
X0185850Y0213544D01*
X0185848Y0213607D01*
X0185842Y0213670D01*
X0185833Y0213732D01*
X0185819Y0213793D01*
X0185802Y0213854D01*
X0185781Y0213913D01*
X0185756Y0213971D01*
X0185728Y0214028D01*
X0185697Y0214082D01*
X0185662Y0214134D01*
X0185624Y0214185D01*
X0185583Y0214233D01*
X0185539Y0214278D01*
X0185493Y0214320D01*
X0185444Y0214360D01*
X0185393Y0214396D01*
X0185339Y0214429D01*
X0185284Y0214459D01*
X0185226Y0214485D01*
X0185168Y0214508D01*
X0185108Y0214527D01*
X0185047Y0214542D01*
X0184985Y0214554D01*
X0184922Y0214562D01*
X0184859Y0214566D01*
X0184797Y0214566D01*
X0184734Y0214562D01*
X0184671Y0214554D01*
X0184609Y0214542D01*
X0184548Y0214527D01*
X0184488Y0214508D01*
X0184430Y0214485D01*
X0184372Y0214459D01*
X0184317Y0214429D01*
X0184263Y0214396D01*
X0184212Y0214360D01*
X0184163Y0214320D01*
X0184117Y0214278D01*
X0184073Y0214233D01*
X0184032Y0214185D01*
X0183994Y0214134D01*
X0183959Y0214082D01*
X0183928Y0214028D01*
X0183900Y0213971D01*
X0183875Y0213913D01*
X0183854Y0213854D01*
X0183837Y0213793D01*
X0183823Y0213732D01*
X0183814Y0213670D01*
X0183808Y0213607D01*
X0183806Y0213544D01*
X0183806Y0212522D01*
X0183808Y0212459D01*
X0183814Y0212396D01*
X0183823Y0212334D01*
X0183837Y0212273D01*
X0183854Y0212212D01*
X0183875Y0212153D01*
X0183900Y0212095D01*
X0183928Y0212038D01*
X0183959Y0211984D01*
X0183994Y0211932D01*
X0184032Y0211881D01*
X0184073Y0211833D01*
X0184117Y0211788D01*
X0184163Y0211746D01*
X0184212Y0211706D01*
X0184263Y0211670D01*
X0184317Y0211637D01*
X0184372Y0211607D01*
X0184430Y0211581D01*
X0184488Y0211558D01*
X0184548Y0211539D01*
X0184609Y0211524D01*
X0184671Y0211512D01*
X0184734Y0211504D01*
X0184797Y0211500D01*
X0184859Y0211500D01*
X0184922Y0211504D01*
X0184985Y0211512D01*
X0185047Y0211524D01*
X0185108Y0211539D01*
X0185168Y0211558D01*
X0185226Y0211581D01*
X0185284Y0211607D01*
X0185339Y0211637D01*
X0185393Y0211670D01*
X0185444Y0211706D01*
X0185493Y0211746D01*
X0185539Y0211788D01*
X0185583Y0211833D01*
X0185624Y0211881D01*
X0185662Y0211932D01*
X0185697Y0211984D01*
X0185728Y0212038D01*
X0185756Y0212095D01*
X0185781Y0212153D01*
X0185802Y0212212D01*
X0185819Y0212273D01*
X0185833Y0212334D01*
X0185842Y0212396D01*
X0185848Y0212459D01*
X0185850Y0212522D01*
X0182150Y0211500D02*
X0181127Y0211500D01*
X0181072Y0211502D01*
X0181018Y0211508D01*
X0180964Y0211518D01*
X0180911Y0211531D01*
X0180859Y0211548D01*
X0180808Y0211569D01*
X0180759Y0211594D01*
X0180712Y0211622D01*
X0180667Y0211653D01*
X0180625Y0211687D01*
X0180585Y0211725D01*
X0180547Y0211765D01*
X0180513Y0211807D01*
X0180482Y0211852D01*
X0180454Y0211899D01*
X0180429Y0211948D01*
X0180408Y0211999D01*
X0180391Y0212051D01*
X0180378Y0212104D01*
X0180368Y0212158D01*
X0180362Y0212212D01*
X0180360Y0212267D01*
X0180361Y0212267D02*
X0180361Y0213800D01*
X0180360Y0213800D02*
X0180362Y0213855D01*
X0180368Y0213909D01*
X0180378Y0213963D01*
X0180391Y0214016D01*
X0180408Y0214068D01*
X0180429Y0214119D01*
X0180454Y0214168D01*
X0180482Y0214215D01*
X0180513Y0214260D01*
X0180547Y0214302D01*
X0180585Y0214342D01*
X0180625Y0214380D01*
X0180667Y0214414D01*
X0180712Y0214445D01*
X0180759Y0214473D01*
X0180808Y0214498D01*
X0180859Y0214519D01*
X0180911Y0214536D01*
X0180964Y0214549D01*
X0181018Y0214559D01*
X0181072Y0214565D01*
X0181127Y0214567D01*
X0182150Y0214567D01*
X0186756Y0219000D02*
X0188033Y0219000D01*
X0188033Y0222067D01*
X0185989Y0222067D02*
X0185989Y0219767D01*
X0185991Y0219712D01*
X0185997Y0219658D01*
X0186007Y0219604D01*
X0186020Y0219551D01*
X0186037Y0219499D01*
X0186058Y0219448D01*
X0186083Y0219399D01*
X0186111Y0219352D01*
X0186142Y0219307D01*
X0186176Y0219265D01*
X0186214Y0219225D01*
X0186254Y0219187D01*
X0186296Y0219153D01*
X0186341Y0219122D01*
X0186388Y0219094D01*
X0186437Y0219069D01*
X0186488Y0219048D01*
X0186540Y0219031D01*
X0186593Y0219018D01*
X0186647Y0219008D01*
X0186701Y0219002D01*
X0186756Y0219000D01*
X0184264Y0219000D02*
X0184209Y0219002D01*
X0184155Y0219008D01*
X0184101Y0219018D01*
X0184048Y0219031D01*
X0183996Y0219048D01*
X0183945Y0219069D01*
X0183896Y0219094D01*
X0183849Y0219122D01*
X0183804Y0219153D01*
X0183762Y0219187D01*
X0183722Y0219225D01*
X0183684Y0219265D01*
X0183650Y0219307D01*
X0183619Y0219352D01*
X0183591Y0219399D01*
X0183566Y0219448D01*
X0183545Y0219499D01*
X0183528Y0219551D01*
X0183515Y0219604D01*
X0183505Y0219658D01*
X0183499Y0219712D01*
X0183497Y0219767D01*
X0183498Y0219767D02*
X0183498Y0223600D01*
X0181583Y0221044D02*
X0181583Y0220022D01*
X0181581Y0219959D01*
X0181575Y0219896D01*
X0181566Y0219834D01*
X0181552Y0219773D01*
X0181535Y0219712D01*
X0181514Y0219653D01*
X0181489Y0219595D01*
X0181461Y0219538D01*
X0181430Y0219484D01*
X0181395Y0219432D01*
X0181357Y0219381D01*
X0181316Y0219333D01*
X0181272Y0219288D01*
X0181226Y0219246D01*
X0181177Y0219206D01*
X0181126Y0219170D01*
X0181072Y0219137D01*
X0181017Y0219107D01*
X0180959Y0219081D01*
X0180901Y0219058D01*
X0180841Y0219039D01*
X0180780Y0219024D01*
X0180718Y0219012D01*
X0180655Y0219004D01*
X0180592Y0219000D01*
X0180530Y0219000D01*
X0180467Y0219004D01*
X0180404Y0219012D01*
X0180342Y0219024D01*
X0180281Y0219039D01*
X0180221Y0219058D01*
X0180163Y0219081D01*
X0180105Y0219107D01*
X0180050Y0219137D01*
X0179996Y0219170D01*
X0179945Y0219206D01*
X0179896Y0219246D01*
X0179850Y0219288D01*
X0179806Y0219333D01*
X0179765Y0219381D01*
X0179727Y0219432D01*
X0179692Y0219484D01*
X0179661Y0219538D01*
X0179633Y0219595D01*
X0179608Y0219653D01*
X0179587Y0219712D01*
X0179570Y0219773D01*
X0179556Y0219834D01*
X0179547Y0219896D01*
X0179541Y0219959D01*
X0179539Y0220022D01*
X0179539Y0221044D01*
X0179541Y0221107D01*
X0179547Y0221170D01*
X0179556Y0221232D01*
X0179570Y0221293D01*
X0179587Y0221354D01*
X0179608Y0221413D01*
X0179633Y0221471D01*
X0179661Y0221528D01*
X0179692Y0221582D01*
X0179727Y0221634D01*
X0179765Y0221685D01*
X0179806Y0221733D01*
X0179850Y0221778D01*
X0179896Y0221820D01*
X0179945Y0221860D01*
X0179996Y0221896D01*
X0180050Y0221929D01*
X0180105Y0221959D01*
X0180163Y0221985D01*
X0180221Y0222008D01*
X0180281Y0222027D01*
X0180342Y0222042D01*
X0180404Y0222054D01*
X0180467Y0222062D01*
X0180530Y0222066D01*
X0180592Y0222066D01*
X0180655Y0222062D01*
X0180718Y0222054D01*
X0180780Y0222042D01*
X0180841Y0222027D01*
X0180901Y0222008D01*
X0180959Y0221985D01*
X0181017Y0221959D01*
X0181072Y0221929D01*
X0181126Y0221896D01*
X0181177Y0221860D01*
X0181226Y0221820D01*
X0181272Y0221778D01*
X0181316Y0221733D01*
X0181357Y0221685D01*
X0181395Y0221634D01*
X0181430Y0221582D01*
X0181461Y0221528D01*
X0181489Y0221471D01*
X0181514Y0221413D01*
X0181535Y0221354D01*
X0181552Y0221293D01*
X0181566Y0221232D01*
X0181575Y0221170D01*
X0181581Y0221107D01*
X0181583Y0221044D01*
X0177964Y0219000D02*
X0177909Y0219002D01*
X0177855Y0219008D01*
X0177801Y0219018D01*
X0177748Y0219031D01*
X0177696Y0219048D01*
X0177645Y0219069D01*
X0177596Y0219094D01*
X0177549Y0219122D01*
X0177504Y0219153D01*
X0177462Y0219187D01*
X0177422Y0219225D01*
X0177384Y0219265D01*
X0177350Y0219307D01*
X0177319Y0219352D01*
X0177291Y0219399D01*
X0177266Y0219448D01*
X0177245Y0219499D01*
X0177228Y0219551D01*
X0177215Y0219604D01*
X0177205Y0219658D01*
X0177199Y0219712D01*
X0177197Y0219767D01*
X0177198Y0219767D02*
X0177198Y0223600D01*
X0175283Y0221044D02*
X0175283Y0220022D01*
X0175281Y0219959D01*
X0175275Y0219896D01*
X0175266Y0219834D01*
X0175252Y0219773D01*
X0175235Y0219712D01*
X0175214Y0219653D01*
X0175189Y0219595D01*
X0175161Y0219538D01*
X0175130Y0219484D01*
X0175095Y0219432D01*
X0175057Y0219381D01*
X0175016Y0219333D01*
X0174972Y0219288D01*
X0174926Y0219246D01*
X0174877Y0219206D01*
X0174826Y0219170D01*
X0174772Y0219137D01*
X0174717Y0219107D01*
X0174659Y0219081D01*
X0174601Y0219058D01*
X0174541Y0219039D01*
X0174480Y0219024D01*
X0174418Y0219012D01*
X0174355Y0219004D01*
X0174292Y0219000D01*
X0174230Y0219000D01*
X0174167Y0219004D01*
X0174104Y0219012D01*
X0174042Y0219024D01*
X0173981Y0219039D01*
X0173921Y0219058D01*
X0173863Y0219081D01*
X0173805Y0219107D01*
X0173750Y0219137D01*
X0173696Y0219170D01*
X0173645Y0219206D01*
X0173596Y0219246D01*
X0173550Y0219288D01*
X0173506Y0219333D01*
X0173465Y0219381D01*
X0173427Y0219432D01*
X0173392Y0219484D01*
X0173361Y0219538D01*
X0173333Y0219595D01*
X0173308Y0219653D01*
X0173287Y0219712D01*
X0173270Y0219773D01*
X0173256Y0219834D01*
X0173247Y0219896D01*
X0173241Y0219959D01*
X0173239Y0220022D01*
X0173239Y0221044D01*
X0173241Y0221107D01*
X0173247Y0221170D01*
X0173256Y0221232D01*
X0173270Y0221293D01*
X0173287Y0221354D01*
X0173308Y0221413D01*
X0173333Y0221471D01*
X0173361Y0221528D01*
X0173392Y0221582D01*
X0173427Y0221634D01*
X0173465Y0221685D01*
X0173506Y0221733D01*
X0173550Y0221778D01*
X0173596Y0221820D01*
X0173645Y0221860D01*
X0173696Y0221896D01*
X0173750Y0221929D01*
X0173805Y0221959D01*
X0173863Y0221985D01*
X0173921Y0222008D01*
X0173981Y0222027D01*
X0174042Y0222042D01*
X0174104Y0222054D01*
X0174167Y0222062D01*
X0174230Y0222066D01*
X0174292Y0222066D01*
X0174355Y0222062D01*
X0174418Y0222054D01*
X0174480Y0222042D01*
X0174541Y0222027D01*
X0174601Y0222008D01*
X0174659Y0221985D01*
X0174717Y0221959D01*
X0174772Y0221929D01*
X0174826Y0221896D01*
X0174877Y0221860D01*
X0174926Y0221820D01*
X0174972Y0221778D01*
X0175016Y0221733D01*
X0175057Y0221685D01*
X0175095Y0221634D01*
X0175130Y0221582D01*
X0175161Y0221528D01*
X0175189Y0221471D01*
X0175214Y0221413D01*
X0175235Y0221354D01*
X0175252Y0221293D01*
X0175266Y0221232D01*
X0175275Y0221170D01*
X0175281Y0221107D01*
X0175283Y0221044D01*
X0170278Y0221044D02*
X0169000Y0221044D01*
X0170278Y0221044D02*
X0170348Y0221046D01*
X0170419Y0221052D01*
X0170488Y0221061D01*
X0170557Y0221075D01*
X0170626Y0221092D01*
X0170693Y0221113D01*
X0170759Y0221138D01*
X0170823Y0221166D01*
X0170886Y0221198D01*
X0170947Y0221233D01*
X0171006Y0221272D01*
X0171063Y0221313D01*
X0171117Y0221358D01*
X0171169Y0221406D01*
X0171218Y0221456D01*
X0171265Y0221510D01*
X0171308Y0221565D01*
X0171348Y0221623D01*
X0171385Y0221683D01*
X0171418Y0221745D01*
X0171448Y0221809D01*
X0171475Y0221874D01*
X0171498Y0221940D01*
X0171517Y0222008D01*
X0171532Y0222077D01*
X0171544Y0222146D01*
X0171552Y0222216D01*
X0171556Y0222287D01*
X0171556Y0222357D01*
X0171552Y0222428D01*
X0171544Y0222498D01*
X0171532Y0222567D01*
X0171517Y0222636D01*
X0171498Y0222704D01*
X0171475Y0222770D01*
X0171448Y0222835D01*
X0171418Y0222899D01*
X0171385Y0222961D01*
X0171348Y0223021D01*
X0171308Y0223079D01*
X0171265Y0223134D01*
X0171218Y0223188D01*
X0171169Y0223238D01*
X0171117Y0223286D01*
X0171063Y0223331D01*
X0171006Y0223372D01*
X0170947Y0223411D01*
X0170886Y0223446D01*
X0170823Y0223478D01*
X0170759Y0223506D01*
X0170693Y0223531D01*
X0170626Y0223552D01*
X0170557Y0223569D01*
X0170488Y0223583D01*
X0170419Y0223592D01*
X0170348Y0223598D01*
X0170278Y0223600D01*
X0169000Y0223600D01*
X0169000Y0219000D01*
X0169000Y0216100D02*
X0171556Y0216100D01*
X0173244Y0216100D02*
X0174778Y0211500D01*
X0176311Y0216100D01*
X0171556Y0213033D02*
X0171556Y0212522D01*
X0171555Y0212522D02*
X0171553Y0212460D01*
X0171548Y0212399D01*
X0171538Y0212338D01*
X0171525Y0212277D01*
X0171509Y0212218D01*
X0171489Y0212160D01*
X0171465Y0212103D01*
X0171438Y0212047D01*
X0171408Y0211993D01*
X0171374Y0211941D01*
X0171338Y0211892D01*
X0171298Y0211844D01*
X0171256Y0211799D01*
X0171211Y0211757D01*
X0171163Y0211717D01*
X0171114Y0211681D01*
X0171062Y0211647D01*
X0171008Y0211617D01*
X0170952Y0211590D01*
X0170895Y0211566D01*
X0170837Y0211546D01*
X0170778Y0211530D01*
X0170717Y0211517D01*
X0170656Y0211507D01*
X0170595Y0211502D01*
X0170533Y0211500D01*
X0169000Y0211500D01*
X0171555Y0213033D02*
X0171553Y0213095D01*
X0171548Y0213156D01*
X0171538Y0213217D01*
X0171525Y0213278D01*
X0171509Y0213337D01*
X0171489Y0213395D01*
X0171465Y0213452D01*
X0171438Y0213508D01*
X0171408Y0213562D01*
X0171374Y0213614D01*
X0171338Y0213663D01*
X0171298Y0213711D01*
X0171256Y0213756D01*
X0171211Y0213798D01*
X0171163Y0213838D01*
X0171114Y0213874D01*
X0171062Y0213908D01*
X0171008Y0213938D01*
X0170952Y0213965D01*
X0170895Y0213989D01*
X0170837Y0214009D01*
X0170778Y0214025D01*
X0170717Y0214038D01*
X0170656Y0214048D01*
X0170595Y0214053D01*
X0170533Y0214055D01*
X0170533Y0214056D02*
X0169000Y0214056D01*
X0169000Y0216100D01*
X0168544Y0200078D02*
X0168544Y0199056D01*
X0168544Y0200078D02*
X0168542Y0200141D01*
X0168536Y0200204D01*
X0168527Y0200266D01*
X0168513Y0200327D01*
X0168496Y0200388D01*
X0168475Y0200447D01*
X0168450Y0200505D01*
X0168422Y0200562D01*
X0168391Y0200616D01*
X0168356Y0200668D01*
X0168318Y0200719D01*
X0168277Y0200767D01*
X0168233Y0200812D01*
X0168187Y0200854D01*
X0168138Y0200894D01*
X0168087Y0200930D01*
X0168033Y0200963D01*
X0167978Y0200993D01*
X0167920Y0201019D01*
X0167862Y0201042D01*
X0167802Y0201061D01*
X0167741Y0201076D01*
X0167679Y0201088D01*
X0167616Y0201096D01*
X0167553Y0201100D01*
X0167491Y0201100D01*
X0167428Y0201096D01*
X0167365Y0201088D01*
X0167303Y0201076D01*
X0167242Y0201061D01*
X0167182Y0201042D01*
X0167124Y0201019D01*
X0167066Y0200993D01*
X0167011Y0200963D01*
X0166957Y0200930D01*
X0166906Y0200894D01*
X0166857Y0200854D01*
X0166811Y0200812D01*
X0166767Y0200767D01*
X0166726Y0200719D01*
X0166688Y0200668D01*
X0166653Y0200616D01*
X0166622Y0200562D01*
X0166594Y0200505D01*
X0166569Y0200447D01*
X0166548Y0200388D01*
X0166531Y0200327D01*
X0166517Y0200266D01*
X0166508Y0200204D01*
X0166502Y0200141D01*
X0166500Y0200078D01*
X0166500Y0198544D01*
X0166500Y0196826D02*
X0166500Y0195804D01*
X0166502Y0195742D01*
X0166507Y0195681D01*
X0166517Y0195620D01*
X0166530Y0195559D01*
X0166546Y0195500D01*
X0166566Y0195442D01*
X0166590Y0195385D01*
X0166617Y0195329D01*
X0166647Y0195275D01*
X0166681Y0195223D01*
X0166718Y0195174D01*
X0166757Y0195126D01*
X0166799Y0195081D01*
X0166844Y0195039D01*
X0166892Y0194999D01*
X0166941Y0194963D01*
X0166993Y0194929D01*
X0167047Y0194899D01*
X0167103Y0194872D01*
X0167160Y0194848D01*
X0167218Y0194828D01*
X0167277Y0194812D01*
X0167338Y0194799D01*
X0167399Y0194789D01*
X0167460Y0194784D01*
X0167522Y0194782D01*
X0167522Y0194781D02*
X0170078Y0194781D01*
X0170078Y0194782D02*
X0170140Y0194784D01*
X0170201Y0194789D01*
X0170262Y0194799D01*
X0170323Y0194812D01*
X0170382Y0194828D01*
X0170440Y0194848D01*
X0170497Y0194872D01*
X0170553Y0194899D01*
X0170607Y0194929D01*
X0170659Y0194963D01*
X0170708Y0194999D01*
X0170756Y0195039D01*
X0170801Y0195081D01*
X0170843Y0195126D01*
X0170883Y0195174D01*
X0170919Y0195223D01*
X0170953Y0195275D01*
X0170983Y0195329D01*
X0171010Y0195385D01*
X0171034Y0195442D01*
X0171054Y0195500D01*
X0171070Y0195559D01*
X0171083Y0195620D01*
X0171093Y0195681D01*
X0171098Y0195742D01*
X0171100Y0195804D01*
X0171100Y0196826D01*
X0171100Y0198544D02*
X0171100Y0199822D01*
X0171098Y0199892D01*
X0171092Y0199963D01*
X0171083Y0200032D01*
X0171069Y0200101D01*
X0171052Y0200170D01*
X0171031Y0200237D01*
X0171006Y0200303D01*
X0170978Y0200367D01*
X0170946Y0200430D01*
X0170911Y0200491D01*
X0170872Y0200550D01*
X0170831Y0200607D01*
X0170786Y0200661D01*
X0170738Y0200713D01*
X0170688Y0200762D01*
X0170634Y0200809D01*
X0170579Y0200852D01*
X0170521Y0200892D01*
X0170461Y0200929D01*
X0170399Y0200962D01*
X0170335Y0200992D01*
X0170270Y0201019D01*
X0170204Y0201042D01*
X0170136Y0201061D01*
X0170067Y0201076D01*
X0169998Y0201088D01*
X0169928Y0201096D01*
X0169857Y0201100D01*
X0169787Y0201100D01*
X0169716Y0201096D01*
X0169646Y0201088D01*
X0169577Y0201076D01*
X0169508Y0201061D01*
X0169440Y0201042D01*
X0169374Y0201019D01*
X0169309Y0200992D01*
X0169245Y0200962D01*
X0169183Y0200929D01*
X0169123Y0200892D01*
X0169065Y0200852D01*
X0169010Y0200809D01*
X0168956Y0200762D01*
X0168906Y0200713D01*
X0168858Y0200661D01*
X0168813Y0200607D01*
X0168772Y0200550D01*
X0168733Y0200491D01*
X0168698Y0200430D01*
X0168666Y0200367D01*
X0168638Y0200303D01*
X0168613Y0200237D01*
X0168592Y0200170D01*
X0168575Y0200101D01*
X0168561Y0200032D01*
X0168552Y0199963D01*
X0168546Y0199892D01*
X0168544Y0199822D01*
X0148600Y0203304D02*
X0148600Y0204326D01*
X0148600Y0203304D02*
X0148598Y0203242D01*
X0148593Y0203181D01*
X0148583Y0203120D01*
X0148570Y0203059D01*
X0148554Y0203000D01*
X0148534Y0202942D01*
X0148510Y0202885D01*
X0148483Y0202829D01*
X0148453Y0202775D01*
X0148419Y0202723D01*
X0148383Y0202674D01*
X0148343Y0202626D01*
X0148301Y0202581D01*
X0148256Y0202539D01*
X0148208Y0202499D01*
X0148159Y0202463D01*
X0148107Y0202429D01*
X0148053Y0202399D01*
X0147997Y0202372D01*
X0147940Y0202348D01*
X0147882Y0202328D01*
X0147823Y0202312D01*
X0147762Y0202299D01*
X0147701Y0202289D01*
X0147640Y0202284D01*
X0147578Y0202282D01*
X0147578Y0202281D02*
X0145022Y0202281D01*
X0145022Y0202282D02*
X0144960Y0202284D01*
X0144899Y0202289D01*
X0144838Y0202299D01*
X0144777Y0202312D01*
X0144718Y0202328D01*
X0144660Y0202348D01*
X0144603Y0202372D01*
X0144547Y0202399D01*
X0144493Y0202429D01*
X0144441Y0202463D01*
X0144392Y0202499D01*
X0144344Y0202539D01*
X0144299Y0202581D01*
X0144257Y0202626D01*
X0144218Y0202674D01*
X0144181Y0202723D01*
X0144147Y0202775D01*
X0144117Y0202829D01*
X0144090Y0202885D01*
X0144066Y0202942D01*
X0144046Y0203000D01*
X0144030Y0203059D01*
X0144017Y0203120D01*
X0144007Y0203181D01*
X0144002Y0203242D01*
X0144000Y0203304D01*
X0144000Y0204326D01*
X0146044Y0208217D02*
X0145997Y0208264D01*
X0145947Y0208308D01*
X0145895Y0208350D01*
X0145841Y0208389D01*
X0145785Y0208424D01*
X0145727Y0208457D01*
X0145667Y0208487D01*
X0145606Y0208513D01*
X0145543Y0208536D01*
X0145479Y0208555D01*
X0145415Y0208571D01*
X0145349Y0208584D01*
X0145283Y0208593D01*
X0145217Y0208598D01*
X0145150Y0208600D01*
X0146044Y0208217D02*
X0148600Y0206044D01*
X0148600Y0208600D01*
X0145022Y0206045D02*
X0144952Y0206070D01*
X0144883Y0206098D01*
X0144816Y0206129D01*
X0144750Y0206164D01*
X0144687Y0206202D01*
X0144625Y0206244D01*
X0144565Y0206288D01*
X0144508Y0206335D01*
X0144453Y0206385D01*
X0144401Y0206438D01*
X0144351Y0206494D01*
X0144305Y0206551D01*
X0144261Y0206612D01*
X0144220Y0206674D01*
X0144183Y0206738D01*
X0144149Y0206804D01*
X0144118Y0206872D01*
X0144091Y0206941D01*
X0144067Y0207011D01*
X0144046Y0207082D01*
X0144030Y0207155D01*
X0144017Y0207228D01*
X0144007Y0207302D01*
X0144002Y0207376D01*
X0144000Y0207450D01*
X0144002Y0207517D01*
X0144008Y0207584D01*
X0144017Y0207650D01*
X0144031Y0207715D01*
X0144048Y0207780D01*
X0144069Y0207843D01*
X0144094Y0207905D01*
X0144122Y0207966D01*
X0144154Y0208025D01*
X0144189Y0208082D01*
X0144228Y0208137D01*
X0144269Y0208189D01*
X0144314Y0208239D01*
X0144361Y0208286D01*
X0144411Y0208331D01*
X0144463Y0208372D01*
X0144518Y0208411D01*
X0144575Y0208446D01*
X0144634Y0208478D01*
X0144695Y0208506D01*
X0144757Y0208531D01*
X0144820Y0208552D01*
X0144885Y0208569D01*
X0144950Y0208583D01*
X0145016Y0208592D01*
X0145083Y0208598D01*
X0145150Y0208600D01*
X0125610Y0184722D02*
X0125610Y0180122D01*
X0126887Y0180122D02*
X0124332Y0180122D01*
X0122613Y0180122D02*
X0121591Y0180122D01*
X0121529Y0180124D01*
X0121468Y0180129D01*
X0121407Y0180139D01*
X0121346Y0180152D01*
X0121287Y0180168D01*
X0121229Y0180188D01*
X0121172Y0180212D01*
X0121116Y0180239D01*
X0121062Y0180269D01*
X0121010Y0180303D01*
X0120961Y0180339D01*
X0120913Y0180379D01*
X0120868Y0180421D01*
X0120826Y0180466D01*
X0120786Y0180514D01*
X0120750Y0180563D01*
X0120716Y0180615D01*
X0120686Y0180669D01*
X0120659Y0180725D01*
X0120635Y0180782D01*
X0120615Y0180840D01*
X0120599Y0180899D01*
X0120586Y0180960D01*
X0120576Y0181021D01*
X0120571Y0181082D01*
X0120569Y0181144D01*
X0120569Y0183700D01*
X0120571Y0183762D01*
X0120576Y0183823D01*
X0120586Y0183884D01*
X0120599Y0183945D01*
X0120615Y0184004D01*
X0120635Y0184062D01*
X0120659Y0184119D01*
X0120686Y0184175D01*
X0120716Y0184229D01*
X0120750Y0184281D01*
X0120786Y0184330D01*
X0120826Y0184378D01*
X0120868Y0184423D01*
X0120913Y0184465D01*
X0120961Y0184504D01*
X0121010Y0184541D01*
X0121062Y0184575D01*
X0121116Y0184605D01*
X0121172Y0184632D01*
X0121229Y0184656D01*
X0121287Y0184676D01*
X0121346Y0184692D01*
X0121407Y0184705D01*
X0121468Y0184715D01*
X0121529Y0184720D01*
X0121591Y0184722D01*
X0122613Y0184722D01*
X0124332Y0183700D02*
X0125610Y0184722D01*
X0104777Y0178033D02*
X0104777Y0177778D01*
X0104776Y0178033D02*
X0104774Y0178095D01*
X0104769Y0178156D01*
X0104759Y0178217D01*
X0104746Y0178278D01*
X0104730Y0178337D01*
X0104710Y0178395D01*
X0104686Y0178452D01*
X0104659Y0178508D01*
X0104629Y0178562D01*
X0104595Y0178614D01*
X0104559Y0178663D01*
X0104519Y0178711D01*
X0104477Y0178756D01*
X0104432Y0178798D01*
X0104384Y0178838D01*
X0104335Y0178874D01*
X0104283Y0178908D01*
X0104229Y0178938D01*
X0104173Y0178965D01*
X0104116Y0178989D01*
X0104058Y0179009D01*
X0103999Y0179025D01*
X0103938Y0179038D01*
X0103877Y0179048D01*
X0103816Y0179053D01*
X0103754Y0179055D01*
X0103754Y0179056D02*
X0102221Y0179056D01*
X0102221Y0177778D01*
X0102223Y0177708D01*
X0102229Y0177637D01*
X0102238Y0177568D01*
X0102252Y0177499D01*
X0102269Y0177430D01*
X0102290Y0177363D01*
X0102315Y0177297D01*
X0102343Y0177233D01*
X0102375Y0177170D01*
X0102410Y0177109D01*
X0102449Y0177050D01*
X0102490Y0176993D01*
X0102535Y0176939D01*
X0102583Y0176887D01*
X0102633Y0176838D01*
X0102687Y0176791D01*
X0102742Y0176748D01*
X0102800Y0176708D01*
X0102860Y0176671D01*
X0102922Y0176638D01*
X0102986Y0176608D01*
X0103051Y0176581D01*
X0103117Y0176558D01*
X0103185Y0176539D01*
X0103254Y0176524D01*
X0103323Y0176512D01*
X0103393Y0176504D01*
X0103464Y0176500D01*
X0103534Y0176500D01*
X0103605Y0176504D01*
X0103675Y0176512D01*
X0103744Y0176524D01*
X0103813Y0176539D01*
X0103881Y0176558D01*
X0103947Y0176581D01*
X0104012Y0176608D01*
X0104076Y0176638D01*
X0104138Y0176671D01*
X0104198Y0176708D01*
X0104256Y0176748D01*
X0104311Y0176791D01*
X0104365Y0176838D01*
X0104415Y0176887D01*
X0104463Y0176939D01*
X0104508Y0176993D01*
X0104549Y0177050D01*
X0104588Y0177109D01*
X0104623Y0177170D01*
X0104655Y0177233D01*
X0104683Y0177297D01*
X0104708Y0177363D01*
X0104729Y0177430D01*
X0104746Y0177499D01*
X0104760Y0177568D01*
X0104769Y0177637D01*
X0104775Y0177708D01*
X0104777Y0177778D01*
X0102221Y0179056D02*
X0102223Y0179145D01*
X0102229Y0179234D01*
X0102238Y0179323D01*
X0102252Y0179411D01*
X0102269Y0179498D01*
X0102291Y0179585D01*
X0102316Y0179671D01*
X0102344Y0179755D01*
X0102377Y0179838D01*
X0102413Y0179920D01*
X0102452Y0180000D01*
X0102495Y0180078D01*
X0102541Y0180154D01*
X0102591Y0180228D01*
X0102643Y0180300D01*
X0102699Y0180370D01*
X0102758Y0180437D01*
X0102820Y0180501D01*
X0102884Y0180563D01*
X0102951Y0180622D01*
X0103021Y0180678D01*
X0103093Y0180730D01*
X0103167Y0180780D01*
X0103243Y0180826D01*
X0103321Y0180869D01*
X0103401Y0180908D01*
X0103483Y0180944D01*
X0103566Y0180977D01*
X0103650Y0181005D01*
X0103736Y0181030D01*
X0103823Y0181052D01*
X0103910Y0181069D01*
X0103998Y0181083D01*
X0104087Y0181092D01*
X0104176Y0181098D01*
X0104265Y0181100D01*
X0099028Y0181100D02*
X0097750Y0181100D01*
X0097750Y0176500D01*
X0097750Y0178544D02*
X0099028Y0178544D01*
X0099283Y0178544D02*
X0100306Y0176500D01*
X0099028Y0178544D02*
X0099098Y0178546D01*
X0099169Y0178552D01*
X0099238Y0178561D01*
X0099307Y0178575D01*
X0099376Y0178592D01*
X0099443Y0178613D01*
X0099509Y0178638D01*
X0099573Y0178666D01*
X0099636Y0178698D01*
X0099697Y0178733D01*
X0099756Y0178772D01*
X0099813Y0178813D01*
X0099867Y0178858D01*
X0099919Y0178906D01*
X0099968Y0178956D01*
X0100015Y0179010D01*
X0100058Y0179065D01*
X0100098Y0179123D01*
X0100135Y0179183D01*
X0100168Y0179245D01*
X0100198Y0179309D01*
X0100225Y0179374D01*
X0100248Y0179440D01*
X0100267Y0179508D01*
X0100282Y0179577D01*
X0100294Y0179646D01*
X0100302Y0179716D01*
X0100306Y0179787D01*
X0100306Y0179857D01*
X0100302Y0179928D01*
X0100294Y0179998D01*
X0100282Y0180067D01*
X0100267Y0180136D01*
X0100248Y0180204D01*
X0100225Y0180270D01*
X0100198Y0180335D01*
X0100168Y0180399D01*
X0100135Y0180461D01*
X0100098Y0180521D01*
X0100058Y0180579D01*
X0100015Y0180634D01*
X0099968Y0180688D01*
X0099919Y0180738D01*
X0099867Y0180786D01*
X0099813Y0180831D01*
X0099756Y0180872D01*
X0099697Y0180911D01*
X0099636Y0180946D01*
X0099573Y0180978D01*
X0099509Y0181006D01*
X0099443Y0181031D01*
X0099376Y0181052D01*
X0099307Y0181069D01*
X0099238Y0181083D01*
X0099169Y0181092D01*
X0099098Y0181098D01*
X0099028Y0181100D01*
X0099028Y0163600D02*
X0097750Y0163600D01*
X0097750Y0159000D01*
X0097750Y0161044D02*
X0099028Y0161044D01*
X0099283Y0161044D02*
X0100306Y0159000D01*
X0102221Y0159000D02*
X0103754Y0159000D01*
X0103816Y0159002D01*
X0103877Y0159007D01*
X0103938Y0159017D01*
X0103999Y0159030D01*
X0104058Y0159046D01*
X0104116Y0159066D01*
X0104173Y0159090D01*
X0104229Y0159117D01*
X0104283Y0159147D01*
X0104335Y0159181D01*
X0104384Y0159217D01*
X0104432Y0159257D01*
X0104477Y0159299D01*
X0104519Y0159344D01*
X0104559Y0159392D01*
X0104595Y0159441D01*
X0104629Y0159493D01*
X0104659Y0159547D01*
X0104686Y0159603D01*
X0104710Y0159660D01*
X0104730Y0159718D01*
X0104746Y0159777D01*
X0104759Y0159838D01*
X0104769Y0159899D01*
X0104774Y0159960D01*
X0104776Y0160022D01*
X0104777Y0160022D02*
X0104777Y0160533D01*
X0104776Y0160533D02*
X0104774Y0160595D01*
X0104769Y0160656D01*
X0104759Y0160717D01*
X0104746Y0160778D01*
X0104730Y0160837D01*
X0104710Y0160895D01*
X0104686Y0160952D01*
X0104659Y0161008D01*
X0104629Y0161062D01*
X0104595Y0161114D01*
X0104559Y0161163D01*
X0104519Y0161211D01*
X0104477Y0161256D01*
X0104432Y0161298D01*
X0104384Y0161338D01*
X0104335Y0161374D01*
X0104283Y0161408D01*
X0104229Y0161438D01*
X0104173Y0161465D01*
X0104116Y0161489D01*
X0104058Y0161509D01*
X0103999Y0161525D01*
X0103938Y0161538D01*
X0103877Y0161548D01*
X0103816Y0161553D01*
X0103754Y0161555D01*
X0103754Y0161556D02*
X0102221Y0161556D01*
X0102221Y0163600D01*
X0104777Y0163600D01*
X0099028Y0163600D02*
X0099098Y0163598D01*
X0099169Y0163592D01*
X0099238Y0163583D01*
X0099307Y0163569D01*
X0099376Y0163552D01*
X0099443Y0163531D01*
X0099509Y0163506D01*
X0099573Y0163478D01*
X0099636Y0163446D01*
X0099697Y0163411D01*
X0099756Y0163372D01*
X0099813Y0163331D01*
X0099867Y0163286D01*
X0099919Y0163238D01*
X0099968Y0163188D01*
X0100015Y0163134D01*
X0100058Y0163079D01*
X0100098Y0163021D01*
X0100135Y0162961D01*
X0100168Y0162899D01*
X0100198Y0162835D01*
X0100225Y0162770D01*
X0100248Y0162704D01*
X0100267Y0162636D01*
X0100282Y0162567D01*
X0100294Y0162498D01*
X0100302Y0162428D01*
X0100306Y0162357D01*
X0100306Y0162287D01*
X0100302Y0162216D01*
X0100294Y0162146D01*
X0100282Y0162077D01*
X0100267Y0162008D01*
X0100248Y0161940D01*
X0100225Y0161874D01*
X0100198Y0161809D01*
X0100168Y0161745D01*
X0100135Y0161683D01*
X0100098Y0161623D01*
X0100058Y0161565D01*
X0100015Y0161510D01*
X0099968Y0161456D01*
X0099919Y0161406D01*
X0099867Y0161358D01*
X0099813Y0161313D01*
X0099756Y0161272D01*
X0099697Y0161233D01*
X0099636Y0161198D01*
X0099573Y0161166D01*
X0099509Y0161138D01*
X0099443Y0161113D01*
X0099376Y0161092D01*
X0099307Y0161075D01*
X0099238Y0161061D01*
X0099169Y0161052D01*
X0099098Y0161046D01*
X0099028Y0161044D01*
X0099028Y0146100D02*
X0097750Y0146100D01*
X0097750Y0141500D01*
X0097750Y0143544D02*
X0099028Y0143544D01*
X0099283Y0143544D02*
X0100306Y0141500D01*
X0102221Y0142522D02*
X0104777Y0142522D01*
X0104010Y0143544D02*
X0104010Y0141500D01*
X0102221Y0142522D02*
X0103243Y0146100D01*
X0099028Y0146100D02*
X0099098Y0146098D01*
X0099169Y0146092D01*
X0099238Y0146083D01*
X0099307Y0146069D01*
X0099376Y0146052D01*
X0099443Y0146031D01*
X0099509Y0146006D01*
X0099573Y0145978D01*
X0099636Y0145946D01*
X0099697Y0145911D01*
X0099756Y0145872D01*
X0099813Y0145831D01*
X0099867Y0145786D01*
X0099919Y0145738D01*
X0099968Y0145688D01*
X0100015Y0145634D01*
X0100058Y0145579D01*
X0100098Y0145521D01*
X0100135Y0145461D01*
X0100168Y0145399D01*
X0100198Y0145335D01*
X0100225Y0145270D01*
X0100248Y0145204D01*
X0100267Y0145136D01*
X0100282Y0145067D01*
X0100294Y0144998D01*
X0100302Y0144928D01*
X0100306Y0144857D01*
X0100306Y0144787D01*
X0100302Y0144716D01*
X0100294Y0144646D01*
X0100282Y0144577D01*
X0100267Y0144508D01*
X0100248Y0144440D01*
X0100225Y0144374D01*
X0100198Y0144309D01*
X0100168Y0144245D01*
X0100135Y0144183D01*
X0100098Y0144123D01*
X0100058Y0144065D01*
X0100015Y0144010D01*
X0099968Y0143956D01*
X0099919Y0143906D01*
X0099867Y0143858D01*
X0099813Y0143813D01*
X0099756Y0143772D01*
X0099697Y0143733D01*
X0099636Y0143698D01*
X0099573Y0143666D01*
X0099509Y0143638D01*
X0099443Y0143613D01*
X0099376Y0143592D01*
X0099307Y0143575D01*
X0099238Y0143561D01*
X0099169Y0143552D01*
X0099098Y0143546D01*
X0099028Y0143544D01*
X0099028Y0128600D02*
X0097750Y0128600D01*
X0097750Y0124000D01*
X0097750Y0126044D02*
X0099028Y0126044D01*
X0099283Y0126044D02*
X0100306Y0124000D01*
X0102221Y0124000D02*
X0103499Y0124000D01*
X0103569Y0124002D01*
X0103640Y0124008D01*
X0103709Y0124017D01*
X0103778Y0124031D01*
X0103847Y0124048D01*
X0103914Y0124069D01*
X0103980Y0124094D01*
X0104044Y0124122D01*
X0104107Y0124154D01*
X0104168Y0124189D01*
X0104227Y0124228D01*
X0104284Y0124269D01*
X0104338Y0124314D01*
X0104390Y0124362D01*
X0104439Y0124412D01*
X0104486Y0124466D01*
X0104529Y0124521D01*
X0104569Y0124579D01*
X0104606Y0124639D01*
X0104639Y0124701D01*
X0104669Y0124765D01*
X0104696Y0124830D01*
X0104719Y0124896D01*
X0104738Y0124964D01*
X0104753Y0125033D01*
X0104765Y0125102D01*
X0104773Y0125172D01*
X0104777Y0125243D01*
X0104777Y0125313D01*
X0104773Y0125384D01*
X0104765Y0125454D01*
X0104753Y0125523D01*
X0104738Y0125592D01*
X0104719Y0125660D01*
X0104696Y0125726D01*
X0104669Y0125791D01*
X0104639Y0125855D01*
X0104606Y0125917D01*
X0104569Y0125977D01*
X0104529Y0126035D01*
X0104486Y0126090D01*
X0104439Y0126144D01*
X0104390Y0126194D01*
X0104338Y0126242D01*
X0104284Y0126287D01*
X0104227Y0126328D01*
X0104168Y0126367D01*
X0104107Y0126402D01*
X0104044Y0126434D01*
X0103980Y0126462D01*
X0103914Y0126487D01*
X0103847Y0126508D01*
X0103778Y0126525D01*
X0103709Y0126539D01*
X0103640Y0126548D01*
X0103569Y0126554D01*
X0103499Y0126556D01*
X0103754Y0126556D02*
X0102732Y0126556D01*
X0103754Y0126556D02*
X0103817Y0126558D01*
X0103880Y0126564D01*
X0103942Y0126573D01*
X0104003Y0126587D01*
X0104064Y0126604D01*
X0104123Y0126625D01*
X0104181Y0126650D01*
X0104238Y0126678D01*
X0104292Y0126709D01*
X0104344Y0126744D01*
X0104395Y0126782D01*
X0104443Y0126823D01*
X0104488Y0126867D01*
X0104530Y0126913D01*
X0104570Y0126962D01*
X0104606Y0127013D01*
X0104639Y0127067D01*
X0104669Y0127122D01*
X0104695Y0127180D01*
X0104718Y0127238D01*
X0104737Y0127298D01*
X0104752Y0127359D01*
X0104764Y0127421D01*
X0104772Y0127484D01*
X0104776Y0127547D01*
X0104776Y0127609D01*
X0104772Y0127672D01*
X0104764Y0127735D01*
X0104752Y0127797D01*
X0104737Y0127858D01*
X0104718Y0127918D01*
X0104695Y0127976D01*
X0104669Y0128034D01*
X0104639Y0128089D01*
X0104606Y0128143D01*
X0104570Y0128194D01*
X0104530Y0128243D01*
X0104488Y0128289D01*
X0104443Y0128333D01*
X0104395Y0128374D01*
X0104344Y0128412D01*
X0104292Y0128447D01*
X0104238Y0128478D01*
X0104181Y0128506D01*
X0104123Y0128531D01*
X0104064Y0128552D01*
X0104003Y0128569D01*
X0103942Y0128583D01*
X0103880Y0128592D01*
X0103817Y0128598D01*
X0103754Y0128600D01*
X0102221Y0128600D01*
X0099028Y0128600D02*
X0099098Y0128598D01*
X0099169Y0128592D01*
X0099238Y0128583D01*
X0099307Y0128569D01*
X0099376Y0128552D01*
X0099443Y0128531D01*
X0099509Y0128506D01*
X0099573Y0128478D01*
X0099636Y0128446D01*
X0099697Y0128411D01*
X0099756Y0128372D01*
X0099813Y0128331D01*
X0099867Y0128286D01*
X0099919Y0128238D01*
X0099968Y0128188D01*
X0100015Y0128134D01*
X0100058Y0128079D01*
X0100098Y0128021D01*
X0100135Y0127961D01*
X0100168Y0127899D01*
X0100198Y0127835D01*
X0100225Y0127770D01*
X0100248Y0127704D01*
X0100267Y0127636D01*
X0100282Y0127567D01*
X0100294Y0127498D01*
X0100302Y0127428D01*
X0100306Y0127357D01*
X0100306Y0127287D01*
X0100302Y0127216D01*
X0100294Y0127146D01*
X0100282Y0127077D01*
X0100267Y0127008D01*
X0100248Y0126940D01*
X0100225Y0126874D01*
X0100198Y0126809D01*
X0100168Y0126745D01*
X0100135Y0126683D01*
X0100098Y0126623D01*
X0100058Y0126565D01*
X0100015Y0126510D01*
X0099968Y0126456D01*
X0099919Y0126406D01*
X0099867Y0126358D01*
X0099813Y0126313D01*
X0099756Y0126272D01*
X0099697Y0126233D01*
X0099636Y0126198D01*
X0099573Y0126166D01*
X0099509Y0126138D01*
X0099443Y0126113D01*
X0099376Y0126092D01*
X0099307Y0126075D01*
X0099238Y0126061D01*
X0099169Y0126052D01*
X0099098Y0126046D01*
X0099028Y0126044D01*
X0137000Y0155000D02*
X0137000Y0160200D01*
X0137000Y0155000D02*
X0139311Y0155000D01*
X0141191Y0155000D02*
X0144079Y0155000D01*
X0141191Y0155000D02*
X0143646Y0157889D01*
X0142779Y0160200D02*
X0142698Y0160198D01*
X0142618Y0160192D01*
X0142538Y0160182D01*
X0142458Y0160169D01*
X0142379Y0160151D01*
X0142301Y0160130D01*
X0142224Y0160105D01*
X0142149Y0160077D01*
X0142075Y0160044D01*
X0142002Y0160008D01*
X0141932Y0159969D01*
X0141863Y0159926D01*
X0141797Y0159881D01*
X0141733Y0159832D01*
X0141671Y0159779D01*
X0141612Y0159724D01*
X0141555Y0159667D01*
X0141502Y0159606D01*
X0141451Y0159543D01*
X0141404Y0159478D01*
X0141360Y0159410D01*
X0141319Y0159340D01*
X0141281Y0159269D01*
X0141247Y0159196D01*
X0141217Y0159121D01*
X0141190Y0159045D01*
X0143646Y0157889D02*
X0143696Y0157939D01*
X0143743Y0157992D01*
X0143788Y0158046D01*
X0143829Y0158103D01*
X0143868Y0158162D01*
X0143904Y0158223D01*
X0143937Y0158286D01*
X0143966Y0158350D01*
X0143992Y0158416D01*
X0144015Y0158483D01*
X0144035Y0158550D01*
X0144050Y0158619D01*
X0144063Y0158689D01*
X0144072Y0158759D01*
X0144077Y0158829D01*
X0144079Y0158900D01*
X0144077Y0158970D01*
X0144071Y0159041D01*
X0144062Y0159110D01*
X0144049Y0159179D01*
X0144032Y0159248D01*
X0144011Y0159315D01*
X0143987Y0159381D01*
X0143959Y0159446D01*
X0143928Y0159509D01*
X0143893Y0159570D01*
X0143855Y0159630D01*
X0143814Y0159687D01*
X0143770Y0159742D01*
X0143723Y0159794D01*
X0143673Y0159844D01*
X0143621Y0159891D01*
X0143566Y0159935D01*
X0143509Y0159976D01*
X0143449Y0160014D01*
X0143388Y0160049D01*
X0143325Y0160080D01*
X0143260Y0160108D01*
X0143194Y0160132D01*
X0143127Y0160153D01*
X0143058Y0160170D01*
X0142989Y0160183D01*
X0142920Y0160192D01*
X0142849Y0160198D01*
X0142779Y0160200D01*
X0146231Y0158756D02*
X0146231Y0158467D01*
X0146230Y0158467D02*
X0146232Y0158400D01*
X0146238Y0158333D01*
X0146248Y0158266D01*
X0146261Y0158200D01*
X0146279Y0158135D01*
X0146300Y0158072D01*
X0146325Y0158009D01*
X0146353Y0157948D01*
X0146385Y0157889D01*
X0146420Y0157832D01*
X0146459Y0157777D01*
X0146500Y0157724D01*
X0146545Y0157674D01*
X0146593Y0157626D01*
X0146643Y0157581D01*
X0146696Y0157540D01*
X0146751Y0157501D01*
X0146808Y0157466D01*
X0146867Y0157434D01*
X0146928Y0157406D01*
X0146991Y0157381D01*
X0147054Y0157360D01*
X0147119Y0157342D01*
X0147185Y0157329D01*
X0147252Y0157319D01*
X0147319Y0157313D01*
X0147386Y0157311D01*
X0149119Y0157311D01*
X0149119Y0158756D01*
X0149117Y0158832D01*
X0149111Y0158907D01*
X0149101Y0158982D01*
X0149087Y0159056D01*
X0149070Y0159130D01*
X0149048Y0159202D01*
X0149023Y0159273D01*
X0148994Y0159343D01*
X0148962Y0159412D01*
X0148926Y0159478D01*
X0148886Y0159542D01*
X0148843Y0159605D01*
X0148797Y0159665D01*
X0148748Y0159722D01*
X0148696Y0159777D01*
X0148641Y0159829D01*
X0148584Y0159878D01*
X0148524Y0159924D01*
X0148461Y0159967D01*
X0148397Y0160007D01*
X0148331Y0160043D01*
X0148262Y0160075D01*
X0148192Y0160104D01*
X0148121Y0160129D01*
X0148049Y0160151D01*
X0147975Y0160168D01*
X0147901Y0160182D01*
X0147826Y0160192D01*
X0147751Y0160198D01*
X0147675Y0160200D01*
X0147599Y0160198D01*
X0147524Y0160192D01*
X0147449Y0160182D01*
X0147375Y0160168D01*
X0147301Y0160151D01*
X0147229Y0160129D01*
X0147158Y0160104D01*
X0147088Y0160075D01*
X0147019Y0160043D01*
X0146953Y0160007D01*
X0146889Y0159967D01*
X0146826Y0159924D01*
X0146766Y0159878D01*
X0146709Y0159829D01*
X0146654Y0159777D01*
X0146602Y0159722D01*
X0146553Y0159665D01*
X0146507Y0159605D01*
X0146464Y0159542D01*
X0146424Y0159478D01*
X0146388Y0159412D01*
X0146356Y0159343D01*
X0146327Y0159273D01*
X0146302Y0159202D01*
X0146280Y0159130D01*
X0146263Y0159056D01*
X0146249Y0158982D01*
X0146239Y0158907D01*
X0146233Y0158832D01*
X0146231Y0158756D01*
X0149119Y0157311D02*
X0149117Y0157215D01*
X0149111Y0157120D01*
X0149101Y0157025D01*
X0149087Y0156931D01*
X0149070Y0156837D01*
X0149048Y0156744D01*
X0149023Y0156652D01*
X0148994Y0156561D01*
X0148961Y0156471D01*
X0148924Y0156383D01*
X0148884Y0156296D01*
X0148840Y0156211D01*
X0148793Y0156128D01*
X0148743Y0156047D01*
X0148689Y0155968D01*
X0148632Y0155892D01*
X0148571Y0155817D01*
X0148508Y0155746D01*
X0148442Y0155677D01*
X0148373Y0155611D01*
X0148302Y0155548D01*
X0148227Y0155487D01*
X0148151Y0155430D01*
X0148072Y0155376D01*
X0147991Y0155326D01*
X0147908Y0155279D01*
X0147823Y0155235D01*
X0147736Y0155195D01*
X0147648Y0155158D01*
X0147558Y0155125D01*
X0147467Y0155096D01*
X0147375Y0155071D01*
X0147282Y0155049D01*
X0147188Y0155032D01*
X0147094Y0155018D01*
X0146999Y0155008D01*
X0146904Y0155002D01*
X0146808Y0155000D01*
X0151271Y0156444D02*
X0151273Y0156368D01*
X0151279Y0156293D01*
X0151289Y0156218D01*
X0151303Y0156144D01*
X0151320Y0156070D01*
X0151342Y0155998D01*
X0151367Y0155927D01*
X0151396Y0155857D01*
X0151428Y0155788D01*
X0151464Y0155722D01*
X0151504Y0155658D01*
X0151547Y0155595D01*
X0151593Y0155535D01*
X0151642Y0155478D01*
X0151694Y0155423D01*
X0151749Y0155371D01*
X0151806Y0155322D01*
X0151866Y0155276D01*
X0151929Y0155233D01*
X0151993Y0155193D01*
X0152059Y0155157D01*
X0152128Y0155125D01*
X0152198Y0155096D01*
X0152269Y0155071D01*
X0152341Y0155049D01*
X0152415Y0155032D01*
X0152489Y0155018D01*
X0152564Y0155008D01*
X0152639Y0155002D01*
X0152715Y0155000D01*
X0152791Y0155002D01*
X0152866Y0155008D01*
X0152941Y0155018D01*
X0153015Y0155032D01*
X0153089Y0155049D01*
X0153161Y0155071D01*
X0153232Y0155096D01*
X0153302Y0155125D01*
X0153371Y0155157D01*
X0153437Y0155193D01*
X0153501Y0155233D01*
X0153564Y0155276D01*
X0153624Y0155322D01*
X0153681Y0155371D01*
X0153736Y0155423D01*
X0153788Y0155478D01*
X0153837Y0155535D01*
X0153883Y0155595D01*
X0153926Y0155658D01*
X0153966Y0155722D01*
X0154002Y0155788D01*
X0154034Y0155857D01*
X0154063Y0155927D01*
X0154088Y0155998D01*
X0154110Y0156070D01*
X0154127Y0156144D01*
X0154141Y0156218D01*
X0154151Y0156293D01*
X0154157Y0156368D01*
X0154159Y0156444D01*
X0154157Y0156520D01*
X0154151Y0156595D01*
X0154141Y0156670D01*
X0154127Y0156744D01*
X0154110Y0156818D01*
X0154088Y0156890D01*
X0154063Y0156961D01*
X0154034Y0157031D01*
X0154002Y0157100D01*
X0153966Y0157166D01*
X0153926Y0157230D01*
X0153883Y0157293D01*
X0153837Y0157353D01*
X0153788Y0157410D01*
X0153736Y0157465D01*
X0153681Y0157517D01*
X0153624Y0157566D01*
X0153564Y0157612D01*
X0153501Y0157655D01*
X0153437Y0157695D01*
X0153371Y0157731D01*
X0153302Y0157763D01*
X0153232Y0157792D01*
X0153161Y0157817D01*
X0153089Y0157839D01*
X0153015Y0157856D01*
X0152941Y0157870D01*
X0152866Y0157880D01*
X0152791Y0157886D01*
X0152715Y0157888D01*
X0152639Y0157886D01*
X0152564Y0157880D01*
X0152489Y0157870D01*
X0152415Y0157856D01*
X0152341Y0157839D01*
X0152269Y0157817D01*
X0152198Y0157792D01*
X0152128Y0157763D01*
X0152059Y0157731D01*
X0151993Y0157695D01*
X0151929Y0157655D01*
X0151866Y0157612D01*
X0151806Y0157566D01*
X0151749Y0157517D01*
X0151694Y0157465D01*
X0151642Y0157410D01*
X0151593Y0157353D01*
X0151547Y0157293D01*
X0151504Y0157230D01*
X0151464Y0157166D01*
X0151428Y0157100D01*
X0151396Y0157031D01*
X0151367Y0156961D01*
X0151342Y0156890D01*
X0151320Y0156818D01*
X0151303Y0156744D01*
X0151289Y0156670D01*
X0151279Y0156595D01*
X0151273Y0156520D01*
X0151271Y0156444D01*
X0151559Y0159044D02*
X0151561Y0158977D01*
X0151567Y0158910D01*
X0151577Y0158843D01*
X0151590Y0158777D01*
X0151608Y0158712D01*
X0151629Y0158649D01*
X0151654Y0158586D01*
X0151682Y0158525D01*
X0151714Y0158466D01*
X0151749Y0158409D01*
X0151788Y0158354D01*
X0151829Y0158301D01*
X0151874Y0158251D01*
X0151922Y0158203D01*
X0151972Y0158158D01*
X0152025Y0158117D01*
X0152080Y0158078D01*
X0152137Y0158043D01*
X0152196Y0158011D01*
X0152257Y0157983D01*
X0152320Y0157958D01*
X0152383Y0157937D01*
X0152448Y0157919D01*
X0152514Y0157906D01*
X0152581Y0157896D01*
X0152648Y0157890D01*
X0152715Y0157888D01*
X0152782Y0157890D01*
X0152849Y0157896D01*
X0152916Y0157906D01*
X0152982Y0157919D01*
X0153047Y0157937D01*
X0153110Y0157958D01*
X0153173Y0157983D01*
X0153234Y0158011D01*
X0153293Y0158043D01*
X0153350Y0158078D01*
X0153405Y0158117D01*
X0153458Y0158158D01*
X0153508Y0158203D01*
X0153556Y0158251D01*
X0153601Y0158301D01*
X0153642Y0158354D01*
X0153681Y0158409D01*
X0153716Y0158466D01*
X0153748Y0158525D01*
X0153776Y0158586D01*
X0153801Y0158649D01*
X0153822Y0158712D01*
X0153840Y0158777D01*
X0153853Y0158843D01*
X0153863Y0158910D01*
X0153869Y0158977D01*
X0153871Y0159044D01*
X0153869Y0159111D01*
X0153863Y0159178D01*
X0153853Y0159245D01*
X0153840Y0159311D01*
X0153822Y0159376D01*
X0153801Y0159439D01*
X0153776Y0159502D01*
X0153748Y0159563D01*
X0153716Y0159622D01*
X0153681Y0159679D01*
X0153642Y0159734D01*
X0153601Y0159787D01*
X0153556Y0159837D01*
X0153508Y0159885D01*
X0153458Y0159930D01*
X0153405Y0159971D01*
X0153350Y0160010D01*
X0153293Y0160045D01*
X0153234Y0160077D01*
X0153173Y0160105D01*
X0153110Y0160130D01*
X0153047Y0160151D01*
X0152982Y0160169D01*
X0152916Y0160182D01*
X0152849Y0160192D01*
X0152782Y0160198D01*
X0152715Y0160200D01*
X0152648Y0160198D01*
X0152581Y0160192D01*
X0152514Y0160182D01*
X0152448Y0160169D01*
X0152383Y0160151D01*
X0152320Y0160130D01*
X0152257Y0160105D01*
X0152196Y0160077D01*
X0152137Y0160045D01*
X0152080Y0160010D01*
X0152025Y0159971D01*
X0151972Y0159930D01*
X0151922Y0159885D01*
X0151874Y0159837D01*
X0151829Y0159787D01*
X0151788Y0159734D01*
X0151749Y0159679D01*
X0151714Y0159622D01*
X0151682Y0159563D01*
X0151654Y0159502D01*
X0151629Y0159439D01*
X0151608Y0159376D01*
X0151590Y0159311D01*
X0151577Y0159245D01*
X0151567Y0159178D01*
X0151561Y0159111D01*
X0151559Y0159044D01*
X0151172Y0087100D02*
X0150150Y0083522D01*
X0152706Y0083522D01*
X0151939Y0084544D02*
X0151939Y0082500D01*
X0148056Y0083778D02*
X0148056Y0085822D01*
X0148054Y0085891D01*
X0148049Y0085960D01*
X0148039Y0086029D01*
X0148026Y0086097D01*
X0148009Y0086164D01*
X0147989Y0086230D01*
X0147965Y0086295D01*
X0147938Y0086359D01*
X0147907Y0086421D01*
X0147873Y0086481D01*
X0147836Y0086539D01*
X0147795Y0086595D01*
X0147752Y0086649D01*
X0147706Y0086701D01*
X0147657Y0086750D01*
X0147605Y0086796D01*
X0147551Y0086839D01*
X0147495Y0086880D01*
X0147437Y0086917D01*
X0147377Y0086951D01*
X0147315Y0086982D01*
X0147251Y0087009D01*
X0147186Y0087033D01*
X0147120Y0087053D01*
X0147053Y0087070D01*
X0146985Y0087083D01*
X0146916Y0087093D01*
X0146847Y0087098D01*
X0146778Y0087100D01*
X0145500Y0087100D01*
X0145500Y0082500D01*
X0146778Y0082500D01*
X0146847Y0082502D01*
X0146916Y0082507D01*
X0146985Y0082517D01*
X0147053Y0082530D01*
X0147120Y0082547D01*
X0147186Y0082567D01*
X0147251Y0082591D01*
X0147315Y0082618D01*
X0147377Y0082649D01*
X0147437Y0082683D01*
X0147495Y0082720D01*
X0147551Y0082761D01*
X0147605Y0082804D01*
X0147657Y0082850D01*
X0147706Y0082899D01*
X0147752Y0082951D01*
X0147795Y0083005D01*
X0147836Y0083061D01*
X0147873Y0083119D01*
X0147907Y0083179D01*
X0147938Y0083241D01*
X0147965Y0083305D01*
X0147989Y0083370D01*
X0148009Y0083436D01*
X0148026Y0083503D01*
X0148039Y0083571D01*
X0148049Y0083640D01*
X0148054Y0083709D01*
X0148056Y0083778D01*
X0144900Y0081300D02*
X0162700Y0081300D01*
X0162700Y0066300D02*
X0144900Y0066300D01*
X0145500Y0067100D02*
X0146778Y0067100D01*
X0146847Y0067098D01*
X0146916Y0067093D01*
X0146985Y0067083D01*
X0147053Y0067070D01*
X0147120Y0067053D01*
X0147186Y0067033D01*
X0147251Y0067009D01*
X0147315Y0066982D01*
X0147377Y0066951D01*
X0147437Y0066917D01*
X0147495Y0066880D01*
X0147551Y0066839D01*
X0147605Y0066796D01*
X0147657Y0066750D01*
X0147706Y0066701D01*
X0147752Y0066649D01*
X0147795Y0066595D01*
X0147836Y0066539D01*
X0147873Y0066481D01*
X0147907Y0066421D01*
X0147938Y0066359D01*
X0147965Y0066295D01*
X0147989Y0066230D01*
X0148009Y0066164D01*
X0148026Y0066097D01*
X0148039Y0066029D01*
X0148049Y0065960D01*
X0148054Y0065891D01*
X0148056Y0065822D01*
X0148056Y0063778D01*
X0148054Y0063709D01*
X0148049Y0063640D01*
X0148039Y0063571D01*
X0148026Y0063503D01*
X0148009Y0063436D01*
X0147989Y0063370D01*
X0147965Y0063305D01*
X0147938Y0063241D01*
X0147907Y0063179D01*
X0147873Y0063119D01*
X0147836Y0063061D01*
X0147795Y0063005D01*
X0147752Y0062951D01*
X0147706Y0062899D01*
X0147657Y0062850D01*
X0147605Y0062804D01*
X0147551Y0062761D01*
X0147495Y0062720D01*
X0147437Y0062683D01*
X0147377Y0062649D01*
X0147315Y0062618D01*
X0147251Y0062591D01*
X0147186Y0062567D01*
X0147120Y0062547D01*
X0147053Y0062530D01*
X0146985Y0062517D01*
X0146916Y0062507D01*
X0146847Y0062502D01*
X0146778Y0062500D01*
X0145500Y0062500D01*
X0145500Y0067100D01*
X0150150Y0067100D02*
X0151683Y0067100D01*
X0151746Y0067098D01*
X0151809Y0067092D01*
X0151871Y0067083D01*
X0151932Y0067069D01*
X0151993Y0067052D01*
X0152052Y0067031D01*
X0152110Y0067006D01*
X0152167Y0066978D01*
X0152221Y0066947D01*
X0152273Y0066912D01*
X0152324Y0066874D01*
X0152372Y0066833D01*
X0152417Y0066789D01*
X0152459Y0066743D01*
X0152499Y0066694D01*
X0152535Y0066643D01*
X0152568Y0066589D01*
X0152598Y0066534D01*
X0152624Y0066476D01*
X0152647Y0066418D01*
X0152666Y0066358D01*
X0152681Y0066297D01*
X0152693Y0066235D01*
X0152701Y0066172D01*
X0152705Y0066109D01*
X0152705Y0066047D01*
X0152701Y0065984D01*
X0152693Y0065921D01*
X0152681Y0065859D01*
X0152666Y0065798D01*
X0152647Y0065738D01*
X0152624Y0065680D01*
X0152598Y0065622D01*
X0152568Y0065567D01*
X0152535Y0065513D01*
X0152499Y0065462D01*
X0152459Y0065413D01*
X0152417Y0065367D01*
X0152372Y0065323D01*
X0152324Y0065282D01*
X0152273Y0065244D01*
X0152221Y0065209D01*
X0152167Y0065178D01*
X0152110Y0065150D01*
X0152052Y0065125D01*
X0151993Y0065104D01*
X0151932Y0065087D01*
X0151871Y0065073D01*
X0151809Y0065064D01*
X0151746Y0065058D01*
X0151683Y0065056D01*
X0150661Y0065056D01*
X0151428Y0065056D02*
X0151498Y0065054D01*
X0151569Y0065048D01*
X0151638Y0065039D01*
X0151707Y0065025D01*
X0151776Y0065008D01*
X0151843Y0064987D01*
X0151909Y0064962D01*
X0151973Y0064934D01*
X0152036Y0064902D01*
X0152097Y0064867D01*
X0152156Y0064828D01*
X0152213Y0064787D01*
X0152267Y0064742D01*
X0152319Y0064694D01*
X0152368Y0064644D01*
X0152415Y0064590D01*
X0152458Y0064535D01*
X0152498Y0064477D01*
X0152535Y0064417D01*
X0152568Y0064355D01*
X0152598Y0064291D01*
X0152625Y0064226D01*
X0152648Y0064160D01*
X0152667Y0064092D01*
X0152682Y0064023D01*
X0152694Y0063954D01*
X0152702Y0063884D01*
X0152706Y0063813D01*
X0152706Y0063743D01*
X0152702Y0063672D01*
X0152694Y0063602D01*
X0152682Y0063533D01*
X0152667Y0063464D01*
X0152648Y0063396D01*
X0152625Y0063330D01*
X0152598Y0063265D01*
X0152568Y0063201D01*
X0152535Y0063139D01*
X0152498Y0063079D01*
X0152458Y0063021D01*
X0152415Y0062966D01*
X0152368Y0062912D01*
X0152319Y0062862D01*
X0152267Y0062814D01*
X0152213Y0062769D01*
X0152156Y0062728D01*
X0152097Y0062689D01*
X0152036Y0062654D01*
X0151973Y0062622D01*
X0151909Y0062594D01*
X0151843Y0062569D01*
X0151776Y0062548D01*
X0151707Y0062531D01*
X0151638Y0062517D01*
X0151569Y0062508D01*
X0151498Y0062502D01*
X0151428Y0062500D01*
X0150150Y0062500D01*
X0144900Y0061300D02*
X0162700Y0061300D01*
X0162700Y0046300D02*
X0144900Y0046300D01*
X0098600Y0061500D02*
X0097322Y0061500D01*
X0097267Y0061502D01*
X0097213Y0061508D01*
X0097159Y0061518D01*
X0097106Y0061531D01*
X0097054Y0061548D01*
X0097003Y0061569D01*
X0096954Y0061594D01*
X0096907Y0061622D01*
X0096862Y0061653D01*
X0096820Y0061687D01*
X0096780Y0061725D01*
X0096742Y0061765D01*
X0096708Y0061807D01*
X0096677Y0061852D01*
X0096649Y0061899D01*
X0096624Y0061948D01*
X0096603Y0061999D01*
X0096586Y0062051D01*
X0096573Y0062104D01*
X0096563Y0062158D01*
X0096557Y0062212D01*
X0096555Y0062267D01*
X0096556Y0062267D02*
X0096556Y0063800D01*
X0096555Y0063800D02*
X0096557Y0063855D01*
X0096563Y0063909D01*
X0096573Y0063963D01*
X0096586Y0064016D01*
X0096603Y0064068D01*
X0096624Y0064119D01*
X0096649Y0064168D01*
X0096677Y0064215D01*
X0096708Y0064260D01*
X0096742Y0064302D01*
X0096780Y0064342D01*
X0096820Y0064380D01*
X0096862Y0064414D01*
X0096907Y0064445D01*
X0096954Y0064473D01*
X0097003Y0064498D01*
X0097054Y0064519D01*
X0097106Y0064536D01*
X0097159Y0064549D01*
X0097213Y0064559D01*
X0097267Y0064565D01*
X0097322Y0064567D01*
X0098600Y0064567D01*
X0098600Y0066100D02*
X0098600Y0061500D01*
X0094723Y0061500D02*
X0093445Y0061500D01*
X0093390Y0061502D01*
X0093336Y0061508D01*
X0093282Y0061518D01*
X0093229Y0061531D01*
X0093177Y0061548D01*
X0093126Y0061569D01*
X0093077Y0061594D01*
X0093030Y0061622D01*
X0092985Y0061653D01*
X0092943Y0061687D01*
X0092903Y0061725D01*
X0092865Y0061765D01*
X0092831Y0061807D01*
X0092800Y0061852D01*
X0092772Y0061899D01*
X0092747Y0061948D01*
X0092726Y0061999D01*
X0092709Y0062051D01*
X0092696Y0062104D01*
X0092686Y0062158D01*
X0092680Y0062212D01*
X0092678Y0062267D01*
X0092679Y0062267D02*
X0092679Y0063544D01*
X0092679Y0063033D02*
X0094723Y0063033D01*
X0094723Y0063544D01*
X0094721Y0063607D01*
X0094715Y0063670D01*
X0094706Y0063732D01*
X0094692Y0063793D01*
X0094675Y0063854D01*
X0094654Y0063913D01*
X0094629Y0063971D01*
X0094601Y0064028D01*
X0094570Y0064082D01*
X0094535Y0064134D01*
X0094497Y0064185D01*
X0094456Y0064233D01*
X0094412Y0064278D01*
X0094366Y0064320D01*
X0094317Y0064360D01*
X0094266Y0064396D01*
X0094212Y0064429D01*
X0094157Y0064459D01*
X0094099Y0064485D01*
X0094041Y0064508D01*
X0093981Y0064527D01*
X0093920Y0064542D01*
X0093858Y0064554D01*
X0093795Y0064562D01*
X0093732Y0064566D01*
X0093670Y0064566D01*
X0093607Y0064562D01*
X0093544Y0064554D01*
X0093482Y0064542D01*
X0093421Y0064527D01*
X0093361Y0064508D01*
X0093303Y0064485D01*
X0093245Y0064459D01*
X0093190Y0064429D01*
X0093136Y0064396D01*
X0093085Y0064360D01*
X0093036Y0064320D01*
X0092990Y0064278D01*
X0092946Y0064233D01*
X0092905Y0064185D01*
X0092867Y0064134D01*
X0092832Y0064082D01*
X0092801Y0064028D01*
X0092773Y0063971D01*
X0092748Y0063913D01*
X0092727Y0063854D01*
X0092710Y0063793D01*
X0092696Y0063732D01*
X0092687Y0063670D01*
X0092681Y0063607D01*
X0092679Y0063544D01*
X0091238Y0064056D02*
X0091238Y0064567D01*
X0089705Y0064567D01*
X0089705Y0061500D01*
X0087500Y0061500D02*
X0087500Y0063800D01*
X0087500Y0063289D02*
X0086350Y0063289D01*
X0087500Y0063800D02*
X0087498Y0063855D01*
X0087492Y0063909D01*
X0087482Y0063963D01*
X0087469Y0064016D01*
X0087452Y0064068D01*
X0087431Y0064119D01*
X0087406Y0064168D01*
X0087378Y0064215D01*
X0087347Y0064260D01*
X0087313Y0064302D01*
X0087275Y0064342D01*
X0087235Y0064380D01*
X0087193Y0064414D01*
X0087148Y0064445D01*
X0087101Y0064473D01*
X0087052Y0064498D01*
X0087001Y0064519D01*
X0086949Y0064536D01*
X0086896Y0064549D01*
X0086842Y0064559D01*
X0086788Y0064565D01*
X0086733Y0064567D01*
X0085711Y0064567D01*
X0086350Y0063288D02*
X0086292Y0063286D01*
X0086233Y0063280D01*
X0086176Y0063271D01*
X0086119Y0063258D01*
X0086063Y0063241D01*
X0086008Y0063220D01*
X0085955Y0063196D01*
X0085903Y0063168D01*
X0085853Y0063137D01*
X0085806Y0063103D01*
X0085761Y0063066D01*
X0085718Y0063026D01*
X0085678Y0062983D01*
X0085641Y0062938D01*
X0085607Y0062891D01*
X0085576Y0062841D01*
X0085548Y0062789D01*
X0085524Y0062736D01*
X0085503Y0062681D01*
X0085486Y0062625D01*
X0085473Y0062568D01*
X0085464Y0062511D01*
X0085458Y0062452D01*
X0085456Y0062394D01*
X0085458Y0062336D01*
X0085464Y0062277D01*
X0085473Y0062220D01*
X0085486Y0062163D01*
X0085503Y0062107D01*
X0085524Y0062052D01*
X0085548Y0061999D01*
X0085576Y0061947D01*
X0085607Y0061897D01*
X0085641Y0061850D01*
X0085678Y0061805D01*
X0085718Y0061762D01*
X0085761Y0061722D01*
X0085806Y0061685D01*
X0085853Y0061651D01*
X0085903Y0061620D01*
X0085955Y0061592D01*
X0086008Y0061568D01*
X0086063Y0061547D01*
X0086119Y0061530D01*
X0086176Y0061517D01*
X0086233Y0061508D01*
X0086292Y0061502D01*
X0086350Y0061500D01*
X0087500Y0061500D01*
X0086697Y0058600D02*
X0086697Y0054767D01*
X0086699Y0054712D01*
X0086705Y0054658D01*
X0086715Y0054604D01*
X0086728Y0054551D01*
X0086745Y0054499D01*
X0086766Y0054448D01*
X0086791Y0054399D01*
X0086819Y0054352D01*
X0086850Y0054307D01*
X0086884Y0054265D01*
X0086922Y0054225D01*
X0086962Y0054187D01*
X0087004Y0054153D01*
X0087049Y0054122D01*
X0087096Y0054094D01*
X0087145Y0054069D01*
X0087196Y0054048D01*
X0087248Y0054031D01*
X0087301Y0054018D01*
X0087355Y0054008D01*
X0087409Y0054002D01*
X0087464Y0054000D01*
X0087719Y0054000D01*
X0089417Y0055022D02*
X0089417Y0056044D01*
X0089419Y0056107D01*
X0089425Y0056170D01*
X0089434Y0056232D01*
X0089448Y0056293D01*
X0089465Y0056354D01*
X0089486Y0056413D01*
X0089511Y0056471D01*
X0089539Y0056528D01*
X0089570Y0056582D01*
X0089605Y0056634D01*
X0089643Y0056685D01*
X0089684Y0056733D01*
X0089728Y0056778D01*
X0089774Y0056820D01*
X0089823Y0056860D01*
X0089874Y0056896D01*
X0089928Y0056929D01*
X0089983Y0056959D01*
X0090041Y0056985D01*
X0090099Y0057008D01*
X0090159Y0057027D01*
X0090220Y0057042D01*
X0090282Y0057054D01*
X0090345Y0057062D01*
X0090408Y0057066D01*
X0090470Y0057066D01*
X0090533Y0057062D01*
X0090596Y0057054D01*
X0090658Y0057042D01*
X0090719Y0057027D01*
X0090779Y0057008D01*
X0090837Y0056985D01*
X0090895Y0056959D01*
X0090950Y0056929D01*
X0091004Y0056896D01*
X0091055Y0056860D01*
X0091104Y0056820D01*
X0091150Y0056778D01*
X0091194Y0056733D01*
X0091235Y0056685D01*
X0091273Y0056634D01*
X0091308Y0056582D01*
X0091339Y0056528D01*
X0091367Y0056471D01*
X0091392Y0056413D01*
X0091413Y0056354D01*
X0091430Y0056293D01*
X0091444Y0056232D01*
X0091453Y0056170D01*
X0091459Y0056107D01*
X0091461Y0056044D01*
X0091461Y0055022D01*
X0091459Y0054959D01*
X0091453Y0054896D01*
X0091444Y0054834D01*
X0091430Y0054773D01*
X0091413Y0054712D01*
X0091392Y0054653D01*
X0091367Y0054595D01*
X0091339Y0054538D01*
X0091308Y0054484D01*
X0091273Y0054432D01*
X0091235Y0054381D01*
X0091194Y0054333D01*
X0091150Y0054288D01*
X0091104Y0054246D01*
X0091055Y0054206D01*
X0091004Y0054170D01*
X0090950Y0054137D01*
X0090895Y0054107D01*
X0090837Y0054081D01*
X0090779Y0054058D01*
X0090719Y0054039D01*
X0090658Y0054024D01*
X0090596Y0054012D01*
X0090533Y0054004D01*
X0090470Y0054000D01*
X0090408Y0054000D01*
X0090345Y0054004D01*
X0090282Y0054012D01*
X0090220Y0054024D01*
X0090159Y0054039D01*
X0090099Y0054058D01*
X0090041Y0054081D01*
X0089983Y0054107D01*
X0089928Y0054137D01*
X0089874Y0054170D01*
X0089823Y0054206D01*
X0089774Y0054246D01*
X0089728Y0054288D01*
X0089684Y0054333D01*
X0089643Y0054381D01*
X0089605Y0054432D01*
X0089570Y0054484D01*
X0089539Y0054538D01*
X0089511Y0054595D01*
X0089486Y0054653D01*
X0089465Y0054712D01*
X0089448Y0054773D01*
X0089434Y0054834D01*
X0089425Y0054896D01*
X0089419Y0054959D01*
X0089417Y0055022D01*
X0087719Y0057067D02*
X0086186Y0057067D01*
X0084711Y0056044D02*
X0084711Y0055022D01*
X0084709Y0054959D01*
X0084703Y0054896D01*
X0084694Y0054834D01*
X0084680Y0054773D01*
X0084663Y0054712D01*
X0084642Y0054653D01*
X0084617Y0054595D01*
X0084589Y0054538D01*
X0084558Y0054484D01*
X0084523Y0054432D01*
X0084485Y0054381D01*
X0084444Y0054333D01*
X0084400Y0054288D01*
X0084354Y0054246D01*
X0084305Y0054206D01*
X0084254Y0054170D01*
X0084200Y0054137D01*
X0084145Y0054107D01*
X0084087Y0054081D01*
X0084029Y0054058D01*
X0083969Y0054039D01*
X0083908Y0054024D01*
X0083846Y0054012D01*
X0083783Y0054004D01*
X0083720Y0054000D01*
X0083658Y0054000D01*
X0083595Y0054004D01*
X0083532Y0054012D01*
X0083470Y0054024D01*
X0083409Y0054039D01*
X0083349Y0054058D01*
X0083291Y0054081D01*
X0083233Y0054107D01*
X0083178Y0054137D01*
X0083124Y0054170D01*
X0083073Y0054206D01*
X0083024Y0054246D01*
X0082978Y0054288D01*
X0082934Y0054333D01*
X0082893Y0054381D01*
X0082855Y0054432D01*
X0082820Y0054484D01*
X0082789Y0054538D01*
X0082761Y0054595D01*
X0082736Y0054653D01*
X0082715Y0054712D01*
X0082698Y0054773D01*
X0082684Y0054834D01*
X0082675Y0054896D01*
X0082669Y0054959D01*
X0082667Y0055022D01*
X0082667Y0056044D01*
X0082669Y0056107D01*
X0082675Y0056170D01*
X0082684Y0056232D01*
X0082698Y0056293D01*
X0082715Y0056354D01*
X0082736Y0056413D01*
X0082761Y0056471D01*
X0082789Y0056528D01*
X0082820Y0056582D01*
X0082855Y0056634D01*
X0082893Y0056685D01*
X0082934Y0056733D01*
X0082978Y0056778D01*
X0083024Y0056820D01*
X0083073Y0056860D01*
X0083124Y0056896D01*
X0083178Y0056929D01*
X0083233Y0056959D01*
X0083291Y0056985D01*
X0083349Y0057008D01*
X0083409Y0057027D01*
X0083470Y0057042D01*
X0083532Y0057054D01*
X0083595Y0057062D01*
X0083658Y0057066D01*
X0083720Y0057066D01*
X0083783Y0057062D01*
X0083846Y0057054D01*
X0083908Y0057042D01*
X0083969Y0057027D01*
X0084029Y0057008D01*
X0084087Y0056985D01*
X0084145Y0056959D01*
X0084200Y0056929D01*
X0084254Y0056896D01*
X0084305Y0056860D01*
X0084354Y0056820D01*
X0084400Y0056778D01*
X0084444Y0056733D01*
X0084485Y0056685D01*
X0084523Y0056634D01*
X0084558Y0056582D01*
X0084589Y0056528D01*
X0084617Y0056471D01*
X0084642Y0056413D01*
X0084663Y0056354D01*
X0084680Y0056293D01*
X0084694Y0056232D01*
X0084703Y0056170D01*
X0084709Y0056107D01*
X0084711Y0056044D01*
X0080572Y0056300D02*
X0080572Y0054000D01*
X0079039Y0054000D02*
X0079039Y0057067D01*
X0079806Y0057067D02*
X0077506Y0057067D01*
X0077506Y0054000D01*
X0080573Y0056300D02*
X0080571Y0056355D01*
X0080565Y0056409D01*
X0080555Y0056463D01*
X0080542Y0056516D01*
X0080525Y0056568D01*
X0080504Y0056619D01*
X0080479Y0056668D01*
X0080451Y0056715D01*
X0080420Y0056760D01*
X0080386Y0056802D01*
X0080348Y0056842D01*
X0080308Y0056880D01*
X0080266Y0056914D01*
X0080221Y0056945D01*
X0080174Y0056973D01*
X0080125Y0056998D01*
X0080074Y0057019D01*
X0080022Y0057036D01*
X0079969Y0057049D01*
X0079915Y0057059D01*
X0079861Y0057065D01*
X0079806Y0057067D01*
X0078783Y0059967D02*
X0077761Y0059967D01*
X0078783Y0059966D02*
X0078838Y0059968D01*
X0078892Y0059974D01*
X0078946Y0059984D01*
X0078999Y0059997D01*
X0079051Y0060014D01*
X0079102Y0060035D01*
X0079151Y0060060D01*
X0079198Y0060088D01*
X0079243Y0060119D01*
X0079285Y0060153D01*
X0079325Y0060191D01*
X0079363Y0060231D01*
X0079397Y0060273D01*
X0079428Y0060318D01*
X0079456Y0060365D01*
X0079481Y0060414D01*
X0079502Y0060465D01*
X0079519Y0060517D01*
X0079532Y0060570D01*
X0079542Y0060624D01*
X0079548Y0060678D01*
X0079550Y0060733D01*
X0079550Y0064567D01*
X0078272Y0064567D01*
X0078217Y0064565D01*
X0078163Y0064559D01*
X0078109Y0064549D01*
X0078056Y0064536D01*
X0078004Y0064519D01*
X0077953Y0064498D01*
X0077904Y0064473D01*
X0077857Y0064445D01*
X0077812Y0064414D01*
X0077770Y0064380D01*
X0077730Y0064342D01*
X0077692Y0064302D01*
X0077658Y0064260D01*
X0077627Y0064215D01*
X0077599Y0064168D01*
X0077574Y0064119D01*
X0077553Y0064068D01*
X0077536Y0064016D01*
X0077523Y0063963D01*
X0077513Y0063909D01*
X0077507Y0063855D01*
X0077505Y0063800D01*
X0077506Y0063800D02*
X0077506Y0062267D01*
X0077505Y0062267D02*
X0077507Y0062212D01*
X0077513Y0062158D01*
X0077523Y0062104D01*
X0077536Y0062051D01*
X0077553Y0061999D01*
X0077574Y0061948D01*
X0077599Y0061899D01*
X0077627Y0061852D01*
X0077658Y0061807D01*
X0077692Y0061765D01*
X0077730Y0061725D01*
X0077770Y0061687D01*
X0077812Y0061653D01*
X0077857Y0061622D01*
X0077904Y0061594D01*
X0077953Y0061569D01*
X0078004Y0061548D01*
X0078056Y0061531D01*
X0078109Y0061518D01*
X0078163Y0061508D01*
X0078217Y0061502D01*
X0078272Y0061500D01*
X0079550Y0061500D01*
X0081579Y0062267D02*
X0081579Y0063544D01*
X0081579Y0063033D02*
X0083623Y0063033D01*
X0083623Y0063544D01*
X0083621Y0063607D01*
X0083615Y0063670D01*
X0083606Y0063732D01*
X0083592Y0063793D01*
X0083575Y0063854D01*
X0083554Y0063913D01*
X0083529Y0063971D01*
X0083501Y0064028D01*
X0083470Y0064082D01*
X0083435Y0064134D01*
X0083397Y0064185D01*
X0083356Y0064233D01*
X0083312Y0064278D01*
X0083266Y0064320D01*
X0083217Y0064360D01*
X0083166Y0064396D01*
X0083112Y0064429D01*
X0083057Y0064459D01*
X0082999Y0064485D01*
X0082941Y0064508D01*
X0082881Y0064527D01*
X0082820Y0064542D01*
X0082758Y0064554D01*
X0082695Y0064562D01*
X0082632Y0064566D01*
X0082570Y0064566D01*
X0082507Y0064562D01*
X0082444Y0064554D01*
X0082382Y0064542D01*
X0082321Y0064527D01*
X0082261Y0064508D01*
X0082203Y0064485D01*
X0082145Y0064459D01*
X0082090Y0064429D01*
X0082036Y0064396D01*
X0081985Y0064360D01*
X0081936Y0064320D01*
X0081890Y0064278D01*
X0081846Y0064233D01*
X0081805Y0064185D01*
X0081767Y0064134D01*
X0081732Y0064082D01*
X0081701Y0064028D01*
X0081673Y0063971D01*
X0081648Y0063913D01*
X0081627Y0063854D01*
X0081610Y0063793D01*
X0081596Y0063732D01*
X0081587Y0063670D01*
X0081581Y0063607D01*
X0081579Y0063544D01*
X0081578Y0062267D02*
X0081580Y0062212D01*
X0081586Y0062158D01*
X0081596Y0062104D01*
X0081609Y0062051D01*
X0081626Y0061999D01*
X0081647Y0061948D01*
X0081672Y0061899D01*
X0081700Y0061852D01*
X0081731Y0061807D01*
X0081765Y0061765D01*
X0081803Y0061725D01*
X0081843Y0061687D01*
X0081885Y0061653D01*
X0081930Y0061622D01*
X0081977Y0061594D01*
X0082026Y0061569D01*
X0082077Y0061548D01*
X0082129Y0061531D01*
X0082182Y0061518D01*
X0082236Y0061508D01*
X0082290Y0061502D01*
X0082345Y0061500D01*
X0083623Y0061500D01*
X0083789Y0070022D02*
X0083789Y0071044D01*
X0083787Y0071107D01*
X0083781Y0071170D01*
X0083772Y0071232D01*
X0083758Y0071293D01*
X0083741Y0071354D01*
X0083720Y0071413D01*
X0083695Y0071471D01*
X0083667Y0071528D01*
X0083636Y0071582D01*
X0083601Y0071634D01*
X0083563Y0071685D01*
X0083522Y0071733D01*
X0083478Y0071778D01*
X0083432Y0071820D01*
X0083383Y0071860D01*
X0083332Y0071896D01*
X0083278Y0071929D01*
X0083223Y0071959D01*
X0083165Y0071985D01*
X0083107Y0072008D01*
X0083047Y0072027D01*
X0082986Y0072042D01*
X0082924Y0072054D01*
X0082861Y0072062D01*
X0082798Y0072066D01*
X0082736Y0072066D01*
X0082673Y0072062D01*
X0082610Y0072054D01*
X0082548Y0072042D01*
X0082487Y0072027D01*
X0082427Y0072008D01*
X0082369Y0071985D01*
X0082311Y0071959D01*
X0082256Y0071929D01*
X0082202Y0071896D01*
X0082151Y0071860D01*
X0082102Y0071820D01*
X0082056Y0071778D01*
X0082012Y0071733D01*
X0081971Y0071685D01*
X0081933Y0071634D01*
X0081898Y0071582D01*
X0081867Y0071528D01*
X0081839Y0071471D01*
X0081814Y0071413D01*
X0081793Y0071354D01*
X0081776Y0071293D01*
X0081762Y0071232D01*
X0081753Y0071170D01*
X0081747Y0071107D01*
X0081745Y0071044D01*
X0081744Y0071044D02*
X0081744Y0070022D01*
X0081745Y0070022D02*
X0081747Y0069959D01*
X0081753Y0069896D01*
X0081762Y0069834D01*
X0081776Y0069773D01*
X0081793Y0069712D01*
X0081814Y0069653D01*
X0081839Y0069595D01*
X0081867Y0069538D01*
X0081898Y0069484D01*
X0081933Y0069432D01*
X0081971Y0069381D01*
X0082012Y0069333D01*
X0082056Y0069288D01*
X0082102Y0069246D01*
X0082151Y0069206D01*
X0082202Y0069170D01*
X0082256Y0069137D01*
X0082311Y0069107D01*
X0082369Y0069081D01*
X0082427Y0069058D01*
X0082487Y0069039D01*
X0082548Y0069024D01*
X0082610Y0069012D01*
X0082673Y0069004D01*
X0082736Y0069000D01*
X0082798Y0069000D01*
X0082861Y0069004D01*
X0082924Y0069012D01*
X0082986Y0069024D01*
X0083047Y0069039D01*
X0083107Y0069058D01*
X0083165Y0069081D01*
X0083223Y0069107D01*
X0083278Y0069137D01*
X0083332Y0069170D01*
X0083383Y0069206D01*
X0083432Y0069246D01*
X0083478Y0069288D01*
X0083522Y0069333D01*
X0083563Y0069381D01*
X0083601Y0069432D01*
X0083636Y0069484D01*
X0083667Y0069538D01*
X0083695Y0069595D01*
X0083720Y0069653D01*
X0083741Y0069712D01*
X0083758Y0069773D01*
X0083772Y0069834D01*
X0083781Y0069896D01*
X0083787Y0069959D01*
X0083789Y0070022D01*
X0085703Y0069767D02*
X0085703Y0073600D01*
X0088044Y0071044D02*
X0088044Y0070022D01*
X0088045Y0070022D02*
X0088047Y0069959D01*
X0088053Y0069896D01*
X0088062Y0069834D01*
X0088076Y0069773D01*
X0088093Y0069712D01*
X0088114Y0069653D01*
X0088139Y0069595D01*
X0088167Y0069538D01*
X0088198Y0069484D01*
X0088233Y0069432D01*
X0088271Y0069381D01*
X0088312Y0069333D01*
X0088356Y0069288D01*
X0088402Y0069246D01*
X0088451Y0069206D01*
X0088502Y0069170D01*
X0088556Y0069137D01*
X0088611Y0069107D01*
X0088669Y0069081D01*
X0088727Y0069058D01*
X0088787Y0069039D01*
X0088848Y0069024D01*
X0088910Y0069012D01*
X0088973Y0069004D01*
X0089036Y0069000D01*
X0089098Y0069000D01*
X0089161Y0069004D01*
X0089224Y0069012D01*
X0089286Y0069024D01*
X0089347Y0069039D01*
X0089407Y0069058D01*
X0089465Y0069081D01*
X0089523Y0069107D01*
X0089578Y0069137D01*
X0089632Y0069170D01*
X0089683Y0069206D01*
X0089732Y0069246D01*
X0089778Y0069288D01*
X0089822Y0069333D01*
X0089863Y0069381D01*
X0089901Y0069432D01*
X0089936Y0069484D01*
X0089967Y0069538D01*
X0089995Y0069595D01*
X0090020Y0069653D01*
X0090041Y0069712D01*
X0090058Y0069773D01*
X0090072Y0069834D01*
X0090081Y0069896D01*
X0090087Y0069959D01*
X0090089Y0070022D01*
X0090089Y0071044D01*
X0090087Y0071107D01*
X0090081Y0071170D01*
X0090072Y0071232D01*
X0090058Y0071293D01*
X0090041Y0071354D01*
X0090020Y0071413D01*
X0089995Y0071471D01*
X0089967Y0071528D01*
X0089936Y0071582D01*
X0089901Y0071634D01*
X0089863Y0071685D01*
X0089822Y0071733D01*
X0089778Y0071778D01*
X0089732Y0071820D01*
X0089683Y0071860D01*
X0089632Y0071896D01*
X0089578Y0071929D01*
X0089523Y0071959D01*
X0089465Y0071985D01*
X0089407Y0072008D01*
X0089347Y0072027D01*
X0089286Y0072042D01*
X0089224Y0072054D01*
X0089161Y0072062D01*
X0089098Y0072066D01*
X0089036Y0072066D01*
X0088973Y0072062D01*
X0088910Y0072054D01*
X0088848Y0072042D01*
X0088787Y0072027D01*
X0088727Y0072008D01*
X0088669Y0071985D01*
X0088611Y0071959D01*
X0088556Y0071929D01*
X0088502Y0071896D01*
X0088451Y0071860D01*
X0088402Y0071820D01*
X0088356Y0071778D01*
X0088312Y0071733D01*
X0088271Y0071685D01*
X0088233Y0071634D01*
X0088198Y0071582D01*
X0088167Y0071528D01*
X0088139Y0071471D01*
X0088114Y0071413D01*
X0088093Y0071354D01*
X0088076Y0071293D01*
X0088062Y0071232D01*
X0088053Y0071170D01*
X0088047Y0071107D01*
X0088045Y0071044D01*
X0086470Y0069000D02*
X0086415Y0069002D01*
X0086361Y0069008D01*
X0086307Y0069018D01*
X0086254Y0069031D01*
X0086202Y0069048D01*
X0086151Y0069069D01*
X0086102Y0069094D01*
X0086055Y0069122D01*
X0086010Y0069153D01*
X0085968Y0069187D01*
X0085928Y0069225D01*
X0085890Y0069265D01*
X0085856Y0069307D01*
X0085825Y0069352D01*
X0085797Y0069399D01*
X0085772Y0069448D01*
X0085751Y0069499D01*
X0085734Y0069551D01*
X0085721Y0069604D01*
X0085711Y0069658D01*
X0085705Y0069712D01*
X0085703Y0069767D01*
X0092003Y0069767D02*
X0092003Y0073600D01*
X0094494Y0072067D02*
X0094494Y0069767D01*
X0094496Y0069712D01*
X0094502Y0069658D01*
X0094512Y0069604D01*
X0094525Y0069551D01*
X0094542Y0069499D01*
X0094563Y0069448D01*
X0094588Y0069399D01*
X0094616Y0069352D01*
X0094647Y0069307D01*
X0094681Y0069265D01*
X0094719Y0069225D01*
X0094759Y0069187D01*
X0094801Y0069153D01*
X0094846Y0069122D01*
X0094893Y0069094D01*
X0094942Y0069069D01*
X0094993Y0069048D01*
X0095045Y0069031D01*
X0095098Y0069018D01*
X0095152Y0069008D01*
X0095206Y0069002D01*
X0095261Y0069000D01*
X0096539Y0069000D01*
X0096539Y0072067D01*
X0092770Y0069000D02*
X0092715Y0069002D01*
X0092661Y0069008D01*
X0092607Y0069018D01*
X0092554Y0069031D01*
X0092502Y0069048D01*
X0092451Y0069069D01*
X0092402Y0069094D01*
X0092355Y0069122D01*
X0092310Y0069153D01*
X0092268Y0069187D01*
X0092228Y0069225D01*
X0092190Y0069265D01*
X0092156Y0069307D01*
X0092125Y0069352D01*
X0092097Y0069399D01*
X0092072Y0069448D01*
X0092051Y0069499D01*
X0092034Y0069551D01*
X0092021Y0069604D01*
X0092011Y0069658D01*
X0092005Y0069712D01*
X0092003Y0069767D01*
X0078783Y0071044D02*
X0077506Y0071044D01*
X0078783Y0071044D02*
X0078853Y0071046D01*
X0078924Y0071052D01*
X0078993Y0071061D01*
X0079062Y0071075D01*
X0079131Y0071092D01*
X0079198Y0071113D01*
X0079264Y0071138D01*
X0079328Y0071166D01*
X0079391Y0071198D01*
X0079452Y0071233D01*
X0079511Y0071272D01*
X0079568Y0071313D01*
X0079622Y0071358D01*
X0079674Y0071406D01*
X0079723Y0071456D01*
X0079770Y0071510D01*
X0079813Y0071565D01*
X0079853Y0071623D01*
X0079890Y0071683D01*
X0079923Y0071745D01*
X0079953Y0071809D01*
X0079980Y0071874D01*
X0080003Y0071940D01*
X0080022Y0072008D01*
X0080037Y0072077D01*
X0080049Y0072146D01*
X0080057Y0072216D01*
X0080061Y0072287D01*
X0080061Y0072357D01*
X0080057Y0072428D01*
X0080049Y0072498D01*
X0080037Y0072567D01*
X0080022Y0072636D01*
X0080003Y0072704D01*
X0079980Y0072770D01*
X0079953Y0072835D01*
X0079923Y0072899D01*
X0079890Y0072961D01*
X0079853Y0073021D01*
X0079813Y0073079D01*
X0079770Y0073134D01*
X0079723Y0073188D01*
X0079674Y0073238D01*
X0079622Y0073286D01*
X0079568Y0073331D01*
X0079511Y0073372D01*
X0079452Y0073411D01*
X0079391Y0073446D01*
X0079328Y0073478D01*
X0079264Y0073506D01*
X0079198Y0073531D01*
X0079131Y0073552D01*
X0079062Y0073569D01*
X0078993Y0073583D01*
X0078924Y0073592D01*
X0078853Y0073598D01*
X0078783Y0073600D01*
X0077506Y0073600D01*
X0077506Y0069000D01*
X0093493Y0057067D02*
X0095026Y0057067D01*
X0095026Y0056556D01*
X0093493Y0057067D02*
X0093493Y0054000D01*
X0269073Y0229000D02*
X0269073Y0233600D01*
X0270351Y0233600D01*
X0270421Y0233598D01*
X0270492Y0233592D01*
X0270561Y0233583D01*
X0270630Y0233569D01*
X0270699Y0233552D01*
X0270766Y0233531D01*
X0270832Y0233506D01*
X0270896Y0233478D01*
X0270959Y0233446D01*
X0271020Y0233411D01*
X0271079Y0233372D01*
X0271136Y0233331D01*
X0271190Y0233286D01*
X0271242Y0233238D01*
X0271291Y0233188D01*
X0271338Y0233134D01*
X0271381Y0233079D01*
X0271421Y0233021D01*
X0271458Y0232961D01*
X0271491Y0232899D01*
X0271521Y0232835D01*
X0271548Y0232770D01*
X0271571Y0232704D01*
X0271590Y0232636D01*
X0271605Y0232567D01*
X0271617Y0232498D01*
X0271625Y0232428D01*
X0271629Y0232357D01*
X0271629Y0232287D01*
X0271625Y0232216D01*
X0271617Y0232146D01*
X0271605Y0232077D01*
X0271590Y0232008D01*
X0271571Y0231940D01*
X0271548Y0231874D01*
X0271521Y0231809D01*
X0271491Y0231745D01*
X0271458Y0231683D01*
X0271421Y0231623D01*
X0271381Y0231565D01*
X0271338Y0231510D01*
X0271291Y0231456D01*
X0271242Y0231406D01*
X0271190Y0231358D01*
X0271136Y0231313D01*
X0271079Y0231272D01*
X0271020Y0231233D01*
X0270959Y0231198D01*
X0270896Y0231166D01*
X0270832Y0231138D01*
X0270766Y0231113D01*
X0270699Y0231092D01*
X0270630Y0231075D01*
X0270561Y0231061D01*
X0270492Y0231052D01*
X0270421Y0231046D01*
X0270351Y0231044D01*
X0269073Y0231044D01*
X0270607Y0231044D02*
X0271629Y0229000D01*
X0274822Y0229000D02*
X0276100Y0233600D01*
X0273544Y0233600D01*
X0273544Y0233089D01*
D15*
X0268800Y0230800D02*
X0268800Y0229800D01*
X0259300Y0229800D01*
X0259300Y0230800D01*
X0258800Y0207800D02*
X0258800Y0206800D01*
X0258800Y0207800D02*
X0268800Y0207800D01*
X0268800Y0206800D01*
X0268800Y0200800D02*
X0268800Y0199800D01*
X0259300Y0199800D01*
X0259300Y0200800D01*
X0258800Y0177800D02*
X0258800Y0176800D01*
X0258800Y0177800D02*
X0268800Y0177800D01*
X0268800Y0176800D01*
X0276591Y0150410D02*
X0248591Y0150410D01*
X0232591Y0150410D02*
X0228591Y0150410D01*
X0222591Y0150410D02*
X0204591Y0150410D01*
X0204591Y0123410D01*
X0276591Y0123410D01*
X0276591Y0150410D01*
D16*
X0263800Y0166300D03*
D17*
X0261733Y0168564D03*
D18*
X0270237Y0116560D02*
X0272337Y0110260D01*
X0274437Y0116560D01*
X0276741Y0115160D02*
X0278491Y0116560D01*
X0278491Y0110260D01*
X0276741Y0110260D02*
X0280241Y0110260D01*
X0267438Y0112885D02*
X0265513Y0113935D01*
X0266213Y0116560D02*
X0266312Y0116558D01*
X0266412Y0116552D01*
X0266510Y0116543D01*
X0266609Y0116530D01*
X0266707Y0116513D01*
X0266804Y0116493D01*
X0266900Y0116468D01*
X0266996Y0116441D01*
X0267090Y0116409D01*
X0267183Y0116374D01*
X0267275Y0116336D01*
X0267365Y0116294D01*
X0267453Y0116249D01*
X0267540Y0116200D01*
X0267625Y0116148D01*
X0267707Y0116093D01*
X0267788Y0116035D01*
X0265513Y0113935D02*
X0265450Y0113974D01*
X0265390Y0114016D01*
X0265332Y0114062D01*
X0265276Y0114110D01*
X0265223Y0114161D01*
X0265172Y0114215D01*
X0265125Y0114272D01*
X0265080Y0114330D01*
X0265039Y0114391D01*
X0265000Y0114454D01*
X0264965Y0114520D01*
X0264934Y0114586D01*
X0264906Y0114655D01*
X0264881Y0114724D01*
X0264861Y0114795D01*
X0264844Y0114867D01*
X0264830Y0114939D01*
X0264821Y0115013D01*
X0264815Y0115086D01*
X0264813Y0115160D01*
X0264815Y0115233D01*
X0264821Y0115306D01*
X0264830Y0115379D01*
X0264844Y0115451D01*
X0264861Y0115522D01*
X0264882Y0115593D01*
X0264906Y0115662D01*
X0264934Y0115729D01*
X0264966Y0115796D01*
X0265001Y0115860D01*
X0265039Y0115922D01*
X0265080Y0115983D01*
X0265125Y0116041D01*
X0265173Y0116097D01*
X0265223Y0116150D01*
X0265276Y0116200D01*
X0265332Y0116248D01*
X0265390Y0116293D01*
X0265451Y0116334D01*
X0265513Y0116372D01*
X0265577Y0116407D01*
X0265644Y0116439D01*
X0265711Y0116467D01*
X0265780Y0116491D01*
X0265851Y0116512D01*
X0265922Y0116529D01*
X0265994Y0116543D01*
X0266067Y0116552D01*
X0266140Y0116558D01*
X0266213Y0116560D01*
X0264638Y0111135D02*
X0264714Y0111061D01*
X0264792Y0110990D01*
X0264874Y0110921D01*
X0264957Y0110856D01*
X0265043Y0110794D01*
X0265131Y0110734D01*
X0265221Y0110678D01*
X0265313Y0110626D01*
X0265407Y0110576D01*
X0265503Y0110530D01*
X0265600Y0110488D01*
X0265699Y0110448D01*
X0265799Y0110413D01*
X0265900Y0110381D01*
X0266003Y0110353D01*
X0266106Y0110328D01*
X0266210Y0110307D01*
X0266315Y0110290D01*
X0266420Y0110277D01*
X0266526Y0110268D01*
X0266632Y0110262D01*
X0266738Y0110260D01*
X0266811Y0110262D01*
X0266884Y0110268D01*
X0266957Y0110277D01*
X0267029Y0110291D01*
X0267100Y0110308D01*
X0267171Y0110329D01*
X0267240Y0110353D01*
X0267307Y0110381D01*
X0267374Y0110413D01*
X0267438Y0110448D01*
X0267500Y0110486D01*
X0267561Y0110527D01*
X0267619Y0110572D01*
X0267675Y0110620D01*
X0267728Y0110670D01*
X0267778Y0110723D01*
X0267826Y0110779D01*
X0267871Y0110837D01*
X0267912Y0110898D01*
X0267950Y0110960D01*
X0267985Y0111024D01*
X0268017Y0111091D01*
X0268045Y0111158D01*
X0268069Y0111227D01*
X0268090Y0111298D01*
X0268107Y0111369D01*
X0268121Y0111441D01*
X0268130Y0111514D01*
X0268136Y0111587D01*
X0268138Y0111660D01*
X0268139Y0111660D02*
X0268137Y0111734D01*
X0268131Y0111807D01*
X0268122Y0111881D01*
X0268108Y0111953D01*
X0268091Y0112025D01*
X0268071Y0112096D01*
X0268046Y0112165D01*
X0268018Y0112234D01*
X0267987Y0112300D01*
X0267952Y0112366D01*
X0267913Y0112429D01*
X0267872Y0112490D01*
X0267827Y0112548D01*
X0267780Y0112605D01*
X0267729Y0112659D01*
X0267676Y0112710D01*
X0267620Y0112758D01*
X0267562Y0112804D01*
X0267502Y0112846D01*
X0267439Y0112885D01*
M02*
